<?xml version="1.0" encoding="UTF-8"?>
<svg id="Ebene_1" data-name="Ebene 1" xmlns="http://www.w3.org/2000/svg" viewBox="0 0 4321.01 2010.41">
  <defs>
    <style>
      .cls-1 {
        fill: #e40428;
        stroke-width: 0px;
      }
    </style>
  </defs>
  <path class="cls-1" d="m281.95,187.99c7.08,16.43,16.81,30.75,29.16,42.98,12.35,12.19,26.82,21.87,43.38,28.91,16.58,7.1,34.25,10.62,53.02,10.62s36.36-3.52,52.82-10.62c16.47-7.04,30.82-16.72,43.04-28.91,12.24-12.23,21.9-26.55,29-42.98,7.08-16.44,10.62-33.99,10.62-52.73s-3.54-36.31-10.62-52.74c-7.1-16.44-16.76-30.78-29-42.97-12.22-12.22-26.57-21.87-43.04-28.97-16.46-7.04-34.07-10.59-52.82-10.59s-36.44,3.55-53.02,10.59c-16.56,7.1-31.03,16.75-43.38,28.97-12.35,12.19-22.07,26.53-29.16,42.97-7.1,16.43-10.64,34.01-10.64,52.74s3.54,36.29,10.64,52.73h0Zm-146.47,869.45h544.36c18.75,0,36.4-3.5,53-10.6,16.56-7.11,30.97-16.73,43.21-28.99,12.22-12.17,21.9-26.49,28.98-42.94,7.08-16.41,10.64-34.03,10.64-52.78v-298.92H189.68v-81.17h625.99v-54.09c0-18.7-3.55-36.31-10.64-52.74-7.08-16.45-16.76-30.75-28.98-42.97-12.24-12.22-26.65-21.86-43.21-28.94-16.59-7.07-34.25-10.62-53-10.62H135.48c-18.75,0-36.36,3.55-52.82,10.62-16.47,7.08-30.82,16.72-43.04,28.94-12.25,12.22-21.92,26.52-29,42.97-7.08,16.43-10.62,34.04-10.62,52.74v298.61h624.61v81.46H0v54.11c0,18.75,3.54,36.37,10.62,52.78,7.08,16.44,16.75,30.77,29,42.94,12.22,12.26,26.57,21.88,43.04,28.99,16.45,7.09,34.06,10.6,52.82,10.6h0Z"/>
  <g>
    <path class="cls-1" d="m1199.67,1024.62l19.85-56.31c6.64,3.42,17.36,7.53,32.14,12.32,14.75,4.79,30.6,8.56,47.58,11.3,16.94,2.74,32.73,4.11,47.41,4.11,29.58,0,52.65-4.28,69.15-12.84s26.97-19.1,31.42-31.66c4.45-12.56,6.68-24.54,6.68-35.98,0-19.17-6.26-34.64-18.79-46.42-12.53-11.74-27.62-21.12-45.25-28.07-17.66-6.98-33.65-13.21-47.99-18.69-13.66-4.79-26.63-9.82-38.92-15.06-12.25-5.24-24.65-12.05-37.14-20.37-12.53-8.35-23.07-18.28-31.66-29.82-8.63-11.54-14.27-23.07-17.05-34.61-2.74-11.5-4.14-23.69-4.14-36.46,0-20.56,3.9-39.16,11.67-55.81,7.8-16.67,18.9-30.83,33.31-42.46,14.41-11.64,31.97-20.61,52.68-26.87,20.71-6.28,43.99-9.41,69.87-9.41,19.51,0,37.69,1.11,54.5,3.34,16.81,2.23,30.77,4.84,41.93,7.87,11.13,3.03,19.03,5.17,23.65,6.42l-.14,62.46c-11.81-3.35-24.41-6.93-37.79-10.73-13.35-3.8-27.15-6.62-41.32-8.44-14.21-1.83-28.14-2.74-41.76-2.74-30.43,0-54.12,6.28-71.06,18.83-16.91,12.56-25.37,30.6-25.37,54.12,0,11.86,2.67,21.93,8.01,30.14,5.37,8.22,12.94,15.47,22.73,21.77,9.79,6.26,21.39,12.05,34.85,17.29,13.42,5.24,28.21,10.75,44.4,16.43,17.73,6.64,34.88,13.59,51.42,20.92,16.5,7.29,31.01,16.36,43.54,27.21,12.49,10.85,22.52,24.17,30.09,39.91,7.57,15.75,11.36,35.29,11.36,58.57s-3.94,42.58-11.84,60.11c-7.87,17.53-19.34,32.28-34.3,44.23-14.99,11.98-33.24,21.02-54.74,27.18-21.53,6.13-46.01,9.21-73.46,9.21-20.37,0-38.99-1.2-55.8-3.56-16.84-2.4-31.87-5.24-45.15-8.52-13.28-3.29-24.51-6.68-33.65-10.2-9.14-3.53-16.12-6.4-20.92-8.69Z"/>
    <path class="cls-1" d="m1617.46,1188.72v-496.22h65.04l1.37,52.34c6.16-11.98,14.82-22.76,26.02-32.35,11.16-9.58,23.65-16.5,37.45-20.78,13.83-4.28,28-6.4,42.62-6.4,32.86,0,60.11,8.69,81.78,26.02,21.67,17.36,36.46,40.22,44.33,68.63,7.87,28.38,11.81,57.17,11.81,86.33s-3.32,56.21-9.93,79.52c-6.61,23.35-16.36,42.99-29.27,58.98-12.87,15.95-28.86,28.14-47.89,36.52-19.07,8.35-40.91,12.56-65.55,12.56-20.06,0-37.41-2.46-52-7.43-14.62-4.93-27.18-11.57-37.65-19.92v162.19h-68.12Zm68.12-221.27c10.27,10.34,21.57,18.48,33.89,24.44,12.29,5.96,26.22,8.93,41.73,8.93,16.43,0,30.88-3.18,43.3-9.62s21.6-14.45,27.56-24.1c5.92-9.62,10.37-19.14,13.35-28.55,3.18-10.3,5.58-21.43,7.19-33.38,1.57-11.91,2.4-24.41,2.4-37.48,0-28.21-3.42-52.03-10.27-71.41-6.85-19.37-16.91-33.03-30.12-40.94-13.25-7.91-27.62-11.88-43.13-11.88-13.69,0-25.88,3.29-36.63,9.82-10.71,6.54-19.72,15.64-27.01,27.35-7.33,11.71-12.84,25.67-16.6,41.97s-5.65,34.06-5.65,53.33v91.5Z"/>
    <path class="cls-1" d="m2002.15,946.36c0-27.66,6.13-50.42,18.45-68.36,12.32-17.94,30.47-31.84,54.43-41.66,13.42-5.41,28.55-9.38,45.32-11.95,16.77-2.6,35.53-4.11,56.28-4.59.96,0,3.15-.07,6.71-.17,3.56-.14,7.26-.17,11.09-.17s7.6-.07,11.16-.17c3.49-.1,5.89-.17,6.98-.17v-18.07c0-16.81-3.22-29.78-9.72-38.96-6.5-9.14-16.5-15.4-29.99-18.72-13.42-3.35-27.8-5.03-43.06-5.03-19.17,0-36.76,2.19-52.78,6.57-15.95,4.35-31.49,8.63-46.62,12.73l-.65-58.09c19.34-4.38,33.31-7.57,41.86-9.52,8.56-1.93,19.65-3.22,33.2-3.82,13.56-.62,26.36-.91,38.34-.91,23.62,0,44.16,2.28,61.55,6.85,17.32,4.55,31.63,11.64,42.93,21.22,11.23,9.55,19.58,21.77,24.99,36.59,5.41,14.86,8.08,32.52,8.08,53.06v244h-65.38l-1.37-30.57c-6.85,6.91-15.54,13.21-26.15,18.9-10.61,5.65-22.93,10.13-36.97,13.49-14.03,3.35-27.11,5.03-39.16,5.03-14.86,0-28.96-1.95-42.31-5.85-13.32-3.87-24.95-10.13-34.88-18.72-9.93-8.56-17.8-19.68-23.62-33.31s-8.69-30.16-8.69-49.64Zm68.09-2.7c0,11.57,2.4,22.08,7.19,31.49s11.98,16.05,21.57,19.89c9.58,3.87,20.06,5.79,31.49,5.79,12.05,0,24.24-1.92,36.42-5.79,12.19-3.83,21.84-8.22,28.89-13.11,7.12-4.86,12.67-9.45,16.77-13.76v-95.68h-25.33c-19.85,0-37.04,1.2-51.62,3.59-14.65,2.4-26.77,6.4-36.49,12.08-9.65,5.68-16.91,13.04-21.7,22.11-4.79,9.11-7.19,20.2-7.19,33.38Z"/>
    <path class="cls-1" d="m2392.63,1047.04v-354.53h65.01l1.37,62.37c7.98-15.1,17.66-27.66,29.1-37.65,11.4-9.96,23.28-16.94,35.6-20.88,12.29-3.94,24.17-5.9,35.57-5.9s20.54.65,26.7,1.9v59.7c-5.48-1.37-13.59-2.05-24.3-2.05-17.12,0-31.94,3.22-44.47,9.58-12.56,6.37-23.07,14.55-31.49,24.51-8.46,9.96-14.72,20.98-18.83,33.03-4.11,12.08-6.16,23.65-6.16,34.78v195.15h-68.09Z"/>
    <path class="cls-1" d="m2652.72,1047.04v-515.04h68.09v297.74l132.44-137.23h81.78l-149.18,153.32c14.58,12.77,29.3,27.15,44.12,43.1,14.82,15.99,29.27,32.69,43.3,50.15s27.59,35.36,40.74,53.71c13.11,18.38,25.47,36.46,37.11,54.26h-85.2c-14.38-20.54-30.4-42.1-48.09-64.7-17.66-22.56-34.78-43.1-51.31-61.58-16.57-18.48-31.77-34.57-45.7-48.27v174.55h-68.09Z"/>
    <path class="cls-1" d="m2983.97,946.36c0-27.66,6.16-50.42,18.48-68.36,12.32-17.94,30.43-31.84,54.39-41.66,13.45-5.41,28.58-9.38,45.36-11.95,16.77-2.6,35.53-4.11,56.28-4.59.92,0,3.15-.07,6.68-.17,3.56-.14,7.26-.17,11.13-.17s7.6-.07,11.13-.17,5.89-.17,7.02-.17v-18.07c0-16.81-3.25-29.78-9.76-38.96-6.5-9.14-16.47-15.4-29.95-18.72-13.45-3.35-27.83-5.03-43.1-5.03-19.17,0-36.76,2.19-52.75,6.57-15.99,4.35-31.53,8.63-46.62,12.73l-.68-58.09c19.34-4.38,33.31-7.57,41.86-9.52,8.59-1.93,19.65-3.22,33.24-3.82,13.56-.62,26.32-.91,38.3-.91,23.65,0,44.19,2.28,61.55,6.85,17.36,4.55,31.66,11.64,42.93,21.22,11.26,9.55,19.58,21.77,24.99,36.59,5.41,14.86,8.11,32.52,8.11,53.06v244h-65.38l-1.37-30.57c-6.85,6.91-15.58,13.21-26.19,18.9-10.61,5.65-22.9,10.13-36.94,13.49-14.03,3.35-27.11,5.03-39.19,5.03-14.82,0-28.93-1.95-42.28-5.85-13.35-3.87-24.99-10.13-34.88-18.72-9.93-8.56-17.8-19.68-23.62-33.31s-8.73-30.16-8.73-49.64Zm68.09-2.7c0,11.57,2.4,22.08,7.19,31.49s11.98,16.05,21.57,19.89c9.58,3.87,20.06,5.79,31.49,5.79,12.08,0,24.24-1.92,36.42-5.79,12.22-3.83,21.87-8.22,28.93-13.11,7.09-4.86,12.67-9.45,16.77-13.76v-95.68h-25.33c-19.85,0-37.07,1.2-51.66,3.59-14.62,2.4-26.77,6.4-36.46,12.08-9.69,5.68-16.94,13.04-21.74,22.11-4.79,9.11-7.19,20.2-7.19,33.38Z"/>
    <path class="cls-1" d="m3347.03,1030.2l18.14-50.77c11.81,4.83,22.52,8.69,32.11,11.57,9.55,2.88,20.64,5.24,33.31,7.09,12.63,1.81,25.33,2.74,38.07,2.74,20.61,0,37-2.36,49.26-7.12s20.26-11.09,24.03-19c3.77-7.87,5.65-15.64,5.65-23.31,0-12.53-4.72-22.56-14.17-30.12-9.45-7.53-21.33-13.66-35.7-18.35-14.34-4.66-27.59-9-39.78-12.97-14.38-4.83-27.66-9.86-39.88-15.13-12.19-5.27-22.8-11.71-31.84-19.27-9-7.57-16.02-16.74-21.02-27.52-5.03-10.78-7.53-24-7.53-39.61,0-16.57,3.12-31.29,9.38-44.23,6.26-12.94,15.1-23.72,26.5-32.35,11.4-8.59,25.19-15.2,41.35-19.75,16.19-4.52,34.06-6.78,53.67-6.78,23.41,0,43.71,1.34,60.93,4.02s32.35,5.94,45.42,9.74v55.52c-14.92-5.07-30.67-9.04-47.34-11.91-16.64-2.88-34.92-4.35-54.91-4.35-23.55,0-40.94,3.73-52.17,11.13-11.19,7.43-16.81,18.69-16.81,33.75,0,7.63,2.02,14.14,6.02,19.48,4.04,5.31,9.72,10.06,17.08,14.24,7.33,4.18,16.36,8.01,27.04,11.5,10.65,3.53,22.52,7.43,35.6,11.71,27.59,8.49,49.26,17.42,65.01,26.8s26.91,21.05,33.48,35.02c6.54,13.97,9.82,29.2,9.82,45.7,0,17.87-3.46,33.48-10.34,46.83-6.88,13.35-16.64,24.44-29.27,33.27-12.63,8.8-27.83,15.37-45.63,19.68-17.8,4.28-37.59,6.44-59.39,6.44-15.95,0-30.6-.82-43.92-2.5-13.32-1.68-25.3-3.73-35.87-6.16-10.61-2.46-19.75-5.03-27.52-7.7-7.74-2.67-14-5.1-18.79-7.33Z"/>
    <path class="cls-1" d="m3675.92,1030.2l18.14-50.77c11.81,4.83,22.52,8.69,32.11,11.57,9.55,2.88,20.64,5.24,33.31,7.09,12.63,1.81,25.33,2.74,38.07,2.74,20.61,0,37-2.36,49.26-7.12s20.26-11.09,24.03-19c3.77-7.87,5.65-15.64,5.65-23.31,0-12.53-4.72-22.56-14.17-30.12-9.45-7.53-21.33-13.66-35.7-18.35-14.34-4.66-27.59-9-39.78-12.97-14.38-4.83-27.66-9.86-39.88-15.13-12.19-5.27-22.8-11.71-31.84-19.27-9-7.57-16.02-16.74-21.02-27.52-5.03-10.78-7.53-24-7.53-39.61,0-16.57,3.12-31.29,9.38-44.23s15.1-23.72,26.5-32.35c11.4-8.59,25.19-15.2,41.35-19.75,16.19-4.52,34.06-6.78,53.67-6.78,23.41,0,43.71,1.34,60.93,4.02s32.35,5.94,45.42,9.74v55.52c-14.92-5.07-30.67-9.04-47.34-11.91-16.64-2.88-34.92-4.35-54.91-4.35-23.55,0-40.94,3.73-52.17,11.13-11.19,7.43-16.81,18.69-16.81,33.75,0,7.63,2.02,14.14,6.02,19.48,4.04,5.31,9.72,10.06,17.08,14.24,7.33,4.18,16.36,8.01,27.04,11.5,10.65,3.53,22.52,7.43,35.6,11.71,27.59,8.49,49.26,17.42,65.01,26.8s26.91,21.05,33.48,35.02c6.54,13.97,9.82,29.2,9.82,45.7,0,17.87-3.46,33.48-10.34,46.83-6.88,13.35-16.64,24.44-29.27,33.27-12.63,8.8-27.83,15.37-45.63,19.68-17.8,4.28-37.59,6.44-59.39,6.44-15.95,0-30.6-.82-43.92-2.5-13.32-1.68-25.3-3.73-35.87-6.16-10.61-2.46-19.75-5.03-27.52-7.7-7.74-2.67-14-5.1-18.79-7.33Z"/>
    <path class="cls-1" d="m4021.59,868.76c0-27.35,3.39-52.41,10.24-75.1,6.81-22.73,16.81-42.24,30.02-58.5,13.18-16.29,29.54-28.89,49.12-37.83,19.55-8.93,41.93-13.38,67.2-13.38,47.27,0,82.91,13.97,106.87,41.86,24,27.93,35.98,67.91,35.98,119.95,0,17.08-.45,32.04-1.37,44.88h-226.54c2.74,36.15,12.8,63.84,30.19,83.08,17.36,19.24,43.1,28.82,77.16,28.82,15.78,0,31.08-1.1,45.94-3.29,14.82-2.16,27.86-4.9,39.06-8.11l13.35,51.35c-14.86,4.48-30.91,7.8-48.16,9.93-17.25,2.12-37.28,3.18-60.11,3.18-26.87,0-50.77-4.38-71.68-13.11-20.92-8.76-38.61-21.26-53.06-37.48-14.45-16.23-25.43-35.87-32.93-58.88-7.53-23.04-11.26-48.81-11.26-77.36Zm70.14-31.15h157.77v-15.03c0-27.25-5.89-48.33-17.66-63.23-11.78-14.92-30.23-22.39-55.39-22.39-26.53,0-46.76,8.87-60.73,26.53-13.93,17.66-21.94,42.38-24,74.11Z"/>
  </g>
  <g>
    <path class="cls-1" d="m1243.76,1861.88v-486.97h148.39c38.89,0,71.1,6.5,96.7,19.55,25.57,13.04,42.96,30.5,52.17,52.34s13.83,44.43,13.83,67.74c0,18.14-2.91,36.35-8.73,54.6-5.79,18.28-15.44,34.68-28.86,49.26-13.45,14.58-31.05,26.5-52.82,35.67-21.74,9.17-48.57,13.76-80.48,13.76h-72.09v194.06h-68.12Zm68.12-252.22h65.48c18.07,0,33.65-2.16,46.79-6.47,13.14-4.31,24.03-10.47,32.59-18.42s14.92-17.56,19.03-28.82c4.11-11.23,6.16-23.89,6.16-38,0-23.17-4.86-41.25-14.55-54.19-9.72-12.97-22.87-21.33-39.43-25.06-16.6-3.77-33.44-5.65-50.59-5.65h-65.48v176.6Z"/>
    <path class="cls-1" d="m1645.53,1861.88v-354.53h65.04l1.37,62.37c7.98-15.1,17.66-27.66,29.1-37.65,11.4-9.96,23.24-16.94,35.57-20.88,12.32-3.94,24.2-5.89,35.6-5.89s20.54.62,26.7,1.88v59.7c-5.48-1.37-13.59-2.05-24.3-2.05-17.12,0-31.94,3.22-44.5,9.58-12.53,6.37-23.04,14.55-31.46,24.51-8.46,9.96-14.72,20.98-18.83,33.03-4.11,12.08-6.16,23.65-6.16,34.78v195.15h-68.12Z"/>
    <path class="cls-1" d="m1869.02,1761.2c0-27.66,6.13-50.42,18.45-68.36s30.47-31.84,54.43-41.66c13.45-5.41,28.58-9.38,45.36-11.95,16.74-2.6,35.53-4.11,56.28-4.59.89,0,3.15-.07,6.64-.17,3.56-.14,7.26-.17,11.16-.17s7.6-.07,11.09-.17c3.56-.1,5.89-.17,7.05-.17v-18.07c0-16.81-3.29-29.78-9.79-38.96-6.5-9.14-16.43-15.4-29.92-18.72-13.45-3.35-27.83-5.03-43.1-5.03-19.17,0-36.76,2.19-52.75,6.57-15.99,4.35-31.53,8.63-46.66,12.73l-.65-58.09c19.34-4.38,33.31-7.57,41.86-9.52s19.65-3.22,33.2-3.83c13.59-.58,26.36-.89,38.3-.89,23.69,0,44.23,2.26,61.55,6.85,17.39,4.55,31.7,11.64,42.93,21.22,11.3,9.55,19.58,21.77,24.99,36.59,5.41,14.86,8.15,32.52,8.15,53.06v244h-65.38l-1.37-30.57c-6.85,6.91-15.61,13.21-26.22,18.9-10.58,5.65-22.9,10.13-36.94,13.49s-27.08,5.03-39.16,5.03c-14.86,0-28.93-1.95-42.28-5.85-13.35-3.87-24.99-10.13-34.92-18.72-9.93-8.56-17.8-19.68-23.62-33.31-5.82-13.62-8.69-30.16-8.69-49.64Zm68.09-2.7c0,11.57,2.4,22.08,7.19,31.49s11.98,16.05,21.57,19.89c9.58,3.87,20.06,5.79,31.49,5.79,12.08,0,24.24-1.92,36.42-5.79,12.22-3.83,21.87-8.22,28.93-13.11,7.05-4.86,12.67-9.45,16.77-13.76v-95.68h-25.33c-19.85,0-37.07,1.2-51.69,3.59-14.58,2.4-26.73,6.4-36.42,12.08-9.72,5.68-16.94,13.04-21.74,22.11-4.79,9.11-7.19,20.2-7.19,33.38Z"/>
    <path class="cls-1" d="m2259.5,1861.88v-515.04h68.09v203.88c5.48-9.48,13.52-18.18,24.13-26.15,10.61-7.98,22.93-14.03,36.97-18.18,14-4.14,28-6.23,41.9-6.23,22.15,0,41.86,4.01,59.22,12.05,17.32,8.04,31.94,19.72,43.78,35.02,11.88,15.27,20.88,34.2,27.04,56.69,6.16,22.52,9.24,48.27,9.24,77.23s-3.42,56.82-10.27,80.03c-6.85,23.24-16.7,42.82-29.58,58.78-12.91,15.99-28.58,28.1-47.07,36.39-18.48,8.25-39.47,12.39-62.99,12.39-22.11,0-40.94-3.42-56.45-10.24-15.54-6.85-28.07-15.3-37.65-25.43l-1.37,28.82h-65.01Zm68.09-87.84c8.66,12.84,19.61,23,32.86,30.47,13.21,7.43,28.41,11.16,45.49,11.16,22.15,0,40.5-6.57,55.11-19.75,14.58-13.21,24.24-30.36,28.93-51.45,4.66-21.09,7.02-41.97,7.02-62.61,0-28-3.39-51.62-10.1-70.89-6.74-19.27-16.77-32.86-30.12-40.77-13.35-7.91-27.76-11.88-43.3-11.88-27.59,0-48.81,10.75-63.64,32.18-14.82,21.46-22.25,52.58-22.25,93.42v90.13Z"/>
    <path class="cls-1" d="m2666.75,1751.69v-244.34h68.09v228.84c0,26.39,5.51,45.39,16.57,56.96,11.02,11.6,27.93,17.39,50.7,17.39,12.53,0,24.24-2.53,35.19-7.67,10.92-5.1,20.4-12.08,28.51-20.95,8.08-8.87,14.38-19.17,18.93-30.88s6.85-24.27,6.85-37.69v-206h68.09v354.53h-66.03l-.68-50.63c-10.47,17.42-25.23,31.36-44.23,41.8-19,10.44-41.49,15.68-67.44,15.68-36.59,0-64.83-9.76-84.72-29.27-19.89-19.51-29.82-48.75-29.82-87.77Z"/>
    <path class="cls-1" d="m3074.65,1861.88v-354.53h65.01l1.37,62.37c7.98-15.1,17.66-27.66,29.1-37.65,11.4-9.96,23.28-16.94,35.6-20.88,12.29-3.94,24.17-5.89,35.57-5.89s20.54.62,26.7,1.88v59.7c-5.48-1.37-13.59-2.05-24.3-2.05-17.12,0-31.94,3.22-44.47,9.58-12.56,6.37-23.07,14.55-31.49,24.51-8.46,9.96-14.72,20.98-18.83,33.03-4.11,12.08-6.16,23.65-6.16,34.78v195.15h-68.09Z"/>
    <path class="cls-1" d="m3309.44,1685.79c0-29.61,3.73-55.97,11.23-79.04,7.5-23.07,17.8-42.48,30.88-58.19,13.04-15.75,28.34-27.73,45.84-36.01,17.53-8.25,36.39-12.39,56.62-12.39,16.67,0,31.66,1.95,44.91,5.89,13.28,3.9,24.13,8.93,32.59,15.03,8.46,6.13,15.1,11.71,19.89,16.77l1.71-30.5h65.69v355.22c0,25.54-3.25,47.1-9.79,64.7-6.54,17.56-16.02,32.49-28.38,44.81-13.32,13.01-30.02,22.66-50.08,28.93-20.09,6.26-43.06,9.41-69.01,9.41s-48.98-1.51-66.99-4.45c-18.01-2.98-32.25-5.72-42.72-8.22l10.17-51.69c30.09,7.53,58.57,11.3,85.51,11.3,35.63,0,61.75-7.33,78.32-21.98,16.6-14.69,24.89-37.24,24.89-67.71v-53.78c-11.67,17.22-25.67,29.88-42,37.93-16.36,8.08-36.32,12.12-59.84,12.12-20.23,0-38.89-3.35-55.93-10.03-17.05-6.68-31.73-17.22-44.12-31.6-12.39-14.41-22.04-32.86-28.99-55.42-6.91-22.56-10.37-49.57-10.37-81.09Zm72.88,0c0,16.5,1.2,32.31,3.59,47.44s6.74,28.41,13.04,39.85c6.3,11.47,14.86,20.61,25.71,27.49s24.65,10.3,41.32,10.3c19.2,0,35.57-5.82,49.05-17.53,13.49-11.67,22.7-26.08,27.59-43.27,4.93-17.18,7.39-34.13,7.39-50.87v-107.21c-7.77-7.57-15.2-13.73-22.28-18.55-7.12-4.83-15.58-8.52-25.4-11.16s-19.65-3.97-29.47-3.97c-13.49,0-25.78,2.88-36.87,8.59-11.09,5.75-20.57,14-28.48,24.75-7.87,10.78-14.03,24.1-18.52,40.05-4.45,15.92-6.68,33.96-6.68,54.09Z"/>
  </g>
</svg>