<?xml version="1.0" encoding="UTF-8"?>
<svg id="Ebene_1" data-name="Ebene 1" xmlns="http://www.w3.org/2000/svg" viewBox="0 0 1928.48 2500.09">
  <defs>
    <style>
      .cls-1 {
        fill: #e40428;
        stroke-width: 0px;
      }
    </style>
  </defs>
  <path class="cls-1" d="m666.61,444.47c16.74,38.84,39.74,72.71,68.93,101.62,29.19,28.81,63.4,51.71,102.56,68.35,39.19,16.79,80.98,25.11,125.35,25.11s85.96-8.32,124.87-25.11c38.93-16.64,72.86-39.53,101.76-68.35,28.93-28.92,51.79-62.78,68.56-101.62,16.74-38.87,25.11-80.37,25.11-124.67s-8.37-85.85-25.11-124.69c-16.78-38.88-39.63-72.78-68.56-101.59-28.9-28.89-62.82-51.7-101.76-68.49-38.91-16.64-80.55-25.03-124.87-25.03s-86.15,8.39-125.35,25.03c-39.15,16.79-73.37,39.6-102.56,68.49-29.19,28.81-52.19,62.71-68.93,101.59-16.78,38.84-25.15,80.41-25.15,124.69s8.37,85.79,25.15,124.67h0Zm-346.29,2055.62h1287.03c44.33,0,86.07-8.28,125.3-25.05,39.16-16.81,73.22-39.56,102.16-68.54,28.9-28.77,51.79-62.64,68.53-101.51,16.75-38.79,25.15-80.46,25.15-124.79v-706.72H448.45v-191.92h1480.02v-127.89c0-44.22-8.4-85.86-25.15-124.7-16.74-38.88-39.63-72.71-68.53-101.59-28.94-28.89-63-51.67-102.16-68.42-39.23-16.71-80.97-25.11-125.3-25.11H320.31c-44.33,0-85.97,8.39-124.87,25.11-38.94,16.75-72.87,39.54-101.77,68.42-28.97,28.88-51.83,62.71-68.56,101.59-16.74,38.84-25.11,80.48-25.11,124.7v706h1476.75v192.6H0v127.93c0,44.33,8.37,85.99,25.11,124.79,16.74,38.88,39.6,72.74,68.56,101.51,28.9,28.97,62.82,51.73,101.77,68.54,38.9,16.77,80.54,25.05,124.87,25.05h0Z"/>
</svg>