<?xml version="1.0" encoding="UTF-8"?>
<svg id="Ebene_1" data-name="Ebene 1" xmlns="http://www.w3.org/2000/svg" viewBox="0 0 4769.6 1670.07">
  <defs>
    <style>
      .cls-1 {
        fill-rule: evenodd;
      }

      .cls-1, .cls-2, .cls-3 {
        stroke-width: 0px;
      }

      .cls-3 {
        fill: none;
      }
    </style>
  </defs>
  <path class="cls-2" d="m1878.32,436.73h163.77c97.05,0,183.99,26.28,183.99,145.57s-95.03,147.6-186.01,147.6h-64.7v161.75h-99.07v-454.92h2.02Zm165.79,214.32c62.68,0,84.92-24.26,84.92-66.72s-22.24-66.72-84.92-66.72h-68.74v133.44h68.74Z"/>
  <path class="cls-2" d="m2266.52,663.17c0-159.73,103.12-234.54,214.32-234.54s212.3,74.81,212.3,234.54-103.12,234.54-212.3,234.54-214.32-74.81-214.32-234.54m327.54,0c0-95.03-44.48-151.64-113.22-151.64s-113.22,56.61-113.22,151.64,42.46,155.68,113.22,155.68c68.74-2.02,113.22-60.66,113.22-155.68"/>
  <polygon class="cls-2" points="2767.95 436.73 2867.02 436.73 2867.02 808.75 3067.18 808.75 3067.18 889.62 2767.95 889.62 2767.95 436.73"/>
  <rect class="cls-2" x="3121.77" y="436.73" width="99.07" height="452.9"/>
  <polygon class="cls-2" points="3305.77 820.88 3542.32 519.62 3321.94 519.62 3321.94 436.73 3667.68 436.73 3667.68 507.49 3437.19 808.75 3667.68 808.75 3667.68 889.62 3305.77 889.62 3305.77 820.88"/>
  <polygon class="cls-2" points="3752.6 436.73 4061.95 436.73 4061.95 519.62 3853.69 519.62 3853.69 616.67 4003.31 616.67 4003.31 695.53 3853.69 695.53 3853.69 808.75 4072.06 808.75 4072.06 889.62 3752.6 889.62 3752.6 436.73"/>
  <rect class="cls-2" x="4173.15" y="436.73" width="99.07" height="452.9"/>
  <polygon class="cls-2" points="1878.32 1023.07 1924.82 1023.07 2013.79 1158.53 2013.79 1158.53 2013.79 1023.07 2056.25 1023.07 2056.25 1235.37 2013.79 1235.37 1920.78 1097.88 1920.78 1097.88 1920.78 1235.37 1878.32 1235.37 1878.32 1023.07"/>
  <path class="cls-2" d="m2090.62,1158.53c0-60.66,40.44-78.85,78.85-78.85,36.39,0,78.85,20.22,78.85,78.85s-40.44,78.85-78.85,78.85c-36.39,2.02-78.85-18.2-78.85-78.85m111.2,0c0-26.28-8.09-46.5-32.35-46.5-22.24,0-32.35,18.2-32.35,46.5,0,26.28,8.09,46.5,32.35,46.5,22.24,2.02,32.35-18.2,32.35-46.5"/>
  <path class="cls-2" d="m2276.63,1081.7h46.5v26.28h0c8.09-12.13,22.24-28.31,52.57-28.31h2.02v40.44h-12.13c-18.2,0-32.35,10.11-40.44,20.22v95.03h-46.5v-153.66h-2.02Z"/>
  <path class="cls-2" d="m2387.83,1160.56c0-52.57,24.26-80.88,58.63-80.88,20.22,0,36.39,8.09,46.5,22.24v-78.85h46.5v175.9c0,18.2,2.02,30.33,4.04,36.39h-46.5c-2.02-4.04-4.04-16.17-4.04-22.24-10.11,14.15-24.26,26.28-46.5,26.28-34.37-2.02-58.63-26.28-58.63-78.85m105.14,28.31v-56.61c-10.11-10.11-18.2-14.15-30.33-14.15-20.22,0-28.31,14.15-28.31,42.46,0,26.28,10.11,42.46,30.33,42.46,10.11,0,20.22-8.09,28.31-14.15"/>
  <path class="cls-2" d="m2577.89,1081.7h46.5v26.28h0c8.09-12.13,22.24-28.31,52.57-28.31h2.02v40.44h-12.13c-18.2,0-32.35,10.11-40.44,20.22v95.03h-46.5v-153.66h-2.02Z"/>
  <path class="cls-2" d="m2701.23,1023.07h46.5v82.9c10.11-12.13,26.28-26.28,52.57-26.28s44.48,12.13,44.48,44.48v111.2h-46.5v-97.05c0-14.15-6.07-20.22-18.2-20.22s-24.26,6.07-34.37,16.17v103.12h-46.5v-214.32h2.02Z"/>
  <path class="cls-2" d="m2875.11,1158.53c0-58.63,44.48-80.88,76.83-80.88s70.77,16.17,70.77,84.92v6.07h-101.09c2.02,26.28,16.18,34.37,36.39,34.37,18.2,0,34.37-8.09,44.48-18.2l18.2,28.31c-18.2,16.17-40.44,22.24-66.72,22.24-40.44,4.04-78.85-16.17-78.85-76.83m105.14-14.15c-2.02-22.24-12.13-32.35-28.31-32.35-14.15,0-26.28,10.11-30.33,32.35h58.63Z"/>
  <path class="cls-2" d="m3053.03,1025.09h46.5v36.39h-46.5v-36.39Zm0,56.61h46.5v153.66h-46.5v-153.66Z"/>
  <path class="cls-2" d="m3139.97,1081.7h46.5v24.26c10.11-12.13,26.28-26.28,52.57-26.28s44.48,12.13,44.48,44.48v111.2h-46.5v-97.05c0-14.15-6.07-20.22-18.2-20.22s-22.24,6.07-32.35,16.17v103.12h-46.5v-155.68Z"/>
  <rect class="cls-2" x="3305.77" y="1130.23" width="74.81" height="30.33"/>
  <path class="cls-2" d="m3374.51,1023.07h46.5l22.24,97.05c4.04,16.17,8.09,28.31,10.11,46.5h0c2.02-18.2,6.07-30.33,10.11-46.5l22.24-97.05h42.46l22.24,97.05c4.04,16.17,8.09,26.28,10.11,46.5h0c2.02-20.22,6.07-28.31,10.11-44.48l22.24-99.07h42.46l-54.59,212.3h-40.44l-34.37-147.6h0l-36.39,147.6h-40.44l-54.59-212.3Z"/>
  <path class="cls-2" d="m3635.33,1158.53c0-58.63,44.48-80.88,76.83-80.88s70.77,16.17,70.77,84.92v6.07h-101.09c2.02,26.28,16.18,34.37,36.39,34.37,18.2,0,34.37-8.09,44.48-18.2l18.2,28.31c-18.2,16.17-40.44,22.24-66.72,22.24-40.44,4.04-78.85-16.17-78.85-76.83m105.14-14.15c-2.02-22.24-12.13-32.35-28.31-32.35-14.15,0-26.28,10.11-30.33,32.35h58.63Z"/>
  <path class="cls-2" d="m3797.08,1215.15l18.2-26.28c14.15,12.13,34.37,20.22,52.57,20.22,14.15,0,24.26-4.04,24.26-14.15s-8.09-14.15-28.31-18.2c-28.31-6.07-60.66-12.13-60.66-48.53,0-30.33,26.28-48.53,58.63-48.53s50.55,8.09,66.72,22.24l-18.2,26.28c-16.18-10.11-30.33-16.17-44.48-16.17s-20.22,6.07-20.22,14.15c0,10.11,8.09,12.13,28.31,16.17,30.33,6.07,62.68,12.13,62.68,46.5,0,36.39-32.35,52.57-66.72,52.57-34.37-2.02-56.61-12.13-72.79-26.28"/>
  <path class="cls-2" d="m3975.01,1192.91v-76.83h-26.28v-34.37h26.28v-52.57h46.5v52.57h38.42v34.37h-38.42v66.72c0,16.17,4.04,22.24,22.24,22.24,6.07,0,12.13,0,16.18-2.02v32.35c-4.04,0-20.22,2.02-30.33,2.02-48.53,0-54.59-16.17-54.59-44.48"/>
  <path class="cls-2" d="m4102.38,1116.08h-26.28v-34.37h26.28v-10.11c0-26.28,8.09-50.55,52.57-50.55,8.09,0,26.28,2.02,28.31,2.02v32.35c-2.02,0-8.09-2.02-14.15-2.02-12.13,0-22.24,2.02-22.24,18.2v10.11h32.35v34.37h-32.35v119.29h-46.5v-119.29h2.02Z"/>
  <path class="cls-2" d="m4191.35,1196.95c0-34.37,30.33-54.59,97.05-60.66v-4.04c0-12.13-6.07-18.2-20.22-18.2-20.22,0-36.39,8.09-50.55,18.2l-20.22-26.28c16.18-14.15,38.42-28.31,76.83-28.31,42.46,0,58.63,20.22,58.63,60.66v58.63c0,18.2,2.02,30.33,4.04,36.39h-46.5c-2.02-6.07-4.04-14.15-4.04-22.24-14.15,16.17-30.33,24.26-52.57,24.26-22.24,2.02-42.46-12.13-42.46-38.42m97.05-6.07v-28.31c-36.39,4.04-52.57,12.13-52.57,26.28,0,10.11,6.07,14.15,16.18,14.15,18.2,0,28.31-6.07,36.39-12.13"/>
  <rect class="cls-2" x="4371.29" y="1023.07" width="46.5" height="212.3"/>
  <path class="cls-2" d="m4450.15,1158.53c0-58.63,44.48-80.88,76.83-80.88s70.77,16.17,70.77,84.92v6.07h-101.09c2.02,26.28,16.18,34.37,36.39,34.37,18.2,0,34.37-8.09,44.48-18.2l18.2,28.31c-18.2,16.17-40.44,22.24-66.72,22.24-40.44,4.04-78.85-16.17-78.85-76.83m105.14-14.15c-2.02-22.24-12.13-32.35-28.31-32.35-14.15,0-26.28,10.11-30.33,32.35h58.63Z"/>
  <path class="cls-2" d="m4626.05,1081.7h46.5v24.26c10.11-12.13,26.28-26.28,52.57-26.28s44.48,12.13,44.48,44.48v111.2h-46.5v-97.05c0-14.15-6.07-20.22-18.2-20.22s-22.24,6.07-32.35,16.17v103.12h-46.5v-155.68Z"/>
  <path class="cls-3" d="m1651.87,828.97c-6.07-4.04-54.59-40.44-84.92-40.44l-198.14,8.09,74.81-8.09c20.22-2.02,50.55-32.35,54.59-34.37l6.07-6.07-8.09-4.04c-4.04-2.02-36.39-20.22-56.61-20.22h-4.04l-177.92,30.33,88.96-18.2c20.22-6.07,44.48-38.42,48.53-42.46l6.07-8.09-8.09-4.04c-2.02,0-32.35-14.15-54.59-14.15-4.04,0-6.07,0-10.11,2.02l-103.12,34.37,188.03-70.77c18.2-8.09,40.44-44.48,42.46-48.52l4.04-8.09-10.11-2.02c-2.02,0-26.28-6.07-44.48-6.07-8.09,0-14.15,0-18.2,2.02l-70.77,32.35,175.9-93.01c24.26-14.15,50.55-70.77,52.57-76.83l4.04-8.09-10.11-2.02s-18.2-2.02-40.44-2.02c-24.26,0-42.46,4.04-54.59,10.11l-169.84,105.14,64.7-44.48c16.18-12.13,28.31-52.57,28.31-56.61l2.02-10.11h-10.11c-4.04,0-46.5,0-62.68,14.15l-139.51,115.25,66.72-60.66c14.15-14.15,20.22-56.61,20.22-60.66l2.02-8.09-10.11,2.02c-4.04,0-46.5,6.07-60.66,20.22l-72.79,80.88,129.4-155.68c12.13-16.17,14.15-58.63,14.15-62.68v-10.11l-10.11,2.02c-4.04,2.02-44.48,12.13-56.61,28.31l-46.5,64.7,107.16-169.84c14.15-24.26,8.09-86.94,6.07-93.01l4.04-10.11-8.09,4.04c-6.07,2.02-62.68,28.31-76.83,52.57l-93.01,175.9,32.35-70.77c8.09-18.2-2.02-58.63-4.04-64.7l-2.02-10.11-8.09,4.04c-4.04,2.02-40.44,24.26-48.53,42.46l-64.7,171.86,28.31-86.94c6.07-20.22-12.13-58.63-14.15-62.68l-4.04-8.09-8.09,6.07c-4.04,2.02-36.39,28.31-42.46,48.53l-22.24,107.16,34.37-198.14c2.02-20.22-18.2-56.61-20.22-60.66l-4.04-8.09-6.07,6.07c-4.04,4.04-32.35,34.37-34.37,54.59l-8.09,78.85,8.09-200.17c0-28.31-36.39-78.85-40.44-84.92l-6.07-8.09-6.07,8.09c-4.04,6.07-40.44,54.59-40.44,84.92l8.09,198.14-8.09-76.83c-2.02-20.22-32.35-50.55-34.37-54.59l-8.09-6.07-4.04,8.09c-2.02,4.04-22.24,40.44-20.22,60.66l32.35,196.12-22.24-105.14c-6.07-20.22-38.42-46.5-42.46-48.52l-8.09-6.07-4.04,8.09c0,6.07-16.17,46.5-10.11,66.72l30.33,88.96-64.7-173.88c-8.09-18.2-44.48-40.44-48.52-42.46l-8.09-4.04-2.02,10.11c-2.02,4.04-12.13,44.48-4.04,64.7l32.35,70.77-93.01-175.9c-14.15-24.26-70.77-50.55-76.83-52.57l-10.11-8.09v10.11c0,6.07-8.09,68.74,8.09,93.01l107.16,171.86-46.5-66.72c-12.13-16.18-52.57-28.31-56.61-28.31l-12.13-4.04v10.11c0,4.04,0,46.5,14.15,62.68l127.38,153.66-70.77-80.88c-14.15-14.15-56.61-20.22-60.66-20.22h-10.11l2.02,8.09c0,4.04,6.07,46.5,20.22,62.68l70.77,62.68-143.55-119.29c-16.17-12.13-58.63-14.15-62.68-14.15h-10.11l2.02,10.11c2.02,4.04,12.13,44.48,28.31,56.61l62.68,44.48-167.82-105.14c-10.11-6.07-28.31-10.11-54.59-10.11-20.22,0-38.42,2.02-40.44,2.02l-10.11,2.02,4.04,8.09c2.02,6.07,28.31,62.68,52.57,76.83l179.95,95.03-72.79-34.37c-4.04-2.02-10.11-2.02-18.2-2.02-20.22,0-44.48,6.07-44.48,6.07l-10.11,2.02,4.04,8.09c2.02,4.04,24.26,40.44,42.46,48.52l188.03,68.74-103.12-32.35c-2.02,0-6.07-2.02-10.11-2.02-20.22,0-52.57,12.13-54.59,14.15l-8.09,4.04,6.07,8.09c2.02,4.04,28.31,38.42,48.52,42.46l93.01,20.22-183.99-32.35h-4.04c-20.22,0-52.57,18.2-56.61,20.22l-8.09,4.04,6.07,6.07c4.04,4.04,34.37,32.35,54.59,34.37l76.83,8.09-198.14-6.07c-28.31,0-78.85,36.39-84.92,40.44l-8.09,6.07,8.09,6.07c6.07,4.04,54.59,40.44,84.92,40.44h0l204.21-8.09-82.9,8.09c-20.22,2.02-50.55,32.35-54.59,34.37l-6.07,6.07,8.09,4.04c4.04,2.02,36.39,20.22,56.61,20.22h4.04l177.93-30.33-86.94,18.2c-20.22,6.07-44.48,38.42-48.52,42.46l-6.07,8.09,8.09,4.04c2.02,0,32.35,14.15,54.59,14.15,4.04,0,6.07,0,10.11-2.02l103.12-34.37-188.03,70.77c-18.2,8.09-40.44,44.48-42.46,48.53l-4.04,8.09,10.11,2.02c2.02,0,26.28,6.07,44.48,6.07,8.09,0,14.15,0,18.2-2.02l70.77-32.35-175.9,93.01c-24.26,14.15-50.55,70.77-52.57,76.83l-4.04,8.09,10.11,2.02s18.2,2.02,40.44,2.02c24.26,0,42.46-4.04,54.59-10.11l167.82-105.14-62.68,44.48c-18.2,14.15-28.31,54.59-30.33,58.63l-2.02,10.11h10.11c4.04,0,46.5,0,62.68-14.15l143.55-119.29-72.79,62.68c-14.15,14.15-20.22,56.61-20.22,60.66v10.11l10.11-2.02c4.04,0,46.5-6.07,60.66-20.22l70.77-80.88-127.38,153.66c-12.13,16.18-14.15,58.63-14.15,62.68v10.11l10.11-2.02c4.04-2.02,44.48-12.13,56.61-28.31l42.46-60.66-105.14,165.79c-14.15,24.26-8.09,86.94-6.07,93.01l2.02,10.11,8.09-4.04c6.07-2.02,62.68-28.31,76.83-52.57l93.01-175.9-32.35,70.77c-8.09,18.2,2.02,58.63,4.04,64.7l2.02,10.11,8.09-4.04c4.04-2.02,40.44-24.26,48.52-42.46l64.7-175.9-30.33,93.01c-6.07,20.22,12.13,58.63,14.15,62.68l4.04,8.09,8.09-6.07c4.04-2.02,36.39-28.31,42.46-48.53l22.24-105.14-34.37,192.08c-2.02,20.22,18.2,56.61,20.22,60.66l4.04,8.09,6.07-6.07c4.04-4.04,32.35-34.37,34.37-54.59l6.07-74.81-8.09,196.12c0,28.31,36.39,78.85,40.44,84.92l6.07,8.09,6.07-8.09c4.04-6.07,40.44-54.59,40.44-84.92l-8.09-202.19,8.09,78.85c2.02,20.22,32.35,50.55,34.37,54.59l6.07,6.07,10.11-6.07c2.02-4.04,22.24-40.44,20.22-60.66l-32.35-192.08,20.22,101.09c6.07,20.22,38.42,46.5,42.46,48.53l8.09,6.07,4.04-8.09c2.02-4.04,18.2-44.48,12.13-62.68l-30.33-90.98,64.7,175.9c8.09,18.2,44.48,40.44,48.53,42.46l8.09,4.04,2.02-10.11c2.02-4.04,12.13-44.48,4.04-64.7l-32.35-68.74,93.01,175.9c14.15,24.26,70.77,50.55,76.83,52.57l8.09,4.04,2.02-10.11c0-6.07,8.09-68.74-6.07-93.01l-103.12-165.79,42.46,60.66c12.13,16.18,52.57,28.31,56.61,28.31l10.11,2.02v-10.11c0-4.04,0-46.5-14.15-62.68l-125.36-151.64,70.77,78.85c14.15,14.15,56.61,20.22,60.66,20.22l10.11,2.02-2.02-10.11c0-4.04-6.07-46.5-20.22-62.68l-70.77-62.68,143.55,119.29c16.18,12.13,58.63,14.15,62.68,14.15h10.11l-2.02-10.11c-2.02-4.04-12.13-44.48-28.31-56.61l-64.7-44.48,169.84,107.16c10.11,6.07,28.31,10.11,54.59,10.11,20.22,0,38.42-2.02,40.44-2.02l10.11-2.02-4.04-8.09c-2.02-6.07-28.31-62.68-52.57-76.83l-171.86-90.98,66.72,30.33c4.04,2.02,10.11,2.02,18.2,2.02,20.22,0,44.48-6.07,44.48-6.07l10.11-2.02-10.11-10.11c-2.02-4.04-24.26-40.44-42.46-48.53l-186.01-68.74,101.09,34.37c2.02,0,6.07,2.02,10.11,2.02,20.22,0,52.57-12.13,54.59-14.15l8.09-4.04-6.07-8.09c-2.02-4.04-28.31-38.42-48.53-42.46l-90.98-18.2,181.97,30.33h4.04c20.22,0,52.57-18.2,56.61-20.22l8.09-4.04-6.07-6.07c-4.04-4.04-34.37-32.35-54.59-34.37l-78.85-8.09,200.17,8.09h0c28.31,0,78.85-36.39,84.92-40.44l8.09-6.07-8.09-8.09Z"/>
  <path class="cls-2" d="m1655.92,824.92c-10.11-6.07-58.63-42.46-88.96-42.46h0l-95.03,4.04c14.15-10.11,28.31-22.24,32.35-26.28l14.15-14.15-16.18-10.11c-6.07-4.04-38.42-20.22-60.66-20.22h-4.04l-62.68,10.11c12.13-12.13,24.26-26.28,26.28-30.33l10.11-14.15-16.18-6.07c-2.02-2.02-20.22-8.09-40.44-12.13l60.66-22.24h0c20.22-8.09,42.46-44.48,46.5-50.55l10.11-16.17-18.2-4.04s-22.24-6.07-40.44-6.07l82.9-44.48h0c26.28-16.17,50.55-70.77,56.61-80.88l8.09-18.2-20.22-2.02s-20.22-2.02-40.44-2.02c-26.28,0-46.5,4.04-56.61,10.11h0l-80.88,50.55c8.09-16.17,14.15-34.37,14.15-38.42l6.07-18.2h-20.22c-8.09,0-50.55,2.02-66.72,14.15h0l-48.53,40.44c6.07-16.17,8.09-34.37,8.09-40.44l2.02-18.2-18.2,2.02c-6.07,0-24.26,4.04-40.44,10.11l40.44-50.55h0c14.15-18.2,14.15-58.63,14.15-66.72v-20.22l-18.2,6.07c-4.04,2.02-22.24,6.07-38.42,14.15l50.55-80.88h0c16.17-26.28,10.11-86.94,8.09-99.07l-2.02-20.22-18.2,8.09c-10.11,4.04-64.7,28.31-80.88,56.61h0l-42.46,82.9c0-18.2-6.07-36.39-6.07-40.44l-4.04-18.2-16.17,10.11c-6.07,4.04-42.46,26.28-50.55,46.5h0l-22.24,60.66c-4.04-18.2-10.11-34.37-12.13-38.42l-10.11-18.2-14.15,12.13c-4.04,4.04-18.2,14.15-30.33,28.31l10.11-64.7h0c2.02-22.24-16.17-58.63-20.22-64.7l-10.11-16.18-14.15,14.15c-4.04,4.04-16.17,18.2-26.28,32.35l4.04-97.05h0c0-30.33-34.37-78.85-42.46-88.96l-10.11-16.17-12.13,16.18c-6.07,10.11-42.46,58.63-42.46,88.96h0l4.04,95.03c-10.11-14.15-22.24-28.31-26.28-32.35l-14.15-14.15-10.11,16.18c-4.04,8.09-24.26,44.48-20.22,64.7h0l10.11,64.7c-12.13-14.15-26.28-24.26-30.33-28.31l-14.15-12.13-8.09,16.18c-2.02,4.04-8.09,22.24-12.13,38.42l-22.24-60.66h0c-8.09-20.22-44.48-42.46-50.55-46.5l-16.17-10.11-4.04,18.2c-2.02,4.04-6.07,22.24-6.07,40.44l-44.48-82.9h0c-16.17-26.28-70.77-50.55-80.88-56.61l-18.2-8.09-2.02,20.22c-2.02,12.13-8.09,70.77,8.09,99.07h0l50.55,80.88c-16.17-8.09-34.37-14.15-38.42-14.15l-18.2-6.07v20.22c0,8.09,2.02,50.55,14.15,66.72h0l40.44,50.55c-16.17-6.07-34.37-8.09-40.44-10.11l-18.2-2.02,2.02,18.2c0,6.07,4.04,22.24,8.09,40.44l-48.52-40.44h0c-18.2-14.15-58.63-14.15-66.72-14.15h-20.22l6.07,18.2c2.02,4.04,6.07,22.24,14.15,38.42l-80.88-50.55h0c-12.13-6.07-30.33-10.11-56.61-10.11-22.24,0-40.44,2.02-40.44,2.02l-20.22,2.02,8.09,18.2c4.04,10.11,28.31,64.7,56.61,80.88h0l84.92,44.48c-20.22,2.02-40.44,6.07-40.44,6.07l-18.2,4.04,10.11,16.17c4.04,6.07,26.28,42.46,46.5,50.55h0l60.66,22.24c-18.2,4.04-36.39,12.13-40.44,12.13l-16.18,6.07,10.11,14.15c4.04,4.04,14.15,18.2,28.31,30.33l-62.68-10.11h-4.04c-22.24,0-54.59,18.2-60.66,20.22l-16.18,10.11,14.15,14.15c4.04,4.04,16.18,16.17,32.35,26.28l-95.03-4.04h0c-30.33,0-78.85,34.37-88.96,42.46l-20.22,14.15,16.18,12.13c8.09,8.09,56.61,42.46,88.96,42.46h0l95.03-4.04c-14.15,10.11-28.31,22.24-32.35,26.28l-14.15,14.15,16.18,10.11c6.07,4.04,38.42,20.22,60.66,20.22h4.04l62.68-10.11c-12.13,12.13-24.26,26.28-26.28,30.33l-10.11,14.15,16.18,6.07c2.02,2.02,20.22,8.09,40.44,12.13l-60.66,22.24h0c-20.22,8.09-42.46,44.48-46.5,50.55l-10.11,16.17,18.2,4.04s22.24,6.07,40.44,6.07l-82.9,44.48h0c-26.28,16.17-50.55,70.77-56.61,80.88l-8.09,20.22,20.22,2.02s20.22,2.02,40.44,2.02c26.28,0,46.5-4.04,56.61-10.11h0l80.88-50.55c-8.09,16.17-14.15,34.37-14.15,38.42l-6.07,18.2h20.22c8.09,0,50.55-2.02,66.72-14.15h0l48.52-40.44c-6.07,16.17-8.09,34.37-8.09,40.44l-2.02,18.2,18.2-2.02c6.07,0,24.26-4.04,40.44-10.11l-40.44,50.55h0c-14.15,18.2-14.15,58.63-14.15,66.72v20.22l18.2-6.07c4.04-2.02,22.24-6.07,38.42-14.15l-50.55,80.88h0c-16.17,26.28-10.11,86.94-8.09,99.07l2.02,20.22,18.2-8.09c10.11-4.04,64.7-28.31,80.88-56.61h0l44.48-84.92c0,18.2,6.07,36.39,6.07,40.44l4.04,18.2,16.17-10.11c6.07-4.04,42.46-26.28,50.55-46.5h0l22.24-60.66c4.04,18.2,10.11,34.37,12.13,38.42l8.09,16.18,14.15-12.13c4.04-4.04,18.2-14.15,30.33-28.31l-10.11,66.72h0c-2.02,22.24,16.17,58.63,20.22,64.7l10.11,16.18,14.15-14.15c4.04-4.04,16.17-16.18,26.28-32.35l-4.04,95.03h0c0,30.33,34.37,78.85,42.46,88.96l12.13,16.18,12.13-16.18c6.07-10.11,42.46-58.63,42.46-88.96h0l-4.04-95.03c10.11,14.15,22.24,28.31,26.28,32.35l14.15,14.15,10.11-16.18c4.04-8.09,24.26-44.48,20.22-64.7h0l-10.11-62.68c12.13,14.15,26.28,24.26,30.33,28.31l14.15,12.13,8.09-16.18c2.02-4.04,8.09-22.24,12.13-38.42l18.2,56.61h0c8.09,20.22,44.48,42.46,50.55,46.5l16.17,10.11,4.04-18.2c2.02-4.04,6.07-22.24,6.07-40.44l44.48,82.9h0c16.17,26.28,70.77,50.55,80.88,56.61l18.2,8.09,2.02-20.22c2.02-12.13,8.09-70.77-8.09-99.07h0l-50.55-78.85c16.17,8.09,32.35,14.15,38.42,14.15l18.2,6.07v-20.22c0-8.09-2.02-50.55-14.15-66.72h0l-40.44-50.55c16.17,6.07,34.37,8.09,40.44,10.11l18.2,2.02-2.02-18.2c0-6.07-2.02-22.24-8.09-40.44l48.52,40.44h0c18.2,14.15,58.63,14.15,66.72,14.15h20.22l-6.07-18.2c-2.02-4.04-6.07-22.24-14.15-38.42l80.88,50.55h0c12.13,6.07,30.33,10.11,56.61,10.11,22.24,0,40.44-2.02,40.44-2.02l20.22-2.02-8.09-18.2c-4.04-10.11-28.31-64.7-56.61-80.88h0l-82.9-44.48c18.2-2.02,38.42-6.07,40.44-6.07l18.2-4.04-10.11-16.17c-4.04-6.07-26.28-42.46-46.5-50.55h0l-60.66-22.24c18.2-4.04,36.39-10.11,40.44-12.13l16.18-6.07-10.11-14.15c-4.04-4.04-14.15-18.2-26.28-30.33l62.68,10.11h4.04c22.24,0,56.61-18.2,60.66-20.22l16.18-10.11-14.15-14.15c-4.04-4.04-18.2-16.17-32.35-26.28l95.03,4.04h0c30.33,0,78.85-34.37,88.96-42.46l16.18-12.13-14.15-12.13Zm-218.36-95.03h2.02c18.2,0,52.57,20.22,52.57,20.22,0,0-32.35,30.33-50.55,32.35l-72.79,6.07-200.17,8.09v-20.22l268.91-46.5Zm-48.53-42.46s-26.28,36.39-44.48,40.44l-82.9,18.2-93.01,16.17v-30.33l60.66-22.24,99.07-32.35h8.09c20.22-2.02,52.57,10.11,52.57,10.11m60.66-105.14s-22.24,38.42-38.42,44.48l-240.6,88.96v-26.28l151.64-80.88,68.74-32.35c4.04-2.02,10.11-2.02,16.18-2.02,18.2,2.02,42.46,8.09,42.46,8.09m0-145.57c12.13-6.07,32.35-8.09,50.55-8.09,20.22,0,38.42,2.02,38.42,2.02,0,0-26.28,60.66-50.55,74.81l-319.46,169.84v-60.66l281.04-177.93Zm-145.57,6.07c14.15-10.11,58.63-12.13,58.63-12.13,0,0-12.13,42.46-26.28,52.57l-62.68,46.5-105.14,64.7v-40.44l135.47-111.2Zm-62.68-12.13s-6.07,44.48-18.2,56.61l-54.59,48.52h-60.66l6.07-8.09,68.74-78.85c14.15-12.13,58.63-18.2,58.63-18.2m-86.94,485.25c0,74.81-36.39,151.64-93.01,210.27-58.63,58.63-137.49,99.07-224.43,99.07s-167.82-40.44-224.43-99.07c-58.63-58.63-93.01-137.49-93.01-212.3v-363.94h636.89v349.78l-2.02,16.17Zm86.94-606.56s0,44.48-12.13,58.63l-139.51,167.82h-32.35l84.92-137.49,44.48-64.7c12.13-12.13,54.59-24.26,54.59-24.26m-72.79-125.36c14.15-24.26,74.81-50.55,74.81-50.55,0,0,8.09,64.7-6.07,88.96l-196.12,313.39h-58.63l186.01-351.81Zm-123.33,76.83c6.07-16.18,44.48-38.42,44.48-38.42,0,0,10.11,42.46,4.04,58.63l-32.35,70.77-97.05,183.99h-20.22l101.09-274.98Zm-60.66,22.24s18.2,40.44,12.13,58.63l-26.28,82.9-40.44,111.2h-24.26l18.2-105.14,22.24-103.12c2.02-18.2,38.42-44.48,38.42-44.48m-95.03-56.61c2.02-18.2,32.35-50.55,32.35-50.55,0,0,22.24,38.42,18.2,56.61l-50.55,303.28h-16.17l8.09-230.49,8.09-78.85Zm-52.57-202.19s38.42,52.57,38.42,80.87l-16.17,430.66h-46.5l-16.18-430.66c0-28.31,40.44-80.87,40.44-80.87m-86.94,153.66s30.33,32.35,32.35,50.55l8.09,76.83,8.09,232.52h-16.17l-50.55-301.26c-4.04-20.22,18.2-58.63,18.2-58.63m-62.68,105.14s34.37,26.28,40.44,44.48l20.22,99.07,18.2,109.18h-22.24l-40.44-109.18-28.31-84.92c-4.04-18.2,12.13-58.63,12.13-58.63m-105.14-60.66s38.42,22.24,44.48,38.42l101.09,274.98h-20.22l-97.05-183.99-32.35-70.77c-6.07-16.17,4.04-58.63,4.04-58.63m-145.57,0c-14.15-24.26-6.07-88.96-6.07-88.96,0,0,60.66,26.28,74.81,50.55l186.01,353.83h-58.63l-196.12-315.41Zm6.07,145.58c-12.13-14.15-12.13-58.63-12.13-58.63,0,0,42.46,12.13,52.57,26.28l46.5,64.7,84.92,135.47h-34.37l-137.49-167.82Zm46.5,82.9l68.74,76.83,8.09,10.11h-60.66l-52.57-48.52c-12.13-12.13-18.2-56.61-18.2-56.61,0,0,40.44,4.04,54.59,18.2m-179.95-20.22s44.48,0,58.63,12.13l135.47,113.23v38.42l-105.14-66.72-62.68-42.46c-14.15-12.13-26.28-54.59-26.28-54.59m-127.38,72.79c-24.26-14.15-50.55-74.81-50.55-74.81,0,0,18.2-2.02,38.42-2.02,18.2,0,38.42,2.02,50.55,8.09l281.04,175.9v60.66l-319.46-167.82Zm78.85,123.33c-16.18-6.07-38.42-44.48-38.42-44.48,0,0,24.26-6.07,42.46-6.07,6.07,0,12.13,0,16.18,2.02l72.79,34.37,147.6,78.85v26.28l-240.6-90.98Zm22.24,60.66s32.35-12.13,50.55-12.13h8.09l97.05,32.35,62.68,24.26v30.33l-86.94-14.15-86.94-20.22c-18.2-4.04-44.48-40.44-44.48-40.44m-105.14,62.68s34.37-20.22,52.57-20.22h2.02l268.91,46.5v20.22l-198.14-8.09-74.81-6.07c-20.22-2.02-50.55-32.35-50.55-32.35m-72.79,125.36c-28.31,0-80.88-38.42-80.88-38.42,0,0,52.57-38.42,80.88-38.42l398.31,14.15v48.53l-398.31,14.15Zm129.4,66.72h-4.04c-18.2,0-52.57-20.22-52.57-20.22,0,0,32.35-30.33,50.55-32.35l80.88-8.09,194.1-8.09v22.24l-268.91,46.5Zm48.52,42.46s26.28-36.39,44.48-40.44l82.9-16.17,93.01-16.17v28.31h0l-62.68,24.26-99.07,32.35h-8.09c-18.2,0-50.55-12.13-50.55-12.13m-60.66,105.14s22.24-38.42,38.42-44.48l244.65-90.98c0,4.04,2.02,8.09,2.02,10.11v2.02c0,4.04,2.02,6.07,2.02,10.11l-159.73,84.92-66.72,32.35c-4.04,2.02-10.11,2.02-16.18,2.02-20.22,0-44.48-6.07-44.48-6.07m0,145.57c-12.13,6.07-32.35,8.09-50.55,8.09-20.22,0-38.42-2.02-38.42-2.02,0,0,26.28-60.66,50.55-74.81l331.59-175.9c4.04,16.17,10.11,32.35,18.2,48.53l-311.37,196.12Zm145.58-6.07c-14.15,12.13-58.63,12.13-58.63,12.13,0,0,12.13-42.46,26.28-52.57l62.68-44.48,141.53-88.96h0c2.02,4.04,4.04,8.09,6.07,10.11,0,2.02,2.02,2.02,2.02,4.04,2.02,2.02,4.04,6.07,4.04,8.09l-183.99,151.64Zm62.68,12.13s6.07-44.48,18.2-56.61l68.74-60.66,42.46-34.37h0c6.07,10.11,14.15,18.2,20.22,28.31l-24.26,30.33-68.74,76.83c-12.13,10.11-56.61,16.17-56.61,16.17m2.02,121.31s0-44.48,12.13-58.63l147.6-177.92h0c6.07,6.07,12.13,12.13,18.2,18.2h0l-80.88,129.4-42.46,60.66c-12.13,16.18-54.59,28.31-54.59,28.31m72.79,127.38c-14.15,24.26-74.81,50.55-74.81,50.55,0,0-8.09-64.7,6.07-88.96l183.99-293.17c2.02,2.02,6.07,6.07,10.11,8.09l2.02,2.02c2.02,2.02,6.07,4.04,8.09,6.07s4.04,2.02,6.07,4.04c2.02,2.02,4.04,2.02,6.07,4.04,4.04,2.02,8.09,6.07,12.13,8.09l-159.73,299.24Zm121.31-80.88c-6.07,16.18-44.48,38.42-44.48,38.42,0,0-10.11-42.46-4.04-58.63l32.35-70.77,64.7-123.33h0c4.04,2.02,8.09,4.04,12.13,6.07h2.02c4.04,2.02,8.09,4.04,12.13,6.07l-74.81,202.19Zm60.66-20.22s-18.2-40.44-12.13-58.63l28.31-86.94,10.11-28.31h0c6.07,2.02,12.13,4.04,18.2,6.07h2.02c6.07,2.02,12.13,4.04,18.2,6.07l-4.04,16.18-20.22,101.09c-4.04,16.18-40.44,44.48-40.44,44.48m103.12-18.2l-6.07,74.81c-2.02,18.2-32.35,50.55-32.35,50.55,0,0-24.26-40.44-22.24-58.63l34.37-206.23c4.04,2.02,10.11,2.02,14.15,2.02h0c4.04,0,10.11,2.02,14.15,2.02l-2.02,135.47Zm46.5,277s-38.42-52.57-38.42-80.88l10.11-327.54h52.57l12.13,329.57c2.02,26.28-36.39,78.85-36.39,78.85m86.94-153.66s-30.33-32.35-32.35-50.55l-8.09-78.85-4.04-127.38c4.04,0,10.11-2.02,14.15-2.02h0c4.04,0,10.11-2.02,14.15-2.02h0l34.37,206.23c2.02,16.17-18.2,54.59-18.2,54.59m60.66-105.14s-34.37-26.28-40.44-44.48l-20.22-97.05-4.04-18.2h0c6.07-2.02,12.13-4.04,18.2-6.07h2.02c6.07-2.02,12.13-4.04,18.2-6.07l10.11,28.31,28.31,86.94c4.04,16.17-12.13,56.61-12.13,56.61m105.14,60.66s-38.42-22.24-44.48-38.42l-74.81-202.19h0c4.04-2.02,8.09-4.04,12.13-6.07h0c4.04-2.02,8.09-4.04,12.13-6.07h0l66.72,125.36,32.35,68.74c8.09,16.17-4.04,58.63-4.04,58.63m145.57,0c14.15,24.26,6.07,88.96,6.07,88.96,0,0-60.66-26.28-74.81-50.55l-159.73-301.26h0c4.04-2.02,8.09-6.07,12.13-8.09,2.02-2.02,4.04-2.02,6.07-4.04,2.02-2.02,4.04-2.02,4.04-4.04,2.02-2.02,6.07-4.04,8.09-6.07l2.02-2.02c2.02-2.02,6.07-4.04,8.09-8.09h0l188.03,295.19Zm-6.07-145.57c12.13,14.15,12.13,58.63,12.13,58.63,0,0-42.46-12.13-52.57-26.28l-42.46-60.66-80.88-129.4,18.2-18.2h0l145.57,175.9Zm-46.5-82.9l-66.72-74.81-24.26-30.33c8.09-8.09,14.15-18.2,20.22-28.31h0l42.46,36.39,66.72,60.66c12.13,12.13,18.2,56.61,18.2,56.61,0,0-42.46-6.07-56.61-20.22m179.95,18.2s-44.48,0-58.63-12.13l-183.99-151.64h0c2.02-2.02,4.04-6.07,4.04-8.09s2.02-2.02,2.02-4.04c2.02-4.04,4.04-8.09,6.07-10.11l139.51,86.94,62.68,44.48c16.18,12.13,28.31,54.59,28.31,54.59m127.38-72.79c24.26,14.15,50.55,74.81,50.55,74.81,0,0-18.2,2.02-38.42,2.02-18.2,0-38.42-2.02-50.55-8.09l-309.35-194.1h0c8.09-16.17,14.15-32.35,18.2-48.53l329.57,173.88Zm-80.88-121.31c16.18,6.07,38.42,44.48,38.42,44.48,0,0-24.26,6.07-42.46,6.07-6.07,0-12.13,0-16.18-2.02l-66.72-30.33-161.75-84.92h0c0-4.04,2.02-6.07,2.02-10.11v-2.02c0-4.04,2.02-8.09,2.02-10.11l244.65,88.96Zm-20.22-60.66s-32.35,12.13-50.55,12.13h-8.09l-97.05-32.35-64.7-24.26h0v-30.33l88.96,14.15,86.94,18.2c18.2,6.07,44.48,42.46,44.48,42.46m105.14-62.68s-34.37,20.22-52.57,20.22h-4.04l-268.91-46.5v-20.22l196.12,8.09,78.85,8.09c20.22,0,50.55,30.33,50.55,30.33m72.79-46.5l-398.31-14.15v-48.53l398.31-14.15c28.31,0,80.88,38.42,80.88,38.42,0,0-52.57,38.42-80.88,38.42"/>
  <path class="cls-1" d="m826.95,689.46v214.32c0,109.18-56.61,198.14-143.55,250.71-38.42-26.28-78.85-60.66-103.12-103.12,16.17-16.17,28.31-34.37,40.44-54.59,24.26-38.42,28.31-88.96,56.61-125.36,26.28-34.37,72.79-42.46,99.07-76.83,24.26-30.33,32.35-70.77,50.55-105.14m-287.11-115.25h244.65c-8.09,10.11-18.2,20.22-26.28,30.33-30.33,40.44-28.31,99.07-58.63,139.51-26.28,34.37-72.79,44.48-99.07,76.83-28.31,36.39-30.33,86.94-58.63,125.36-2.02-14.15-2.02-28.31-2.02-42.46,0,0,0-329.57,0-329.57Zm295.19,576.23c-10.11,0-20.22-8.09-20.22-20.22,0-10.11,8.09-20.22,20.22-20.22,10.11,0,20.22,8.09,20.22,20.22s-8.09,20.22-20.22,20.22m64.7-12.13c4.04,4.04,6.07,10.11,8.09,16.17-4.04,4.04-10.11,6.07-16.17,8.09,0-4.04,0-10.11-2.02-14.15,4.04-2.02,8.09-6.07,10.11-10.11m-36.39-66.72c6.07-2.02,12.13-4.04,16.17-2.02,2.02,6.07,4.04,10.11,2.02,16.17-4.04-2.02-8.09-4.04-14.15-2.02,2.02-4.04,0-8.09-4.04-12.13m-74.81,14.15c0-6.07,0-12.13,2.02-16.17,6.07,0,12.13,0,16.17,2.02-4.04,4.04-6.07,8.09-6.07,12.13-2.02,0-8.09,0-12.13,2.02m-8.09,76.83c-6.07-2.02-10.11-4.04-16.17-8.09,2.02-6.07,4.04-10.11,8.09-16.17,2.02,4.04,6.07,8.09,10.11,10.11-4.04,4.04-4.04,8.09-2.02,14.15m66.72,30.33c-2.02,6.07-6.07,10.11-12.13,12.13-4.04-2.02-10.11-6.07-12.13-12.13,4.04,0,8.09-2.02,12.13-6.07,4.04,4.04,8.09,6.07,12.13,6.07"/>
  <path class="cls-1" d="m867.38,1130.23c0,18.2-14.15,30.33-30.33,30.33s-30.33-14.15-30.33-30.33c0-18.2,14.15-30.33,30.33-30.33s30.33,14.15,30.33,30.33m-66.72,50.55c-14.15-10.11-18.2-26.28-6.07-32.35,0-2.02,0-4.04-2.02-6.07-14.15,2.02-20.22-14.15-14.15-30.33s18.2-24.26,28.31-16.17c2.02,0,4.04-2.02,6.07-4.04-6.07-12.13,8.09-22.24,24.26-22.24s30.33,10.11,24.26,22.24c0,2.02,2.02,4.04,6.07,4.04,10.11-10.11,24.26,0,28.31,16.17,6.07,16.17,0,32.35-14.15,30.33-2.02,2.02-2.02,4.04-2.02,6.07,12.13,6.07,8.09,22.24-6.07,32.35-12.13,10.11-30.33,10.11-32.35-4.04-2.02-2.02-4.04-2.02-6.07,0-4.04,12.13-22.24,12.13-34.37,4.04m125.36-214.32h56.61c0-22.24-18.2-38.42-18.2-64.7,0-18.2,6.07-28.31,26.28-34.37,4.04,4.04,8.09,10.11,12.13,16.17,0,24.26,4.04,40.44,10.11,52.57,0,0-12.13,10.11-12.13,46.5,0,0-50.55-2.02-56.61,4.04h-8.09v12.13c-12.13,4.04-24.26,4.04-32.35,0,0-10.11,10.11-20.22,10.11-20.22h2.02c6.07,0,10.11-4.04,10.11-12.13,0,2.02,0,0,0,0m-62.68-181.97c-6.07-6.07-6.07-18.2-6.07-20.22l2.02-2.02c4.04-4.04,4.04-10.11,0-14.15l-2.02-2.02c6.07-16.17,16.17-24.26,20.22-46.5h16.17l40.44,30.33c-6.07,8.09-12.13,18.2-16.17,28.31l-20.22-38.42c-14.15,0-22.24,12.13-14.15,28.31l-6.07,6.07,8.09,8.09c-6.07,12.13-12.13,18.2-22.24,22.24m163.77,279.02c0-10.11,10.11-18.2,10.11-20.22h2.02c6.07,0,10.11-4.04,10.11-10.11v-4.04c26.28-46.5,20.22-54.59-22.24-88.96-12.13-10.11-14.15-36.39-14.15-60.66-16.17-38.42-60.66-34.37-76.83-70.77l20.22,2.02c10.11,0,16.17-6.07,20.22-10.11s0-10.11-4.04-10.11c-2.02,6.07-8.09,10.11-14.15,10.11l-48.53-2.02c-10.11,10.11-8.09,24.26,10.11,30.33v8.09h12.13c4.04,12.13,4.04,24.26,0,32.35-10.11,0-20.22-10.11-20.22-10.11v-4.04c0-6.07-4.04-10.11-10.11-10.11h-2.02c-6.07-8.09-4.04-26.28-18.2-48.53l10.11-12.13,38.42-14.15c2.02-46.5,54.59-56.61,62.68-88.96,12.13,0,18.2-4.04,24.26-14.15,2.02-2.02,0-10.11-6.07-8.09-4.04,10.11-10.11,12.13-16.17,12.13-18.2,0-34.37-4.04-36.39,6.07-4.04,14.15-24.26,6.07-24.26,6.07l4.04-4.04h2.02c4.04,0,6.07-2.02,6.07-4.04s-2.02-4.04-6.07-4.04-6.07,2.02-6.07,4.04h0l-4.04,4.04c-6.07,0-6.07-4.04-6.07-6.07,2.02,0,4.04-2.02,4.04-4.04s-2.02-4.04-4.04-4.04c0-2.02,2.02-6.07,6.07-8.09l34.37-26.28c4.04-4.04,14.15-10.11,18.2-12.13,0-8.09,2.02-16.17,2.02-24.26,0,0,10.11,4.04,14.15,14.15,4.04,6.07,2.02,12.13,0,14.15,2.02,2.02,10.11,2.02,10.11-4.04v-10.11c12.13,2.02,32.35,6.07,60.66,2.02-6.07,6.07-14.15,12.13-20.22,14.15,14.15,4.04,32.35,10.11,40.44,24.26-6.07,4.04-14.15,6.07-22.24,8.09,14.15,12.13,18.2,30.33,30.33,36.39-14.15,4.04-28.31,4.04-36.39,0,4.04,10.11,12.13,20.22,22.24,26.28-14.15,6.07-26.28,10.11-36.39,12.13,4.04,6.07,8.09,12.13,14.15,16.17-10.11,0-18.2,4.04-24.26,6.07,0,12.13-4.04,38.42,26.28,70.77,42.46,32.35,52.57,54.59,20.22,97.05,0,22.24,4.04,30.33,14.15,52.57-2.02,2.02-6.07,12.13-10.11,24.26-4.04,14.15-8.09,28.31-8.09,42.46,0,0-8.09,0-8.09,8.09v12.13c-24.26,6.07-36.39,6.07-44.48,2.02m-72.79-418.53c4.04,8.09,16.17,0,16.17,0,0,0-14.15-14.15-16.17,0m165.79,119.29c0,20.22-18.2,28.31-18.2,42.46,0,16.17,16.17,24.26,16.17,42.46,0,16.17-14.15,20.22-22.24,16.17,0,0,6.07-2.02,6.07-8.09,0-20.22-42.46-18.2-42.46-50.55,0-16.17,12.13-30.33,12.13-38.42,0-4.04-4.04-12.13-10.11-14.15,8.09-6.07,24.26-2.02,28.31,8.09,2.02-8.09,6.07-20.22,2.02-30.33,20.22,4.04,28.31,18.2,28.31,32.35h0Zm-274.98-190.06h287.11v329.57c0,109.18-58.63,198.14-143.55,250.71-86.94-52.57-143.55-143.55-143.55-250.71,0,0,0-329.57,0-329.57Z"/>
</svg>