<?xml version="1.0" encoding="UTF-8"?>
<svg id="Ebene_1" data-name="Ebene 1" xmlns="http://www.w3.org/2000/svg" viewBox="0 0 4670.32 1510.16">
  <defs>
    <style>
      .cls-1 {
        fill: #0470b5;
      }

      .cls-1, .cls-2, .cls-3 {
        stroke-width: 0px;
      }

      .cls-2 {
        fill: #249d38;
      }

      .cls-3 {
        fill: #e20721;
      }
    </style>
  </defs>
  <path class="cls-3" d="m819.52,33.01c140.29,0,254.79,49.19,343.5,147.51,88.71,98.35,121.37,228.68,97.99,390.95-22.01,151.31-87,272-194.96,362.07-107.99,90.1-247.24,135.13-417.77,135.13h-165.04l-72.63,408.48H0L256.21,33.01h563.31Zm34.59,517.83c6.87-38.49-.71-67.73-22.69-87.68-22.02-19.92-48.84-29.91-80.46-29.91h-154.73l-41.81,235.19h165.59c31.62,0,60.51-10.64,86.65-31.98,26.11-21.31,41.94-49.84,47.45-85.62Z"/>
  <path class="cls-2" d="m1817.14,1510.16c-156.79,0-283-31.98-378.57-95.93-95.61-63.95-160.6-152.99-194.96-267.17l356.91-183.61c44,110.05,127.91,165.05,251.69,165.05,97.64,0,151.28-25.44,160.92-76.33,2.74-16.5,0-30.95-8.25-43.32-8.26-12.38-22.7-23.37-43.33-33.01-20.63-9.61-39.91-17.86-57.76-24.76-17.89-6.86-43-15.12-75.3-24.76-32.33-9.61-57.45-17.18-75.3-22.69-255.82-89.39-363.81-247.57-323.9-474.5,23.37-129.26,86.65-233.13,189.8-311.52C1722.24,39.2,1848.09,0,1996.62,0c123.79,0,229.68,28.88,317.71,86.65,88,57.77,154.73,141,200.12,249.63l-348.65,185.67c-35.78-93.51-101.09-140.29-195.99-140.29-71.53,0-112.79,24.76-123.78,74.27-5.51,30.27,6.87,55.03,37.14,74.27,30.23,19.28,92.13,44.71,185.67,76.33,59.12,19.28,108.31,38.88,147.51,58.8,39.2,19.95,79.08,47.8,119.66,83.55,40.55,35.78,68.08,81.85,82.52,138.22,14.44,56.41,15.47,122.43,3.1,198.05-24.76,140.29-89.74,246.21-194.96,317.71-105.22,71.53-241.73,107.28-409.51,107.28Z"/>
  <path class="cls-1" d="m2721.96,1477.15L2586.64,33.01h421.19l65.7,794.28L3446.25,33.01h325.38l94.74,793.63,348.01-793.63h455.94l-662.21,1444.14h-412.64l-92.19-771.58-368.68,771.58h-412.64Z"/>
</svg>