<?xml version="1.0" encoding="UTF-8"?>
<svg id="Ebene_1" data-name="Ebene 1" xmlns="http://www.w3.org/2000/svg" xmlns:xlink="http://www.w3.org/1999/xlink" viewBox="0 0 3659.62 4189.67">
  <defs>
    <style>
      .cls-1 {
        fill: #03a34c;
      }

      .cls-1, .cls-2, .cls-3 {
        stroke-width: 11.25px;
      }

      .cls-1, .cls-3 {
        stroke: #1d1d1b;
      }

      .cls-4, .cls-5, .cls-6, .cls-7, .cls-8, .cls-9, .cls-10 {
        stroke-width: 0px;
      }

      .cls-4, .cls-2, .cls-3 {
        fill: #e52228;
      }

      .cls-5 {
        fill: #010101;
      }

      .cls-7 {
        fill: none;
      }

      .cls-8 {
        fill: #221d1f;
      }

      .cls-11 {
        fill: #29235c;
        font-family: TimesNewRomanPSMT, 'Times New Roman';
        font-size: 739.99px;
      }

      .cls-2 {
        stroke: #010101;
        stroke-linejoin: round;
      }

      .cls-9 {
        fill: #fff;
      }

      .cls-12 {
        clip-path: url(#clippath);
      }

      .cls-10 {
        fill: #1d1d1b;
      }

      .cls-13 {
        letter-spacing: -.02em;
      }
    </style>
    <clipPath id="clippath">
      <rect class="cls-7" x="1535" y="1600.01" width="589.91" height="618.97"/>
    </clipPath>
  </defs>
  <g>
    <g>
      <path class="cls-6" d="m2578.69,2068.55c2.94-3.2,5.88-6.43,8.78-9.67-2.91,3.24-5.85,6.46-8.78,9.67Z"/>
      <path class="cls-6" d="m801.34,0v1378.98c0,69.77,7.03,139.51,20.89,207.27,13.52,66.03,33.68,130.99,59.93,193.06,25.78,60.94,57.68,119.72,94.82,174.71,36.79,54.45,79.04,105.67,125.58,152.21,32.01,32,66.23,61.99,102.2,89.57,16.32,12.51,33.01,24.52,50,36.01,54.99,37.15,113.77,69.06,174.71,94.84,62.06,26.25,127.02,46.41,193.06,59.92,67.76,13.87,137.49,20.9,207.27,20.9s139.51-7.03,207.27-20.9c66.04-13.51,131-33.67,193.07-59.92,60.93-25.78,119.72-57.69,174.69-94.84,17-11.49,33.69-23.5,50-36.01,35.97-27.58,70.19-57.56,102.2-89.57,46.55-46.54,88.79-97.76,125.6-152.21,37.13-54.99,69.03-113.76,94.81-174.71,26.25-62.07,46.42-127.03,59.94-193.06,13.87-67.76,20.89-137.49,20.89-207.27V0H801.34Zm2046.94,1378.98c0,1.99,0,3.99-.01,5.98v.87c-.02,1.51-.03,3.02-.05,4.53v.53l-.04,2.74c-.03,2.06-.07,4.11-.11,6.16-.04,1.77-.08,3.53-.12,5.3,0,.13-.01.27-.01.4-.04,1.65-.09,3.29-.14,4.95-.02.76-.04,1.53-.06,2.28-.01.11-.01.21-.01.32-.06,1.71-.12,3.42-.18,5.13,0,.08-.01.16-.01.24-.08,2.14-.18,4.28-.26,6.41-.07,1.59-.14,3.18-.23,4.77-.04.76-.07,1.51-.11,2.26-.07,1.25-.13,2.5-.2,3.75-.07,1.25-.14,2.5-.22,3.75-.11,1.88-.22,3.76-.34,5.63-.11,1.59-.21,3.17-.33,4.75-.29,4.23-.6,8.46-.95,12.68-.07.8-.13,1.59-.2,2.39-.12,1.51-.24,3.01-.39,4.5-.11,1.2-.21,2.4-.33,3.6-.14,1.63-.3,3.26-.46,4.89-.14,1.54-.3,3.08-.46,4.62-.18,1.84-.38,3.67-.58,5.5-.13,1.14-.24,2.29-.38,3.43-.19,1.8-.39,3.59-.6,5.39-.19,1.71-.4,3.43-.62,5.14-.02.2-.04.4-.07.59-.19,1.64-.4,3.27-.6,4.9-.11.82-.21,1.63-.31,2.45-.01.1-.03.19-.04.29-.19,1.49-.39,2.99-.59,4.48-.04.3-.08.59-.12.89-.21,1.5-.41,2.99-.62,4.49-.12.89-.25,1.79-.37,2.68-.24,1.64-.47,3.29-.72,4.93-.24,1.73-.51,3.46-.77,5.19-.11.69-.22,1.39-.32,2.08-.22,1.41-.43,2.82-.66,4.23-.17,1.1-.35,2.21-.53,3.31-.41,2.54-.83,5.06-1.25,7.59-.2,1.21-.42,2.41-.63,3.62-.36,2.08-.72,4.16-1.09,6.23-.19,1.04-.38,2.08-.58,3.12-.09.5-.18,1-.28,1.5-.14.8-.29,1.6-.44,2.4-.26,1.39-.52,2.79-.79,4.18-.43,2.26-.87,4.51-1.31,6.76-.31,1.55-.63,3.09-.94,4.64-.03.13-.05.26-.08.39-.22,1.06-.44,2.13-.66,3.19-.24,1.19-.49,2.39-.75,3.58-.13.63-.26,1.25-.4,1.88-.33,1.59-.68,3.17-1.02,4.75-.97,4.46-1.96,8.9-3,13.33-.27,1.15-.53,2.31-.81,3.46-.11.51-.23,1.01-.35,1.51-.52,2.17-1.04,4.33-1.56,6.5-.09.33-.17.64-.25.97-.54,2.23-1.1,4.45-1.66,6.68-.57,2.29-1.16,4.57-1.76,6.85-.04.18-.09.36-.14.54-.53,2.05-1.08,4.11-1.62,6.15-.08.28-.14.56-.23.83-.59,2.23-1.19,4.46-1.81,6.68-.64,2.33-1.3,4.66-1.96,6.98-.63,2.19-1.25,4.38-1.88,6.56-.61,2.1-1.23,4.2-1.86,6.28-.4,1.34-.8,2.69-1.21,4.03-.3,1.01-.61,2.01-.91,3.01-.27.86-.54,1.73-.8,2.59-.39,1.26-.78,2.51-1.18,3.76-.37,1.18-.74,2.36-1.12,3.54-.24.76-.48,1.52-.73,2.28-.39,1.23-.79,2.47-1.18,3.7-.63,1.91-1.24,3.81-1.88,5.71-.76,2.28-1.52,4.56-2.29,6.83-.57,1.68-1.14,3.35-1.72,5.02-.13.4-.27.79-.41,1.19-.58,1.67-1.16,3.34-1.74,5-.12.36-.25.71-.38,1.06-.56,1.59-1.13,3.19-1.71,4.78-.18.51-.36,1.01-.54,1.51-.43,1.19-.86,2.38-1.29,3.56-.39,1.08-.79,2.16-1.19,3.24-.46,1.26-.92,2.51-1.4,3.76-.18.49-.36.99-.55,1.48-.52,1.42-1.06,2.84-1.6,4.25-1.55,4.09-3.13,8.16-4.73,12.22-.76,1.93-1.53,3.85-2.31,5.77-.69,1.74-1.4,3.48-2.11,5.21-.09.26-.21.51-.31.77-.74,1.82-1.49,3.64-2.25,5.45-.01.04-.02.07-.04.09-.71,1.73-1.43,3.46-2.16,5.18-.16.38-.32.76-.48,1.14-.72,1.69-1.44,3.38-2.18,5.07-.81,1.89-1.64,3.79-2.47,5.68-.83,1.89-1.66,3.78-2.5,5.66-1.68,3.78-3.38,7.53-5.11,11.28-.62,1.36-1.24,2.71-1.88,4.06-.41.91-.84,1.83-1.28,2.73-.39.84-.79,1.68-1.18,2.52-.69,1.47-1.38,2.93-2.09,4.4-.18.37-.35.74-.53,1.1-.69,1.44-1.38,2.86-2.07,4.3-.48.99-.97,1.99-1.46,2.98-.94,1.93-1.9,3.86-2.86,5.78-.95,1.91-1.9,3.82-2.86,5.72-.96,1.89-1.93,3.78-2.89,5.67-.41.81-.83,1.63-1.26,2.44-.69,1.35-1.39,2.69-2.09,4.05-.24.46-.47.91-.72,1.37-.82,1.58-1.64,3.14-2.49,4.71-.25.49-.52.98-.78,1.46-.78,1.48-1.58,2.95-2.37,4.42-.31.57-.61,1.14-.92,1.71-.81,1.49-1.61,2.97-2.43,4.45-1.39,2.54-2.8,5.08-4.21,7.6-1.12,2-2.26,4-3.39,5.99-1.09,1.93-2.19,3.84-3.3,5.76-.26.44-.5.88-.76,1.32-.81,1.41-1.63,2.81-2.46,4.22-.49.84-.98,1.68-1.48,2.51-.78,1.31-1.55,2.63-2.34,3.93-.19.32-.38.65-.58.97-1.03,1.73-2.07,3.46-3.11,5.18-.17.29-.34.57-.51.85-1.17,1.93-2.35,3.86-3.54,5.79-2.44,3.97-4.91,7.93-7.41,11.86-.14.22-.28.44-.41.65-1.16,1.83-2.33,3.65-3.51,5.47h0c-1.02,1.59-2.04,3.17-3.07,4.74-.66,1.01-1.32,2.03-1.98,3.03-.38.58-.76,1.16-1.14,1.73-.74,1.13-1.49,2.26-2.24,3.38-.59.89-1.19,1.78-1.79,2.67-.63.94-1.26,1.89-1.9,2.83-1.21,1.79-2.43,3.58-3.65,5.36-1.29,1.9-2.61,3.79-3.91,5.68-1.28,1.85-2.58,3.69-3.88,5.53-.19.29-.39.57-.6.85-1.04,1.49-2.09,2.97-3.16,4.45-.36.52-.74,1.04-1.11,1.56-1.18,1.64-2.36,3.28-3.55,4.91-1.37,1.89-2.74,3.78-4.13,5.65-.02.03-.04.06-.06.08-1.14,1.55-2.28,3.09-3.44,4.63-.38.51-.74,1.02-1.13,1.53-1.29,1.72-2.58,3.43-3.88,5.15-1.56,2.06-3.13,4.11-4.71,6.16-1.21,1.58-2.43,3.14-3.65,4.71-.25.33-.5.65-.76.97-1.29,1.64-2.57,3.28-3.87,4.92-1.46,1.84-2.92,3.69-4.4,5.52-1.39,1.73-2.78,3.45-4.18,5.17-3.14,3.86-6.31,7.71-9.51,11.52-1.39,1.68-2.8,3.34-4.21,5.01-.08.09-.14.17-.22.25-1.48,1.74-2.96,3.48-4.45,5.2-1.13,1.32-2.27,2.63-3.41,3.95-.66.78-1.35,1.56-2.03,2.33-1.27,1.46-2.55,2.91-3.84,4.37-1.41,1.59-2.82,3.18-4.24,4.76-.28.32-.56.63-.84.94-2.91,3.24-5.84,6.46-8.78,9.67-1.38,1.49-2.76,2.98-4.14,4.45-.79.86-1.59,1.71-2.39,2.56-.89.94-1.78,1.89-2.67,2.83-.44.48-.89.95-1.34,1.43-1.25,1.32-2.51,2.64-3.78,3.95-.25.27-.51.54-.76.8-1.33,1.39-2.68,2.78-4.03,4.16-3.76,3.87-7.55,7.71-11.38,11.52-1.38,1.38-2.78,2.76-4.18,4.14-1.68,1.65-3.36,3.29-5.05,4.93-1.52,1.49-3.06,2.97-4.6,4.45-.29.29-.58.56-.88.84-1.54,1.48-3.08,2.95-4.64,4.41-.04.04-.07.07-.1.09-1.7,1.61-3.41,3.21-5.12,4.81-1.72,1.61-3.44,3.21-5.18,4.8-1.73,1.59-3.47,3.18-5.21,4.76-1.68,1.52-3.35,3.03-5.03,4.53-.17.16-.35.31-.53.46-1.65,1.48-3.31,2.95-4.97,4.41-1.77,1.56-3.54,3.11-5.31,4.65-1.44,1.26-2.89,2.51-4.34,3.75-2.13,1.84-4.26,3.66-6.41,5.48-1.79,1.51-3.58,3.01-5.38,4.51-1.75,1.47-3.51,2.93-5.27,4.38-1.44,1.18-2.88,2.36-4.33,3.53-.74.61-1.49,1.22-2.24,1.83-1.52,1.23-3.04,2.44-4.56,3.66-1.81,1.45-3.63,2.89-5.44,4.33-.04.03-.06.05-.09.07-.02.02-.04.04-.06.05-1.04.81-2.07,1.63-3.1,2.43-.47.37-.93.73-1.39,1.09-.95.74-1.9,1.48-2.84,2.21-.54.42-1.08.84-1.63,1.25-1.08.83-2.16,1.66-3.24,2.49-1.37,1.05-2.75,2.09-4.13,3.13-2.75,2.08-5.51,4.15-8.29,6.21-1.24.92-2.48,1.83-3.73,2.74-.24.19-.5.38-.76.55-1.29.95-2.58,1.89-3.87,2.83-1.35.98-2.7,1.95-4.04,2.92-.18.13-.37.26-.55.39-1.28.91-2.55,1.83-3.83,2.73-1.41,1-2.83,1.99-4.23,2.99-2.83,1.99-5.67,3.96-8.52,5.91-1.29.89-2.58,1.77-3.88,2.65-.23.16-.44.31-.68.46-1.03.7-2.06,1.39-3.09,2.09-.7.48-1.4.95-2.09,1.41-.93.62-1.86,1.24-2.79,1.86-.41.28-.83.56-1.26.83-1.13.76-2.28,1.51-3.43,2.26-2.88,1.91-5.78,3.79-8.7,5.66-1.46.94-2.91,1.87-4.38,2.8-1.46.93-2.92,1.85-4.39,2.78-1.46.92-2.93,1.84-4.4,2.75-1.45.91-2.92,1.81-4.38,2.71-.05.04-.11.07-.18.11-1.43.88-2.86,1.75-4.28,2.62-1.49.91-2.96,1.8-4.46,2.69-1.03.63-2.06,1.24-3.11,1.86-1.19.72-2.39,1.43-3.6,2.14-1.1.66-2.2,1.3-3.3,1.94-.77.45-1.54.9-2.31,1.34-2.41,1.41-4.81,2.79-7.24,4.18-.96.55-1.93,1.1-2.9,1.65-3.02,1.71-6.05,3.41-9.08,5.08-1.51.84-3.03,1.68-4.56,2.51-1.53.84-3.04,1.66-4.58,2.49-1.49.81-2.98,1.61-4.48,2.41-1.22.66-2.44,1.31-3.67,1.95-1.34.71-2.66,1.41-4.01,2.1-2.08,1.09-4.18,2.18-6.28,3.26-1.05.54-2.09,1.08-3.14,1.61-1.39.71-2.79,1.42-4.2,2.13-1.08.54-2.16,1.09-3.24,1.63-2.18,1.09-4.37,2.18-6.56,3.24-1.13.56-2.26,1.11-3.4,1.66-.94.46-1.88.92-2.83,1.37-4,1.93-8.02,3.84-12.06,5.71-1.33.63-2.68,1.25-4.02,1.86-1.76.81-3.52,1.62-5.29,2.42-5.84,2.64-11.7,5.24-17.59,7.77-1.73.75-3.45,1.49-5.18,2.22-.28.11-.54.23-.81.34-1.72.73-3.45,1.45-5.17,2.17-1.54.64-3.08,1.28-4.61,1.91-.77.32-1.54.63-2.31.94-6.8,2.78-13.64,5.48-20.51,8.1-1.01.39-2.04.78-3.06,1.17-.89.34-1.77.67-2.64.99-.98.38-1.96.74-2.93,1.1-1.54.58-3.07,1.14-4.61,1.7-1.89.69-3.8,1.39-5.7,2.07-3.56,1.28-7.13,2.54-10.71,3.78-1.28.44-2.55.89-3.83,1.32-.35.12-.7.24-1.05.36-1.09.38-2.18.74-3.26,1.11-1,.34-1.99.67-3,1.01-.99.33-1.98.66-2.98.99-3.54,1.18-7.08,2.33-10.65,3.46-1.89.61-3.78,1.2-5.68,1.79-1.51.48-3.01.94-4.51,1.39-1.13.35-2.26.69-3.39,1.03-1.08.34-2.17.66-3.26.98-.62.19-1.24.38-1.86.56-.99.3-1.98.59-2.97.88-1.13.34-2.27.67-3.41,1-5.3,1.54-10.6,3.03-15.92,4.48-.89.24-1.78.48-2.66.71-1.1.31-2.21.6-3.33.89-1.21.33-2.43.64-3.65.96-.03.01-.06.02-.09.03-1.62.42-3.24.84-4.86,1.26-3.52.91-7.05,1.79-10.58,2.65-1.73.43-3.45.84-5.19,1.26-1.17.28-2.34.56-3.52.83-1.09.26-2.19.52-3.29.78-.47.11-.94.22-1.42.33-1.28.3-2.57.59-3.86.88-.89.2-1.77.4-2.66.6-2.58.58-5.18,1.15-7.78,1.71-1.18.26-2.36.51-3.54.76-3.19.68-6.39,1.34-9.59,1.98-1.26.26-2.51.51-3.77.76-1.41.28-2.81.56-4.22.83-1.69.33-3.37.65-5.06.96-1.02.19-2.03.38-3.06.57-2.09.39-4.2.77-6.3,1.14-3.15.56-6.3,1.11-9.47,1.64-.34.06-.69.12-1.03.17-1.36.23-2.72.45-4.08.67-.49.09-.99.16-1.48.24-1.25.2-2.5.4-3.75.59-.69.12-1.4.22-2.1.33-1.36.21-2.71.42-4.06.63-7.26,1.1-14.54,2.12-21.84,3.06-1.38.18-2.77.36-4.15.53-1.51.19-3.04.38-4.57.56-1.39.17-2.78.34-4.16.49-.89.11-1.76.21-2.64.31-.58.06-1.15.13-1.72.19-1.39.16-2.79.31-4.19.46-3.79.41-7.61.8-11.42,1.17-.97.09-1.94.18-2.91.28-.99.09-1.97.18-2.96.27-1.08.1-2.16.19-3.24.29-1.12.1-2.24.19-3.36.29-.57.05-1.13.1-1.71.14-1.98.16-3.97.32-5.96.48h-.04c-1.34.11-2.68.21-4.03.3-.82.06-1.64.12-2.47.17-1.88.13-3.75.26-5.63.38-1.74.11-3.48.22-5.21.32-.04,0-.09,0-.14,0-1.44.09-2.89.17-4.34.25-.79.04-1.59.09-2.39.12-.94.06-1.88.1-2.82.14-1.58.08-3.16.16-4.76.23-.29.02-.58.03-.87.04-1.63.08-3.24.14-4.86.2-2.49.1-4.97.19-7.46.27-1.84.06-3.68.12-5.53.16-1.27.04-2.55.07-3.83.09-1.16.03-2.31.06-3.47.07-.47.01-.94.03-1.41.03-1.4.03-2.8.05-4.2.07-1.23.02-2.47.03-3.7.04-1.67.02-3.34.04-5.01.04-2.04.01-4.07.02-6.11.02s-4.08,0-6.11-.02c-1.66,0-3.33-.03-5.01-.04-1.23-.01-2.47-.03-3.7-.04-1.39-.02-2.79-.04-4.2-.07-.47,0-.94-.02-1.41-.03-1.16-.02-2.31-.04-3.48-.07-1.28-.03-2.56-.06-3.83-.09-1.85-.04-3.69-.1-5.53-.16-2.48-.08-4.96-.17-7.45-.27-1.62-.06-3.24-.12-4.86-.2-.29-.01-.58-.03-.88-.04-1.59-.07-3.18-.14-4.75-.23-.94-.04-1.88-.09-2.82-.14-.8-.04-1.61-.08-2.4-.12-1.44-.08-2.89-.16-4.33-.25-.05,0-.09,0-.14,0-1.73-.1-3.48-.21-5.21-.32-1.88-.13-3.76-.25-5.63-.38-.83-.06-1.64-.11-2.46-.17-1.35-.09-2.69-.19-4.03-.3h-.05c-1.99-.16-4-.31-6-.48-.49-.04-.99-.08-1.48-.12-1.23-.1-2.46-.21-3.68-.32-1.02-.09-2.05-.17-3.08-.27-1-.09-1.99-.18-2.99-.28-.97-.09-1.93-.18-2.9-.28-3.81-.37-7.62-.76-11.42-1.17-1.4-.15-2.79-.3-4.19-.46-.58-.06-1.14-.13-1.72-.19-.89-.1-1.76-.2-2.64-.31-1.39-.16-2.78-.33-4.16-.49-1.52-.18-3.05-.37-4.57-.56-1.39-.17-2.77-.34-4.15-.53-7.31-.94-14.6-1.96-21.84-3.06-1.36-.21-2.72-.41-4.06-.63-.71-.11-1.41-.21-2.11-.33-1.25-.19-2.5-.39-3.75-.59-.49-.08-.99-.16-1.48-.24-1.36-.22-2.72-.44-4.08-.67-.38-.06-.76-.12-1.13-.19-3.1-.52-6.19-1.05-9.27-1.6-2.08-.37-4.13-.74-6.2-1.13-1.19-.22-2.38-.44-3.57-.67-1.58-.29-3.17-.59-4.75-.9-1.41-.27-2.81-.54-4.22-.83-1.26-.24-2.51-.5-3.77-.76-3.19-.64-6.4-1.3-9.58-1.98-1.18-.25-2.36-.5-3.54-.76-2.59-.56-5.19-1.13-7.78-1.71-.93-.21-1.86-.42-2.78-.63-1.16-.26-2.31-.52-3.45-.79-.61-.13-1.22-.28-1.83-.42-1.06-.24-2.11-.49-3.16-.74-1.18-.27-2.34-.55-3.53-.83-1.73-.41-3.46-.83-5.18-1.26-3.44-.84-6.9-1.71-10.33-2.59-1.71-.44-3.41-.88-5.12-1.33-.03,0-.05-.01-.07-.03-1.34-.34-2.68-.7-4.01-1.06-.8-.21-1.6-.42-2.41-.64-1.21-.33-2.43-.65-3.63-.98-.22-.06-.46-.13-.69-.19-1.54-.42-3.08-.84-4.61-1.27-3.41-.95-6.81-1.92-10.22-2.91-.92-.26-1.84-.53-2.76-.81-1.33-.38-2.64-.78-3.96-1.17-1.47-.44-2.95-.88-4.42-1.33-1.36-.41-2.73-.83-4.08-1.24-6.86-2.1-13.7-4.28-20.49-6.53-1.06-.35-2.13-.71-3.19-1.06-.81-.28-1.62-.54-2.42-.82-1.36-.46-2.72-.92-4.06-1.38-1.49-.51-2.96-1.01-4.45-1.53-3.58-1.24-7.15-2.5-10.7-3.78-1.81-.65-3.62-1.3-5.42-1.96-3.34-1.23-6.69-2.47-10.02-3.73-1.31-.49-2.63-.99-3.94-1.5-7.4-2.83-14.75-5.75-22.06-8.75-1.66-.67-3.3-1.35-4.94-2.04-1.73-.71-3.45-1.44-5.17-2.17-.28-.11-.55-.23-.81-.34-1.73-.73-3.45-1.47-5.18-2.22-4.28-1.83-8.53-3.7-12.76-5.6-1.5-.66-3-1.34-4.5-2.02-1.66-.75-3.32-1.51-4.98-2.27-5.61-2.57-11.18-5.2-16.73-7.87-1.07-.51-2.13-1.03-3.21-1.55-1.14-.55-2.27-1.1-3.4-1.66-1.73-.84-3.46-1.69-5.18-2.56-1.37-.68-2.74-1.36-4.1-2.05-.88-.44-1.73-.88-2.61-1.31-5.46-2.77-10.89-5.58-16.29-8.45-1.29-.69-2.59-1.38-3.88-2.07-.35-.19-.71-.38-1.06-.56-1.37-.73-2.73-1.47-4.09-2.21-.48-.26-.96-.51-1.43-.78-1.59-.86-3.18-1.74-4.76-2.61-1.8-.99-3.59-1.99-5.38-2.99-2.18-1.23-4.36-2.45-6.54-3.7-1.19-.67-2.38-1.36-3.57-2.04-1.3-.74-2.59-1.49-3.88-2.24-1.09-.63-2.18-1.26-3.25-1.89-1.06-.61-2.11-1.23-3.16-1.86-6.91-4.08-13.77-8.23-20.58-12.47-1.27-.79-2.56-1.59-3.83-2.4-1.18-.74-2.36-1.49-3.53-2.23l-2.59-1.65c-.88-.56-1.76-1.13-2.63-1.69-1.46-.93-2.9-1.88-4.36-2.82-3.02-1.96-6.03-3.94-9.02-5.94-.93-.62-1.86-1.24-2.79-1.86-1.36-.91-2.72-1.82-4.06-2.74-1.16-.77-2.3-1.55-3.44-2.34-3.81-2.59-7.6-5.22-11.37-7.87-1.49-1.04-2.97-2.09-4.45-3.14-.36-.26-.73-.52-1.09-.78-1.09-.78-2.19-1.56-3.28-2.35-6.68-4.8-13.3-9.68-19.86-14.65-1.01-.76-2-1.52-3.01-2.29-1.02-.78-2.05-1.56-3.06-2.34-1.13-.86-2.26-1.73-3.38-2.6-.71-.55-1.42-1.1-2.13-1.65-1.61-1.25-3.21-2.51-4.8-3.77-.14-.11-.29-.22-.43-.33-1.71-1.35-3.41-2.7-5.11-4.06-1.47-1.18-2.93-2.35-4.4-3.54-.88-.71-1.76-1.42-2.63-2.13-.6-.49-1.19-.98-1.8-1.48-.94-.76-1.88-1.53-2.81-2.3-1.59-1.31-3.19-2.63-4.77-3.96-1.8-1.5-3.59-3.01-5.38-4.51-2.24-1.89-4.48-3.8-6.7-5.72-1.32-1.13-2.63-2.27-3.94-3.41-.08-.07-.16-.14-.24-.21-1.69-1.47-3.38-2.94-5.06-4.43-.08-.06-.15-.13-.22-.19-1.44-1.27-2.88-2.54-4.31-3.83-2.04-1.81-4.07-3.64-6.1-5.48-1.7-1.54-3.39-3.08-5.08-4.64-3.29-3.02-6.55-6.06-9.79-9.12-.9-.84-1.79-1.69-2.68-2.54-.63-.59-1.27-1.19-1.89-1.81-.88-.83-1.75-1.66-2.61-2.51-.88-.83-1.76-1.68-2.63-2.53-.68-.64-1.36-1.31-2.03-1.97-2.26-2.19-4.51-4.41-6.74-6.63-.98-.96-1.96-1.93-2.93-2.91-2.88-2.88-5.75-5.78-8.59-8.7-1.01-1.03-2.01-2.06-3.01-3.1-.59-.59-1.16-1.19-1.73-1.78-.93-.96-1.86-1.92-2.77-2.88-.54-.55-1.07-1.11-1.59-1.67-1.1-1.14-2.19-2.29-3.26-3.44-.22-.22-.43-.45-.64-.68-1.3-1.38-2.59-2.76-3.88-4.15-1.36-1.45-2.7-2.91-4.05-4.37-1.33-1.44-2.66-2.9-3.98-4.36-1.04-1.13-2.06-2.26-3.08-3.4-.43-.47-.85-.94-1.27-1.41-.76-.84-1.51-1.69-2.26-2.53-.83-.93-1.66-1.85-2.48-2.78-1.21-1.37-2.42-2.74-3.63-4.12-1.14-1.29-2.27-2.59-3.4-3.9-1.09-1.26-2.17-2.51-3.25-3.78-.93-1.08-1.86-2.16-2.78-3.24-.59-.69-1.18-1.38-1.76-2.07-.71-.83-1.41-1.66-2.11-2.5-.79-.93-1.58-1.87-2.36-2.81-2.62-3.13-5.21-6.28-7.79-9.43-.66-.8-1.31-1.59-1.94-2.39-1.03-1.27-2.05-2.53-3.08-3.81-.07-.1-.16-.21-.24-.31-1.43-1.78-2.85-3.56-4.26-5.35-1.07-1.35-2.13-2.7-3.19-4.06-.64-.81-1.27-1.61-1.9-2.43-.7-.9-1.4-1.8-2.09-2.7-.76-.98-1.51-1.96-2.27-2.95-2.98-3.88-5.93-7.78-8.85-11.71-.92-1.22-1.83-2.44-2.73-3.67-.49-.67-.99-1.34-1.48-2.02-.89-1.21-1.78-2.42-2.66-3.63-.33-.45-.66-.91-.98-1.36-.98-1.35-1.96-2.7-2.93-4.06-.43-.59-.86-1.19-1.28-1.79-.79-1.09-1.56-2.19-2.34-3.29-.61-.86-1.22-1.72-1.82-2.58-3.69-5.24-7.33-10.52-10.92-15.84-.66-.96-1.31-1.93-1.95-2.89-.6-.89-1.19-1.78-1.79-2.67-.75-1.13-1.5-2.25-2.24-3.38-.38-.58-.76-1.15-1.14-1.73-.69-1.06-1.39-2.11-2.08-3.17-.74-1.13-1.48-2.26-2.2-3.4-.41-.61-.8-1.23-1.19-1.84-1-1.56-2.01-3.11-2.99-4.68-.17-.28-.34-.54-.51-.82-1.24-1.93-2.46-3.88-3.68-5.82-1.26-2-2.5-4.01-3.74-6.03-1.09-1.76-2.17-3.53-3.24-5.3-.51-.83-1.01-1.66-1.51-2.5-.68-1.11-1.35-2.23-2.01-3.34-.61-1.01-1.21-2.03-1.81-3.04-.33-.55-.66-1.1-.98-1.65-.76-1.28-1.51-2.55-2.25-3.83-.69-1.18-1.38-2.35-2.06-3.53-.32-.53-.63-1.07-.93-1.61-.87-1.49-1.72-2.97-2.57-4.46-1.38-2.41-2.74-4.83-4.1-7.25-1-1.79-2-3.58-2.99-5.38-.66-1.19-1.31-2.38-1.96-3.58-.47-.85-.93-1.7-1.39-2.56-.58-1.08-1.17-2.15-1.74-3.23-.48-.88-.95-1.76-1.41-2.64-.54-1-1.08-2.01-1.61-3.01-.53-.98-1.04-1.95-1.55-2.93-.52-1-1.05-2-1.58-3-.39-.75-.78-1.51-1.17-2.26-.69-1.33-1.38-2.66-2.06-3.99-1.88-3.66-3.73-7.33-5.56-11.02-.92-1.84-1.84-3.69-2.74-5.53-.65-1.32-1.3-2.64-1.93-3.97-.48-.98-.94-1.95-1.41-2.93-.46-.92-.89-1.84-1.33-2.77-.41-.85-.82-1.71-1.21-2.56-.61-1.26-1.2-2.53-1.79-3.8-.29-.61-.58-1.23-.86-1.84-.7-1.48-1.39-2.97-2.07-4.46-1.73-3.74-3.43-7.51-5.11-11.28-1.68-3.77-3.34-7.55-4.97-11.35-.73-1.69-1.46-3.38-2.17-5.07-.16-.38-.33-.76-.48-1.14-.73-1.72-1.46-3.44-2.17-5.18-.02-.03-.03-.06-.04-.09-.78-1.86-1.55-3.72-2.31-5.58-.04-.09-.08-.19-.11-.28-2.33-5.68-4.61-11.39-6.83-17.12-.46-1.19-.93-2.39-1.38-3.58-.36-.93-.72-1.86-1.08-2.79-.54-1.43-1.08-2.87-1.62-4.31-.19-.49-.38-.98-.55-1.48-.49-1.3-.98-2.61-1.46-3.91-.33-.89-.66-1.78-.98-2.68-.56-1.52-1.11-3.04-1.66-4.57-.71-1.96-1.41-3.91-2.09-5.87-.69-1.96-1.38-3.93-2.06-5.89-.71-2.06-1.43-4.13-2.13-6.2-.77-2.28-1.53-4.56-2.29-6.84-.63-1.9-1.25-3.8-1.87-5.71-.43-1.34-.86-2.68-1.29-4.01-.17-.52-.34-1.04-.5-1.57-.46-1.41-.9-2.84-1.34-4.26-.34-1.08-.68-2.16-1.01-3.24-.29-.93-.58-1.86-.86-2.79-.31-1-.61-2.01-.91-3.01-.41-1.34-.81-2.68-1.21-4.03-.78-2.59-1.54-5.18-2.29-7.78-.49-1.68-.97-3.37-1.45-5.06-.66-2.33-1.31-4.65-1.95-6.98-.62-2.22-1.23-4.45-1.82-6.68-.08-.28-.16-.56-.23-.83-.55-2.04-1.09-4.1-1.63-6.15-.05-.18-.1-.36-.14-.54-.59-2.28-1.18-4.56-1.76-6.85-.56-2.23-1.12-4.45-1.66-6.68-.08-.33-.16-.64-.24-.97-.53-2.16-1.05-4.33-1.56-6.5-.13-.51-.24-1.01-.36-1.51-.28-1.15-.54-2.31-.81-3.46-1.03-4.43-2.03-8.87-3-13.33-.34-1.58-.69-3.16-1.02-4.75-.14-.63-.27-1.25-.4-1.88-.26-1.19-.51-2.39-.75-3.58-.22-1.06-.44-2.13-.66-3.19-.03-.13-.06-.26-.08-.39-.31-1.54-.63-3.09-.93-4.64-.45-2.25-.89-4.51-1.32-6.76-.27-1.39-.53-2.79-.79-4.18-.15-.8-.3-1.6-.44-2.4-.09-.5-.19-1-.28-1.5-.19-1.04-.38-2.08-.57-3.12-.38-2.07-.74-4.15-1.1-6.23-.21-1.21-.42-2.41-.62-3.62-.43-2.53-.85-5.05-1.26-7.59-.18-1.1-.36-2.21-.53-3.31-.23-1.41-.44-2.81-.66-4.23-.11-.69-.21-1.39-.32-2.08-.26-1.73-.53-3.46-.78-5.19-.24-1.64-.48-3.28-.71-4.93l-.38-2.68c-.21-1.49-.41-2.99-.61-4.49-.04-.29-.08-.59-.12-.89-.2-1.49-.4-2.98-.59-4.48-.01-.09-.02-.19-.04-.29-.11-.82-.21-1.63-.31-2.45-.21-1.63-.41-3.26-.61-4.9-.03-.19-.05-.39-.07-.59-.21-1.71-.42-3.43-.61-5.14-.21-1.79-.41-3.59-.61-5.39-.13-1.14-.25-2.29-.38-3.43-.19-1.83-.39-3.66-.57-5.5-.16-1.54-.31-3.08-.46-4.62-.16-1.63-.32-3.26-.46-4.89-.11-1.2-.22-2.4-.33-3.6-.14-1.49-.26-2.99-.39-4.5-.07-.8-.13-1.59-.19-2.39-.35-4.22-.67-8.45-.96-12.68-.11-1.58-.22-3.16-.32-4.75-.12-1.87-.24-3.75-.34-5.63-.08-1.24-.14-2.49-.21-3.75-.07-1.25-.14-2.5-.2-3.75-.04-.75-.08-1.5-.11-2.26-.08-1.59-.16-3.18-.23-4.77-.09-2.13-.19-4.27-.26-6.41,0-.08-.01-.16-.01-.24-.06-1.71-.13-3.41-.18-5.13,0-.11,0-.21-.01-.32-.02-.76-.05-1.52-.07-2.28-.05-1.65-.1-3.29-.14-4.95,0-.13,0-.27,0-.4-.04-1.76-.09-3.53-.12-5.3-.04-2.05-.08-4.11-.11-6.16-.01-.91-.02-1.83-.04-2.74,0-.18,0-.35,0-.53-.02-1.51-.03-3.02-.04-4.53v-.87c-.01-1.99-.02-3.99-.02-5.98V10h2036.93v1368.98Z"/>
      <path class="cls-1" d="m2848.27,10v1368.98c0,1.99,0,3.99-.01,5.98v.87c-.02,1.51-.03,3.02-.05,4.53v.53l-.04,2.74c-.03,2.06-.07,4.11-.11,6.16-.04,1.77-.08,3.53-.12,5.3,0,.13-.01.27-.01.4-.04,1.65-.09,3.29-.14,4.95-.02.76-.04,1.53-.06,2.28-.01.11-.01.21-.01.32-.06,1.71-.12,3.42-.18,5.13,0,.08-.01.16-.01.24-.08,2.14-.18,4.28-.26,6.41-.07,1.59-.14,3.18-.23,4.77-.04.76-.07,1.51-.11,2.26-.07,1.25-.13,2.5-.2,3.75-.07,1.25-.14,2.5-.22,3.75-.11,1.88-.22,3.76-.34,5.63-.11,1.59-.21,3.17-.33,4.75-.29,4.23-.6,8.46-.95,12.68-.07.8-.13,1.59-.2,2.39-.12,1.51-.24,3.01-.39,4.5-.11,1.2-.21,2.4-.33,3.6-.14,1.63-.3,3.26-.46,4.89-.14,1.54-.3,3.08-.46,4.62-.18,1.84-.38,3.67-.58,5.5-.13,1.14-.24,2.29-.38,3.43-.19,1.8-.39,3.59-.6,5.39-.19,1.71-.4,3.43-.62,5.14-.02.2-.04.4-.07.59-.19,1.64-.4,3.27-.6,4.9-.11.82-.21,1.63-.31,2.45-.01.1-.03.19-.04.29-.19,1.49-.39,2.99-.59,4.48-.04.3-.08.59-.12.89-.21,1.5-.41,2.99-.62,4.49-.12.89-.25,1.79-.37,2.68-.24,1.64-.47,3.29-.72,4.93-.24,1.73-.51,3.46-.77,5.19-.11.69-.22,1.39-.32,2.08-.22,1.41-.43,2.82-.66,4.23-.17,1.1-.35,2.21-.53,3.31-.41,2.54-.83,5.06-1.25,7.59-.2,1.21-.42,2.41-.63,3.62-.36,2.08-.72,4.16-1.09,6.23-.19,1.04-.38,2.08-.58,3.12-.09.5-.18,1-.28,1.5-.14.8-.29,1.6-.44,2.4-.26,1.39-.52,2.79-.79,4.18-.43,2.26-.87,4.51-1.31,6.76-.31,1.55-.63,3.09-.94,4.64-.03.13-.05.26-.08.39-.22,1.06-.44,2.13-.66,3.19-.24,1.19-.49,2.39-.75,3.58-.13.63-.26,1.25-.4,1.88-.33,1.59-.68,3.17-1.02,4.75-.97,4.46-1.96,8.9-3,13.33-.27,1.15-.53,2.31-.81,3.46-.11.51-.23,1.01-.35,1.51-.52,2.17-1.04,4.33-1.56,6.5-.09.33-.17.64-.25.97-.54,2.23-1.1,4.45-1.66,6.68-.57,2.29-1.16,4.57-1.76,6.85-.04.18-.09.36-.14.54-.53,2.05-1.08,4.11-1.62,6.15-.08.28-.14.56-.23.83-.59,2.23-1.19,4.46-1.81,6.68-.64,2.33-1.3,4.66-1.96,6.98-.63,2.19-1.25,4.38-1.88,6.56-.61,2.1-1.23,4.2-1.86,6.28-.4,1.34-.8,2.69-1.21,4.03-.3,1.01-.61,2.01-.91,3.01-.27.86-.54,1.73-.8,2.59-.39,1.26-.78,2.51-1.18,3.76-.37,1.18-.74,2.36-1.12,3.54-.24.76-.48,1.52-.73,2.28-.39,1.23-.79,2.47-1.18,3.7-.63,1.91-1.24,3.81-1.88,5.71-.76,2.28-1.52,4.56-2.29,6.83-.57,1.68-1.14,3.35-1.72,5.02-.13.4-.27.79-.41,1.19-.58,1.67-1.16,3.34-1.74,5-.12.36-.25.71-.38,1.06-.56,1.59-1.13,3.19-1.71,4.78-.18.51-.36,1.01-.54,1.51-.43,1.19-.86,2.38-1.29,3.56-.39,1.08-.79,2.16-1.19,3.24-.46,1.26-.92,2.51-1.4,3.76-.18.49-.36.99-.55,1.48-.52,1.42-1.06,2.84-1.6,4.25-1.55,4.09-3.13,8.16-4.73,12.22-.76,1.93-1.53,3.85-2.31,5.77-.69,1.74-1.4,3.48-2.11,5.21-.09.26-.21.51-.31.77-.74,1.82-1.49,3.64-2.25,5.45-.01.04-.02.07-.04.09-.71,1.73-1.43,3.46-2.16,5.18-.16.38-.32.76-.48,1.14-.72,1.69-1.44,3.38-2.18,5.07-.81,1.89-1.64,3.79-2.47,5.68-.83,1.89-1.66,3.78-2.5,5.66-1.68,3.78-3.38,7.53-5.11,11.28-.62,1.36-1.24,2.71-1.88,4.06-.41.91-.84,1.83-1.28,2.73-.39.84-.79,1.68-1.18,2.52-.69,1.47-1.38,2.93-2.09,4.4-.18.37-.35.74-.53,1.1-.69,1.44-1.38,2.86-2.07,4.3-.48.99-.97,1.99-1.46,2.98-.94,1.93-1.9,3.86-2.86,5.78-.95,1.91-1.9,3.82-2.86,5.72-.96,1.89-1.93,3.78-2.89,5.67-.41.81-.83,1.63-1.26,2.44-.69,1.35-1.39,2.69-2.09,4.05-.24.46-.47.91-.72,1.37-.82,1.58-1.64,3.14-2.49,4.71-.25.49-.52.98-.78,1.46-.78,1.48-1.58,2.95-2.37,4.42-.31.57-.61,1.14-.92,1.71-.81,1.49-1.61,2.97-2.43,4.45-1.39,2.54-2.8,5.08-4.21,7.6-1.12,2-2.26,4-3.39,5.99-1.09,1.93-2.19,3.84-3.3,5.76-.26.44-.5.88-.76,1.32-.81,1.41-1.63,2.81-2.46,4.22-.49.84-.98,1.68-1.48,2.51-.78,1.31-1.55,2.63-2.34,3.93-.19.32-.38.65-.58.97-1.03,1.73-2.07,3.46-3.11,5.18-.17.29-.34.57-.51.85-1.17,1.93-2.35,3.86-3.54,5.79-2.44,3.97-4.91,7.93-7.41,11.86-.14.22-.28.44-.41.65-1.16,1.83-2.33,3.65-3.51,5.47h0c-1.02,1.59-2.04,3.17-3.07,4.74-.66,1.01-1.32,2.03-1.98,3.03-.38.58-.76,1.16-1.14,1.73-.74,1.13-1.49,2.26-2.24,3.38-.59.89-1.19,1.78-1.79,2.67-.63.94-1.26,1.89-1.9,2.83-1.21,1.79-2.43,3.58-3.65,5.36-1.29,1.9-2.61,3.79-3.91,5.68-1.28,1.85-2.58,3.69-3.88,5.53-.19.29-.39.57-.6.85-1.04,1.49-2.09,2.97-3.16,4.45-.36.52-.74,1.04-1.11,1.56-1.18,1.64-2.36,3.28-3.55,4.91-1.37,1.89-2.74,3.78-4.13,5.65-.02.03-.04.06-.06.08-1.14,1.55-2.28,3.09-3.44,4.63-.38.51-.74,1.02-1.13,1.53-1.29,1.72-2.58,3.43-3.88,5.15-1.56,2.06-3.13,4.11-4.71,6.16-1.21,1.58-2.43,3.14-3.65,4.71-.25.33-.5.65-.76.97-1.29,1.64-2.57,3.28-3.87,4.92-1.46,1.84-2.92,3.69-4.4,5.52-1.39,1.73-2.78,3.45-4.18,5.17-3.14,3.86-6.31,7.71-9.51,11.52-1.39,1.68-2.8,3.34-4.21,5.01-.08.09-.14.17-.22.25-1.48,1.74-2.96,3.48-4.45,5.2-1.13,1.32-2.27,2.63-3.41,3.95-.66.78-1.35,1.56-2.03,2.33-1.27,1.46-2.55,2.91-3.84,4.37-1.41,1.59-2.82,3.18-4.24,4.76-.28.32-.56.63-.84.94-2.91,3.24-5.85,6.46-8.78,9.67-1.38,1.49-2.76,2.98-4.14,4.45-.79.86-1.59,1.71-2.39,2.56-.89.94-1.78,1.89-2.67,2.83-.44.48-.89.95-1.34,1.43-1.25,1.32-2.51,2.64-3.78,3.95-.25.27-.51.54-.76.8-1.33,1.39-2.68,2.78-4.03,4.16-3.76,3.87-7.55,7.71-11.38,11.52-1.38,1.38-2.78,2.76-4.18,4.14-1.68,1.65-3.36,3.29-5.05,4.93-1.52,1.49-3.06,2.97-4.6,4.45-.29.29-.58.56-.88.84-1.54,1.48-3.08,2.95-4.64,4.41-.04.04-.07.07-.1.09-1.7,1.61-3.41,3.21-5.12,4.81-1.72,1.61-3.44,3.21-5.18,4.8-1.73,1.59-3.47,3.18-5.21,4.76-1.68,1.52-3.35,3.03-5.03,4.53-.17.16-.35.31-.53.46-1.65,1.48-3.31,2.95-4.97,4.41-1.77,1.56-3.54,3.11-5.31,4.65-1.44,1.26-2.89,2.51-4.34,3.75-2.13,1.84-4.26,3.66-6.41,5.48-1.79,1.51-3.58,3.01-5.38,4.51-1.75,1.47-3.51,2.93-5.27,4.38-1.44,1.18-2.88,2.36-4.33,3.53-.74.61-1.49,1.22-2.24,1.83-1.52,1.23-3.04,2.44-4.56,3.66-1.81,1.45-3.63,2.89-5.44,4.33-.04.03-.06.05-.09.07-.02.02-.04.04-.06.05-1.04.81-2.07,1.63-3.1,2.43-.47.37-.93.73-1.39,1.09-.95.74-1.9,1.48-2.84,2.21-.54.42-1.08.84-1.63,1.25-1.08.83-2.16,1.66-3.24,2.49-1.37,1.05-2.75,2.09-4.13,3.13-2.75,2.08-5.51,4.15-8.29,6.21-1.24.92-2.48,1.83-3.73,2.74-.24.19-.5.38-.76.55-1.29.95-2.58,1.89-3.87,2.83-1.35.98-2.7,1.95-4.04,2.92-.18.13-.37.26-.55.39-1.28.91-2.55,1.83-3.83,2.73-1.41,1-2.83,1.99-4.23,2.99-2.83,1.99-5.67,3.96-8.52,5.91-1.29.89-2.58,1.77-3.88,2.65-.23.16-.44.31-.68.46-1.03.7-2.06,1.39-3.09,2.09-.7.48-1.4.95-2.09,1.41-.93.62-1.86,1.24-2.79,1.86-.41.28-.83.56-1.26.83-1.13.76-2.28,1.51-3.43,2.26-2.88,1.91-5.78,3.79-8.7,5.66-1.46.94-2.91,1.87-4.38,2.8-1.46.93-2.92,1.85-4.39,2.78-1.46.92-2.93,1.84-4.4,2.75-1.45.91-2.92,1.81-4.38,2.71-.05.04-.11.07-.18.11-1.43.88-2.86,1.75-4.28,2.62-1.49.91-2.96,1.8-4.46,2.69-1.03.63-2.06,1.24-3.11,1.86-1.19.72-2.39,1.43-3.6,2.14-1.1.66-2.2,1.3-3.3,1.94-.77.45-1.54.9-2.31,1.34-2.41,1.41-4.81,2.79-7.24,4.18-.96.55-1.93,1.1-2.9,1.65-3.02,1.71-6.05,3.41-9.08,5.08-1.51.84-3.03,1.68-4.56,2.51-1.53.84-3.04,1.66-4.58,2.49-1.49.81-2.98,1.61-4.48,2.41-1.22.66-2.44,1.31-3.67,1.95-1.34.71-2.66,1.41-4.01,2.1-2.08,1.09-4.18,2.18-6.28,3.26-1.05.54-2.09,1.08-3.14,1.61-1.39.71-2.79,1.42-4.2,2.13-1.08.54-2.16,1.09-3.24,1.63-2.18,1.09-4.37,2.18-6.56,3.24-1.13.56-2.26,1.11-3.4,1.66-.94.46-1.88.92-2.83,1.37-4,1.93-8.02,3.84-12.06,5.71-1.33.63-2.68,1.25-4.02,1.86-1.76.81-3.52,1.62-5.29,2.42-5.84,2.64-11.7,5.24-17.59,7.77-1.73.75-3.45,1.49-5.18,2.22-.28.11-.54.23-.81.34-1.72.73-3.45,1.45-5.17,2.17-1.54.64-3.08,1.28-4.61,1.91-.77.32-1.54.63-2.31.94-6.8,2.78-13.64,5.48-20.51,8.1-1.01.39-2.04.78-3.06,1.17-.89.34-1.77.67-2.64.99-.98.38-1.96.74-2.93,1.1-1.54.58-3.07,1.14-4.61,1.7-1.89.69-3.8,1.39-5.7,2.07-3.56,1.28-7.13,2.54-10.71,3.78-1.28.44-2.55.89-3.83,1.32-.35.12-.7.24-1.05.36-1.09.38-2.18.74-3.26,1.11-1,.34-1.99.67-3,1.01-.99.33-1.98.66-2.98.99-3.54,1.18-7.08,2.33-10.65,3.46-1.89.61-3.78,1.2-5.68,1.79-1.51.48-3.01.94-4.51,1.39-1.13.35-2.26.69-3.39,1.03-1.08.34-2.17.66-3.26.98-.62.19-1.24.38-1.86.56-.99.3-1.98.59-2.97.88-1.13.34-2.27.67-3.41,1-5.3,1.54-10.6,3.03-15.92,4.48-.89.24-1.78.48-2.66.71-1.1.31-2.21.6-3.33.89-1.21.33-2.43.64-3.65.96-.03.01-.06.02-.09.03-1.62.42-3.24.84-4.86,1.26-3.52.91-7.05,1.79-10.58,2.65-1.73.43-3.45.84-5.19,1.26-1.17.28-2.34.56-3.52.83-1.09.26-2.19.52-3.29.78-.47.11-.94.22-1.42.33-1.28.3-2.57.59-3.86.88-.89.2-1.77.4-2.66.6-2.58.58-5.18,1.15-7.78,1.71-1.18.26-2.36.51-3.54.76-3.19.68-6.39,1.34-9.59,1.98-1.26.26-2.51.51-3.77.76-1.41.28-2.81.56-4.22.83-1.69.33-3.37.65-5.06.96-1.02.19-2.03.38-3.06.57-2.09.39-4.2.77-6.3,1.14-3.15.56-6.3,1.11-9.47,1.64-.34.06-.69.12-1.03.17-1.36.23-2.72.45-4.08.67-.49.09-.99.16-1.48.24-1.25.2-2.5.4-3.75.59-.69.12-1.4.22-2.1.33-1.36.21-2.71.42-4.06.63-7.26,1.1-14.54,2.12-21.84,3.06-1.38.18-2.77.36-4.15.53-1.51.19-3.04.38-4.57.56-1.39.17-2.78.34-4.16.49-.89.11-1.76.21-2.64.31-.58.06-1.15.13-1.72.19-1.39.16-2.79.31-4.19.46-3.79.41-7.61.8-11.42,1.17-.97.09-1.94.18-2.91.28-.99.09-1.97.18-2.96.27-1.08.1-2.16.19-3.24.29-1.12.1-2.24.19-3.36.29-.57.05-1.13.1-1.71.14-1.98.16-3.97.32-5.96.48h-.04c-1.34.11-2.68.21-4.03.3-.82.06-1.64.12-2.47.17-1.88.13-3.75.26-5.63.38-1.74.11-3.48.22-5.21.32-.04,0-.09,0-.14,0-1.44.09-2.89.17-4.34.25-.79.04-1.59.09-2.39.12-.94.06-1.88.1-2.82.14-1.58.08-3.16.16-4.76.23-.29.02-.58.03-.87.04-1.63.08-3.24.14-4.86.2-2.49.1-4.97.19-7.46.27-1.84.06-3.68.12-5.53.16-1.27.04-2.55.07-3.83.09-1.16.03-2.31.06-3.47.07-.47.01-.94.03-1.41.03-1.4.03-2.8.05-4.2.07-1.23.02-2.47.03-3.7.04-1.67.02-3.34.04-5.01.04-2.04.01-4.07.02-6.11.02s-4.08,0-6.11-.02c-1.66,0-3.33-.03-5.01-.04-1.23-.01-2.47-.03-3.7-.04-1.39-.02-2.79-.04-4.2-.07-.47,0-.94-.02-1.41-.03-1.16-.02-2.31-.04-3.48-.07-1.28-.03-2.56-.06-3.83-.09-1.85-.04-3.69-.1-5.53-.16-2.48-.08-4.96-.17-7.45-.27-1.62-.06-3.24-.12-4.86-.2-.29-.01-.58-.03-.88-.04-1.59-.07-3.18-.14-4.75-.23-.94-.04-1.88-.09-2.82-.14-.8-.04-1.61-.08-2.4-.12-1.44-.08-2.89-.16-4.33-.25-.05,0-.09,0-.14,0-1.73-.1-3.48-.21-5.21-.32-1.88-.13-3.76-.25-5.63-.38-.83-.06-1.64-.11-2.46-.17-1.35-.09-2.69-.19-4.03-.3h-.05c-1.99-.16-4-.31-6-.48-.49-.04-.99-.08-1.48-.12-1.23-.1-2.46-.21-3.68-.32-1.02-.09-2.05-.17-3.08-.27-1-.09-1.99-.18-2.99-.28-.97-.09-1.93-.18-2.9-.28-3.81-.37-7.62-.76-11.42-1.17-1.4-.15-2.79-.3-4.19-.46-.58-.06-1.14-.13-1.72-.19-.89-.1-1.76-.2-2.64-.31-1.39-.16-2.78-.33-4.16-.49-1.52-.18-3.05-.37-4.57-.56-1.39-.17-2.77-.34-4.15-.53-7.31-.94-14.6-1.96-21.84-3.06-1.36-.21-2.72-.41-4.06-.63-.71-.11-1.41-.21-2.11-.33-1.25-.19-2.5-.39-3.75-.59-.49-.08-.99-.16-1.48-.24-1.36-.22-2.72-.44-4.08-.67-.38-.06-.76-.12-1.13-.19-3.1-.52-6.19-1.05-9.27-1.6-2.08-.37-4.13-.74-6.2-1.13-1.19-.22-2.38-.44-3.57-.67-1.58-.29-3.17-.59-4.75-.9-1.41-.27-2.81-.54-4.22-.83-1.26-.24-2.51-.5-3.77-.76-3.19-.64-6.4-1.3-9.58-1.98-1.18-.25-2.36-.5-3.54-.76-2.59-.56-5.19-1.13-7.78-1.71-.93-.21-1.86-.42-2.78-.63-1.16-.26-2.31-.52-3.45-.79-.61-.13-1.22-.28-1.83-.42-1.06-.24-2.11-.49-3.16-.74-1.18-.27-2.34-.55-3.53-.83-1.73-.41-3.46-.83-5.18-1.26-3.44-.84-6.9-1.71-10.33-2.59-1.71-.44-3.41-.88-5.12-1.33-.03,0-.05-.01-.07-.03-1.34-.34-2.68-.7-4.01-1.06-.8-.21-1.6-.42-2.41-.64-1.21-.33-2.43-.65-3.63-.98-.22-.06-.46-.13-.69-.19-1.54-.42-3.08-.84-4.61-1.27-3.41-.95-6.81-1.92-10.22-2.91-.92-.26-1.84-.53-2.76-.81-1.33-.38-2.64-.78-3.96-1.17-1.47-.44-2.95-.88-4.42-1.33-1.36-.41-2.73-.83-4.08-1.24-6.86-2.1-13.7-4.28-20.49-6.53-1.06-.35-2.13-.71-3.19-1.06-.81-.28-1.62-.54-2.42-.82-1.36-.46-2.72-.92-4.06-1.38-1.49-.51-2.96-1.01-4.45-1.53-3.58-1.24-7.15-2.5-10.7-3.78-1.81-.65-3.62-1.3-5.42-1.96-3.34-1.23-6.69-2.47-10.02-3.73-1.31-.49-2.63-.99-3.94-1.5-7.4-2.83-14.75-5.75-22.06-8.75-1.66-.67-3.3-1.35-4.94-2.04-1.73-.71-3.45-1.44-5.17-2.17-.28-.11-.55-.23-.81-.34-1.73-.73-3.45-1.47-5.18-2.22-4.28-1.83-8.53-3.7-12.76-5.6-1.5-.66-3-1.34-4.5-2.02-1.66-.75-3.32-1.51-4.98-2.27-5.61-2.57-11.18-5.2-16.73-7.87-1.07-.51-2.13-1.03-3.21-1.55-1.14-.55-2.27-1.1-3.4-1.66-1.73-.84-3.46-1.69-5.18-2.56-1.37-.68-2.74-1.36-4.1-2.05-.88-.44-1.73-.88-2.61-1.31-5.46-2.77-10.89-5.58-16.29-8.45-1.29-.69-2.59-1.38-3.88-2.07-.35-.19-.71-.38-1.06-.56-1.37-.73-2.73-1.47-4.09-2.21-.48-.26-.96-.51-1.43-.78-1.59-.86-3.18-1.74-4.76-2.61-1.8-.99-3.59-1.99-5.38-2.99-2.18-1.23-4.36-2.45-6.54-3.7-1.19-.67-2.38-1.36-3.57-2.04-1.3-.74-2.59-1.49-3.88-2.24-1.09-.63-2.18-1.26-3.25-1.89-1.06-.61-2.11-1.23-3.16-1.86-6.91-4.08-13.77-8.23-20.58-12.47-1.27-.79-2.56-1.59-3.83-2.4-1.18-.74-2.36-1.49-3.53-2.23l-2.59-1.65c-.88-.56-1.76-1.13-2.63-1.69-1.46-.93-2.9-1.88-4.36-2.82-3.02-1.96-6.03-3.94-9.02-5.94-.93-.62-1.86-1.24-2.79-1.86-1.36-.91-2.72-1.82-4.06-2.74-1.16-.77-2.3-1.55-3.44-2.34-3.81-2.59-7.6-5.22-11.37-7.87-1.49-1.04-2.97-2.09-4.45-3.14-.36-.26-.73-.52-1.09-.78-1.09-.78-2.19-1.56-3.28-2.35-6.68-4.8-13.3-9.68-19.86-14.65-1.01-.76-2-1.52-3.01-2.29-1.02-.78-2.05-1.56-3.06-2.34-1.13-.86-2.26-1.73-3.38-2.6-.71-.55-1.42-1.1-2.13-1.65-1.61-1.25-3.21-2.51-4.8-3.77-.14-.11-.29-.22-.43-.33-1.71-1.35-3.41-2.7-5.11-4.06-1.47-1.18-2.93-2.35-4.4-3.54-.88-.71-1.76-1.42-2.63-2.13-.6-.49-1.19-.98-1.8-1.48-.94-.76-1.88-1.53-2.81-2.3-1.59-1.31-3.19-2.63-4.77-3.96-1.8-1.5-3.59-3.01-5.38-4.51-2.24-1.89-4.48-3.8-6.7-5.72-1.32-1.13-2.63-2.27-3.94-3.41-.08-.07-.16-.14-.24-.21-1.69-1.47-3.38-2.94-5.06-4.43-.08-.06-.15-.13-.22-.19-1.44-1.27-2.88-2.54-4.31-3.83-2.04-1.81-4.07-3.64-6.1-5.48-1.7-1.54-3.39-3.08-5.08-4.64-3.29-3.02-6.55-6.06-9.79-9.12-.9-.84-1.79-1.69-2.68-2.54-.63-.59-1.27-1.19-1.89-1.81-.88-.83-1.75-1.66-2.61-2.51-.88-.83-1.76-1.68-2.63-2.53-.68-.64-1.36-1.31-2.03-1.97-2.26-2.19-4.51-4.41-6.74-6.63-.98-.96-1.96-1.93-2.93-2.91-2.88-2.88-5.75-5.78-8.59-8.7-1.01-1.03-2.01-2.06-3.01-3.1-.59-.59-1.16-1.19-1.73-1.78-.93-.96-1.86-1.92-2.77-2.88-.54-.55-1.07-1.11-1.59-1.67-1.1-1.14-2.19-2.29-3.26-3.44-.22-.22-.43-.45-.64-.68-1.3-1.38-2.59-2.76-3.88-4.15-1.36-1.45-2.7-2.91-4.05-4.37-1.33-1.44-2.66-2.9-3.98-4.36-1.04-1.13-2.06-2.26-3.08-3.4-.43-.47-.85-.94-1.27-1.41-.76-.84-1.51-1.69-2.26-2.53-.83-.93-1.66-1.85-2.48-2.78-1.21-1.37-2.42-2.74-3.63-4.12-1.14-1.29-2.27-2.59-3.4-3.9-1.09-1.26-2.17-2.51-3.25-3.78-.93-1.08-1.86-2.16-2.78-3.24-.59-.69-1.18-1.38-1.76-2.07-.71-.83-1.41-1.66-2.11-2.5-.79-.93-1.58-1.87-2.36-2.81-2.62-3.13-5.21-6.28-7.79-9.43-.66-.8-1.31-1.59-1.94-2.39-1.03-1.27-2.05-2.53-3.08-3.81-.07-.1-.16-.21-.24-.31-1.43-1.78-2.85-3.56-4.26-5.35-1.07-1.35-2.13-2.7-3.19-4.06-.64-.81-1.27-1.61-1.9-2.43-.7-.9-1.4-1.8-2.09-2.7-.76-.98-1.51-1.96-2.27-2.95-2.98-3.88-5.93-7.78-8.85-11.71-.92-1.22-1.83-2.44-2.73-3.67-.49-.67-.99-1.34-1.48-2.02-.89-1.21-1.78-2.42-2.66-3.63-.33-.45-.66-.91-.98-1.36-.98-1.35-1.96-2.7-2.93-4.06-.43-.59-.86-1.19-1.28-1.79-.79-1.09-1.56-2.19-2.34-3.29-.61-.86-1.22-1.72-1.82-2.58-3.69-5.24-7.33-10.52-10.92-15.84-.66-.96-1.31-1.93-1.95-2.89-.6-.89-1.19-1.78-1.79-2.67-.75-1.13-1.5-2.25-2.24-3.38-.38-.58-.76-1.15-1.14-1.73-.69-1.06-1.39-2.11-2.08-3.17-.74-1.13-1.48-2.26-2.2-3.4-.41-.61-.8-1.23-1.19-1.84-1-1.56-2.01-3.11-2.99-4.68-.17-.28-.34-.54-.51-.82-1.24-1.93-2.46-3.88-3.68-5.82-1.26-2-2.5-4.01-3.74-6.03-1.09-1.76-2.17-3.53-3.24-5.3-.51-.83-1.01-1.66-1.51-2.5-.68-1.11-1.35-2.23-2.01-3.34-.61-1.01-1.21-2.03-1.81-3.04-.33-.55-.66-1.1-.98-1.65-.76-1.28-1.51-2.55-2.25-3.83-.69-1.18-1.38-2.35-2.06-3.53-.32-.53-.63-1.07-.93-1.61-.87-1.49-1.72-2.97-2.57-4.46-1.38-2.41-2.74-4.83-4.1-7.25-1-1.79-2-3.58-2.99-5.38-.66-1.19-1.31-2.38-1.96-3.58-.47-.85-.93-1.7-1.39-2.56-.58-1.08-1.17-2.15-1.74-3.23-.48-.88-.95-1.76-1.41-2.64-.54-1-1.08-2.01-1.61-3.01-.53-.98-1.04-1.95-1.55-2.93-.52-1-1.05-2-1.58-3-.39-.75-.78-1.51-1.17-2.26-.69-1.33-1.38-2.66-2.06-3.99-1.88-3.66-3.73-7.33-5.56-11.02-.92-1.84-1.84-3.69-2.74-5.53-.65-1.32-1.3-2.64-1.93-3.97-.48-.98-.94-1.95-1.41-2.93-.46-.92-.89-1.84-1.33-2.77-.41-.85-.82-1.71-1.21-2.56-.61-1.26-1.2-2.53-1.79-3.8-.29-.61-.58-1.23-.86-1.84-.7-1.48-1.39-2.97-2.07-4.46-1.73-3.74-3.43-7.51-5.11-11.28-1.68-3.77-3.34-7.55-4.97-11.35-.73-1.69-1.46-3.38-2.17-5.07-.16-.38-.33-.76-.48-1.14-.73-1.72-1.46-3.44-2.17-5.18-.02-.03-.03-.06-.04-.09-.78-1.86-1.55-3.72-2.31-5.58-.04-.09-.08-.19-.11-.28-2.33-5.68-4.61-11.39-6.83-17.12-.46-1.19-.93-2.39-1.38-3.58-.36-.93-.72-1.86-1.08-2.79-.54-1.43-1.08-2.87-1.62-4.31-.19-.49-.38-.98-.55-1.48-.49-1.3-.98-2.61-1.46-3.91-.33-.89-.66-1.78-.98-2.68-.56-1.52-1.11-3.04-1.66-4.57-.71-1.96-1.41-3.91-2.09-5.87-.69-1.96-1.38-3.93-2.06-5.89-.71-2.06-1.43-4.13-2.13-6.2-.77-2.28-1.53-4.56-2.29-6.84-.63-1.9-1.25-3.8-1.87-5.71-.43-1.34-.86-2.68-1.29-4.01-.17-.52-.34-1.04-.5-1.57-.46-1.41-.9-2.84-1.34-4.26-.34-1.08-.68-2.16-1.01-3.24-.29-.93-.58-1.86-.86-2.79-.31-1-.61-2.01-.91-3.01-.41-1.34-.81-2.68-1.21-4.03-.78-2.59-1.54-5.18-2.29-7.78-.49-1.68-.97-3.37-1.45-5.06-.66-2.33-1.31-4.65-1.95-6.98-.62-2.22-1.23-4.45-1.82-6.68-.08-.28-.16-.56-.23-.83-.55-2.04-1.09-4.1-1.63-6.15-.05-.18-.1-.36-.14-.54-.59-2.28-1.18-4.56-1.76-6.85-.56-2.23-1.12-4.45-1.66-6.68-.08-.33-.16-.64-.24-.97-.53-2.16-1.05-4.33-1.56-6.5-.13-.51-.24-1.01-.36-1.51-.28-1.15-.54-2.31-.81-3.46-1.03-4.43-2.03-8.87-3-13.33-.34-1.58-.69-3.16-1.02-4.75-.14-.63-.27-1.25-.4-1.88-.26-1.19-.51-2.39-.75-3.58-.22-1.06-.44-2.13-.66-3.19-.03-.13-.06-.26-.08-.39-.31-1.54-.63-3.09-.93-4.64-.45-2.25-.89-4.51-1.32-6.76-.27-1.39-.53-2.79-.79-4.18-.15-.8-.3-1.6-.44-2.4-.09-.5-.19-1-.28-1.5-.19-1.04-.38-2.08-.57-3.12-.38-2.07-.74-4.15-1.1-6.23-.21-1.21-.42-2.41-.62-3.62-.43-2.53-.85-5.05-1.26-7.59-.18-1.1-.36-2.21-.53-3.31-.23-1.41-.44-2.81-.66-4.23-.11-.69-.21-1.39-.32-2.08-.26-1.73-.53-3.46-.78-5.19-.24-1.64-.48-3.28-.71-4.93l-.38-2.68c-.21-1.49-.41-2.99-.61-4.49-.04-.29-.08-.59-.12-.89-.2-1.49-.4-2.98-.59-4.48-.01-.09-.02-.19-.04-.29-.11-.82-.21-1.63-.31-2.45-.21-1.63-.41-3.26-.61-4.9-.03-.19-.05-.39-.07-.59-.21-1.71-.42-3.43-.61-5.14-.21-1.79-.41-3.59-.61-5.39-.13-1.14-.25-2.29-.38-3.43-.19-1.83-.39-3.66-.57-5.5-.16-1.54-.31-3.08-.46-4.62-.16-1.63-.32-3.26-.46-4.89-.11-1.2-.22-2.4-.33-3.6-.14-1.49-.26-2.99-.39-4.5-.07-.8-.13-1.59-.19-2.39-.35-4.22-.67-8.45-.96-12.68-.11-1.58-.22-3.16-.32-4.75-.12-1.87-.24-3.75-.34-5.63-.08-1.24-.14-2.49-.21-3.75-.07-1.25-.14-2.5-.2-3.75-.04-.75-.08-1.5-.11-2.26-.08-1.59-.16-3.18-.23-4.77-.09-2.13-.19-4.27-.26-6.41,0-.08-.01-.16-.01-.24-.06-1.71-.13-3.41-.18-5.13,0-.11,0-.21-.01-.32-.02-.76-.05-1.52-.07-2.28-.05-1.65-.1-3.29-.14-4.95,0-.13,0-.27,0-.4-.04-1.76-.09-3.53-.12-5.3-.04-2.05-.08-4.11-.11-6.16-.01-.91-.02-1.83-.04-2.74,0-.18,0-.35,0-.53-.02-1.51-.03-3.02-.04-4.53v-.87c-.01-1.99-.02-3.99-.02-5.98V10h2036.93Z"/>
    </g>
    <g>
      <g>
        <path class="cls-2" d="m1636.32,419.59v784.13h-476.15V419.59h476.15Z"/>
        <path class="cls-2" d="m1133.59,473.56c9.81,10.14,19.62,20.28,29.43,30.43,162.33-42.45,320.36-39.58,477.4,0,8.64-10.14,17.29-20.28,25.93-30.43-8.78-15.47-24.89-38.56-52.45-55.28-27.37-16.61-53.49-19.33-85.79-21.12-94.78-5.25-110.38,4.84-194.46,3.08-46.97-.98-84.91-5.03-127.59,9.24-26.69,8.92-44.51,21.41-57.19,37.4-7.96,10.03-12.59,19.8-15.28,26.69Z"/>
        <path class="cls-2" d="m1130.14,309.03l70.63-17.9v67.43l76.33-16.48v-76.79l76.33-11.24v82.49h87.82v-82.49l76.33,11.24v76.79l76.33,18.52v-73.92l71.17,23.31,1.25,163.57c-137.77-54.52-392.08-57.44-532.76,0l-3.45-164.53Z"/>
        <path class="cls-2" d="m1165.62,777.64c141.51-23.85,308-29.14,470.33,0,19.56,2.08,19.56-29.93-.42-34.09-157.46-30.47-331.31-29.51-471.16,0-24.76,4.99-24.76,34.92,1.04,34.09h.21Z"/>
        <g id="b">
          <g id="c">
            <path class="cls-5" d="m1221.95,662.72l39.12-6.53-.83-65.35c-8.2-17.02-31.01-13.86-38.29,2.5v69.38Z"/>
            <path class="cls-5" d="m1326.01,648.16l39.54-3.29-.83-66.59c-7.7-17.02-28.51-15.57-38.29,2.04l-.42,67.84Z"/>
          </g>
          <g id="c-2" data-name="c">
            <path class="cls-5" d="m1574.49,662.72l-39.12-6.53.83-65.35c8.2-17.02,31.01-13.86,38.29,2.5v69.38Z"/>
            <path class="cls-5" d="m1470.44,648.16l-39.54-3.29.83-66.59c7.7-17.02,28.51-15.57,38.29,2.04l.42,67.84Z"/>
          </g>
        </g>
        <g id="b-2" data-name="b">
          <g id="c-3" data-name="c">
            <path class="cls-5" d="m1221.95,941.26l39.12-6.53-.83-65.35c-8.2-17.02-31.01-13.86-38.29,2.5v69.38Z"/>
            <path class="cls-5" d="m1326.01,926.69l39.54-3.29-.83-66.59c-7.7-17.02-28.51-15.57-38.29,2.04l-.42,67.84Z"/>
          </g>
          <g id="c-4" data-name="c">
            <path class="cls-5" d="m1574.49,941.26l-39.12-6.53.83-65.35c8.2-17.02,31.01-13.86,38.29,2.5v69.38Z"/>
            <path class="cls-5" d="m1470.44,926.69l-39.54-3.29.83-66.59c7.7-17.02,28.51-15.57,38.29,2.04l.42,67.84Z"/>
          </g>
        </g>
      </g>
      <g>
        <path class="cls-2" d="m2485.24,419.59v784.13h-476.15V419.59h476.15Z"/>
        <path class="cls-2" d="m1982.51,473.56c9.81,10.14,19.62,20.28,29.43,30.43,162.33-42.45,320.36-39.58,477.4,0,8.64-10.14,17.29-20.28,25.93-30.43-8.78-15.47-24.89-38.56-52.45-55.28-27.37-16.61-53.49-19.33-85.79-21.12-94.78-5.25-110.38,4.84-194.46,3.08-46.97-.98-84.91-5.03-127.59,9.24-26.69,8.92-44.51,21.41-57.19,37.4-7.96,10.03-12.59,19.8-15.28,26.69Z"/>
        <path class="cls-2" d="m1979.06,309.03l70.63-17.9v67.43l76.33-16.48v-76.79l76.33-11.24v82.49h87.82v-82.49l76.33,11.24v76.79l76.33,18.52v-73.92l71.17,23.31,1.25,163.57c-137.77-54.52-392.08-57.44-532.76,0l-3.45-164.53Z"/>
        <path class="cls-2" d="m2014.54,777.64c141.51-23.85,308-29.14,470.33,0,19.56,2.08,19.56-29.93-.42-34.09-157.46-30.47-331.31-29.51-471.16,0-24.76,4.99-24.76,34.92,1.04,34.09h.21Z"/>
        <g id="b-3" data-name="b">
          <g id="c-5" data-name="c">
            <path class="cls-5" d="m2070.88,662.72l39.12-6.53-.83-65.35c-8.2-17.02-31.01-13.86-38.29,2.5v69.38Z"/>
            <path class="cls-5" d="m2174.93,648.16l39.54-3.29-.83-66.59c-7.7-17.02-28.51-15.57-38.29,2.04l-.42,67.84Z"/>
          </g>
          <g id="c-6" data-name="c">
            <path class="cls-5" d="m2423.41,662.72l-39.12-6.53.83-65.35c8.2-17.02,31.01-13.86,38.29,2.5v69.38Z"/>
            <path class="cls-5" d="m2319.36,648.16l-39.54-3.29.83-66.59c7.7-17.02,28.51-15.57,38.29,2.04l.42,67.84Z"/>
          </g>
        </g>
        <g id="b-4" data-name="b">
          <g id="c-7" data-name="c">
            <path class="cls-5" d="m2070.88,941.26l39.12-6.53-.83-65.35c-8.2-17.02-31.01-13.86-38.29,2.5v69.38Z"/>
            <path class="cls-5" d="m2174.93,926.69l39.54-3.29-.83-66.59c-7.7-17.02-28.51-15.57-38.29,2.04l-.42,67.84Z"/>
          </g>
          <g id="c-8" data-name="c">
            <path class="cls-5" d="m2423.41,941.26l-39.12-6.53.83-65.35c8.2-17.02,31.01-13.86,38.29,2.5v69.38Z"/>
            <path class="cls-5" d="m2319.36,926.69l-39.54-3.29.83-66.59c7.7-17.02,28.51-15.57,38.29,2.04l.42,67.84Z"/>
          </g>
        </g>
      </g>
    </g>
    <g>
      <g class="cls-12">
        <path id="schwarz" class="cls-8" d="m1543.71,1610.02c190.4,0,380.79,0,571.19,0-.08,110.98.17,221.95-.12,332.93-.78,9.94-1.99,19.84-3.2,29.75-9.23,55.2-34.33,107.85-72.59,148.83-31.76,34.8-72.43,61.16-116.85,76.74-20.66,6.79-41.97,11.95-63.67,13.76-14.7,2.25-29.67,1.01-44.49,1.21-61.13-3.09-121.07-26.76-167.81-66.32-53.77-44.86-90.17-110.05-99.66-179.47-1.48-8.58-1.7-17.29-2.79-25.91,0-110.5,0-221,0-331.5Z"/>
        <path id="weiss" class="cls-9" d="m1554.13,1620.59c183.48,0,366.96,0,550.44,0,0,79.34,0,158.68,0,238.02-.12,26.69.29,53.38-.3,80.06-1.85,43.37-14.07,86.28-35.46,124.07-36.79,65.7-101.48,115.2-174.83,132.65-41.17,9.99-84.69,10.26-125.98.8-49.19-11.27-95.15-36.44-130.97-72.01-54.11-52.4-84.72-127.82-82.91-203.08,0-100.17,0-200.34,0-300.51Z"/>
      </g>
      <path id="weiss-2" data-name="weiss" class="cls-4" d="m1569.87,1634.56c173.41,0,346.81,0,520.22,0,0,75.34,0,150.67,0,226.01-.12,25.34.27,50.68-.28,76.02-1.75,41.19-13.3,81.92-33.51,117.81-34.77,62.39-95.91,109.39-165.23,125.96-38.91,9.48-80.04,9.74-119.07.76-46.49-10.7-89.93-34.6-123.78-68.37-51.14-49.75-80.07-121.37-78.36-192.83,0-95.12,0-190.23,0-285.35Z"/>
      <g>
        <g id="pferd">
          <path id="koerper" class="cls-9" d="m1948.82,1653.33c-1.02,7.12-2.01,14.22-2.62,21.4-14.35,6.53-25.8,17.55-38.18,27.03-4.68,3.89-10.46,7.13-12.79,13.08,5.16,1.68,4.13,7.64-.22,9.48,1.36,1.89,2.4,4.96,5.3,4.58,4.85.23,5.07-7.48,10.21-6.68,3.07-.5,7.89,1.27,6.32,5.16-1.82,2.26-4.84,2.14-7.41,2.69-1.1.95-2.18,1.88-3.27,2.83,5.27,1.65,11.25,3.5,16.53.87,4.33-2.09,3.8-8.97,8.94-9.99,11.02-2.47,22.47.69,33.56-1.2,5.07-1.67,7.27-6.93,9.26-11.41,3.09.41,6.97,2.59,5.7,6.32-2.79,9.04-12.06,14.29-21.25,13.88-7.06,22.78-31.3,32.47-44.64,50.75-6.34,8.12-9.75,18.2-10.35,28.44-10.01,3.29-19.89,6.88-29.93,10.06-6.54,1.49-9.29,8.36-13.55,12.82,3.39,5.43,6.49,11.1,8.54,17.18,3.02,8.05,4.02,16.69,7.37,24.63,3.04.18,6.59.15,8.65,2.83,2.38,2.26,2.28,5.76,2.4,8.79,4.72,4.53,10.2,8.84,16.96,9.48,3.75-9.32,2.2-19.5-.58-28.84-3.38-.01-6.76-.02-10.13,0-.01-1.98-.03-3.95-.04-5.92-5.59-2.85-11.74-6.89-12.82-13.59-1.18-5.07,1.41-9.84,4.54-13.62,14.74.59,29.44,2.14,44.21,2.07,5.72.16,9.55-4.87,12.1-9.34.94.08,2.8.24,3.74.33,3.74,5.28-.91,10.92-5.38,13.77-8.65,6-19.55,2.08-29.24,2.62,2.42,4.6,5.05,9.15,8.57,13,14.74,16.18,38.4,20.54,52.34,37.63,3.46,4.72,7.89,9.76,7.41,16.02.05,10.9,1.11,21.85,3.74,32.44,1.82,6.52,4.2,13.44,9.66,17.84,9.2,7.72,19,14.98,26.52,24.45,4.71,5.84,7.25,13.73,5.63,21.18-2.07,11.44-7.99,21.64-13.37,31.78,1.73,4.4-.08,10.38-5.05,11.55-8.49.96-12.31,10.31-14.09,17.58,9.76,3.85,20.47,2.53,30.29-.33,0-4.04-.29-8.11.11-12.13.61-3.12,3.73-4.2,6.21-5.45.5-20.75,8.59-40.27,16.67-59.06-7.76-14.11-14.04-29.64-13.15-46.06,9.66-12.68,19.44-27.87,16.85-44.57-3.74-18.54-19.68-30.73-33.56-41.96-10.86-10.92-19.66-24.43-23.21-39.56-1.78-7.79-1.46-15.85-.94-23.76,6.65-2.66,13.62-4.37,20.78-4.83-4.79-3.94-8.45-9.01-11.7-14.24,11.07-2.53,22.13-5.44,32.47-10.21-8.83-5.34-14.47-14.2-19.32-23.03,10.7,3.4,22.09,3.07,32.91.44-11.26-8.83-15.87-23.31-26.7-32.58,6.61-1.43,13.13-3.42,19.22-6.39-7.86-12.27-22-18.7-35.78-21.72,6.76-3.25,13.36-7.22,18.27-13-17.49,1.72-35.03-.25-52.31-2.98.7,4.29,1.98,9.54-1.2,13.15-2.01,2.12-5.12,1.14-7.59.76.93-3.67,2.69-7.49,1.34-11.3-1.7-6.8-7.26-11.59-12.97-15.15Zm-14.64,38.03c3.56.13,6.95,3.23,9.74,5.27-3.04,1.57-6.28,2.65-9.59,3.49-1.8-1.07-3.59-2.12-5.38-3.2.55-1.51,1.1-3.03,1.63-4.54,1.21-.76,2.41-1.06,3.6-1.02Z"/>
          <path id="huf_oben" data-name="huf oben" class="cls-9" d="m1861.91,1745.4c4.81.03,9.63.03,14.45,0,11.71,9.08,23.31,18.29,34.97,27.42-6.4,7.35-11.43,15.99-13.65,25.54-5.94-11.01-11.76-22.08-17.75-33.06-.79-2.2-3.35-1.57-5.03-1.08-4.21,1.02-8.17,3.67-9.93,7.75-2.54,5.33-.81,11.35.64,16.73-1.41,1.42-2.82,2.83-4.22,4.26,2.28,2.55,4.6,5.07,6.99,7.53-4.53,8.43-10.77,16.82-20.05,20.26-3.61-5.43-5.09-11.92-4.67-18.39,2.16-2.14,4.6-4.62,4.42-7.92.16-3.18-2.31-5.46-4.15-7.71,5.7-13.93,15.81-26.04,17.98-41.33Z"/>
          <path id="schweif" class="cls-9" d="m2049.54,1771.12c8.25,3.8,16.54,8.72,21.21,16.82,5.28,8.94,5.12,20.8-.37,29.61-4.15,7.46-11.55,14.02-11.08,23.24.18,9.83,7.63,16.99,11.99,25.17,3.62,6.61,4.34,15.54-.49,21.73-3.6,4.64-10.05,5.64-15.49,4.36.91-.83,2.72-2.49,3.63-3.32,1.39-4.89.05-10.45-4.05-13.63-9.58-7.95-22.99-11.38-29.95-22.37-5.48-8.59-3.79-19.47,0-28.36,2.47-7.02,7.57-13.6,6.62-21.39-.55-4.88-4.6-8.13-8.16-10.99,8.21-4.35,19.5-1.61,23.95,6.83,3.25-8.84,4.1-18.44,2.19-27.68Z"/>
          <path id="huf_unten" data-name="huf unten" class="cls-9" d="m1940.32,1909.59c3.13-8.67,11.7-13.54,20.03-16.18,4.38,4.6,8.94,9.63,10.82,15.79.08,15.18,1.99,30.68,8.37,44.61-9.49,11.03-10.72,26.35-11.21,40.27-12.47-.11-24.96-.5-37.4.45-6.71.09-12.71,4.03-19.51,3.32.01,3.34.03,6.68.08,10.02-9.22,3.25-19.62,4.17-28.88.59.78-6.78,4.84-12.58,9.79-17.04,2.83-.18,6.1.17,8.36-1.93,2.59-1.98,2.79-5.44,3.25-8.39,16.44.11,32.89.03,49.33.05-.31-12.28-6.26-23.23-10.64-34.4-4.55-11.68-6.67-25.1-2.39-37.16Z"/>
        </g>
        <g id="pferd-2" data-name="pferd">
          <path id="koerper-2" data-name="koerper" class="cls-9" d="m1697.94,1668.47c-1.35,3.81.42,7.63,1.34,11.3-2.47.37-5.58,1.36-7.59-.76-3.18-3.61-1.9-8.86-1.2-13.15-17.27,2.73-34.82,4.69-52.31,2.98,4.91,5.78,11.51,9.76,18.27,13-13.78,3.02-27.92,9.45-35.78,21.72,6.09,2.98,12.61,4.96,19.22,6.39-10.83,9.27-15.44,23.75-26.7,32.58,10.82,2.64,22.21,2.97,32.91-.44-4.85,8.83-10.49,17.69-19.32,23.03,10.34,4.76,21.41,7.68,32.47,10.21-3.25,5.23-6.9,10.3-11.7,14.24,7.16.46,14.13,2.18,20.78,4.83.51,7.91.84,15.97-.94,23.76-3.55,15.13-12.35,28.64-23.21,39.56-13.89,11.23-29.82,23.42-33.56,41.96-2.59,16.7,7.19,31.89,16.85,44.57.89,16.42-5.39,31.95-13.15,46.06,8.08,18.8,16.18,38.31,16.67,59.06,2.48,1.25,5.6,2.33,6.21,5.45.4,4.02.1,8.09.11,12.13,9.82,2.85,20.53,4.18,30.29.33-1.78-7.27-5.6-16.62-14.09-17.58-4.97-1.17-6.78-7.15-5.05-11.55-5.38-10.14-11.3-20.35-13.37-31.78-1.62-7.45.92-15.34,5.63-21.18,7.51-9.47,17.32-16.73,26.52-24.45,5.46-4.4,7.84-11.31,9.66-17.84,2.63-10.59,3.69-21.54,3.74-32.44-.48-6.26,3.95-11.3,7.41-16.02,13.94-17.09,37.61-21.45,52.34-37.63,3.53-3.86,6.15-8.41,8.57-13-9.69-.54-20.59,3.38-29.24-2.62-4.47-2.85-9.11-8.48-5.38-13.77.94-.08,2.8-.24,3.74-.33,2.55,4.47,6.38,9.5,12.1,9.34,14.77.07,29.47-1.48,44.21-2.07,3.13,3.78,5.72,8.55,4.54,13.62-1.09,6.7-7.24,10.73-12.82,13.59,0,1.97-.03,3.94-.04,5.92-3.37-.02-6.75-.01-10.13,0-2.78,9.34-4.33,19.53-.58,28.84,6.76-.64,12.25-4.95,16.96-9.48.12-3.03.02-6.53,2.4-8.79,2.06-2.68,5.6-2.65,8.65-2.83,3.35-7.94,4.35-16.58,7.37-24.63,2.05-6.08,5.15-11.75,8.54-17.18-4.26-4.46-7-11.33-13.55-12.82-10.04-3.18-19.92-6.78-29.93-10.06-.6-10.24-4.02-20.32-10.35-28.44-13.34-18.27-37.58-27.96-44.64-50.75-9.19.41-18.46-4.84-21.25-13.88-1.27-3.73,2.61-5.91,5.7-6.32,1.99,4.48,4.2,9.73,9.26,11.41,11.09,1.89,22.55-1.27,33.56,1.2,5.14,1.02,4.61,7.9,8.94,9.99,5.28,2.63,11.26.78,16.53-.87-1.09-.96-2.17-1.89-3.27-2.83-2.57-.55-5.59-.43-7.41-2.69-1.57-3.89,3.25-5.66,6.32-5.16,5.13-.8,5.36,6.91,10.21,6.68,2.9.39,3.95-2.69,5.3-4.58-4.35-1.84-5.38-7.8-.22-9.48-2.32-5.95-8.1-9.19-12.79-13.08-12.38-9.47-23.83-20.5-38.18-27.03-.61-7.17-1.59-14.27-2.62-21.4-5.71,3.56-11.27,8.35-12.97,15.15Zm31.2,23.9c.54,1.52,1.09,3.03,1.63,4.54-1.78,1.07-3.58,2.13-5.38,3.2-3.31-.83-6.54-1.92-9.59-3.49,2.79-2.03,6.17-5.14,9.74-5.27,1.19-.04,2.39.25,3.6,1.02Z"/>
          <path id="huf_oben-2" data-name="huf oben" class="cls-9" d="m1815.8,1786.73c-1.83,2.25-4.31,4.53-4.15,7.71-.18,3.31,2.26,5.78,4.42,7.92.42,6.47-1.06,12.96-4.67,18.39-9.29-3.44-15.53-11.83-20.05-20.26,2.39-2.46,4.71-4.98,6.99-7.53-1.4-1.42-2.81-2.84-4.22-4.26,1.45-5.38,3.18-11.4.64-16.73-1.76-4.08-5.72-6.72-9.93-7.75-1.68-.49-4.24-1.12-5.03,1.08-5.99,10.98-11.81,22.05-17.75,33.06-2.22-9.55-7.25-18.19-13.65-25.54,11.66-9.14,23.26-18.35,34.97-27.42,4.82.02,9.63.02,14.45,0,2.17,15.29,12.28,27.41,17.98,41.33Z"/>
          <path id="schweif-2" data-name="schweif" class="cls-9" d="m1612.38,1798.81c4.44-8.43,15.74-11.17,23.95-6.83-3.55,2.86-7.61,6.11-8.16,10.99-.95,7.8,4.15,14.38,6.62,21.39,3.8,8.89,5.49,19.77,0,28.36-6.95,10.99-20.36,14.43-29.95,22.37-4.1,3.18-5.44,8.74-4.05,13.63.91.83,2.72,2.49,3.63,3.32-5.44,1.29-11.89.29-15.49-4.36-4.83-6.2-4.11-15.13-.49-21.73,4.35-8.18,11.81-15.34,11.99-25.17.46-9.22-6.93-15.78-11.08-23.24-5.49-8.81-5.66-20.67-.37-29.61,4.67-8.1,12.96-13.02,21.21-16.82-1.91,9.24-1.06,18.85,2.19,27.68Z"/>
          <path id="huf_unten-2" data-name="huf unten" class="cls-9" d="m1717.02,1946.75c-4.38,11.16-10.32,22.12-10.64,34.4,16.44-.01,32.89.07,49.33-.05.46,2.95.65,6.41,3.25,8.39,2.26,2.1,5.53,1.75,8.36,1.93,4.96,4.47,9.01,10.26,9.79,17.04-9.26,3.58-19.66,2.65-28.88-.59.05-3.34.07-6.68.08-10.02-6.8.71-12.8-3.23-19.51-3.32-12.44-.95-24.94-.56-37.4-.45-.49-13.91-1.72-29.24-11.21-40.27,6.38-13.93,8.29-29.43,8.37-44.61,1.88-6.16,6.44-11.2,10.82-15.79,8.33,2.65,16.9,7.51,20.03,16.18,4.28,12.06,2.16,25.48-2.39,37.16Z"/>
        </g>
      </g>
      <g>
        <path id="blume_nw" data-name="blume nw" class="cls-9" d="m1778.49,2039.15c-.22-6.36.83-12.63,3.07-18.58,6.39-.14,12.78.66,18.81,2.86-3.44,3.77-5.96,8.25-7,13.28-5.12-.47-10.12.59-14.87,2.44Z"/>
        <path id="blume_no" data-name="blume no" class="cls-9" d="m1859.56,2023.38c6.05-2.25,12.49-3.05,18.92-2.61,2.05,5.84,2.77,11.99,2.56,18.16-4.71-1.86-9.71-2.56-14.74-2.33-1.22-4.88-3.69-9.26-6.74-13.22Z"/>
        <path id="blume_mitte" data-name="blume mitte" class="cls-9" d="m1822.58,2066.49c13.06-5.1,29.14,5.4,28.83,19.62,1.12,12.21-10.35,23.53-22.52,22.39-10.31.02-19.67-8.73-20.53-18.96-1.46-9.81,4.88-19.89,14.23-23.05Z"/>
        <path id="blume_ring" data-name="blume ring" class="cls-9" d="m1827.9,2020.91c-7.95.36-15.7,3.24-21.37,8.83-4.76,4.48-4.19,11.4-2.32,17.08-1.28,1.25-2.57,2.52-3.88,3.75-4.87-3.65-11.21-6.68-17.22-3.75-14.89,7.25-21.05,26.78-16.19,42.02,2.31,7.26,9.83,11,17.13,10.08.54,1.8,1.13,3.6,1.74,5.4-5.32,3.17-9.97,8.96-8.48,15.52,3.21,16.48,20.61,29.07,37.25,27.26,6.85-.66,10.93-6.65,12.49-12.8,1.92-.01,3.83,0,5.75.04,1.36,5.52,4.55,11.14,10.57,12.4,17.24,3.4,35.79-9.96,39.08-27.03,1.24-6.68-3.28-12.45-8.74-15.61.45-1.28,1.38-3.81,1.83-5.09,5.29.12,11.21-.67,14.59-5.26,6.75-9.81,5.06-23.09.04-33.28-3.93-7.54-10.95-15.13-20.16-14.72-4.08-.07-7,3.19-10.71,4.28-1.35-.93-2.66-1.89-3.93-2.9,3.41-6.94,1.58-15.65-4.95-20.03-6.41-4.4-14.58-6.56-22.53-6.2Zm1.61,32.16c15.63-.03,30.89,11.58,33.5,27.48,4.88,20.77-14.19,42.21-35.33,40.19-17.61-.84-32.42-17.15-31.63-34.75.28-13.73,9.83-26.44,22.71-30.96,3.49-1.34,7.14-1.95,10.75-1.96Z"/>
        <path id="blume_sw" data-name="blume sw" class="cls-9" d="m1751.75,2112.39c1.63-6.14,4.53-11.8,8.34-16.87,2.92,4.25,6.51,7.99,10.86,10.78-2.31,4.51-2.73,9.53-2.6,14.53-6.05-1.69-11.69-4.53-16.6-8.45Z"/>
        <path id="blume_so" data-name="blume so" class="cls-9" d="m1888.67,2106.24c4.31-2.85,7.92-6.57,10.93-10.75,3.76,4.99,6.53,10.6,8.56,16.5-4.85,4.27-10.68,7.19-16.89,8.92.23-5.05-.15-10.16-2.6-14.68Z"/>
        <path id="blume_s" data-name="blume s" class="cls-9" d="m1829.75,2148.63c3.83,3.48,8.43,5.88,13.43,7.24-3.42,5.29-7.96,9.7-13.15,13.24-5.5-3.31-10.02-7.9-13.45-13.3,5-1.12,9.64-3.42,13.18-7.18Z"/>
      </g>
    </g>
    <g>
      <path class="cls-3" d="m2848.42,1060.77v318.21c0,1.99,0,3.99-.02,5.98v.87c-.01,1.51-.03,3.02-.04,4.53,0,.18,0,.36,0,.53l-.04,2.74c-.03,2.06-.06,4.11-.11,6.16-.03,1.77-.08,3.53-.12,5.3,0,.13,0,.27,0,.4-.04,1.65-.09,3.29-.14,4.95-.02.76-.04,1.53-.07,2.28,0,.11,0,.21-.01.32-.06,1.71-.12,3.42-.18,5.13,0,.08,0,.16-.01.24-.06,1.76-.14,3.51-.21,5.26-.02.38-.03.77-.05,1.15-.07,1.59-.14,3.18-.22,4.77-.03.76-.08,1.51-.11,2.26-.05,1.03-.11,2.05-.16,3.08-.01.23-.03.45-.04.68-.07,1.25-.14,2.5-.21,3.75-.11,1.88-.22,3.76-.34,5.63-.1,1.59-.21,3.17-.32,4.75-.29,4.23-.61,8.46-.96,12.68-.06.8-.13,1.59-.19,2.39-.13,1.51-.25,3.01-.39,4.5-.11,1.2-.21,2.4-.33,3.6-.14,1.63-.3,3.26-.46,4.89-.08.85-.16,1.71-.24,2.56-.07.68-.14,1.37-.21,2.06-.18,1.84-.38,3.67-.57,5.5-.13,1.14-.24,2.29-.38,3.43-.01.09-.02.18-.03.26-.18,1.71-.38,3.42-.58,5.13-.19,1.71-.4,3.43-.61,5.14-.02.2-.04.4-.07.59-.19,1.64-.4,3.27-.61,4.9-.1.82-.21,1.63-.31,2.45-.01.1-.03.19-.04.29-.19,1.49-.39,2.99-.59,4.48-.04.3-.08.59-.12.89-.2,1.5-.41,2.99-.61,4.49-.12.89-.25,1.79-.37,2.68-.23,1.64-.47,3.29-.71,4.93-.25,1.73-.51,3.46-.78,5.19-.11.69-.21,1.39-.32,2.08-.11.74-.22,1.47-.34,2.2-.11.68-.21,1.35-.32,2.03-.17,1.1-.35,2.21-.53,3.31-.32,1.98-.64,3.95-.98,5.92-.09.56-.19,1.11-.28,1.67-.2,1.21-.41,2.41-.62,3.62-.36,2.08-.73,4.16-1.1,6.23-.19,1.04-.38,2.08-.57,3.12-.09.5-.18,1-.28,1.5-.14.8-.29,1.6-.44,2.4-.26,1.39-.53,2.79-.79,4.18-.43,2.26-.87,4.51-1.32,6.76-.31,1.55-.62,3.09-.93,4.64-.03.13-.05.26-.08.39-.22,1.06-.44,2.13-.66,3.19-.24,1.19-.49,2.39-.75,3.58-.13.63-.26,1.25-.4,1.88-.16.76-.32,1.51-.48,2.27-.18.83-.36,1.66-.54,2.48-.64,2.93-1.29,5.85-1.96,8.77-.34,1.52-.69,3.04-1.04,4.56-.27,1.15-.54,2.31-.81,3.46-.11.51-.23,1.01-.36,1.51-.51,2.17-1.04,4.33-1.56,6.5-.08.33-.16.64-.24.97-.54,2.23-1.1,4.45-1.66,6.68-.58,2.29-1.16,4.57-1.76,6.85-.04.18-.09.36-.14.54-.53,2.05-1.08,4.11-1.63,6.15-.08.28-.14.56-.23.83-.59,2.23-1.2,4.46-1.82,6.68-.06.23-.13.46-.19.69-.58,2.1-1.16,4.2-1.76,6.29-.48,1.66-.94,3.31-1.43,4.96-.15.53-.3,1.06-.46,1.59-.61,2.1-1.23,4.2-1.86,6.28-.4,1.34-.8,2.69-1.21,4.03-.3,1.01-.61,2.01-.91,3.01-.26.86-.53,1.73-.8,2.59-.39,1.26-.78,2.51-1.17,3.76-.37,1.18-.74,2.36-1.12,3.54-.24.76-.48,1.52-.73,2.28-.39,1.23-.79,2.47-1.19,3.7-.62,1.91-1.24,3.81-1.87,5.71-.76,2.28-1.52,4.56-2.29,6.83-.24.7-.48,1.4-.72,2.1-.33.98-.66,1.95-1,2.92-.13.4-.27.79-.41,1.19-.58,1.67-1.16,3.34-1.74,5-.13.36-.25.71-.38,1.06-.13.36-.26.72-.39,1.08-.43,1.23-.88,2.47-1.32,3.7-.18.51-.36,1.01-.54,1.51-.43,1.19-.86,2.38-1.29,3.56-.39,1.08-.79,2.16-1.19,3.24-.46,1.26-.92,2.51-1.39,3.76-.18.49-.36.99-.55,1.48-.53,1.42-1.06,2.84-1.6,4.25-1.55,4.09-3.13,8.16-4.74,12.22-.76,1.93-1.53,3.85-2.3,5.77-.69,1.74-1.4,3.48-2.11,5.21-.09.24-.19.49-.3.73,0,.01,0,.03-.01.04-.74,1.82-1.49,3.64-2.25,5.45-.01.04-.02.07-.04.09-.71,1.73-1.44,3.46-2.17,5.18-.07.16-.14.33-.21.49-.09.22-.18.43-.28.64-.72,1.69-1.44,3.38-2.17,5.07-.81,1.89-1.64,3.79-2.47,5.68-.83,1.89-1.66,3.78-2.5,5.66-1.68,3.77-3.38,7.53-5.11,11.28-.62,1.35-1.25,2.71-1.88,4.06-.42.91-.84,1.83-1.28,2.73-.39.84-.79,1.68-1.19,2.52-.69,1.47-1.38,2.93-2.09,4.4-.18.37-.35.74-.53,1.1-.36.76-.73,1.53-1.09,2.28-.33.67-.65,1.34-.98,2.01-.48.99-.96,1.99-1.45,2.98-.94,1.93-1.9,3.86-2.86,5.78-.08.16-.16.32-.24.48-.87,1.76-1.75,3.5-2.63,5.25-.96,1.89-1.92,3.78-2.89,5.67-.42.81-.84,1.63-1.26,2.44-.69,1.35-1.39,2.69-2.09,4.05-.24.46-.48.91-.72,1.37-.83,1.58-1.65,3.14-2.49,4.71-.26.49-.52.98-.78,1.46-.78,1.48-1.58,2.95-2.37,4.42-.31.57-.61,1.14-.92,1.71-.81,1.49-1.61,2.97-2.43,4.45-1.39,2.54-2.79,5.08-4.21,7.6-.43.77-.86,1.54-1.3,2.31-.69,1.23-1.39,2.46-2.08,3.68-1.09,1.93-2.19,3.84-3.3,5.76-.26.44-.51.88-.76,1.32-.09.16-.19.33-.28.49-.73,1.24-1.45,2.49-2.18,3.73-.49.84-.98,1.68-1.48,2.51-.77,1.31-1.54,2.63-2.33,3.93-.19.32-.38.65-.58.97-1.03,1.73-2.07,3.46-3.11,5.18-.17.29-.34.57-.51.85-1.18,1.93-2.35,3.86-3.54,5.79-2.44,3.97-4.91,7.93-7.41,11.86-.14.22-.28.44-.41.65-1.16,1.83-2.33,3.65-3.51,5.47,0,0,0,.01,0,.01-.96,1.49-1.93,2.99-2.89,4.47-.06.09-.11.17-.17.26-.66,1.01-1.32,2.03-1.99,3.03-.38.58-.76,1.16-1.14,1.73-.74,1.13-1.49,2.26-2.24,3.38-.59.89-1.19,1.78-1.79,2.67-.04.06-.08.12-.12.18-.59.88-1.19,1.77-1.78,2.65-1.21,1.79-2.43,3.58-3.65,5.36-1.3,1.9-2.61,3.79-3.92,5.68-1.28,1.85-2.57,3.69-3.87,5.53-.19.29-.39.57-.6.85-1.04,1.49-2.09,2.97-3.16,4.45-.37.52-.74,1.04-1.11,1.56-1.18,1.64-2.36,3.28-3.55,4.91-1.37,1.89-2.74,3.78-4.13,5.65-.02.03-.04.06-.06.08-1.14,1.55-2.28,3.09-3.44,4.63-.38.51-.75,1.02-1.13,1.53-.64.85-1.28,1.7-1.92,2.54-.65.87-1.3,1.74-1.96,2.6-1.56,2.06-3.13,4.11-4.71,6.16-.64.83-1.29,1.66-1.93,2.49-.57.74-1.14,1.48-1.72,2.22-.25.33-.51.65-.76.97-1.29,1.64-2.58,3.28-3.87,4.92-1.46,1.84-2.93,3.69-4.4,5.52-1.39,1.73-2.78,3.45-4.18,5.17-3.14,3.86-6.31,7.71-9.52,11.52-1.39,1.68-2.8,3.34-4.21,5.01-.07.09-.14.17-.21.25-1.48,1.74-2.96,3.48-4.45,5.2-1.13,1.32-2.27,2.63-3.41,3.95-.2.24-.41.47-.61.71-.47.54-.94,1.08-1.41,1.62-1.28,1.46-2.56,2.91-3.84,4.37-1.41,1.59-2.82,3.18-4.24,4.76-.15.17-.3.34-.45.51-.13.15-.26.29-.39.44-2.91,3.24-5.84,6.46-8.79,9.67-1.38,1.49-2.75,2.98-4.13,4.45-.79.86-1.59,1.71-2.39,2.56-.89.94-1.78,1.89-2.67,2.83-.44.48-.89.95-1.34,1.43-1.25,1.32-2.51,2.64-3.78,3.95-.25.27-.51.54-.76.8-1.34,1.39-2.68,2.78-4.03,4.16-3.76,3.87-7.55,7.71-11.38,11.52-1.22,1.21-2.44,2.43-3.68,3.64-.17.17-.34.33-.51.5-1.68,1.65-3.36,3.29-5.05,4.93-1.53,1.49-3.06,2.97-4.6,4.45-.29.29-.58.56-.88.84-.19.18-.38.36-.56.54-1.36,1.29-2.71,2.59-4.08,3.88-.03.04-.06.07-.09.09-1.7,1.61-3.41,3.21-5.12,4.81-1.72,1.61-3.44,3.21-5.18,4.8-1.73,1.59-3.47,3.18-5.21,4.76-1.67,1.52-3.34,3.03-5.03,4.53-.17.16-.34.31-.52.46-1.66,1.48-3.31,2.95-4.98,4.41-1.76,1.56-3.54,3.11-5.31,4.65-1.44,1.26-2.88,2.51-4.33,3.75-2.13,1.84-4.26,3.66-6.41,5.48-1.78,1.51-3.58,3.01-5.38,4.51-1.75,1.47-3.51,2.93-5.28,4.38-1.44,1.18-2.88,2.36-4.33,3.53-.74.61-1.49,1.22-2.24,1.83-1.51,1.23-3.03,2.44-4.56,3.66-1.81,1.45-3.63,2.89-5.45,4.33-.03.03-.06.05-.09.07,5.31-20.92,9.58-42.24,12.76-63.92.55-3.74,1.07-7.49,1.54-11.25,1.93-14.99,3.32-30.14,4.17-45.43.21-3.74.39-7.5.53-11.25.31-8.15.47-16.34.47-24.57,0-6.98-.11-13.94-.34-20.86-.12-3.76-.28-7.51-.46-11.25-.76-15.29-2.07-30.43-3.91-45.43-.46-3.76-.95-7.51-1.48-11.25-2.15-15.32-4.85-30.48-8.08-45.43-.81-3.76-1.65-7.51-2.53-11.25-3.61-15.37-7.78-30.52-12.49-45.43-1.19-3.76-2.41-7.51-3.67-11.25-5.18-15.41-10.95-30.56-17.26-45.43-1.59-3.77-3.23-7.52-4.91-11.25-6.93-15.48-14.45-30.63-22.56-45.43-2.06-3.78-4.16-7.53-6.31-11.25-8.93-15.56-18.51-30.72-28.68-45.43-2.61-3.78-5.26-7.53-7.97-11.25-11.35-15.69-23.4-30.84-36.11-45.43-3.29-3.79-6.64-7.55-10.03-11.25-14.5-15.89-29.79-31.05-45.81-45.43-4.25-3.81-8.53-7.56-12.88-11.25-19.1-16.26-39.17-31.44-60.11-45.43-5.75-3.84-11.55-7.6-17.43-11.25-27.61-17.21-56.62-32.42-86.83-45.43-9.2-3.96-18.5-7.72-27.91-11.25-71.83-27.05-149.78-41.87-231.23-41.87s-159.4,14.82-231.23,41.87c-9.41,3.54-18.71,7.3-27.91,11.25-30.21,13-59.23,28.22-86.83,45.43-5.88,3.66-11.69,7.41-17.43,11.25-20.94,14-41.01,29.18-60.11,45.43-4.35,3.7-8.63,7.45-12.88,11.25-16.02,14.38-31.32,29.55-45.81,45.43-3.39,3.71-6.74,7.46-10.03,11.25-12.71,14.59-24.76,29.74-36.11,45.43-2.7,3.72-5.35,7.47-7.97,11.25-10.18,14.72-19.75,29.87-28.68,45.43-2.14,3.73-4.25,7.48-6.31,11.25-8.11,14.8-15.64,29.95-22.56,45.43-1.68,3.73-3.31,7.48-4.91,11.25-6.31,14.87-12.08,30.02-17.26,45.43-1.26,3.74-2.48,7.49-3.67,11.25-4.71,14.92-8.88,30.07-12.49,45.43-.88,3.74-1.73,7.49-2.53,11.25-3.23,14.95-5.93,30.11-8.08,45.43-.53,3.74-1.02,7.5-1.48,11.25-1.84,14.99-3.14,30.14-3.91,45.43-.19,3.74-.34,7.5-.46,11.25-.23,6.93-.34,13.88-.34,20.86,0,8.23.16,16.42.47,24.57.14,3.76.32,7.51.53,11.25.85,15.29,2.25,30.45,4.18,45.43.48,3.76.99,7.51,1.54,11.25,3.17,21.68,7.44,43,12.75,63.93-.14-.11-.28-.22-.42-.33-1.71-1.35-3.41-2.7-5.11-4.06-1.47-1.18-2.93-2.35-4.4-3.54-.88-.71-1.76-1.42-2.63-2.13-.6-.49-1.2-.98-1.8-1.48-.94-.76-1.88-1.53-2.81-2.3-1.59-1.31-3.19-2.63-4.77-3.96-1.8-1.5-3.59-3.01-5.38-4.51-2.24-1.89-4.48-3.8-6.7-5.72-1.32-1.13-2.63-2.27-3.94-3.41-.08-.07-.17-.14-.24-.21-1.69-1.47-3.38-2.94-5.06-4.43-.08-.06-.15-.13-.22-.19-1.44-1.27-2.88-2.54-4.31-3.83-2.04-1.81-4.07-3.64-6.1-5.48-1.7-1.54-3.39-3.08-5.08-4.64-3.29-3.02-6.55-6.06-9.8-9.12-.89-.84-1.79-1.69-2.68-2.54-.63-.59-1.27-1.19-1.89-1.81-.08-.08-.16-.15-.24-.23-.79-.75-1.59-1.51-2.38-2.28-.88-.83-1.75-1.68-2.62-2.53-.68-.65-1.36-1.31-2.03-1.97-1.53-1.48-3.04-2.97-4.56-4.47-.73-.71-1.46-1.44-2.19-2.16-.98-.96-1.95-1.93-2.93-2.91-2.88-2.88-5.75-5.78-8.59-8.7-1.01-1.03-2.01-2.06-3.01-3.1-.58-.59-1.16-1.19-1.73-1.78-.93-.96-1.84-1.92-2.76-2.88-.54-.55-1.07-1.11-1.59-1.67-1.09-1.14-2.18-2.29-3.26-3.44-.22-.22-.43-.45-.64-.68-1.3-1.38-2.59-2.76-3.88-4.15-1.36-1.45-2.7-2.91-4.05-4.37-1.33-1.44-2.66-2.9-3.98-4.36-1.03-1.13-2.06-2.26-3.08-3.4-.43-.47-.85-.94-1.27-1.41-.13-.14-.26-.29-.39-.44-.63-.7-1.25-1.39-1.87-2.09-.83-.93-1.66-1.85-2.48-2.78-1.21-1.37-2.42-2.74-3.63-4.12-.66-.75-1.32-1.5-1.97-2.26-.48-.54-.96-1.09-1.43-1.64-1.09-1.26-2.18-2.51-3.26-3.78-.93-1.08-1.86-2.16-2.77-3.24-.59-.69-1.18-1.38-1.76-2.07-.71-.83-1.41-1.66-2.11-2.5-.79-.93-1.58-1.87-2.36-2.81-2.62-3.13-5.21-6.28-7.79-9.43-.65-.8-1.3-1.59-1.94-2.39-1.03-1.27-2.06-2.53-3.08-3.81-.08-.1-.16-.21-.24-.31-1.43-1.78-2.84-3.56-4.26-5.35-1.07-1.35-2.14-2.7-3.19-4.06-.64-.81-1.27-1.61-1.9-2.43-.42-.54-.84-1.08-1.26-1.62-.28-.36-.56-.72-.84-1.08-.76-.98-1.51-1.96-2.27-2.95-1.84-2.4-3.67-4.8-5.49-7.22-1.13-1.49-2.24-2.99-3.36-4.49-.92-1.22-1.83-2.44-2.73-3.67-.5-.67-.99-1.34-1.48-2.02-.89-1.21-1.78-2.42-2.66-3.63-.33-.45-.66-.91-.98-1.36-.98-1.35-1.96-2.7-2.93-4.06-.43-.59-.86-1.19-1.28-1.79-.79-1.09-1.56-2.19-2.34-3.29-.61-.86-1.22-1.72-1.82-2.58-3.69-5.24-7.33-10.52-10.92-15.84-.61-.9-1.22-1.81-1.83-2.71-.04-.06-.08-.12-.12-.18-.6-.89-1.19-1.78-1.79-2.67-.75-1.13-1.5-2.25-2.24-3.38-.38-.58-.76-1.15-1.14-1.73-.7-1.06-1.39-2.11-2.08-3.17-.02-.04-.05-.08-.08-.12-.72-1.09-1.43-2.18-2.13-3.28-.4-.61-.8-1.23-1.19-1.84-1.01-1.56-2.01-3.11-2.99-4.68-.18-.28-.35-.54-.52-.82-1.23-1.93-2.46-3.88-3.67-5.82-1.26-2-2.5-4.01-3.74-6.03-1.09-1.76-2.17-3.53-3.24-5.3-.51-.83-1.01-1.66-1.51-2.5-.68-1.11-1.35-2.23-2.01-3.34-.61-1.01-1.21-2.03-1.81-3.04-.33-.55-.66-1.1-.98-1.65-.76-1.28-1.51-2.55-2.26-3.83-.64-1.09-1.28-2.19-1.91-3.29-.04-.08-.09-.16-.14-.24-.32-.53-.63-1.07-.93-1.61-.86-1.49-1.72-2.97-2.56-4.46-.94-1.64-1.88-3.29-2.81-4.95-.43-.77-.86-1.54-1.29-2.31-1-1.79-2-3.58-2.99-5.38-.66-1.19-1.31-2.38-1.96-3.58-.47-.85-.93-1.7-1.39-2.56-.59-1.08-1.17-2.15-1.74-3.23-.48-.88-.95-1.76-1.41-2.64-.54-1-1.08-2.01-1.61-3.01-.53-.98-1.04-1.95-1.55-2.93-.53-1-1.05-2-1.58-3-.39-.75-.78-1.51-1.17-2.26-.69-1.33-1.38-2.66-2.06-3.99-1.79-3.5-3.57-7.01-5.33-10.54-.08-.16-.16-.32-.24-.48-.92-1.84-1.83-3.69-2.73-5.53-.65-1.33-1.29-2.64-1.93-3.97-.21-.43-.42-.85-.62-1.28-.27-.55-.54-1.1-.8-1.66-.44-.92-.89-1.84-1.33-2.77-.41-.85-.82-1.71-1.21-2.56-.61-1.26-1.2-2.53-1.79-3.8-.29-.61-.58-1.23-.86-1.84-.7-1.48-1.39-2.97-2.07-4.46-1.73-3.75-3.43-7.51-5.11-11.28-1.68-3.77-3.34-7.55-4.97-11.35-.73-1.69-1.45-3.38-2.17-5.07-.09-.21-.18-.43-.28-.64-.07-.16-.14-.33-.21-.49-.73-1.72-1.46-3.44-2.17-5.18-.02-.03-.03-.06-.04-.09-.76-1.83-1.52-3.66-2.27-5.49-.01-.03-.02-.06-.04-.09-.04-.09-.08-.19-.11-.28-2.33-5.68-4.6-11.39-6.83-17.12-.46-1.19-.93-2.39-1.38-3.58-.36-.93-.72-1.86-1.08-2.79-.54-1.43-1.08-2.87-1.62-4.31-.19-.49-.38-.98-.55-1.48-.49-1.3-.98-2.61-1.46-3.91-.33-.89-.66-1.78-.98-2.68-.56-1.52-1.11-3.04-1.66-4.57-.56-1.54-1.1-3.08-1.65-4.61-.15-.42-.29-.84-.44-1.26-.69-1.96-1.38-3.92-2.06-5.89-.48-1.37-.94-2.74-1.41-4.11-.24-.69-.48-1.39-.71-2.09-.77-2.28-1.53-4.56-2.29-6.84-.63-1.9-1.25-3.8-1.87-5.71-.43-1.34-.86-2.68-1.29-4.01-.17-.52-.34-1.04-.5-1.57-.46-1.41-.9-2.84-1.34-4.26-.34-1.08-.68-2.16-1.01-3.24-.29-.93-.58-1.86-.86-2.79-.31-1-.61-2.01-.91-3.01-.41-1.34-.81-2.68-1.21-4.03-.78-2.59-1.54-5.18-2.29-7.78,0-.03-.02-.06-.03-.09-.48-1.65-.95-3.31-1.43-4.96-.59-2.09-1.18-4.19-1.76-6.29-.07-.23-.13-.46-.19-.69-.62-2.22-1.23-4.45-1.82-6.68-.08-.28-.16-.56-.23-.83-.55-2.04-1.09-4.1-1.63-6.15-.05-.18-.1-.36-.14-.54-.59-2.28-1.18-4.56-1.76-6.85-.56-2.23-1.12-4.45-1.66-6.68-.08-.33-.16-.64-.24-.97-.53-2.16-1.05-4.33-1.56-6.5-.13-.51-.24-1.01-.36-1.51-.28-1.15-.54-2.31-.81-3.46-.36-1.52-.7-3.04-1.04-4.56-.67-2.92-1.32-5.84-1.96-8.77-.18-.83-.36-1.65-.54-2.48-.16-.76-.33-1.51-.48-2.27-.14-.63-.27-1.25-.4-1.88-.26-1.19-.51-2.39-.75-3.58-.22-1.06-.44-2.13-.66-3.19-.03-.13-.06-.26-.08-.39-.31-1.54-.63-3.09-.93-4.64-.45-2.25-.89-4.51-1.32-6.76-.27-1.39-.53-2.79-.79-4.18-.15-.8-.3-1.6-.44-2.4-.09-.5-.19-1-.28-1.5-.19-1.04-.38-2.08-.57-3.12-.38-2.07-.74-4.15-1.1-6.23-.21-1.21-.42-2.41-.62-3.62-.09-.56-.19-1.11-.28-1.67-.33-1.97-.66-3.94-.98-5.92-.18-1.1-.36-2.21-.53-3.31-.11-.68-.21-1.35-.32-2.03-.12-.73-.23-1.46-.34-2.2-.11-.69-.21-1.39-.32-2.08-.26-1.73-.53-3.46-.78-5.19-.24-1.64-.48-3.28-.71-4.93-.13-.89-.25-1.79-.38-2.68-.21-1.49-.41-2.99-.61-4.49-.04-.29-.08-.59-.12-.89-.2-1.49-.39-2.98-.59-4.48-.01-.09-.02-.19-.04-.29-.11-.82-.21-1.63-.31-2.45-.21-1.63-.41-3.26-.61-4.9-.03-.19-.05-.39-.07-.59-.21-1.71-.42-3.43-.61-5.14-.19-1.71-.39-3.41-.58-5.13-.01-.09-.02-.18-.03-.26-.13-1.14-.25-2.29-.38-3.43-.19-1.83-.39-3.66-.57-5.5-.07-.69-.14-1.37-.21-2.06-.09-.86-.17-1.71-.25-2.56-.16-1.63-.32-3.26-.46-4.89-.11-1.2-.22-2.4-.33-3.6-.14-1.49-.26-2.99-.39-4.5-.07-.8-.13-1.59-.19-2.39-.35-4.22-.67-8.45-.96-12.68-.11-1.58-.22-3.16-.32-4.75-.12-1.87-.24-3.75-.34-5.63-.08-1.24-.14-2.49-.21-3.75-.01-.22-.02-.45-.04-.68-.06-1.03-.11-2.05-.16-3.08-.04-.75-.08-1.5-.11-2.26-.08-1.59-.16-3.18-.23-4.77-.02-.38-.03-.77-.05-1.15-.08-1.75-.15-3.5-.21-5.26,0-.08-.01-.16-.01-.24-.06-1.71-.13-3.41-.18-5.13,0-.11,0-.21-.01-.32-.02-.76-.05-1.52-.07-2.28-.05-1.65-.1-3.29-.14-4.95,0-.13,0-.27,0-.4-.04-1.76-.09-3.53-.12-5.3-.04-2.05-.08-4.11-.11-6.16-.01-.91-.03-1.83-.04-2.74,0-.18,0-.35,0-.53-.02-1.51-.03-3.02-.04-4.53v-.87c-.01-1.99-.02-3.99-.02-5.98v-318.21h156.68v132.03h156.64v-132.03h156.58v132.03h156.75v-132.03h156.74v132.03h156.74v-132.03h156.41v132.03h157.01v-132.03h156.48v132.03h157.02v-132.03h156.06l-.07,132.03h157.22v-132.03h156.68Z"/>
      <g>
        <g>
          <path class="cls-10" d="m1264.95,1707.08c-2.14,3.73-4.25,7.48-6.31,11.25h-389.03c-.15-.42-.29-.84-.44-1.26-.69-1.96-1.38-3.92-2.06-5.89-.48-1.37-.94-2.74-1.41-4.11h399.25Z"/>
          <path class="cls-10" d="m2794.21,1707.08c-.33.98-.66,1.95-1,2.92-.13.4-.27.79-.41,1.19-.58,1.67-1.16,3.34-1.74,5-.13.36-.25.71-.38,1.06-.13.36-.26.72-.39,1.08h-389.02c-2.06-3.78-4.16-7.53-6.31-11.25h399.24Z"/>
          <path class="cls-10" d="m1236.08,1763.77c-1.68,3.73-3.31,7.48-4.91,11.25h-339.52c-.07-.16-.14-.33-.21-.49-.73-1.72-1.46-3.44-2.17-5.18-.02-.03-.03-.06-.04-.09-.76-1.83-1.52-3.66-2.27-5.49h349.12Z"/>
          <path class="cls-10" d="m2772.95,1763.77s0,.03-.01.04c-.74,1.82-1.49,3.64-2.25,5.45-.01.04-.02.07-.04.09-.71,1.73-1.44,3.46-2.17,5.18-.07.16-.14.33-.21.49h-339.52c-1.59-3.77-3.23-7.52-4.91-11.25h349.11Z"/>
          <path class="cls-10" d="m1213.91,1820.45c-1.26,3.74-2.48,7.49-3.67,11.25h-292.49c-.08-.16-.16-.32-.24-.48-.92-1.84-1.83-3.69-2.73-5.53-.65-1.33-1.29-2.64-1.93-3.97-.21-.43-.42-.85-.62-1.28h301.68Z"/>
          <path class="cls-10" d="m2747.69,1820.45c-.33.67-.65,1.34-.98,2.01-.48.99-.96,1.99-1.45,2.98-.94,1.93-1.9,3.86-2.86,5.78-.08.16-.16.32-.24.48h-292.49c-1.19-3.76-2.41-7.51-3.67-11.25h301.68Z"/>
          <path class="cls-10" d="m1197.75,1877.14c-.88,3.74-1.73,7.49-2.53,11.25h-246.94c-.04-.08-.09-.16-.14-.24-.32-.53-.63-1.07-.93-1.61-.86-1.49-1.72-2.97-2.56-4.46-.94-1.64-1.88-3.29-2.81-4.95h255.91Z"/>
          <path class="cls-10" d="m2718.07,1877.14c-.69,1.23-1.39,2.46-2.08,3.68-1.09,1.93-2.19,3.84-3.3,5.76-.26.44-.51.88-.76,1.32-.09.16-.19.33-.28.49h-246.94c-.81-3.76-1.65-7.51-2.53-11.25h255.9Z"/>
          <path class="cls-10" d="m1187.13,1933.82c-.53,3.74-1.02,7.5-1.48,11.25h-201.97c-.04-.06-.08-.12-.12-.18-.6-.89-1.19-1.78-1.79-2.67-.75-1.13-1.5-2.25-2.24-3.38-.38-.58-.76-1.15-1.14-1.73-.7-1.06-1.39-2.11-2.08-3.17-.02-.04-.05-.08-.08-.12h210.89Z"/>
          <path class="cls-10" d="m2683.68,1933.82c-.06.09-.11.17-.17.26-.66,1.01-1.32,2.03-1.99,3.03-.38.58-.76,1.16-1.14,1.73-.74,1.13-1.49,2.26-2.24,3.38-.59.89-1.19,1.78-1.79,2.67-.04.06-.08.12-.12.18h-201.97c-.46-3.76-.95-7.51-1.48-11.25h210.89Z"/>
          <path class="cls-10" d="m1181.75,1990.51c-.19,3.74-.34,7.5-.46,11.25h-156.69c-.28-.36-.56-.72-.84-1.08-.76-.98-1.51-1.96-2.27-2.95-1.84-2.4-3.67-4.8-5.49-7.22h165.75Z"/>
          <path class="cls-10" d="m2643.91,1990.51c-.65.87-1.3,1.74-1.96,2.6-1.56,2.06-3.13,4.11-4.71,6.16-.64.83-1.29,1.66-1.93,2.49h-156.68c-.12-3.76-.28-7.51-.46-11.25h165.74Z"/>
          <path class="cls-10" d="m1181.95,2058.45h-110.05c-.63-.7-1.25-1.39-1.87-2.09-.83-.93-1.66-1.85-2.48-2.78-1.21-1.37-2.42-2.74-3.63-4.12-.66-.75-1.32-1.5-1.97-2.26h119.47c.14,3.76.32,7.51.53,11.25Z"/>
          <path class="cls-10" d="m2597.97,2047.19c-.47.54-.94,1.08-1.41,1.62-1.28,1.46-2.56,2.91-3.84,4.37-1.41,1.59-2.82,3.18-4.24,4.76-.15.17-.3.34-.45.51h-110.05c.21-3.74.39-7.5.53-11.25h119.47Z"/>
          <path class="cls-10" d="m1187.67,2115.13h-60.83c-.79-.75-1.59-1.51-2.38-2.28-.88-.83-1.75-1.68-2.62-2.53-.68-.65-1.36-1.31-2.03-1.97-1.53-1.48-3.04-2.97-4.56-4.47h70.88c.48,3.76.99,7.51,1.54,11.25Z"/>
          <path class="cls-10" d="m2544.67,2103.88c-.17.17-.34.33-.51.5-1.68,1.65-3.36,3.29-5.05,4.93-1.53,1.49-3.06,2.97-4.6,4.45-.29.29-.58.56-.88.84-.19.18-.38.36-.56.54h-60.83c.55-3.74,1.07-7.49,1.54-11.25h70.87Z"/>
          <rect class="cls-10" x="811.56" y="1253.6" width="2036.93" height="11.25"/>
          <rect class="cls-10" x="811.42" y="1310.29" width="2036.93" height="11.25"/>
          <rect class="cls-10" x="811.56" y="1366.97" width="2036.93" height="11.25"/>
          <path class="cls-10" d="m812.46,1423.66h786.27c-9.41,3.54-18.71,7.3-27.91,11.25h-757.81l-.55-11.25Z"/>
          <path class="cls-10" d="m2847.46,1423.66h-786.27c9.41,3.54,18.71,7.3,27.91,11.25h757.81l.55-11.25Z"/>
          <path class="cls-10" d="m1483.98,1480.34c-5.88,3.66-11.69,7.41-17.43,11.25h-648.87c-.01-.09-.02-.18-.03-.26-.13-1.14-.25-2.29-.38-3.43-.19-1.83-.39-3.66-.57-5.5-.07-.69-.14-1.37-.21-2.06h667.48Z"/>
          <path class="cls-10" d="m2843.42,1480.34c-.07.68-.14,1.37-.21,2.06-.18,1.84-.38,3.67-.57,5.5-.13,1.14-.24,2.29-.38,3.43-.01.09-.02.18-.03.26h-648.87c-5.75-3.84-11.55-7.6-17.43-11.25h667.49Z"/>
          <path class="cls-10" d="m1406.44,1537.03c-4.35,3.7-8.63,7.45-12.88,11.25h-568c-.33-1.97-.66-3.94-.98-5.92-.18-1.1-.36-2.21-.53-3.31-.11-.68-.21-1.35-.32-2.03h582.7Z"/>
          <path class="cls-10" d="m2836.18,1537.03c-.11.68-.21,1.35-.32,2.03-.17,1.1-.35,2.21-.53,3.31-.32,1.98-.64,3.95-.98,5.92h-568c-4.25-3.81-8.53-7.56-12.88-11.25h582.7Z"/>
          <path class="cls-10" d="m1347.75,1593.71c-3.39,3.71-6.74,7.46-10.03,11.25h-500.95c-.67-2.92-1.32-5.84-1.96-8.77-.18-.83-.36-1.65-.54-2.48h513.48Z"/>
          <path class="cls-10" d="m2825.65,1593.71c-.18.83-.36,1.66-.54,2.48-.64,2.93-1.29,5.85-1.96,8.77h-500.95c-3.29-3.79-6.64-7.55-10.03-11.25h513.48Z"/>
          <path class="cls-10" d="m1301.6,1650.4c-2.7,3.72-5.35,7.47-7.97,11.25h-442.24c-.48-1.65-.95-3.31-1.43-4.96-.59-2.09-1.18-4.19-1.76-6.29h453.39Z"/>
          <path class="cls-10" d="m2811.71,1650.4c-.58,2.1-1.16,4.2-1.76,6.29-.48,1.66-.94,3.31-1.43,4.96h-442.24c-2.61-3.78-5.26-7.53-7.97-11.25h453.39Z"/>
        </g>
        <g>
          <rect class="cls-10" x="906.6" y="1259.23" width="11.25" height="56.69"/>
          <rect class="cls-10" x="1002.33" y="1259.23" width="11.25" height="56.69"/>
          <rect class="cls-10" x="858.74" y="1315.92" width="11.25" height="56.69"/>
          <rect class="cls-10" x="954.47" y="1315.92" width="11.25" height="56.69"/>
          <rect class="cls-10" x="1104.24" y="1259.23" width="11.25" height="56.69"/>
          <rect class="cls-10" x="1199.97" y="1259.23" width="11.25" height="56.69"/>
          <rect class="cls-10" x="1056.37" y="1315.92" width="11.25" height="56.69"/>
          <rect class="cls-10" x="1152.1" y="1315.92" width="11.25" height="56.69"/>
          <rect class="cls-10" x="1305.08" y="1259.23" width="11.25" height="56.69"/>
          <rect class="cls-10" x="1400.81" y="1259.23" width="11.25" height="56.69"/>
          <rect class="cls-10" x="1257.22" y="1315.92" width="11.25" height="56.69"/>
          <rect class="cls-10" x="1352.95" y="1315.92" width="11.25" height="56.69"/>
          <rect class="cls-10" x="1501.98" y="1259.23" width="11.25" height="56.69"/>
          <rect class="cls-10" x="1597.71" y="1259.23" width="11.25" height="56.69"/>
          <rect class="cls-10" x="1454.12" y="1315.92" width="11.25" height="56.69"/>
          <rect class="cls-10" x="1549.85" y="1315.92" width="11.25" height="56.69"/>
          <rect class="cls-10" x="1699.61" y="1259.23" width="11.25" height="56.69"/>
          <rect class="cls-10" x="1795.34" y="1259.23" width="11.25" height="56.69"/>
          <rect class="cls-10" x="1651.75" y="1315.92" width="11.25" height="56.69"/>
          <rect class="cls-10" x="1747.48" y="1315.92" width="11.25" height="56.69"/>
          <rect class="cls-10" x="1900.46" y="1259.23" width="11.25" height="56.69"/>
          <rect class="cls-10" x="1996.19" y="1259.23" width="11.25" height="56.69"/>
          <rect class="cls-10" x="1852.59" y="1315.92" width="11.25" height="56.69"/>
          <rect class="cls-10" x="1948.33" y="1315.92" width="11.25" height="56.69"/>
          <rect class="cls-10" x="2091.77" y="1259.23" width="11.25" height="56.69"/>
          <rect class="cls-10" x="2187.5" y="1259.23" width="11.25" height="56.69"/>
          <rect class="cls-10" x="2043.91" y="1315.92" width="11.25" height="56.69"/>
          <rect class="cls-10" x="2139.64" y="1315.92" width="11.25" height="56.69"/>
          <rect class="cls-10" x="2289.41" y="1259.23" width="11.25" height="56.69"/>
          <rect class="cls-10" x="2385.14" y="1259.23" width="11.25" height="56.69"/>
          <rect class="cls-10" x="2241.54" y="1315.92" width="11.25" height="56.69"/>
          <rect class="cls-10" x="2337.27" y="1315.92" width="11.25" height="56.69"/>
          <rect class="cls-10" x="2490.25" y="1259.23" width="11.25" height="56.69"/>
          <rect class="cls-10" x="2585.98" y="1259.23" width="11.25" height="56.69"/>
          <rect class="cls-10" x="2442.39" y="1315.92" width="11.25" height="56.69"/>
          <rect class="cls-10" x="2538.12" y="1315.92" width="11.25" height="56.69"/>
          <rect class="cls-10" x="2689.24" y="1262.93" width="11.25" height="56.69"/>
          <rect class="cls-10" x="2784.97" y="1262.93" width="11.25" height="56.69"/>
          <rect class="cls-10" x="2641.37" y="1319.62" width="11.25" height="56.69"/>
          <rect class="cls-10" x="2737.1" y="1319.62" width="11.25" height="56.69"/>
          <rect class="cls-10" x="910.22" y="1370.75" width="11.25" height="56.69"/>
          <rect class="cls-10" x="1005.95" y="1370.75" width="11.25" height="56.69"/>
          <rect class="cls-10" x="862.35" y="1427.44" width="11.25" height="56.69"/>
          <rect class="cls-10" x="958.08" y="1427.44" width="11.25" height="56.69"/>
          <rect class="cls-10" x="1107.85" y="1370.75" width="11.25" height="56.69"/>
          <rect class="cls-10" x="1203.58" y="1370.75" width="11.25" height="56.69"/>
          <rect class="cls-10" x="1059.98" y="1427.44" width="11.25" height="56.69"/>
          <rect class="cls-10" x="1155.71" y="1427.44" width="11.25" height="56.69"/>
          <rect class="cls-10" x="1308.69" y="1370.75" width="11.25" height="56.69"/>
          <rect class="cls-10" x="1404.42" y="1370.75" width="11.25" height="56.69"/>
          <rect class="cls-10" x="1260.83" y="1427.44" width="11.25" height="56.69"/>
          <rect class="cls-10" x="1356.56" y="1427.44" width="11.25" height="56.69"/>
          <rect class="cls-10" x="1505.59" y="1370.75" width="11.25" height="56.69"/>
          <polygon class="cls-10" points="1612.58 1419.42 1601.32 1427.43 1601.32 1370.75 1612.58 1370.75 1612.58 1419.42"/>
          <rect class="cls-10" x="1457.73" y="1427.44" width="11.25" height="56.69"/>
          <rect class="cls-10" x="2095.39" y="1370.75" width="11.25" height="56.69"/>
          <rect class="cls-10" x="2191.12" y="1370.75" width="11.25" height="56.69"/>
          <rect class="cls-10" x="2293.02" y="1370.75" width="11.25" height="56.69"/>
          <rect class="cls-10" x="2388.75" y="1370.75" width="11.25" height="56.69"/>
          <rect class="cls-10" x="2245.15" y="1427.43" width="11.25" height="56.69"/>
          <rect class="cls-10" x="2340.88" y="1427.43" width="11.25" height="56.69"/>
          <rect class="cls-10" x="2493.86" y="1370.75" width="11.25" height="56.69"/>
          <rect class="cls-10" x="2589.59" y="1370.75" width="11.25" height="56.69"/>
          <rect class="cls-10" x="2446" y="1427.43" width="11.25" height="56.69"/>
          <rect class="cls-10" x="2541.73" y="1427.43" width="11.25" height="56.69"/>
          <rect class="cls-10" x="2692.85" y="1374.45" width="11.25" height="56.69"/>
          <rect class="cls-10" x="2788.58" y="1374.45" width="11.25" height="56.69"/>
          <rect class="cls-10" x="2644.98" y="1431.14" width="11.25" height="56.69"/>
          <rect class="cls-10" x="2740.71" y="1431.14" width="11.25" height="56.69"/>
          <rect class="cls-10" x="906.6" y="1484.05" width="11.25" height="56.69"/>
          <rect class="cls-10" x="1002.33" y="1484.05" width="11.25" height="56.69"/>
          <rect class="cls-10" x="858.74" y="1540.74" width="11.25" height="56.69"/>
          <rect class="cls-10" x="954.47" y="1540.74" width="11.25" height="56.69"/>
          <rect class="cls-10" x="1104.24" y="1484.05" width="11.25" height="56.69"/>
          <rect class="cls-10" x="1199.97" y="1484.05" width="11.25" height="56.69"/>
          <rect class="cls-10" x="1056.37" y="1540.74" width="11.25" height="56.69"/>
          <rect class="cls-10" x="1152.1" y="1540.74" width="11.25" height="56.69"/>
          <rect class="cls-10" x="1305.08" y="1484.05" width="11.25" height="56.69"/>
          <rect class="cls-10" x="1400.81" y="1484.05" width="11.25" height="56.69"/>
          <rect class="cls-10" x="1257.22" y="1540.74" width="11.25" height="56.69"/>
          <rect class="cls-10" x="2289.41" y="1484.05" width="11.25" height="56.69"/>
          <rect class="cls-10" x="2385.14" y="1484.05" width="11.25" height="56.69"/>
          <rect class="cls-10" x="2337.27" y="1540.74" width="11.25" height="56.69"/>
          <rect class="cls-10" x="2490.25" y="1484.05" width="11.25" height="56.69"/>
          <rect class="cls-10" x="2585.98" y="1484.05" width="11.25" height="56.69"/>
          <rect class="cls-10" x="2442.39" y="1540.74" width="11.25" height="56.69"/>
          <rect class="cls-10" x="2538.12" y="1540.74" width="11.25" height="56.69"/>
          <rect class="cls-10" x="2689.24" y="1487.76" width="11.25" height="56.69"/>
          <rect class="cls-10" x="2784.97" y="1487.76" width="11.25" height="56.69"/>
          <rect class="cls-10" x="2641.37" y="1544.44" width="11.25" height="56.69"/>
          <rect class="cls-10" x="2737.1" y="1544.44" width="11.25" height="56.69"/>
          <rect class="cls-10" x="910.22" y="1595.57" width="11.25" height="56.69"/>
          <rect class="cls-10" x="1005.95" y="1595.57" width="11.25" height="56.69"/>
          <rect class="cls-10" x="958.08" y="1652.26" width="11.25" height="56.69"/>
          <rect class="cls-10" x="1107.85" y="1595.57" width="11.25" height="56.69"/>
          <rect class="cls-10" x="1203.58" y="1595.57" width="11.25" height="56.69"/>
          <rect class="cls-10" x="1059.98" y="1652.26" width="11.25" height="56.69"/>
          <rect class="cls-10" x="1155.71" y="1652.26" width="11.25" height="56.69"/>
          <rect class="cls-10" x="2388.75" y="1595.57" width="11.25" height="56.69"/>
          <rect class="cls-10" x="2493.86" y="1595.57" width="11.25" height="56.69"/>
          <rect class="cls-10" x="2589.59" y="1595.57" width="11.25" height="56.69"/>
          <rect class="cls-10" x="2446" y="1652.26" width="11.25" height="56.69"/>
          <rect class="cls-10" x="2541.73" y="1652.26" width="11.25" height="56.69"/>
          <rect class="cls-10" x="2692.85" y="1599.28" width="11.25" height="56.69"/>
          <rect class="cls-10" x="2788.58" y="1599.28" width="11.25" height="56.69"/>
          <rect class="cls-10" x="2644.98" y="1655.96" width="11.25" height="56.69"/>
          <rect class="cls-10" x="2740.71" y="1655.96" width="11.25" height="56.69"/>
          <rect class="cls-10" x="906.6" y="1714.62" width="11.25" height="56.69"/>
          <rect class="cls-10" x="1002.33" y="1714.62" width="11.25" height="56.69"/>
          <rect class="cls-10" x="954.47" y="1771.31" width="11.25" height="56.69"/>
          <rect class="cls-10" x="1104.24" y="1714.62" width="11.25" height="56.69"/>
          <rect class="cls-10" x="1199.97" y="1714.62" width="11.25" height="56.69"/>
          <rect class="cls-10" x="1056.37" y="1771.31" width="11.25" height="56.69"/>
          <rect class="cls-10" x="1152.1" y="1771.31" width="11.25" height="56.69"/>
          <rect class="cls-10" x="2490.25" y="1714.62" width="11.25" height="56.69"/>
          <rect class="cls-10" x="2585.98" y="1714.62" width="11.25" height="56.69"/>
          <rect class="cls-10" x="2538.12" y="1771.31" width="11.25" height="56.69"/>
          <rect class="cls-10" x="2689.24" y="1718.33" width="11.25" height="56.69"/>
          <rect class="cls-10" x="2641.37" y="1775.01" width="11.25" height="56.69"/>
          <rect class="cls-10" x="2737.1" y="1775.01" width="11.25" height="56.69"/>
          <rect class="cls-10" x="1005.95" y="1826.14" width="11.25" height="56.69"/>
          <rect class="cls-10" x="1107.85" y="1826.14" width="11.25" height="56.69"/>
          <rect class="cls-10" x="1059.98" y="1882.83" width="11.25" height="56.69"/>
          <rect class="cls-10" x="1155.71" y="1882.83" width="11.25" height="56.69"/>
          <rect class="cls-10" x="2493.86" y="1826.14" width="11.25" height="56.69"/>
          <rect class="cls-10" x="2589.59" y="1826.14" width="11.25" height="56.69"/>
          <rect class="cls-10" x="2541.73" y="1882.83" width="11.25" height="56.69"/>
          <rect class="cls-10" x="2692.85" y="1829.85" width="11.25" height="56.69"/>
          <rect class="cls-10" x="2644.98" y="1886.53" width="11.25" height="56.69"/>
          <rect class="cls-10" x="1104.24" y="1939.44" width="11.25" height="56.69"/>
          <rect class="cls-10" x="1056.37" y="1996.13" width="11.25" height="56.69"/>
          <rect class="cls-10" x="1152.1" y="1996.13" width="11.25" height="56.69"/>
          <rect class="cls-10" x="2585.98" y="1939.44" width="11.25" height="56.69"/>
          <rect class="cls-10" x="2538.12" y="1996.13" width="11.25" height="56.69"/>
          <rect class="cls-10" x="1107.85" y="2050.96" width="11.25" height="56.69"/>
        </g>
      </g>
    </g>
  </g>
  <text class="cls-11" transform="translate(0 3198.02)"><tspan x="0" y="0">Amtsgericht</tspan><tspan x="664.29" y="764.74">Prabu</tspan><tspan class="cls-13" x="2390.68" y="764.74">r</tspan><tspan x="2623.73" y="764.74">g</tspan></text>
</svg>