<?xml version="1.0" encoding="UTF-8"?>
<svg id="Ebene_1" data-name="Ebene 1" xmlns="http://www.w3.org/2000/svg" viewBox="0 0 4382.56 971.35">
  <defs>
    <style>
      .cls-1 {
        fill: #e52228;
        stroke-width: 0px;
      }
    </style>
  </defs>
  <g>
    <path class="cls-1" d="m595.77,251.83c-5.84,3.51-11.7,6.96-17.59,10.46-10.82-2.73-21.41-6.29-31.37-11.41,9.12-6.65,20.19-16.8,31.84-17.23,3.89-.14,7.81.83,11.76,3.33,1.76,4.96,3.55,9.91,5.35,14.85Z"/>
    <path class="cls-1" d="m0,0v963.61h205.09c-3.78-15.65-4.96-31.85-2.38-48.51,12.23-60.64,64.37-100.51,109.79-137.24,35.53-35.71,64.31-79.91,75.93-129.4,5.83-25.47,4.76-51.84,3.09-77.71-21.74-8.69-44.55-14.28-67.97-15.8,15.68-12.89,27.63-29.47,38.26-46.58-36.2-8.27-72.39-17.8-106.23-33.39,28.89-17.47,47.34-46.45,63.21-75.33-35.01,11.13-72.25,10.06-107.65,1.43,36.84-28.88,51.9-76.25,87.33-106.59-21.62-4.67-42.94-11.17-62.86-20.91,25.72-40.15,71.96-61.17,117.04-71.06-22.13-10.61-43.7-23.62-59.77-42.54,57.21,5.61,114.6-.82,171.1-9.74-2.29,14.03-6.47,31.19,3.92,43.01,6.58,6.94,16.75,3.72,24.84,2.5-3.04-12.01-8.8-24.49-4.4-36.95,5.55-22.23,23.74-37.92,42.42-49.55,3.36,23.3,6.57,46.52,8.56,69.99,46.93,21.36,84.4,57.42,124.88,88.4,15.32,12.72,34.23,23.31,41.82,42.78-16.89,5.51-13.5,25,.71,31.01-4.43,6.17-7.86,16.23-17.35,14.97-15.86.74-16.6-24.48-33.39-21.86-10.05-1.64-25.8,4.14-20.68,16.87,5.94,7.38,15.85,7,24.24,8.79,3.61,3.09,7.14,6.14,10.69,9.27-17.23,5.4-36.79,11.46-54.06,2.85-14.16-6.82-12.41-29.35-29.23-32.68-36.04-8.07-73.51,2.27-109.79-3.92-16.57-5.48-23.79-22.67-30.3-37.31-10.12,1.35-22.81,8.47-18.66,20.68,9.12,29.56,39.46,46.73,69.51,45.39,23.1,74.53,102.4,106.23,146.03,166,20.73,26.58,31.9,59.53,33.86,93.04,32.74,10.75,65.06,22.5,97.91,32.92,21.41,4.87,30.38,27.35,44.32,41.94-11.09,17.75-21.22,36.3-27.92,56.2-9.89,26.33-13.15,54.59-24.12,80.56-9.95.6-21.55.5-28.28,9.27-7.79,7.4-7.46,18.85-7.85,28.76-15.43,14.82-33.38,28.92-55.49,31.01-12.27-30.48-7.2-63.8,1.9-94.35,11.06-.03,22.12-.06,33.15,0,.03-6.47.09-12.92.12-19.37,18.27-9.33,38.39-22.52,41.94-44.44,3.85-16.59-4.61-32.2-14.85-44.56-48.22,1.93-96.31,7-144.61,6.77-18.71.52-31.24-15.92-39.57-30.54-3.08.27-9.16.8-12.24,1.07-12.22,17.29,2.97,35.72,17.59,45.03,28.3,19.63,63.95,6.81,95.65,8.55-7.91,15.04-16.51,29.93-28.04,42.54-48.21,52.92-125.61,67.2-171.22,123.1-11.33,15.44-25.8,31.94-24.24,52.4-.02,4.4-.09,8.81-.21,13.22h532.03V0H0Zm286.79,562.8c-11.63,9.37-24.89,20-26.68,35.96-3.1,25.51,13.58,47.02,21.65,69.98,12.41,29.07,17.95,64.68.01,92.76-22.75,35.97-66.61,47.19-97.96,73.19-13.41,10.41-17.81,28.58-13.24,44.58,2.96,2.72,8.9,8.15,11.86,10.87-17.79,4.21-38.9.94-50.66-14.25-15.78-20.27-13.45-49.49-1.6-71.1,14.24-26.75,38.62-50.17,39.22-82.33,1.52-30.16-22.66-51.61-36.25-76.01-17.97-28.82-18.5-67.61-1.22-96.86,15.27-26.48,42.4-42.58,69.37-55.02-6.24,30.23-3.47,61.65,7.15,90.56,14.53-27.59,51.47-36.55,78.34-22.34Zm572.73,94.13c-30.38-11.24-50.79-38.71-65.6-66.27,7.8-8.04,15.39-16.28,22.85-24.62-4.58-4.65-9.19-9.29-13.79-13.93,4.73-17.6,10.39-37.29,2.08-54.74-5.76-13.33-18.7-21.99-32.48-25.34-5.49-1.62-13.86-3.65-16.44,3.53-19.59,35.91-38.64,72.14-58.07,108.15-7.26-31.25-23.7-59.51-44.64-83.55,38.14-29.9,76.1-60.02,114.39-89.71,15.76.07,31.52.07,47.26-.02,7.1,50.03,40.18,89.65,58.82,135.21-6,7.36-14.09,14.81-13.57,25.22-.59,10.82,7.4,18.91,14.46,25.92,1.39,21.17-3.45,42.4-15.27,60.15Z"/>
  </g>
  <g>
    <path class="cls-1" d="m1308.38,65.66h-176.1v117h170.13v65.66h-170.13v169.53h-68.65V0h244.74v65.66Z"/>
    <path class="cls-1" d="m1441.49,352.19h185.05v65.66h-253.7V0h250.71v65.66h-182.06v108.64h167.14v65.07h-167.14v112.82Z"/>
    <path class="cls-1" d="m1957.24,385.92c-29.46,26.47-67.45,39.7-114.01,39.7s-84.57-13.23-114.01-39.7c-29.46-26.46-44.17-61.98-44.17-106.55V0h68.65v275.19c0,25.47,7.46,45.77,22.38,60.89,14.92,15.13,37.31,22.68,67.15,22.68s52.23-7.55,67.16-22.68c14.92-15.12,22.38-35.42,22.38-60.89V0h68.65v279.36c0,44.57-14.73,80.09-44.17,106.55Z"/>
    <path class="cls-1" d="m2148.85,352.19h185.05v65.66h-253.7V0h250.71v65.66h-182.06v108.64h167.14v65.07h-167.14v112.82Z"/>
    <path class="cls-1" d="m2634.75,417.85l-88.28-152.22h-81.25v152.22h-68.65V0h167.14c37.4,0,69.14,13.04,95.21,39.1,26.06,26.07,39.1,57.81,39.1,95.21,0,26.67-7.67,51.04-22.98,73.12-15.32,22.09-35.32,38.11-59.99,48.05l94.91,162.37h-75.21Zm-169.53-353.38v139.68h98.49c18.3,0,33.82-6.76,46.56-20.3,12.73-13.52,19.1-30.04,19.1-49.55s-6.37-36.01-19.1-49.55c-12.74-13.52-28.26-20.3-46.56-20.3h-98.49Z"/>
    <path class="cls-1" d="m2840.52,417.85L2726.68,0h71.97l88.02,326.54L2981.57,0h63.26l94.32,326.52L3226.91,0h67.62l-113.59,417.85h-79.39l-88.42-306.12-88.97,306.12h-83.64Z"/>
    <path class="cls-1" d="m3421.5,352.19h185.05v65.66h-253.7V0h250.71v65.66h-182.06v108.64h167.14v65.07h-167.14v112.82Z"/>
    <path class="cls-1" d="m3916.95,0h68.65v417.85h-68.65v-180.87h-179.08v180.87h-68.65V0h68.65v171.32h179.08V0Z"/>
    <path class="cls-1" d="m4307.35,417.85l-88.28-152.22h-81.25v152.22h-68.65V0h167.14c37.4,0,69.14,13.04,95.21,39.1,26.06,26.07,39.1,57.81,39.1,95.21,0,26.67-7.67,51.04-22.98,73.12-15.32,22.09-35.32,38.11-59.99,48.05l94.91,162.37h-75.21Zm-169.53-353.38v139.68h98.49c18.3,0,33.82-6.76,46.56-20.3,12.73-13.52,19.1-30.04,19.1-49.55s-6.37-36.01-19.1-49.55c-12.74-13.52-28.26-20.3-46.56-20.3h-98.49Z"/>
    <path class="cls-1" d="m1217.65,545.74c39.4,0,72.32,13.13,98.79,39.4,26.46,26.26,39.7,58.9,39.7,97.9s-13.24,71.14-39.7,97.6c-26.47,26.47-59.39,39.7-98.79,39.7h-85.36v143.26h-68.65v-417.85h154.01Zm0,210.12c20.3,0,37.01-6.86,50.14-20.59,13.13-13.73,19.7-31.13,19.7-52.23s-6.57-38.5-19.7-52.23c-13.13-13.73-29.85-20.59-50.14-20.59h-85.36v145.65h85.36Z"/>
    <path class="cls-1" d="m1654,963.59l-88.28-152.22h-81.25v152.22h-68.65v-417.85h167.14c37.4,0,69.14,13.04,95.21,39.1,26.06,26.07,39.1,57.81,39.1,95.21,0,26.67-7.67,51.04-22.98,73.12-15.32,22.09-35.32,38.11-59.99,48.05l94.91,162.37h-75.21Zm-169.53-353.38v139.68h98.49c18.3,0,33.82-6.76,46.56-20.3,12.73-13.52,19.1-30.04,19.1-49.55s-6.37-36.01-19.1-49.55c-12.74-13.52-28.26-20.3-46.56-20.3h-98.49Z"/>
    <path class="cls-1" d="m2053.94,963.59l-29.47-84.17h-177.69l-29.22,84.17h-74.62l151.62-417.85h82.37l151.03,417.85h-74.02Zm-184.45-148.64h132.4l-66.04-188.63-66.36,188.63Z"/>
    <path class="cls-1" d="m2418.66,746.9c18.3,9.55,32.63,22.68,42.98,39.4,10.34,16.71,15.52,36.02,15.52,57.9,0,34.23-12.14,62.68-36.41,85.36-24.28,22.68-53.93,34.03-88.94,34.03h-179.08v-417.85h165.95c34.22,0,63.17,11.04,86.85,33.13,23.67,22.09,35.52,49.65,35.52,82.67,0,36.22-14.13,64.67-42.38,85.36Zm-79.99-136.7h-97.3v109.84h97.3c15.12,0,27.85-5.27,38.2-15.82,10.34-10.54,15.52-23.58,15.52-39.1s-5.18-28.55-15.52-39.1c-10.35-10.54-23.08-15.82-38.2-15.82Zm13.13,288.91c15.91,0,29.34-5.67,40.29-17.01,10.94-11.34,16.42-25.16,16.42-41.49s-5.47-30.14-16.42-41.49c-10.95-11.34-24.38-17.01-40.29-17.01h-110.43v117h110.43Z"/>
    <path class="cls-1" d="m2801.29,931.65c-29.46,26.47-67.45,39.7-114.01,39.7s-84.57-13.23-114.01-39.7c-29.46-26.46-44.17-61.98-44.17-106.55v-279.36h68.65v275.19c0,25.47,7.46,45.77,22.38,60.89,14.92,15.13,37.31,22.68,67.15,22.68s52.23-7.55,67.16-22.68c14.92-15.12,22.38-35.42,22.38-60.89v-275.19h68.65v279.36c0,44.57-14.73,80.09-44.17,106.55Z"/>
    <path class="cls-1" d="m3162.43,963.59l-88.28-152.22h-81.25v152.22h-68.65v-417.85h167.14c37.4,0,69.14,13.04,95.21,39.1,26.06,26.07,39.1,57.81,39.1,95.21,0,26.67-7.67,51.04-22.98,73.12-15.32,22.09-35.32,38.11-59.99,48.05l94.91,162.37h-75.21Zm-169.53-353.38v139.68h98.49c18.3,0,33.82-6.76,46.56-20.3,12.73-13.52,19.1-30.04,19.1-49.55s-6.37-36.01-19.1-49.55c-12.74-13.52-28.26-20.3-46.56-20.3h-98.49Z"/>
    <path class="cls-1" d="m3693.7,747.5v28.65c0,57.31-18.91,104.16-56.71,140.58-37.81,36.41-87.15,54.62-148.04,54.62-64.47,0-117.7-20.89-159.68-62.68-41.99-41.79-62.98-93.12-62.98-154.01s20.99-111.72,62.98-153.71c41.98-41.98,94.02-62.98,156.1-62.98,39,0,74.62,8.95,106.85,26.86,32.23,17.91,57.31,41.99,75.21,72.23l-59.1,34.03c-11.15-19.89-27.66-35.91-49.55-48.05-21.89-12.13-46.36-18.21-73.42-18.21-43.78,0-79.79,14.33-108.05,42.98-28.26,28.65-42.38,64.47-42.38,107.45s14.22,78.6,42.68,106.85c28.45,28.26,65.76,42.38,111.92,42.38,37.01,0,67.15-8.66,90.43-25.97,23.28-17.31,38.1-40.49,44.47-69.54h-139.68v-61.48h208.93Z"/>
  </g>
</svg>