<?xml version="1.0" encoding="UTF-8"?>
<svg id="Ebene_1" data-name="Ebene 1" xmlns="http://www.w3.org/2000/svg" viewBox="0 0 4310.69 4310.69">
  <defs>
    <style>
      .cls-1, .cls-2, .cls-3 {
        stroke-width: 0px;
      }

      .cls-1, .cls-3 {
        fill: #010101;
      }

      .cls-2 {
        fill: none;
      }

      .cls-3 {
        fill-rule: evenodd;
      }
    </style>
  </defs>
  <path class="cls-2" d="m4263.72,2139.69c-15.66-10.44-140.91-104.38-219.19-104.38l-511.44,20.88,193.09-20.88c52.19-5.22,130.47-83.5,140.91-88.72l15.66-15.66-20.88-10.44c-10.44-5.22-93.94-52.19-146.13-52.19h-10.44l-459.25,78.28,229.62-46.97c52.19-15.66,114.81-99.16,125.25-109.59l15.66-20.88-20.88-10.44c-5.22,0-83.5-36.53-140.91-36.53-10.44,0-15.66,0-26.09,5.22l-266.16,88.72,485.34-182.66c46.97-20.87,104.38-114.81,109.59-125.25l10.44-20.87-26.09-5.22c-5.22,0-67.84-15.66-114.81-15.66-20.88,0-36.53,0-46.97,5.22l-182.66,83.5,454.03-240.06c62.62-36.53,130.47-182.66,135.69-198.31l10.44-20.87-26.09-5.22s-46.97-5.22-104.38-5.22c-62.62,0-109.59,10.44-140.91,26.09l-438.38,271.37,167-114.81c41.75-31.31,73.06-135.69,73.06-146.12l5.22-26.09h-26.09c-10.44,0-120.03,0-161.78,36.53l-360.09,297.47,172.22-156.56c36.53-36.53,52.19-146.12,52.19-156.56l5.22-20.87-26.09,5.22c-10.44,0-120.03,15.66-156.56,52.19l-187.87,208.75,334-401.84c31.31-41.75,36.53-151.34,36.53-161.78v-26.09l-26.09,5.22c-10.44,5.22-114.81,31.31-146.12,73.06l-120.03,167,276.59-438.37c36.53-62.62,20.88-224.41,15.66-240.06l10.44-26.09-20.88,10.44c-15.66,5.22-161.78,73.06-198.31,135.69l-240.06,454.03,83.5-182.66c20.88-46.97-5.22-151.34-10.44-167l-5.22-26.09-20.88,10.44c-10.44,5.22-104.37,62.62-125.25,109.59l-167,443.59,73.06-224.41c15.66-52.19-31.31-151.34-36.53-161.78l-10.44-20.87-20.88,15.66c-10.44,5.22-93.94,73.06-109.59,125.25l-57.41,276.59,88.72-511.44c5.22-52.19-46.97-146.13-52.19-156.56l-10.44-20.87-15.66,15.66c-10.44,10.44-83.5,88.72-88.72,140.91l-20.87,203.53,20.88-516.66c0-73.06-93.94-203.53-104.37-219.19l-15.66-20.87-15.66,20.87c-10.44,15.66-104.38,140.91-104.38,219.19l20.88,511.44-20.88-198.31c-5.22-52.19-83.5-130.47-88.72-140.91l-20.88-15.66-10.44,20.87c-5.22,10.44-57.41,104.38-52.19,156.56l83.5,506.22-57.41-271.38c-15.66-52.19-99.16-120.03-109.59-125.25l-20.88-15.66-10.44,20.87c0,15.66-41.75,120.03-26.09,172.22l78.28,229.62-167-448.81c-20.87-46.97-114.81-104.38-125.25-109.59l-20.87-10.44-5.22,26.09c-5.22,10.44-31.31,114.81-10.44,167l83.5,182.66-240.06-454.03c-36.53-62.62-182.66-130.47-198.31-135.69l-26.09-20.87v26.09c0,15.66-20.87,177.44,20.87,240.06l276.59,443.59-120.03-172.22c-31.31-41.75-135.69-73.06-146.12-73.06l-31.31-10.44v26.09c0,10.44,0,120.03,36.53,161.78l328.78,396.63-182.66-208.75c-36.53-36.53-146.12-52.19-156.56-52.19h-26.09l5.22,20.87c0,10.44,15.66,120.03,52.19,161.78l182.66,161.78-370.53-307.91c-41.75-31.31-151.34-36.53-161.78-36.53h-26.09l5.22,26.09c5.22,10.44,31.31,114.81,73.06,146.12l161.78,114.81-433.16-271.37c-26.09-15.66-73.06-26.09-140.91-26.09-52.19,0-99.16,5.22-104.38,5.22l-26.09,5.22,10.44,20.87c5.22,15.66,73.06,161.78,135.69,198.31l464.47,245.28-187.88-88.72c-10.44-5.22-26.09-5.22-46.97-5.22-52.19,0-114.81,15.66-114.81,15.66l-26.09,5.22,10.44,20.87c5.22,10.44,62.62,104.38,109.59,125.25l485.34,177.44-266.16-83.5c-5.22,0-15.66-5.22-26.09-5.22-52.19,0-135.69,31.31-140.91,36.53l-20.87,10.44,15.66,20.88c5.22,10.44,73.06,99.16,125.25,109.59l240.06,52.19-474.91-83.5h-10.44c-52.19,0-135.69,46.97-146.13,52.19l-20.87,10.44,15.66,15.66c10.44,10.44,88.72,83.5,140.91,88.72l198.31,20.88-511.44-15.66c-73.06,0-203.53,93.94-219.19,104.38l-20.87,15.66,20.87,15.66c15.66,10.44,140.91,104.38,219.19,104.38h0l527.09-20.88-213.97,20.88c-52.19,5.22-130.47,83.5-140.91,88.72l-15.66,15.66,20.87,10.44c10.44,5.22,93.94,52.19,146.13,52.19h10.44l459.25-78.28-224.41,46.97c-52.19,15.66-114.81,99.16-125.25,109.59l-15.66,20.88,20.87,10.44c5.22,0,83.5,36.53,140.91,36.53,10.44,0,15.66,0,26.09-5.22l266.16-88.72-485.34,182.66c-46.97,20.88-104.38,114.81-109.59,125.25l-10.44,20.88,26.09,5.22c5.22,0,67.84,15.66,114.81,15.66,20.87,0,36.53,0,46.97-5.22l182.66-83.5-454.03,240.06c-62.62,36.53-130.47,182.66-135.69,198.31l-10.44,20.88,26.09,5.22s46.97,5.22,104.37,5.22c62.62,0,109.59-10.44,140.91-26.09l433.16-271.38-161.78,114.81c-46.97,36.53-73.06,140.91-78.28,151.34l-5.22,26.09h26.09c10.44,0,120.03,0,161.78-36.53l370.53-307.91-187.88,161.78c-36.53,36.53-52.19,146.12-52.19,156.56v26.09l26.09-5.22c10.44,0,120.03-15.66,156.56-52.19l182.66-208.75-328.78,396.63c-31.31,41.75-36.53,151.34-36.53,161.78v26.09l26.09-5.22c10.44-5.22,114.81-31.31,146.12-73.06l109.59-156.56-271.37,427.94c-36.53,62.62-20.87,224.41-15.66,240.06l5.22,26.09,20.87-10.44c15.66-5.22,161.78-73.06,198.31-135.69l240.06-454.03-83.5,182.66c-20.87,46.97,5.22,151.34,10.44,167l5.22,26.09,20.87-10.44c10.44-5.22,104.38-62.62,125.25-109.59l167-454.03-78.28,240.06c-15.66,52.19,31.31,151.34,36.53,161.78l10.44,20.88,20.88-15.66c10.44-5.22,93.94-73.06,109.59-125.25l57.41-271.38-88.72,495.78c-5.22,52.19,46.97,146.13,52.19,156.56l10.44,20.88,15.66-15.66c10.44-10.44,83.5-88.72,88.72-140.91l15.66-193.09-20.88,506.22c0,73.06,93.94,203.53,104.38,219.19l15.66,20.88,15.66-20.88c10.44-15.66,104.37-140.91,104.37-219.19l-20.88-521.88,20.88,203.53c5.22,52.19,83.5,130.47,88.72,140.91l15.66,15.66,26.09-15.66c5.22-10.44,57.41-104.38,52.19-156.56l-83.5-495.78,52.19,260.94c15.66,52.19,99.16,120.03,109.59,125.25l20.88,15.66,10.44-20.88c5.22-10.44,46.97-114.81,31.31-161.78l-78.28-234.84,167,454.03c20.88,46.97,114.81,104.38,125.25,109.59l20.88,10.44,5.22-26.09c5.22-10.44,31.31-114.81,10.44-167l-83.5-177.44,240.06,454.03c36.53,62.62,182.66,130.47,198.31,135.69l20.88,10.44,5.22-26.09c0-15.66,20.88-177.44-15.66-240.06l-266.16-427.94,109.59,156.56c31.31,41.75,135.69,73.06,146.12,73.06l26.09,5.22v-26.09c0-10.44,0-120.03-36.53-161.78l-323.56-391.41,182.66,203.53c36.53,36.53,146.12,52.19,156.56,52.19l26.09,5.22-5.22-26.09c0-10.44-15.66-120.03-52.19-161.78l-182.66-161.78,370.53,307.91c41.75,31.31,151.34,36.53,161.78,36.53h26.09l-5.22-26.09c-5.22-10.44-31.31-114.81-73.06-146.12l-167-114.81,438.37,276.59c26.09,15.66,73.06,26.09,140.91,26.09,52.19,0,99.16-5.22,104.38-5.22l26.09-5.22-10.44-20.88c-5.22-15.66-73.06-161.78-135.69-198.31l-443.59-234.84,172.22,78.28c10.44,5.22,26.09,5.22,46.97,5.22,52.19,0,114.81-15.66,114.81-15.66l26.09-5.22-26.09-26.09c-5.22-10.44-62.62-104.38-109.59-125.25l-480.13-177.44,260.94,88.72c5.22,0,15.66,5.22,26.09,5.22,52.19,0,135.69-31.31,140.91-36.53l20.88-10.44-15.66-20.87c-5.22-10.44-73.06-99.16-125.25-109.59l-234.84-46.97,469.69,78.28h10.44c52.19,0,135.69-46.97,146.13-52.19l20.88-10.44-15.66-15.66c-10.44-10.44-88.72-83.5-140.91-88.72l-203.53-20.88,516.66,20.88h0c73.06,0,203.53-93.94,219.19-104.38l20.88-15.66-20.88-20.88Z"/>
  <path class="cls-1" d="m4274.16,2129.25c-26.09-15.66-151.34-109.59-229.63-109.59h0l-245.28,10.44c36.53-26.09,73.06-57.41,83.5-67.84l36.53-36.53-41.75-26.09c-15.66-10.44-99.16-52.19-156.56-52.19h-10.44l-161.78,26.09c31.31-31.31,62.62-67.84,67.84-78.28l26.09-36.53-41.75-15.66c-5.22-5.22-52.19-20.88-104.38-31.31l156.56-57.41h0c52.19-20.87,109.59-114.81,120.03-130.47l26.09-41.75-46.97-10.44s-57.41-15.66-104.38-15.66l213.97-114.81h0c67.84-41.75,130.47-182.66,146.13-208.75l20.88-46.97-52.19-5.22s-52.19-5.22-104.38-5.22c-67.84,0-120.03,10.44-146.13,26.09h0l-208.75,130.47c20.88-41.75,36.53-88.72,36.53-99.16l15.66-46.97h-52.19c-20.88,0-130.47,5.22-172.22,36.53h0l-125.25,104.38c15.66-41.75,20.88-88.72,20.88-104.38l5.22-46.97-46.97,5.22c-15.66,0-62.63,10.44-104.38,26.09l104.38-130.47h0c36.53-46.97,36.53-151.34,36.53-172.22v-52.19l-46.97,15.66c-10.44,5.22-57.41,15.66-99.16,36.53l130.47-208.75h0c41.75-67.84,26.09-224.41,20.88-255.72l-5.22-52.19-46.97,20.88c-26.09,10.44-167,73.06-208.75,146.13h0l-109.59,213.97c0-46.97-15.66-93.94-15.66-104.38l-10.44-46.97-41.75,26.09c-15.66,10.44-109.59,67.84-130.47,120.03h0l-57.41,156.56c-10.44-46.97-26.09-88.72-31.31-99.16l-26.09-46.97-36.53,31.31c-10.44,10.44-46.97,36.53-78.28,73.06l26.09-167h0c5.22-57.41-41.75-151.34-52.19-167l-26.09-41.75-36.53,36.53c-10.44,10.44-41.75,46.97-67.84,83.5l10.44-250.5h0c0-78.28-88.72-203.53-109.59-229.63l-26.09-41.75-31.31,41.75c-15.66,26.09-109.59,151.34-109.59,229.63h0l10.44,245.28c-26.09-36.53-57.41-73.06-67.84-83.5l-36.53-36.53-26.09,41.75c-10.44,20.87-62.63,114.81-52.19,167h0l26.09,167c-31.31-36.53-67.84-62.62-78.28-73.06l-36.53-31.31-20.88,41.75c-5.22,10.44-20.88,57.41-31.31,99.16l-57.41-156.56h0c-20.87-52.19-114.81-109.59-130.47-120.03l-41.75-26.09-10.44,46.97c-5.22,10.44-15.66,57.41-15.66,104.38l-114.81-213.97h0c-41.75-67.84-182.66-130.47-208.75-146.13l-46.97-20.88-5.22,52.19c-5.22,31.31-20.87,182.66,20.87,255.72h0l130.47,208.75c-41.75-20.87-88.72-36.53-99.16-36.53l-46.97-15.66v52.19c0,20.87,5.22,130.47,36.53,172.22h0l104.38,130.47c-41.75-15.66-88.72-20.87-104.38-26.09l-46.97-5.22,5.22,46.97c0,15.66,10.44,57.41,20.87,104.38l-125.25-104.38h0c-46.97-36.53-151.34-36.53-172.22-36.53h-52.19l15.66,46.97c5.22,10.44,15.66,57.41,36.53,99.16l-208.75-130.47h0c-31.31-15.66-78.28-26.09-146.13-26.09-57.41,0-104.38,5.22-104.38,5.22l-52.19,5.22,20.88,46.97c10.44,26.09,73.06,167,146.12,208.75h0l219.19,114.81c-52.19,5.22-104.38,15.66-104.38,15.66l-46.97,10.44,26.09,41.75c10.44,15.66,67.84,109.59,120.03,130.47h0l156.56,57.41c-46.97,10.44-93.94,31.31-104.38,31.31l-41.75,15.66,26.09,36.53c10.44,10.44,36.53,46.97,73.06,78.28l-161.78-26.09h-10.44c-57.41,0-140.91,46.97-156.56,52.19l-41.75,26.09,36.53,36.53c10.44,10.44,41.75,41.75,83.5,67.84l-245.28-10.44h0c-78.28,0-203.53,88.72-229.63,109.59l-52.19,36.53,41.75,31.31c20.88,20.88,146.12,109.59,229.62,109.59h0l245.28-10.44c-36.53,26.09-73.06,57.41-83.5,67.84l-36.53,36.53,41.75,26.09c15.66,10.44,99.16,52.19,156.56,52.19h10.44l161.78-26.09c-31.31,31.31-62.62,67.84-67.84,78.28l-26.09,36.53,41.75,15.66c5.22,5.22,52.19,20.88,104.38,31.31l-156.56,57.41h0c-52.19,20.88-109.59,114.81-120.03,130.47l-26.09,41.75,46.97,10.44s57.41,15.66,104.38,15.66l-213.97,114.81h0c-67.84,41.75-130.47,182.66-146.13,208.75l-20.87,52.19,52.19,5.22s52.19,5.22,104.38,5.22c67.84,0,120.03-10.44,146.13-26.09h0l208.75-130.47c-20.87,41.75-36.53,88.72-36.53,99.16l-15.66,46.97h52.19c20.87,0,130.47-5.22,172.22-36.53h0l125.25-104.38c-15.66,41.75-20.87,88.72-20.87,104.38l-5.22,46.97,46.97-5.22c15.66,0,62.63-10.44,104.38-26.09l-104.38,130.47h0c-36.53,46.97-36.53,151.34-36.53,172.22v52.19l46.97-15.66c10.44-5.22,57.41-15.66,99.16-36.53l-130.47,208.75h0c-41.75,67.84-26.09,224.41-20.87,255.72l5.22,52.19,46.97-20.88c26.09-10.44,167-73.06,208.75-146.13h0l114.81-219.19c0,46.97,15.66,93.94,15.66,104.38l10.44,46.97,41.75-26.09c15.66-10.44,109.59-67.84,130.47-120.03h0l57.41-156.56c10.44,46.97,26.09,88.72,31.31,99.16l20.88,41.75,36.53-31.31c10.44-10.44,46.97-36.53,78.28-73.06l-26.09,172.22h0c-5.22,57.41,41.75,151.34,52.19,167l26.09,41.75,36.53-36.53c10.44-10.44,41.75-41.75,67.84-83.5l-10.44,245.28h0c0,78.28,88.72,203.53,109.59,229.63l31.31,41.75,31.31-41.75c15.66-26.09,109.59-151.34,109.59-229.63h0l-10.44-245.28c26.09,36.53,57.41,73.06,67.84,83.5l36.53,36.53,26.09-41.75c10.44-20.88,62.63-114.81,52.19-167h0l-26.09-161.78c31.31,36.53,67.84,62.62,78.28,73.06l36.53,31.31,20.88-41.75c5.22-10.44,20.88-57.41,31.31-99.16l46.97,146.13h0c20.88,52.19,114.81,109.59,130.47,120.03l41.75,26.09,10.44-46.97c5.22-10.44,15.66-57.41,15.66-104.38l114.81,213.97h0c41.75,67.84,182.66,130.47,208.75,146.13l46.97,20.88,5.22-52.19c5.22-31.31,20.88-182.66-20.88-255.72h0l-130.47-203.53c41.75,20.88,83.5,36.53,99.16,36.53l46.97,15.66v-52.19c0-20.88-5.22-130.47-36.53-172.22h0l-104.38-130.47c41.75,15.66,88.72,20.88,104.38,26.09l46.97,5.22-5.22-46.97c0-15.66-5.22-57.41-20.88-104.38l125.25,104.38h0c46.97,36.53,151.34,36.53,172.22,36.53h52.19l-15.66-46.97c-5.22-10.44-15.66-57.41-36.53-99.16l208.75,130.47h0c31.31,15.66,78.28,26.09,146.13,26.09,57.41,0,104.38-5.22,104.38-5.22l52.19-5.22-20.88-46.97c-10.44-26.09-73.06-167-146.13-208.75h0l-213.97-114.81c46.97-5.22,99.16-15.66,104.38-15.66l46.97-10.44-26.09-41.75c-10.44-15.66-67.84-109.59-120.03-130.47h0l-156.56-57.41c46.97-10.44,93.94-26.09,104.38-31.31l41.75-15.66-26.09-36.53c-10.44-10.44-36.53-46.97-67.84-78.28l161.78,26.09h10.44c57.41,0,146.13-46.97,156.56-52.19l41.75-26.09-36.53-36.53c-10.44-10.44-46.97-41.75-83.5-67.84l245.28,10.44h0c78.28,0,203.53-88.72,229.63-109.59l41.75-31.31-36.53-31.31Zm-563.63-245.28h5.22c46.97,0,135.69,52.19,135.69,52.19,0,0-83.5,78.28-130.47,83.5l-187.87,15.66-516.66,20.88v-52.19l694.09-120.03Zm-125.25-109.59s-67.84,93.94-114.81,104.38l-213.97,46.97-240.06,41.75v-78.28l156.56-57.41,255.72-83.5h20.88c52.19-5.22,135.69,26.09,135.69,26.09m156.56-271.38s-57.41,99.16-99.16,114.81l-621.03,229.63v-67.84l391.41-208.75,177.44-83.5c10.44-5.22,26.09-5.22,41.75-5.22,46.97,5.22,109.59,20.87,109.59,20.87m0-375.75c31.31-15.66,83.5-20.87,130.47-20.87,52.19,0,99.16,5.22,99.16,5.22,0,0-67.84,156.56-130.47,193.09l-824.56,438.37v-156.56l725.41-459.25Zm-375.75,15.66c36.53-26.09,151.34-31.31,151.34-31.31,0,0-31.31,109.59-67.84,135.69l-161.78,120.03-271.38,167v-104.38l349.66-287.03Zm-161.78-31.31s-15.66,114.81-46.97,146.12l-140.91,125.25h-156.56l15.66-20.87,177.44-203.53c36.53-31.31,151.34-46.97,151.34-46.97m-224.41,1252.5c0,193.09-93.94,391.41-240.06,542.75-151.34,151.34-354.87,255.72-579.28,255.72s-433.16-104.38-579.28-255.72c-151.34-151.34-240.06-354.87-240.06-547.97v-939.37h1643.91v902.84l-5.22,41.75Zm224.41-1565.62s0,114.81-31.31,151.34l-360.09,433.16h-83.5l219.19-354.87,114.81-167c31.31-31.31,140.91-62.62,140.91-62.62m-187.88-323.56c36.53-62.62,193.09-130.47,193.09-130.47,0,0,20.88,167-15.66,229.62l-506.22,808.91h-151.34l480.13-908.06Zm-318.34,198.31c15.66-41.75,114.81-99.16,114.81-99.16,0,0,26.09,109.59,10.44,151.34l-83.5,182.66-250.5,474.91h-52.19l260.94-709.75Zm-156.56,57.41s46.97,104.38,31.31,151.34l-67.84,213.97-104.38,287.03h-62.63l46.97-271.38,57.41-266.16c5.22-46.97,99.16-114.81,99.16-114.81m-245.28-146.13c5.22-46.97,83.5-130.47,83.5-130.47,0,0,57.41,99.16,46.97,146.13l-130.47,782.81h-41.75l20.88-594.94,20.87-203.53Zm-135.69-521.87s99.16,135.69,99.16,208.75l-41.75,1111.59h-120.03l-41.75-1111.59c0-73.06,104.38-208.75,104.38-208.75m-224.41,396.63s78.28,83.5,83.5,130.47l20.88,198.31,20.88,600.16h-41.75l-130.47-777.59c-10.44-52.19,46.97-151.34,46.97-151.34m-161.78,271.37s88.72,67.84,104.38,114.81l52.19,255.72,46.97,281.81h-57.41l-104.38-281.81-73.06-219.19c-10.44-46.97,31.31-151.34,31.31-151.34m-271.38-156.56s99.16,57.41,114.81,99.16l260.94,709.75h-52.19l-250.5-474.91-83.5-182.66c-15.66-41.75,10.44-151.34,10.44-151.34m-375.75,0c-36.53-62.62-15.66-229.63-15.66-229.63,0,0,156.56,67.84,193.09,130.47l480.12,913.28h-151.34l-506.22-814.13Zm15.66,375.75c-31.31-36.53-31.31-151.34-31.31-151.34,0,0,109.59,31.31,135.69,67.84l120.03,167,219.19,349.66h-88.72l-354.87-433.16Zm120.03,213.97l177.44,198.31,20.87,26.09h-156.56l-135.69-125.25c-31.31-31.31-46.97-146.12-46.97-146.12,0,0,104.38,10.44,140.91,46.97m-464.47-52.19s114.81,0,151.34,31.31l349.66,292.25v99.16l-271.38-172.22-161.78-109.59c-36.53-31.31-67.84-140.91-67.84-140.91m-328.78,187.88c-62.62-36.53-130.47-193.09-130.47-193.09,0,0,46.97-5.22,99.16-5.22,46.97,0,99.16,5.22,130.47,20.87l725.41,454.03v156.56l-824.56-433.16Zm203.53,318.34c-41.75-15.66-99.16-114.81-99.16-114.81,0,0,62.62-15.66,109.59-15.66,15.66,0,31.31,0,41.75,5.22l187.87,88.72,380.97,203.53v67.84l-621.03-234.84Zm57.41,156.56s83.5-31.31,130.47-31.31h20.87l250.5,83.5,161.78,62.63v78.28l-224.41-36.53-224.41-52.19c-46.97-10.44-114.81-104.38-114.81-104.38m-271.37,161.78s88.72-52.19,135.69-52.19h5.22l694.09,120.03v52.19l-511.44-20.87-193.09-15.66c-52.19-5.22-130.47-83.5-130.47-83.5m-187.88,323.56c-73.06,0-208.75-99.16-208.75-99.16,0,0,135.69-99.16,208.75-99.16l1028.09,36.53v125.25l-1028.09,36.53Zm334,172.22h-10.44c-46.97,0-135.69-52.19-135.69-52.19,0,0,83.5-78.28,130.47-83.5l208.75-20.88,501-20.88v57.41l-694.09,120.03Zm125.25,109.59s67.84-93.94,114.81-104.38l213.97-41.75,240.06-41.75v73.06h0l-161.78,62.63-255.72,83.5h-20.87c-46.97,0-130.47-31.31-130.47-31.31m-156.56,271.38s57.41-99.16,99.16-114.81l631.47-234.84c0,10.44,5.22,20.88,5.22,26.09v5.22c0,10.44,5.22,15.66,5.22,26.09l-412.28,219.19-172.22,83.5c-10.44,5.22-26.09,5.22-41.75,5.22-52.19,0-114.81-15.66-114.81-15.66m0,375.75c-31.31,15.66-83.5,20.88-130.47,20.88-52.19,0-99.16-5.22-99.16-5.22,0,0,67.84-156.56,130.47-193.09l855.87-454.03c10.44,41.75,26.09,83.5,46.97,125.25l-803.69,506.22Zm375.75-15.66c-36.53,31.31-151.34,31.31-151.34,31.31,0,0,31.31-109.59,67.84-135.69l161.78-114.81,365.31-229.63h0c5.22,10.44,10.44,20.88,15.66,26.09,0,5.22,5.22,5.22,5.22,10.44,5.22,5.22,10.44,15.66,10.44,20.88l-474.91,391.41Zm161.78,31.31s15.66-114.81,46.97-146.12l177.44-156.56,109.59-88.72h0c15.66,26.09,36.53,46.97,52.19,73.06l-62.63,78.28-177.44,198.31c-31.31,26.09-146.12,41.75-146.12,41.75m5.22,313.12s0-114.81,31.31-151.34l380.97-459.25h0c15.66,15.66,31.31,31.31,46.97,46.97h0l-208.75,334-109.59,156.56c-31.31,41.75-140.91,73.06-140.91,73.06m187.88,328.78c-36.53,62.62-193.09,130.47-193.09,130.47,0,0-20.87-167,15.66-229.63l474.91-756.72c5.22,5.22,15.66,15.66,26.09,20.88l5.22,5.22c5.22,5.22,15.66,10.44,20.87,15.66s10.44,5.22,15.66,10.44c5.22,5.22,10.44,5.22,15.66,10.44,10.44,5.22,20.88,15.66,31.31,20.88l-412.28,772.37Zm313.12-208.75c-15.66,41.75-114.81,99.16-114.81,99.16,0,0-26.09-109.59-10.44-151.34l83.5-182.66,167-318.34h0c10.44,5.22,20.88,10.44,31.31,15.66h5.22c10.44,5.22,20.88,10.44,31.31,15.66l-193.09,521.88Zm156.56-52.19s-46.97-104.38-31.31-151.34l73.06-224.41,26.09-73.06h0c15.66,5.22,31.31,10.44,46.97,15.66h5.22c15.66,5.22,31.31,10.44,46.97,15.66l-10.44,41.75-52.19,260.94c-10.44,41.75-104.38,114.81-104.38,114.81m266.16-46.97l-15.66,193.09c-5.22,46.97-83.5,130.47-83.5,130.47,0,0-62.63-104.38-57.41-151.34l88.72-532.31c10.44,5.22,26.09,5.22,36.53,5.22h0c10.44,0,26.09,5.22,36.53,5.22l-5.22,349.66Zm120.03,714.97s-99.16-135.69-99.16-208.75l26.09-845.44h135.69l31.31,850.66c5.22,67.84-93.94,203.53-93.94,203.53m224.41-396.62s-78.28-83.5-83.5-130.47l-20.88-203.53-10.44-328.78c10.44,0,26.09-5.22,36.53-5.22h0c10.44,0,26.09-5.22,36.53-5.22h0l88.72,532.31c5.22,41.75-46.97,140.91-46.97,140.91m156.56-271.38s-88.72-67.84-104.38-114.81l-52.19-250.5-10.44-46.97h0c15.66-5.22,31.31-10.44,46.97-15.66h5.22c15.66-5.22,31.31-10.44,46.97-15.66l26.09,73.06,73.06,224.41c10.44,41.75-31.31,146.12-31.31,146.12m271.38,156.56s-99.16-57.41-114.81-99.16l-193.09-521.87h0c10.44-5.22,20.88-10.44,31.31-15.66h0c10.44-5.22,20.88-10.44,31.31-15.66h0l172.22,323.56,83.5,177.44c20.88,41.75-10.44,151.34-10.44,151.34m375.75,0c36.53,62.62,15.66,229.63,15.66,229.63,0,0-156.56-67.84-193.09-130.47l-412.28-777.59h0c10.44-5.22,20.88-15.66,31.31-20.88,5.22-5.22,10.44-5.22,15.66-10.44,5.22-5.22,10.44-5.22,10.44-10.44,5.22-5.22,15.66-10.44,20.88-15.66l5.22-5.22c5.22-5.22,15.66-10.44,20.88-20.88h0l485.34,761.94Zm-15.66-375.75c31.31,36.53,31.31,151.34,31.31,151.34,0,0-109.59-31.31-135.69-67.84l-109.59-156.56-208.75-334c15.66-15.66,31.31-31.31,46.97-46.97h0l375.75,454.03Zm-120.03-213.97l-172.22-193.09-62.63-78.28c20.88-20.88,36.53-46.97,52.19-73.06h0l109.59,93.94,172.22,156.56c31.31,31.31,46.97,146.12,46.97,146.12,0,0-109.59-15.66-146.12-52.19m464.47,46.97s-114.81,0-151.34-31.31l-474.91-391.41h0c5.22-5.22,10.44-15.66,10.44-20.88s5.22-5.22,5.22-10.44c5.22-10.44,10.44-20.88,15.66-26.09l360.09,224.41,161.78,114.81c41.75,31.31,73.06,140.91,73.06,140.91m328.78-187.87c62.62,36.53,130.47,193.09,130.47,193.09,0,0-46.97,5.22-99.16,5.22-46.97,0-99.16-5.22-130.47-20.88l-798.47-501h0c20.88-41.75,36.53-83.5,46.97-125.25l850.66,448.81Zm-208.75-313.12c41.75,15.66,99.16,114.81,99.16,114.81,0,0-62.62,15.66-109.59,15.66-15.66,0-31.31,0-41.75-5.22l-172.22-78.28-417.5-219.19h0c0-10.44,5.22-15.66,5.22-26.09v-5.22c0-10.44,5.22-20.88,5.22-26.09l631.47,229.62Zm-52.19-156.56s-83.5,31.31-130.47,31.31h-20.88l-250.5-83.5-167-62.63h0v-78.28l229.63,36.53,224.41,46.97c46.97,15.66,114.81,109.59,114.81,109.59m271.38-161.78s-88.72,52.19-135.69,52.19h-10.44l-694.09-120.03v-52.19l506.22,20.88,203.53,20.88c52.19,0,130.47,78.28,130.47,78.28m187.87-120.03l-1028.09-36.53v-125.25l1028.09-36.53c73.06,0,208.75,99.16,208.75,99.16,0,0-135.69,99.16-208.75,99.16"/>
  <path class="cls-3" d="m2134.47,1779.59v553.19c0,281.81-146.12,511.44-370.53,647.13-99.16-67.84-203.53-156.56-266.16-266.16,41.75-41.75,73.06-88.72,104.38-140.91,62.63-99.16,73.06-229.63,146.13-323.56,67.84-88.72,187.87-109.59,255.72-198.31,62.62-78.28,83.5-182.66,130.47-271.38m-741.06-297.47h631.47c-20.88,26.09-46.97,52.19-67.84,78.28-78.28,104.38-73.06,255.72-151.34,360.09-67.84,88.72-187.88,114.81-255.72,198.31-73.06,93.94-78.28,224.41-151.34,323.56-5.22-36.53-5.22-73.06-5.22-109.59,0,0,0-850.66,0-850.66Zm761.94,1487.34c-26.09,0-52.19-20.88-52.19-52.19,0-26.09,20.88-52.19,52.19-52.19,26.09,0,52.19,20.88,52.19,52.19s-20.87,52.19-52.19,52.19m167-31.31c10.44,10.44,15.66,26.09,20.88,41.75-10.44,10.44-26.09,15.66-41.75,20.88,0-10.44,0-26.09-5.22-36.53,10.44-5.22,20.87-15.66,26.09-26.09m-93.94-172.22c15.66-5.22,31.31-10.44,41.75-5.22,5.22,15.66,10.44,26.09,5.22,41.75-10.44-5.22-20.88-10.44-36.53-5.22,5.22-10.44,0-20.88-10.44-31.31m-193.09,36.53c0-15.66,0-31.31,5.22-41.75,15.66,0,31.31,0,41.75,5.22-10.44,10.44-15.66,20.88-15.66,31.31-5.22,0-20.87,0-31.31,5.22m-20.88,198.31c-15.66-5.22-26.09-10.44-41.75-20.88,5.22-15.66,10.44-26.09,20.88-41.75,5.22,10.44,15.66,20.88,26.09,26.09-10.44,10.44-10.44,20.88-5.22,36.53m172.22,78.28c-5.22,15.66-15.66,26.09-31.31,31.31-10.44-5.22-26.09-15.66-31.31-31.31,10.44,0,20.88-5.22,31.31-15.66,10.44,10.44,20.87,15.66,31.31,15.66"/>
  <path class="cls-3" d="m2238.84,2917.28c0,46.97-36.53,78.28-78.28,78.28s-78.28-36.53-78.28-78.28c0-46.97,36.53-78.28,78.28-78.28s78.28,36.53,78.28,78.28m-172.22,130.47c-36.53-26.09-46.97-67.84-15.66-83.5,0-5.22,0-10.44-5.22-15.66-36.53,5.22-52.19-36.53-36.53-78.28s46.97-62.63,73.06-41.75c5.22,0,10.44-5.22,15.66-10.44-15.66-31.31,20.88-57.41,62.63-57.41s78.28,26.09,62.63,57.41c0,5.22,5.22,10.44,15.66,10.44,26.09-26.09,62.63,0,73.06,41.75,15.66,41.75,0,83.5-36.53,78.28-5.22,5.22-5.22,10.44-5.22,15.66,31.31,15.66,20.88,57.41-15.66,83.5-31.31,26.09-78.28,26.09-83.5-10.44-5.22-5.22-10.44-5.22-15.66,0-10.44,31.31-57.41,31.31-88.72,10.44m323.56-553.19h146.12c0-57.41-46.97-99.16-46.97-167,0-46.97,15.66-73.06,67.84-88.72,10.44,10.44,20.88,26.09,31.31,41.75,0,62.63,10.44,104.38,26.09,135.69,0,0-31.31,26.09-31.31,120.03,0,0-130.47-5.22-146.12,10.44h-20.88v31.31c-31.31,10.44-62.63,10.44-83.5,0,0-26.09,26.09-52.19,26.09-52.19h5.22c15.66,0,26.09-10.44,26.09-31.31,0,5.22,0,0,0,0m-161.78-469.69c-15.66-15.66-15.66-46.97-15.66-52.19l5.22-5.22c10.44-10.44,10.44-26.09,0-36.53l-5.22-5.22c15.66-41.75,41.75-62.63,52.19-120.03h41.75l104.38,78.28c-15.66,20.88-31.31,46.97-41.75,73.06l-52.19-99.16c-36.53,0-57.41,31.31-36.53,73.06l-15.66,15.66,20.88,20.88c-15.66,31.31-31.31,46.97-57.41,57.41m422.72,720.19c0-26.09,26.09-46.97,26.09-52.19h5.22c15.66,0,26.09-10.44,26.09-26.09v-10.44c67.84-120.03,52.19-140.91-57.41-229.63-31.31-26.09-36.53-93.94-36.53-156.56-41.75-99.16-156.56-88.72-198.31-182.66l52.19,5.22c26.09,0,41.75-15.66,52.19-26.09s0-26.09-10.44-26.09c-5.22,15.66-20.88,26.09-36.53,26.09l-125.25-5.22c-26.09,26.09-20.88,62.63,26.09,78.28v20.88h31.31c10.44,31.31,10.44,62.63,0,83.5-26.09,0-52.19-26.09-52.19-26.09v-10.44c0-15.66-10.44-26.09-26.09-26.09h-5.22c-15.66-20.88-10.44-67.84-46.97-125.25l26.09-31.31,99.16-36.53c5.22-120.03,140.91-146.12,161.78-229.63,31.31,0,46.97-10.44,62.63-36.53,5.22-5.22,0-26.09-15.66-20.88-10.44,26.09-26.09,31.31-41.75,31.31-46.97,0-88.72-10.44-93.94,15.66-10.44,36.53-62.63,15.66-62.63,15.66l10.44-10.44h5.22c10.44,0,15.66-5.22,15.66-10.44s-5.22-10.44-15.66-10.44-15.66,5.22-15.66,10.44h0l-10.44,10.44c-15.66,0-15.66-10.44-15.66-15.66,5.22,0,10.44-5.22,10.44-10.44s-5.22-10.44-10.44-10.44c0-5.22,5.22-15.66,15.66-20.88l88.72-67.84c10.44-10.44,36.53-26.09,46.97-31.31,0-20.87,5.22-41.75,5.22-62.63,0,0,26.09,10.44,36.53,36.53,10.44,15.66,5.22,31.31,0,36.53,5.22,5.22,26.09,5.22,26.09-10.44v-26.09c31.31,5.22,83.5,15.66,156.56,5.22-15.66,15.66-36.53,31.31-52.19,36.53,36.53,10.44,83.5,26.09,104.37,62.63-15.66,10.44-36.53,15.66-57.41,20.88,36.53,31.31,46.97,78.28,78.28,93.94-36.53,10.44-73.06,10.44-93.94,0,10.44,26.09,31.31,52.19,57.41,67.84-36.53,15.66-67.84,26.09-93.94,31.31,10.44,15.66,20.88,31.31,36.53,41.75-26.09,0-46.97,10.44-62.63,15.66,0,31.31-10.44,99.16,67.84,182.66,109.59,83.5,135.69,140.91,52.19,250.5,0,57.41,10.44,78.28,36.53,135.69-5.22,5.22-15.66,31.31-26.09,62.63-10.44,36.53-20.88,73.06-20.88,109.59,0,0-20.88,0-20.88,20.88v31.31c-62.62,15.66-93.94,15.66-114.81,5.22m-187.87-1080.28c10.44,20.87,41.75,0,41.75,0,0,0-36.53-36.53-41.75,0m427.94,307.91c0,52.19-46.97,73.06-46.97,109.59,0,41.75,41.75,62.63,41.75,109.59,0,41.75-36.53,52.19-57.41,41.75,0,0,15.66-5.22,15.66-20.88,0-52.19-109.59-46.97-109.59-130.47,0-41.75,31.31-78.28,31.31-99.16,0-10.44-10.44-31.31-26.09-36.53,20.88-15.66,62.63-5.22,73.06,20.88,5.22-20.88,15.66-52.19,5.22-78.28,52.19,10.44,73.06,46.97,73.06,83.5h0Zm-709.75-490.56h741.06v850.66c0,281.81-151.34,511.44-370.53,647.13-224.41-135.69-370.53-370.53-370.53-647.13,0,0,0-850.66,0-850.66Z"/>
</svg>