<?xml version="1.0" encoding="UTF-8"?>
<svg id="Ebene_1" data-name="Ebene 1" xmlns="http://www.w3.org/2000/svg" xmlns:xlink="http://www.w3.org/1999/xlink" viewBox="0 0 3290.04 3850.68">
  <defs>
    <style>
      .cls-1, .cls-2, .cls-3, .cls-4, .cls-5, .cls-6, .cls-7 {
        stroke-width: 0px;
      }

      .cls-1, .cls-8, .cls-9 {
        fill: #e52228;
      }

      .cls-2 {
        fill: #010101;
      }

      .cls-8 {
        stroke: #010101;
        stroke-linejoin: round;
      }

      .cls-8, .cls-10, .cls-9 {
        stroke-width: 18px;
      }

      .cls-4 {
        fill: none;
      }

      .cls-5 {
        fill: #221d1f;
      }

      .cls-10 {
        fill: #03a34c;
      }

      .cls-10, .cls-9 {
        stroke: #1d1d1b;
      }

      .cls-6 {
        fill: #fff;
      }

      .cls-11 {
        clip-path: url(#clippath);
      }

      .cls-7 {
        fill: #1d1d1b;
      }
    </style>
    <clipPath id="clippath">
      <rect class="cls-4" x="1173.48" y="2559.18" width="943.56" height="990.04"/>
    </clipPath>
  </defs>
  <g>
    <path class="cls-3" d="m2842.85,3308.61c4.71-5.12,9.4-10.28,14.05-15.46-4.66,5.18-9.35,10.33-14.05,15.46Z"/>
    <path class="cls-3" d="m0,0v2205.66c0,111.6,11.25,223.14,33.42,331.52,21.62,105.61,53.87,209.51,95.86,308.79,41.23,97.48,92.26,191.49,151.67,279.44,58.84,87.1,126.43,169.02,200.87,243.46,51.2,51.19,105.94,99.15,163.47,143.26,26.11,20.01,52.8,39.22,79.97,57.59,87.96,59.42,181.97,110.46,279.45,151.69,99.27,41.98,203.17,74.23,308.79,95.84,108.38,22.18,219.92,33.43,331.52,33.43s223.15-11.25,331.52-33.43c105.63-21.61,209.53-53.86,308.82-95.84,97.46-41.23,191.49-92.27,279.41-151.69,27.19-18.37,53.88-37.58,79.98-57.59,57.54-44.11,112.27-92.07,163.47-143.26,74.45-74.44,142.02-156.36,200.89-243.46,59.39-87.95,110.42-181.96,151.65-279.44,41.99-99.28,74.25-203.18,95.87-308.79,22.18-108.38,33.41-219.92,33.41-331.52V0H0Zm3274.04,2205.66c0,3.19-.01,6.38-.02,9.57v1.39c-.03,2.41-.04,4.83-.08,7.24v.85l-.06,4.38c-.04,3.29-.11,6.58-.17,9.86-.06,2.83-.12,5.65-.19,8.47,0,.21-.02.43-.02.64-.06,2.64-.14,5.27-.23,7.91-.03,1.22-.06,2.44-.1,3.65-.02.17-.02.34-.02.51-.09,2.74-.19,5.47-.29,8.2,0,.13-.02.26-.02.38-.13,3.42-.28,6.84-.42,10.25-.11,2.54-.23,5.09-.36,7.63-.06,1.21-.12,2.41-.18,3.61-.11,2-.21,4-.32,6-.12,2-.22,4-.35,5.99-.17,3.01-.35,6.01-.54,9-.17,2.54-.33,5.07-.52,7.6-.46,6.77-.96,13.53-1.52,20.28-.11,1.28-.21,2.55-.32,3.83-.2,2.41-.39,4.81-.62,7.2-.17,1.92-.33,3.84-.52,5.76-.23,2.61-.48,5.22-.73,7.82-.23,2.46-.48,4.93-.73,7.39-.29,2.94-.6,5.87-.92,8.8-.2,1.83-.39,3.66-.6,5.49-.31,2.88-.63,5.75-.96,8.62-.31,2.74-.64,5.48-.99,8.22-.03.32-.07.64-.11.95-.31,2.62-.64,5.23-.96,7.84-.17,1.31-.33,2.61-.5,3.92-.02.16-.04.31-.06.46-.3,2.39-.63,4.78-.94,7.16-.06.48-.13.95-.19,1.42-.33,2.4-.66,4.79-.99,7.18-.2,1.43-.4,2.86-.59,4.29-.38,2.63-.75,5.26-1.15,7.88-.39,2.77-.81,5.54-1.23,8.3-.18,1.11-.35,2.22-.52,3.33-.35,2.26-.69,4.51-1.06,6.76-.27,1.76-.56,3.53-.85,5.29-.65,4.06-1.32,8.1-2,12.14-.32,1.93-.67,3.86-1,5.79-.57,3.33-1.15,6.65-1.75,9.96-.31,1.67-.61,3.33-.92,4.99-.14.8-.29,1.6-.44,2.4-.23,1.28-.46,2.56-.71,3.84-.41,2.23-.83,4.46-1.27,6.69-.69,3.61-1.39,7.22-2.1,10.82-.5,2.48-1,4.95-1.5,7.42-.04.21-.08.42-.13.63-.35,1.7-.7,3.4-1.05,5.1-.38,1.91-.79,3.82-1.2,5.73-.21,1-.41,2-.64,3-.52,2.54-1.08,5.07-1.63,7.6-1.55,7.13-3.14,14.23-4.8,21.32-.43,1.84-.85,3.69-1.3,5.53-.18.81-.37,1.61-.56,2.42-.83,3.47-1.67,6.93-2.5,10.39-.14.52-.27,1.03-.4,1.55-.87,3.57-1.76,7.12-2.66,10.68-.91,3.66-1.86,7.31-2.81,10.96-.07.29-.15.58-.23.87-.84,3.28-1.72,6.57-2.59,9.84-.13.44-.23.89-.37,1.33-.94,3.57-1.91,7.13-2.9,10.69-1.02,3.73-2.08,7.45-3.13,11.17-1,3.5-2,7-3.01,10.49-.98,3.36-1.97,6.71-2.97,10.05-.64,2.15-1.28,4.3-1.93,6.44-.48,1.61-.97,3.21-1.46,4.82-.43,1.38-.86,2.77-1.28,4.15-.63,2.01-1.24,4.01-1.88,6.01-.59,1.89-1.18,3.78-1.79,5.67-.38,1.22-.76,2.43-1.16,3.64-.62,1.97-1.26,3.95-1.89,5.92-1,3.05-1.98,6.09-3,9.13-1.21,3.65-2.43,7.29-3.66,10.93-.91,2.68-1.82,5.36-2.75,8.03-.21.64-.43,1.27-.65,1.9-.92,2.67-1.85,5.34-2.79,8-.19.57-.4,1.14-.6,1.7-.9,2.55-1.8,5.1-2.73,7.65-.28.81-.57,1.62-.86,2.42-.69,1.9-1.38,3.8-2.07,5.7-.62,1.73-1.26,3.46-1.9,5.18-.74,2.01-1.47,4.01-2.24,6.01-.28.79-.58,1.58-.88,2.36-.83,2.27-1.7,4.54-2.56,6.8-2.48,6.54-5.01,13.05-7.57,19.55-1.22,3.08-2.45,6.16-3.69,9.23-1.11,2.78-2.24,5.56-3.38,8.33-.15.41-.33.82-.5,1.23-1.18,2.91-2.38,5.82-3.6,8.72-.02.06-.03.11-.07.15-1.14,2.77-2.29,5.53-3.46,8.28-.25.61-.52,1.22-.77,1.82-1.15,2.71-2.3,5.41-3.48,8.11-1.29,3.03-2.62,6.06-3.95,9.09-1.32,3.03-2.66,6.05-4,9.06-2.68,6.04-5.41,12.05-8.17,18.04-.99,2.17-1.99,4.33-3.01,6.49-.66,1.46-1.35,2.92-2.04,4.37-.62,1.34-1.26,2.69-1.89,4.03-1.11,2.35-2.21,4.69-3.35,7.03-.28.59-.56,1.18-.84,1.76-1.1,2.3-2.2,4.58-3.31,6.87-.77,1.59-1.55,3.18-2.33,4.77-1.51,3.09-3.04,6.17-4.57,9.25-1.52,3.06-3.04,6.11-4.58,9.15-1.53,3.03-3.08,6.05-4.63,9.07-.66,1.3-1.33,2.6-2.02,3.9-1.1,2.16-2.22,4.31-3.35,6.47-.38.73-.75,1.46-1.15,2.19-1.31,2.52-2.63,5.03-3.98,7.54-.4.78-.83,1.57-1.25,2.34-1.25,2.36-2.52,4.72-3.79,7.07-.49.91-.98,1.82-1.47,2.73-1.29,2.38-2.57,4.75-3.88,7.12-2.23,4.06-4.48,8.12-6.73,12.16-1.79,3.2-3.61,6.39-5.42,9.58-1.75,3.08-3.51,6.15-5.28,9.22-.41.71-.8,1.41-1.22,2.11-1.29,2.25-2.61,4.5-3.93,6.75-.79,1.34-1.57,2.68-2.36,4.02-1.24,2.1-2.48,4.2-3.74,6.29-.3.52-.61,1.04-.92,1.55-1.64,2.77-3.31,5.53-4.98,8.29-.27.46-.55.91-.82,1.36-1.87,3.09-3.76,6.18-5.66,9.26-3.9,6.35-7.86,12.68-11.86,18.97-.22.35-.44.7-.66,1.04-1.86,2.92-3.73,5.84-5.61,8.75v.02c-1.63,2.53-3.27,5.05-4.91,7.56-1.05,1.62-2.11,3.24-3.17,4.85-.61.93-1.21,1.85-1.83,2.77-1.19,1.81-2.38,3.61-3.59,5.41-.95,1.43-1.9,2.85-2.86,4.27-1.01,1.51-2.02,3.02-3.04,4.53-1.93,2.87-3.89,5.73-5.84,8.58-2.07,3.04-4.17,6.06-6.26,9.08-2.05,2.96-4.12,5.9-6.2,8.84-.3.46-.62.91-.96,1.36-1.66,2.38-3.34,4.75-5.05,7.11-.58.83-1.18,1.67-1.78,2.5-1.88,2.63-3.78,5.25-5.68,7.86-2.19,3.03-4.38,6.04-6.6,9.04-.03.05-.06.09-.1.13-1.82,2.48-3.65,4.95-5.5,7.41-.6.81-1.19,1.63-1.81,2.44-2.06,2.75-4.12,5.49-6.2,8.23-2.5,3.29-5,6.58-7.53,9.85-1.94,2.52-3.88,5.03-5.84,7.54-.4.52-.8,1.04-1.21,1.55-2.06,2.63-4.11,5.25-6.19,7.87-2.33,2.95-4.67,5.9-7.04,8.83-2.22,2.77-4.44,5.52-6.68,8.27-5.02,6.18-10.09,12.33-15.21,18.43-2.23,2.68-4.48,5.35-6.74,8.01-.12.14-.23.27-.35.4-2.37,2.78-4.74,5.56-7.12,8.32-1.81,2.11-3.63,4.21-5.46,6.31-1.06,1.25-2.16,2.49-3.24,3.72-2.03,2.33-4.08,4.66-6.15,6.99-2.25,2.54-4.51,5.08-6.78,7.61-.45.51-.89,1.01-1.35,1.51-4.65,5.18-9.34,10.34-14.05,15.46-2.2,2.38-4.41,4.76-6.62,7.12-1.27,1.37-2.54,2.73-3.83,4.09-1.42,1.51-2.84,3.02-4.27,4.52-.7.76-1.42,1.52-2.15,2.28-2,2.11-4.02,4.22-6.04,6.32-.4.43-.81.86-1.22,1.28-2.13,2.23-4.29,4.45-6.45,6.66-6.01,6.19-12.08,12.33-18.2,18.42-2.21,2.21-4.44,4.42-6.69,6.62-2.68,2.64-5.37,5.27-8.07,7.89-2.43,2.38-4.89,4.75-7.36,7.11-.46.46-.93.9-1.4,1.34-2.46,2.36-4.93,4.72-7.42,7.06-.06.07-.11.11-.16.14-2.72,2.58-5.45,5.14-8.19,7.69-2.75,2.57-5.51,5.13-8.28,7.67-2.77,2.55-5.55,5.09-8.33,7.61-2.68,2.43-5.36,4.84-8.04,7.25-.27.25-.56.5-.84.74-2.64,2.36-5.3,4.72-7.95,7.06-2.83,2.49-5.67,4.97-8.5,7.44-2.31,2.01-4.62,4.01-6.94,6-3.41,2.94-6.81,5.86-10.25,8.76-2.86,2.41-5.73,4.81-8.61,7.21-2.8,2.35-5.62,4.68-8.43,7.01-2.31,1.89-4.61,3.78-6.93,5.65-1.19.98-2.39,1.95-3.58,2.92-2.43,1.96-4.86,3.91-7.3,5.86-2.9,2.32-5.8,4.62-8.7,6.92-.06.04-.1.08-.15.11-.03.03-.07.06-.09.08-1.66,1.3-3.31,2.6-4.96,3.89-.75.59-1.48,1.17-2.23,1.74-1.52,1.18-3.04,2.36-4.55,3.54-.87.67-1.72,1.34-2.6,2-1.73,1.33-3.46,2.66-5.18,3.98-2.19,1.68-4.4,3.35-6.6,5.01-4.4,3.33-8.82,6.64-13.26,9.93-1.99,1.47-3.97,2.93-5.96,4.39-.39.3-.8.6-1.21.88-2.06,1.52-4.13,3.02-6.19,4.52-2.16,1.56-4.32,3.12-6.47,4.67-.29.21-.59.42-.88.62-2.04,1.46-4.08,2.92-6.12,4.37-2.25,1.6-4.52,3.19-6.77,4.78-4.52,3.18-9.07,6.33-13.63,9.46-2.06,1.42-4.12,2.83-6.2,4.24-.36.26-.71.5-1.09.74-1.64,1.12-3.29,2.23-4.94,3.34-1.12.77-2.24,1.52-3.35,2.26-1.49.99-2.98,1.99-4.47,2.98-.66.45-1.33.9-2.01,1.33-1.81,1.22-3.65,2.42-5.48,3.62-4.6,3.05-9.25,6.07-13.91,9.05-2.33,1.5-4.65,2.99-7,4.48-2.33,1.48-4.67,2.96-7.02,4.44-2.34,1.47-4.68,2.94-7.04,4.4-2.32,1.45-4.67,2.9-7.01,4.34-.08.06-.18.12-.28.17-2.28,1.4-4.57,2.8-6.85,4.19-2.38,1.45-4.74,2.88-7.13,4.3-1.65,1-3.3,1.99-4.97,2.97-1.9,1.15-3.83,2.29-5.76,3.42-1.76,1.05-3.52,2.08-5.28,3.11-1.23.72-2.46,1.44-3.69,2.15-3.85,2.25-7.7,4.47-11.58,6.68-1.54.88-3.08,1.76-4.64,2.64-4.83,2.74-9.67,5.45-14.53,8.13-2.42,1.35-4.85,2.68-7.29,4.01-2.44,1.34-4.87,2.66-7.33,3.98-2.38,1.29-4.77,2.57-7.17,3.85-1.95,1.05-3.91,2.09-5.87,3.12-2.14,1.13-4.26,2.25-6.41,3.36-3.33,1.75-6.69,3.49-10.05,5.21-1.68.86-3.35,1.72-5.02,2.57-2.23,1.14-4.46,2.27-6.71,3.4-1.73.87-3.46,1.74-5.19,2.6-3.49,1.75-6.99,3.48-10.5,5.19-1.81.89-3.61,1.78-5.44,2.65-1.5.74-3.01,1.47-4.52,2.19-6.4,3.09-12.83,6.14-19.29,9.13-2.13,1-4.28,2-6.43,2.98-2.82,1.3-5.63,2.59-8.46,3.87-9.34,4.23-18.71,8.38-28.13,12.42-2.76,1.2-5.52,2.38-8.28,3.55-.44.18-.87.37-1.3.55-2.75,1.17-5.51,2.32-8.27,3.47-2.46,1.02-4.92,2.04-7.38,3.05-1.23.51-2.46,1.01-3.69,1.51-10.87,4.44-21.81,8.76-32.8,12.96-1.62.63-3.27,1.25-4.9,1.87-1.42.54-2.83,1.07-4.23,1.59-1.57.6-3.13,1.18-4.69,1.76-2.46.92-4.91,1.82-7.37,2.72-3.03,1.11-6.07,2.22-9.11,3.31-5.7,2.05-11.41,4.07-17.13,6.05-2.04.71-4.08,1.42-6.12,2.11-.56.2-1.12.39-1.68.58-1.74.6-3.48,1.19-5.22,1.78-1.6.54-3.19,1.07-4.8,1.61-1.59.53-3.17,1.06-4.76,1.58-5.66,1.88-11.33,3.72-17.03,5.53-3.03.97-6.05,1.92-9.08,2.86-2.41.76-4.82,1.5-7.22,2.23-1.8.56-3.62,1.11-5.42,1.65-1.73.54-3.47,1.06-5.21,1.57-.99.31-1.98.6-2.97.89-1.58.48-3.17.95-4.75,1.4-1.81.54-3.63,1.07-5.45,1.6-8.47,2.46-16.95,4.85-25.47,7.17-1.42.38-2.84.77-4.25,1.14-1.76.49-3.54.96-5.33,1.43-1.93.52-3.88,1.03-5.84,1.54-.04.02-.09.03-.15.04-2.59.68-5.18,1.35-7.78,2.02-5.63,1.45-11.27,2.86-16.92,4.24-2.76.68-5.52,1.35-8.3,2.01-1.87.45-3.75.9-5.63,1.33-1.75.42-3.5.83-5.26,1.24-.75.18-1.5.35-2.27.52-2.04.48-4.11.95-6.17,1.41-1.42.32-2.83.64-4.26.96-4.13.93-8.28,1.84-12.44,2.73-1.88.41-3.78.81-5.66,1.21-5.11,1.08-10.22,2.14-15.34,3.16-2.01.41-4.02.82-6.03,1.21-2.25.45-4.5.89-6.75,1.32-2.7.52-5.39,1.04-8.1,1.54-1.63.31-3.25.61-4.89.91-3.34.62-6.71,1.23-10.07,1.83-5.04.9-10.08,1.77-15.15,2.62-.55.1-1.1.19-1.64.28-2.18.36-4.35.72-6.52,1.07-.78.14-1.58.26-2.37.39-2,.32-4,.64-6,.95-1.11.19-2.24.36-3.36.53-2.17.34-4.33.67-6.5,1-11.61,1.76-23.25,3.39-34.94,4.9-2.21.29-4.43.57-6.64.84-2.42.31-4.87.61-7.31.9-2.22.27-4.44.54-6.65.79-1.42.17-2.82.33-4.23.49-.92.1-1.84.21-2.75.31-2.23.25-4.46.49-6.7.73-6.07.66-12.17,1.28-18.26,1.87-1.55.15-3.1.29-4.65.44-1.58.15-3.15.29-4.74.43-1.73.16-3.46.31-5.18.46-1.79.16-3.58.31-5.37.46-.91.08-1.81.16-2.73.23-3.16.26-6.35.51-9.53.76h-.07c-2.14.17-4.28.33-6.44.48-1.31.1-2.62.19-3.95.28-3,.21-6,.41-9.01.61-2.78.18-5.56.35-8.33.51-.07,0-.15,0-.22,0-2.3.14-4.63.27-6.94.4-1.27.07-2.55.14-3.83.2-1.5.09-3.01.16-4.51.23-2.52.13-5.06.25-7.61.36-.46.03-.93.05-1.39.07-2.6.12-5.19.22-7.77.32-3.98.16-7.95.31-11.93.43-2.94.1-5.88.19-8.84.26-2.03.06-4.08.11-6.13.15-1.85.05-3.7.09-5.55.12-.75.02-1.51.04-2.26.05-2.24.04-4.48.08-6.72.11-1.97.03-3.95.05-5.92.07-2.67.03-5.34.06-8.01.07-3.26.02-6.51.03-9.77.03s-6.52,0-9.77-.03c-2.66-.01-5.33-.04-8.01-.07-1.97-.02-3.95-.04-5.92-.07-2.23-.03-4.47-.07-6.71-.11-.75-.01-1.51-.03-2.26-.05-1.86-.03-3.7-.07-5.56-.12-2.05-.04-4.09-.09-6.12-.15-2.96-.07-5.91-.16-8.85-.26-3.97-.12-7.94-.27-11.92-.43-2.59-.1-5.18-.2-7.77-.32-.46-.02-.93-.04-1.4-.07-2.54-.11-5.08-.23-7.6-.36-1.5-.07-3.01-.14-4.51-.23-1.28-.06-2.57-.13-3.84-.2-2.31-.13-4.63-.26-6.93-.4-.08,0-.15,0-.22,0-2.77-.16-5.56-.33-8.34-.51-3.01-.2-6.01-.4-9.01-.61-1.32-.09-2.63-.18-3.94-.28-2.16-.15-4.31-.31-6.44-.48h-.08c-3.19-.25-6.4-.5-9.59-.77-.79-.06-1.58-.12-2.36-.19-1.97-.16-3.93-.33-5.89-.51-1.63-.14-3.28-.28-4.92-.43-1.6-.15-3.19-.29-4.79-.44-1.55-.15-3.09-.29-4.64-.44-6.1-.59-12.19-1.21-18.26-1.87-2.24-.24-4.47-.48-6.7-.73-.92-.1-1.83-.21-2.75-.31-1.42-.16-2.82-.32-4.23-.49-2.22-.25-4.44-.52-6.66-.79-2.43-.29-4.88-.59-7.31-.9-2.22-.27-4.43-.55-6.63-.84-11.69-1.51-23.35-3.14-34.94-4.9-2.18-.33-4.35-.66-6.5-1-1.14-.17-2.25-.34-3.37-.53-2-.31-4-.63-6-.95-.79-.13-1.58-.25-2.36-.39-2.18-.35-4.35-.71-6.52-1.07-.61-.1-1.22-.2-1.81-.31-4.96-.83-9.9-1.68-14.83-2.56-3.32-.59-6.61-1.19-9.92-1.8-1.91-.35-3.81-.71-5.71-1.07-2.53-.47-5.07-.95-7.59-1.44-2.26-.43-4.5-.87-6.75-1.32-2.01-.39-4.02-.8-6.03-1.21-5.11-1.02-10.23-2.08-15.33-3.16-1.89-.4-3.78-.8-5.67-1.21-4.14-.89-8.3-1.8-12.44-2.73-1.48-.33-2.97-.67-4.45-1.01-1.86-.41-3.69-.83-5.52-1.26-.98-.21-1.95-.44-2.93-.67-1.7-.39-3.38-.78-5.06-1.19-1.89-.43-3.75-.88-5.64-1.33-2.76-.66-5.53-1.33-8.29-2.01-5.51-1.35-11.03-2.73-16.53-4.14-2.73-.7-5.46-1.41-8.19-2.12-.04-.01-.08-.02-.12-.04-2.14-.55-4.28-1.12-6.41-1.69-1.28-.33-2.56-.68-3.86-1.03-1.94-.52-3.88-1.04-5.81-1.57-.36-.1-.74-.2-1.11-.31-2.46-.67-4.92-1.35-7.37-2.03-5.46-1.52-10.9-3.07-16.34-4.65-1.47-.42-2.95-.85-4.42-1.29-2.12-.61-4.22-1.24-6.33-1.87-2.35-.7-4.72-1.41-7.07-2.13-2.18-.65-4.36-1.32-6.53-1.99-10.97-3.36-21.91-6.85-32.78-10.45-1.69-.56-3.4-1.13-5.1-1.69-1.3-.44-2.59-.87-3.87-1.31-2.18-.73-4.35-1.47-6.5-2.21-2.38-.81-4.74-1.62-7.11-2.45-5.73-1.98-11.44-4-17.12-6.05-2.9-1.04-5.79-2.08-8.67-3.14-5.34-1.96-10.7-3.95-16.02-5.97-2.1-.79-4.2-1.59-6.3-2.4-11.83-4.53-23.6-9.19-35.28-14-2.65-1.08-5.28-2.16-7.9-3.26-2.76-1.14-5.52-2.3-8.27-3.47-.44-.18-.88-.37-1.3-.55-2.76-1.17-5.52-2.35-8.28-3.55-6.84-2.93-13.64-5.91-20.41-8.95-2.4-1.06-4.8-2.14-7.19-3.23-2.65-1.2-5.31-2.41-7.96-3.63-8.97-4.11-17.89-8.31-26.76-12.59-1.71-.82-3.41-1.65-5.13-2.48-1.82-.88-3.63-1.76-5.44-2.66-2.77-1.35-5.53-2.71-8.29-4.09-2.19-1.09-4.38-2.18-6.55-3.28-1.4-.7-2.77-1.4-4.17-2.1-8.73-4.43-17.42-8.93-26.06-13.51-2.07-1.1-4.14-2.2-6.21-3.31-.56-.3-1.13-.6-1.69-.9-2.19-1.17-4.36-2.35-6.54-3.54-.77-.41-1.53-.82-2.29-1.24-2.54-1.38-5.09-2.78-7.62-4.18-2.88-1.58-5.74-3.18-8.61-4.78-3.49-1.96-6.98-3.92-10.46-5.91-1.91-1.08-3.81-2.17-5.71-3.27-2.08-1.18-4.14-2.38-6.21-3.59-1.74-1-3.48-2.01-5.2-3.03-1.69-.98-3.37-1.97-5.05-2.97-11.06-6.52-22.03-13.17-32.91-19.95-2.03-1.27-4.09-2.55-6.13-3.84-1.88-1.18-3.77-2.38-5.65-3.57l-4.15-2.64c-1.41-.9-2.81-1.8-4.21-2.7-2.33-1.49-4.64-3-6.97-4.51-4.83-3.13-9.64-6.3-14.43-9.5-1.49-.99-2.97-1.98-4.47-2.98-2.18-1.45-4.35-2.91-6.5-4.39-1.85-1.23-3.68-2.48-5.5-3.74-6.1-4.15-12.16-8.35-18.18-12.59-2.38-1.67-4.75-3.34-7.12-5.03-.58-.41-1.17-.83-1.75-1.25-1.75-1.24-3.5-2.5-5.25-3.76-10.69-7.68-21.28-15.49-31.77-23.43-1.61-1.21-3.2-2.43-4.81-3.66-1.63-1.24-3.28-2.49-4.9-3.75-1.81-1.38-3.61-2.77-5.41-4.16-1.13-.88-2.27-1.76-3.4-2.64-2.57-2-5.13-4.01-7.68-6.03-.23-.18-.46-.35-.68-.53-2.73-2.16-5.46-4.32-8.18-6.5-2.35-1.88-4.69-3.76-7.03-5.66-1.41-1.13-2.81-2.27-4.21-3.41-.96-.78-1.91-1.56-2.88-2.36-1.5-1.22-3-2.45-4.49-3.68-2.54-2.1-5.1-4.21-7.63-6.33-2.88-2.4-5.75-4.81-8.61-7.22-3.58-3.03-7.16-6.08-10.71-9.15-2.11-1.81-4.21-3.63-6.31-5.46-.13-.11-.26-.22-.39-.34-2.71-2.35-5.41-4.71-8.1-7.09-.12-.1-.24-.2-.35-.31-2.31-2.03-4.61-4.07-6.9-6.13-3.26-2.9-6.51-5.82-9.75-8.76-2.72-2.46-5.43-4.93-8.13-7.42-5.26-4.83-10.48-9.69-15.66-14.59-1.44-1.35-2.87-2.7-4.29-4.06-1.01-.95-2.03-1.91-3.03-2.89-1.4-1.32-2.8-2.66-4.18-4.01-1.41-1.33-2.81-2.68-4.2-4.05-1.08-1.03-2.17-2.09-3.25-3.15-3.62-3.51-7.22-7.05-10.78-10.61-1.57-1.54-3.13-3.09-4.69-4.65-4.61-4.61-9.19-9.24-13.74-13.91-1.62-1.65-3.22-3.3-4.81-4.96-.94-.94-1.86-1.9-2.76-2.85-1.49-1.53-2.97-3.07-4.43-4.61-.86-.88-1.71-1.77-2.54-2.67-1.76-1.83-3.5-3.66-5.22-5.5-.35-.36-.69-.72-1.02-1.08-2.08-2.2-4.15-4.42-6.21-6.63-2.17-2.32-4.32-4.65-6.48-6.99-2.12-2.31-4.26-4.64-6.36-6.97-1.66-1.81-3.3-3.62-4.93-5.44-.68-.75-1.36-1.5-2.03-2.25-1.21-1.35-2.42-2.7-3.62-4.05-1.33-1.48-2.65-2.96-3.97-4.45-1.93-2.19-3.87-4.39-5.8-6.59-1.82-2.07-3.63-4.15-5.44-6.24-1.75-2.01-3.47-4.02-5.2-6.04-1.49-1.72-2.98-3.45-4.44-5.18-.95-1.1-1.88-2.2-2.81-3.31-1.14-1.33-2.25-2.66-3.38-4-1.26-1.49-2.52-2.99-3.77-4.49-4.19-5.01-8.34-10.04-12.46-15.09-1.05-1.28-2.09-2.55-3.11-3.83-1.65-2.03-3.28-4.05-4.92-6.09-.12-.16-.26-.33-.38-.49-2.29-2.84-4.56-5.69-6.82-8.55-1.71-2.16-3.41-4.32-5.11-6.5-1.02-1.29-2.03-2.58-3.04-3.88-1.12-1.44-2.24-2.88-3.35-4.32-1.21-1.57-2.41-3.14-3.63-4.72-4.77-6.21-9.49-12.45-14.15-18.73-1.47-1.95-2.92-3.91-4.36-5.87-.79-1.07-1.59-2.15-2.37-3.23-1.42-1.93-2.84-3.87-4.25-5.81-.53-.72-1.06-1.45-1.57-2.17-1.57-2.16-3.14-4.32-4.68-6.49-.69-.95-1.38-1.91-2.05-2.86-1.26-1.75-2.5-3.5-3.74-5.26-.98-1.37-1.95-2.75-2.91-4.13-5.91-8.38-11.72-16.83-17.46-25.33-1.06-1.54-2.09-3.08-3.12-4.62-.96-1.42-1.91-2.84-2.86-4.27-1.2-1.8-2.4-3.6-3.59-5.41-.61-.92-1.22-1.84-1.82-2.77-1.11-1.69-2.22-3.38-3.32-5.07-1.19-1.81-2.37-3.62-3.52-5.44-.65-.98-1.28-1.96-1.91-2.94-1.6-2.49-3.21-4.98-4.79-7.48-.28-.44-.55-.87-.82-1.31-1.98-3.09-3.94-6.2-5.88-9.31-2.01-3.2-4-6.42-5.98-9.64-1.74-2.82-3.47-5.65-5.19-8.48-.81-1.33-1.61-2.66-2.41-4-1.08-1.78-2.16-3.56-3.22-5.35-.97-1.62-1.94-3.24-2.9-4.87-.53-.88-1.05-1.76-1.56-2.64-1.21-2.04-2.41-4.08-3.6-6.13-1.11-1.88-2.21-3.76-3.29-5.65-.51-.85-1-1.71-1.48-2.57-1.39-2.38-2.75-4.75-4.11-7.14-2.21-3.86-4.38-7.72-6.56-11.6-1.6-2.87-3.2-5.73-4.78-8.61-1.05-1.9-2.1-3.81-3.14-5.72-.75-1.36-1.49-2.72-2.23-4.09-.93-1.72-1.87-3.44-2.79-5.17-.77-1.4-1.52-2.81-2.26-4.22-.86-1.6-1.73-3.21-2.57-4.82-.84-1.56-1.66-3.12-2.48-4.69-.83-1.6-1.68-3.2-2.52-4.8-.63-1.2-1.25-2.41-1.87-3.61-1.11-2.13-2.21-4.26-3.3-6.39-3-5.85-5.97-11.72-8.89-17.62-1.47-2.95-2.94-5.9-4.38-8.85-1.04-2.11-2.08-4.23-3.09-6.35-.76-1.56-1.51-3.12-2.26-4.69-.73-1.47-1.43-2.95-2.13-4.43-.66-1.36-1.31-2.73-1.94-4.1-.98-2.02-1.92-4.05-2.87-6.08-.46-.98-.92-1.96-1.37-2.94-1.12-2.37-2.22-4.75-3.31-7.13-2.77-5.99-5.49-12.01-8.17-18.04-2.69-6.03-5.34-12.08-7.95-18.15-1.17-2.7-2.33-5.4-3.47-8.11-.26-.6-.52-1.21-.77-1.82-1.17-2.75-2.33-5.51-3.47-8.28-.03-.04-.05-.09-.07-.15-1.25-2.97-2.48-5.95-3.69-8.93-.06-.15-.12-.3-.18-.45-3.73-9.09-7.37-18.22-10.92-27.39-.74-1.91-1.48-3.82-2.2-5.73-.58-1.49-1.15-2.98-1.72-4.47-.87-2.29-1.73-4.59-2.59-6.89-.3-.78-.6-1.57-.88-2.36-.79-2.08-1.57-4.17-2.33-6.26-.53-1.42-1.05-2.85-1.57-4.28-.9-2.43-1.78-4.87-2.65-7.31-1.13-3.13-2.25-6.26-3.35-9.39-1.11-3.14-2.21-6.28-3.29-9.42-1.14-3.3-2.28-6.61-3.4-9.92-1.23-3.64-2.45-7.29-3.66-10.94-1.01-3.04-2-6.08-2.99-9.13-.69-2.14-1.38-4.28-2.06-6.42-.27-.83-.54-1.67-.8-2.51-.73-2.26-1.44-4.54-2.15-6.81-.55-1.73-1.08-3.46-1.61-5.19-.47-1.49-.93-2.97-1.38-4.46-.49-1.6-.98-3.21-1.46-4.82-.66-2.14-1.3-4.29-1.94-6.44-1.24-4.14-2.46-8.29-3.66-12.45-.78-2.69-1.55-5.39-2.32-8.09-1.05-3.72-2.1-7.44-3.12-11.17-.99-3.55-1.96-7.12-2.91-10.69-.13-.44-.25-.89-.36-1.33-.88-3.27-1.75-6.55-2.6-9.84-.08-.29-.16-.58-.23-.87-.95-3.65-1.89-7.3-2.81-10.96-.9-3.56-1.79-7.12-2.66-10.68-.13-.52-.26-1.03-.39-1.55-.84-3.46-1.68-6.92-2.5-10.39-.2-.81-.39-1.61-.57-2.42-.44-1.84-.87-3.69-1.3-5.53-1.65-7.09-3.25-14.19-4.8-21.32-.55-2.53-1.1-5.06-1.63-7.6-.22-1-.43-2-.64-3-.41-1.91-.81-3.82-1.2-5.73-.35-1.7-.7-3.4-1.05-5.1-.05-.21-.09-.42-.13-.63-.5-2.47-1-4.94-1.49-7.42-.72-3.6-1.42-7.21-2.11-10.82-.43-2.23-.85-4.46-1.27-6.69-.24-1.28-.48-2.56-.71-3.84-.15-.8-.3-1.6-.44-2.4-.31-1.66-.61-3.32-.91-4.99-.6-3.31-1.18-6.63-1.76-9.96-.33-1.93-.67-3.86-.99-5.79-.69-4.04-1.36-8.08-2.01-12.14-.29-1.76-.57-3.53-.85-5.29-.36-2.25-.71-4.5-1.06-6.76-.17-1.11-.34-2.22-.51-3.33-.42-2.76-.84-5.53-1.24-8.3-.39-2.62-.77-5.25-1.14-7.88l-.6-4.29c-.33-2.39-.66-4.78-.98-7.18-.07-.47-.13-.94-.19-1.42-.32-2.38-.64-4.77-.94-7.16-.02-.15-.04-.3-.06-.46-.17-1.31-.34-2.61-.5-3.92-.33-2.61-.66-5.22-.97-7.84-.04-.31-.08-.63-.11-.95-.34-2.74-.67-5.48-.98-8.22-.33-2.87-.66-5.74-.97-8.62-.21-1.83-.4-3.66-.6-5.49-.31-2.93-.62-5.86-.91-8.8-.26-2.46-.5-4.93-.73-7.39-.26-2.6-.51-5.21-.74-7.82-.18-1.92-.35-3.84-.52-5.76-.22-2.39-.42-4.79-.62-7.2-.11-1.28-.21-2.55-.31-3.83-.56-6.75-1.07-13.51-1.53-20.28-.18-2.53-.35-5.06-.51-7.6-.19-2.99-.38-5.99-.55-9-.12-1.99-.23-3.99-.34-5.99-.11-2-.22-4-.32-6-.06-1.2-.13-2.4-.18-3.61-.13-2.54-.25-5.09-.36-7.63-.15-3.41-.3-6.83-.42-10.25-.01-.12-.02-.25-.02-.38-.1-2.73-.2-5.46-.29-8.2-.01-.17-.01-.34-.02-.51-.04-1.21-.08-2.43-.11-3.65-.08-2.64-.16-5.27-.23-7.91,0-.21-.01-.43-.01-.64-.07-2.82-.14-5.64-.19-8.47-.07-3.28-.13-6.57-.17-9.86-.02-1.46-.04-2.92-.06-4.38,0-.28,0-.56,0-.85-.03-2.41-.05-4.83-.07-7.24v-1.39c-.02-3.19-.03-6.38-.03-9.57V16h3258.04v2189.66Z"/>
    <path class="cls-10" d="m3274.04,16v2189.66c0,3.19-.01,6.38-.02,9.57v1.39c-.03,2.41-.04,4.83-.08,7.24v.85l-.06,4.38c-.04,3.29-.11,6.58-.17,9.86-.06,2.83-.12,5.65-.19,8.47,0,.21-.02.43-.02.64-.06,2.64-.14,5.27-.23,7.91-.03,1.22-.06,2.44-.1,3.65-.02.17-.02.34-.02.51-.09,2.74-.19,5.47-.29,8.2,0,.13-.02.26-.02.38-.13,3.42-.28,6.84-.42,10.25-.11,2.54-.23,5.09-.36,7.63-.06,1.21-.12,2.41-.18,3.61-.11,2-.21,4-.32,6-.12,2-.22,4-.35,5.99-.17,3.01-.35,6.01-.54,9-.17,2.54-.33,5.07-.52,7.6-.46,6.77-.96,13.53-1.52,20.28-.11,1.28-.21,2.55-.32,3.83-.2,2.41-.39,4.81-.62,7.2-.17,1.92-.33,3.84-.52,5.76-.23,2.61-.48,5.22-.73,7.82-.23,2.46-.48,4.93-.73,7.39-.29,2.94-.6,5.87-.92,8.8-.2,1.83-.39,3.66-.6,5.49-.31,2.88-.63,5.75-.96,8.62-.31,2.74-.64,5.48-.99,8.22-.03.32-.07.64-.11.95-.31,2.62-.64,5.23-.96,7.84-.17,1.31-.33,2.61-.5,3.92-.02.16-.04.31-.06.46-.3,2.39-.63,4.78-.94,7.16-.06.48-.13.95-.19,1.42-.33,2.4-.66,4.79-.99,7.18-.2,1.43-.4,2.86-.59,4.29-.38,2.63-.75,5.26-1.15,7.88-.39,2.77-.81,5.54-1.23,8.3-.18,1.11-.35,2.22-.52,3.33-.35,2.26-.69,4.51-1.06,6.76-.27,1.76-.56,3.53-.85,5.29-.65,4.06-1.32,8.1-2,12.14-.32,1.93-.67,3.86-1,5.79-.57,3.33-1.15,6.65-1.75,9.96-.31,1.67-.61,3.33-.92,4.99-.14.8-.29,1.6-.44,2.4-.23,1.28-.46,2.56-.71,3.84-.41,2.23-.83,4.46-1.27,6.69-.69,3.61-1.39,7.22-2.1,10.82-.5,2.48-1,4.95-1.5,7.42-.04.21-.08.42-.13.63-.35,1.7-.7,3.4-1.05,5.1-.38,1.91-.79,3.82-1.2,5.73-.21,1-.41,2-.64,3-.52,2.54-1.08,5.07-1.63,7.6-1.55,7.13-3.14,14.23-4.8,21.32-.43,1.84-.85,3.69-1.3,5.53-.18.81-.37,1.61-.56,2.42-.83,3.47-1.67,6.93-2.5,10.39-.14.52-.27,1.03-.4,1.55-.87,3.57-1.76,7.12-2.66,10.68-.91,3.66-1.86,7.31-2.81,10.96-.07.29-.15.58-.23.87-.84,3.28-1.72,6.57-2.59,9.84-.13.44-.23.89-.37,1.33-.94,3.57-1.91,7.13-2.9,10.69-1.02,3.73-2.08,7.45-3.13,11.17-1,3.5-2,7-3.01,10.49-.98,3.36-1.97,6.71-2.97,10.05-.64,2.15-1.28,4.3-1.93,6.44-.48,1.61-.97,3.21-1.46,4.82-.43,1.38-.86,2.77-1.28,4.15-.63,2.01-1.24,4.01-1.88,6.01-.59,1.89-1.18,3.78-1.79,5.67-.38,1.22-.76,2.43-1.16,3.64-.62,1.97-1.26,3.95-1.89,5.92-1,3.05-1.98,6.09-3,9.13-1.21,3.65-2.43,7.29-3.66,10.93-.91,2.68-1.82,5.36-2.75,8.03-.21.64-.43,1.27-.65,1.9-.92,2.67-1.85,5.34-2.79,8-.19.57-.4,1.14-.6,1.7-.9,2.55-1.8,5.1-2.73,7.65-.28.81-.57,1.62-.86,2.42-.69,1.9-1.38,3.8-2.07,5.7-.62,1.73-1.26,3.46-1.9,5.18-.74,2.01-1.47,4.01-2.24,6.01-.28.79-.58,1.58-.88,2.36-.83,2.27-1.7,4.54-2.56,6.8-2.48,6.54-5.01,13.05-7.57,19.55-1.22,3.08-2.45,6.16-3.69,9.23-1.11,2.78-2.24,5.56-3.38,8.33-.15.41-.33.82-.5,1.23-1.18,2.91-2.38,5.82-3.6,8.72-.02.06-.03.11-.07.15-1.14,2.77-2.29,5.53-3.46,8.28-.25.61-.52,1.22-.77,1.82-1.15,2.71-2.3,5.41-3.48,8.11-1.29,3.03-2.62,6.06-3.95,9.09-1.32,3.03-2.66,6.05-4,9.06-2.68,6.04-5.41,12.05-8.17,18.04-.99,2.17-1.99,4.33-3.01,6.49-.66,1.46-1.35,2.92-2.04,4.37-.62,1.34-1.26,2.69-1.89,4.03-1.11,2.35-2.21,4.69-3.35,7.03-.28.59-.56,1.18-.84,1.76-1.1,2.3-2.2,4.58-3.31,6.87-.77,1.59-1.55,3.18-2.33,4.77-1.51,3.09-3.04,6.17-4.57,9.25-1.52,3.06-3.04,6.11-4.58,9.15-1.53,3.03-3.08,6.05-4.63,9.07-.66,1.3-1.33,2.6-2.02,3.9-1.1,2.16-2.22,4.31-3.35,6.47-.38.73-.75,1.46-1.15,2.19-1.31,2.52-2.63,5.03-3.98,7.54-.4.78-.83,1.57-1.25,2.34-1.25,2.36-2.52,4.72-3.79,7.07-.49.91-.98,1.82-1.47,2.73-1.29,2.38-2.57,4.75-3.88,7.12-2.23,4.06-4.48,8.12-6.73,12.16-1.79,3.2-3.61,6.39-5.42,9.58-1.75,3.08-3.51,6.15-5.28,9.22-.41.71-.8,1.41-1.22,2.11-1.29,2.25-2.61,4.5-3.93,6.75-.79,1.34-1.57,2.68-2.36,4.02-1.24,2.1-2.48,4.2-3.74,6.29-.3.52-.61,1.04-.92,1.55-1.64,2.77-3.31,5.53-4.98,8.29-.27.46-.55.91-.82,1.36-1.87,3.09-3.76,6.18-5.66,9.26-3.9,6.35-7.86,12.68-11.86,18.97-.22.35-.44.7-.66,1.04-1.86,2.92-3.73,5.84-5.61,8.75v.02c-1.63,2.53-3.27,5.05-4.91,7.56-1.05,1.62-2.11,3.24-3.17,4.85-.61.93-1.21,1.85-1.83,2.77-1.19,1.81-2.38,3.61-3.59,5.41-.95,1.43-1.9,2.85-2.86,4.27-1.01,1.51-2.02,3.02-3.04,4.53-1.93,2.87-3.89,5.73-5.84,8.58-2.07,3.04-4.17,6.06-6.26,9.08-2.05,2.96-4.12,5.9-6.2,8.84-.3.46-.62.91-.96,1.36-1.66,2.38-3.34,4.75-5.05,7.11-.58.83-1.18,1.67-1.78,2.5-1.88,2.63-3.78,5.25-5.68,7.86-2.19,3.03-4.38,6.04-6.6,9.04-.03.05-.06.09-.1.13-1.82,2.48-3.65,4.95-5.5,7.41-.6.81-1.19,1.63-1.81,2.44-2.06,2.75-4.12,5.49-6.2,8.23-2.5,3.29-5,6.58-7.53,9.85-1.94,2.52-3.88,5.03-5.84,7.54-.4.52-.8,1.04-1.21,1.55-2.06,2.63-4.11,5.25-6.19,7.87-2.33,2.95-4.67,5.9-7.04,8.83-2.22,2.77-4.44,5.52-6.68,8.27-5.02,6.18-10.09,12.33-15.21,18.43-2.23,2.68-4.48,5.35-6.74,8.01-.12.14-.23.27-.35.4-2.37,2.78-4.74,5.56-7.12,8.32-1.81,2.11-3.63,4.21-5.46,6.31-1.06,1.25-2.16,2.49-3.24,3.72-2.03,2.33-4.08,4.66-6.15,6.99-2.25,2.54-4.51,5.08-6.78,7.61-.45.51-.89,1.01-1.35,1.51-4.66,5.18-9.35,10.33-14.05,15.46-2.2,2.38-4.41,4.76-6.62,7.12-1.27,1.37-2.54,2.73-3.83,4.09-1.42,1.51-2.84,3.02-4.27,4.52-.7.76-1.42,1.52-2.15,2.28-2,2.11-4.02,4.22-6.04,6.32-.4.43-.81.86-1.22,1.28-2.13,2.23-4.29,4.45-6.45,6.66-6.01,6.19-12.08,12.33-18.2,18.42-2.21,2.21-4.44,4.42-6.69,6.62-2.68,2.64-5.37,5.27-8.07,7.89-2.43,2.38-4.89,4.75-7.36,7.11-.46.46-.93.9-1.4,1.34-2.46,2.36-4.93,4.72-7.42,7.06-.06.07-.11.11-.16.14-2.72,2.58-5.45,5.14-8.19,7.69-2.75,2.57-5.51,5.13-8.28,7.67-2.77,2.55-5.55,5.09-8.33,7.61-2.68,2.43-5.36,4.84-8.04,7.25-.27.25-.56.5-.84.74-2.64,2.36-5.3,4.72-7.95,7.06-2.83,2.49-5.67,4.97-8.5,7.44-2.31,2.01-4.62,4.01-6.94,6-3.41,2.94-6.81,5.86-10.25,8.76-2.86,2.41-5.73,4.81-8.61,7.21-2.8,2.35-5.62,4.68-8.43,7.01-2.31,1.89-4.61,3.78-6.93,5.65-1.19.98-2.39,1.95-3.58,2.92-2.43,1.96-4.86,3.91-7.3,5.86-2.9,2.32-5.8,4.62-8.7,6.92-.06.04-.1.08-.15.11-.03.03-.07.06-.09.08-1.66,1.3-3.31,2.6-4.96,3.89-.75.59-1.48,1.17-2.23,1.74-1.52,1.18-3.04,2.36-4.55,3.54-.87.67-1.72,1.34-2.6,2-1.73,1.33-3.46,2.66-5.18,3.98-2.19,1.68-4.4,3.35-6.6,5.01-4.4,3.33-8.82,6.64-13.26,9.93-1.99,1.47-3.97,2.93-5.96,4.39-.39.3-.8.6-1.21.88-2.06,1.52-4.13,3.02-6.19,4.52-2.16,1.56-4.32,3.12-6.47,4.67-.29.21-.59.42-.88.62-2.04,1.46-4.08,2.92-6.12,4.37-2.25,1.6-4.52,3.19-6.77,4.78-4.52,3.18-9.07,6.33-13.63,9.46-2.06,1.42-4.12,2.83-6.2,4.24-.36.26-.71.5-1.09.74-1.64,1.12-3.29,2.23-4.94,3.34-1.12.77-2.24,1.52-3.35,2.26-1.49.99-2.98,1.99-4.47,2.98-.66.45-1.33.9-2.01,1.33-1.81,1.22-3.65,2.42-5.48,3.62-4.6,3.05-9.25,6.07-13.91,9.05-2.33,1.5-4.65,2.99-7,4.48-2.33,1.48-4.67,2.96-7.02,4.44-2.34,1.47-4.68,2.94-7.04,4.4-2.32,1.45-4.67,2.9-7.01,4.34-.08.06-.18.12-.28.17-2.28,1.4-4.57,2.8-6.85,4.19-2.38,1.45-4.74,2.88-7.13,4.3-1.65,1-3.3,1.99-4.97,2.97-1.9,1.15-3.83,2.29-5.76,3.42-1.76,1.05-3.52,2.08-5.28,3.11-1.23.72-2.46,1.44-3.69,2.15-3.85,2.25-7.7,4.47-11.58,6.68-1.54.88-3.08,1.76-4.64,2.64-4.83,2.74-9.67,5.45-14.53,8.13-2.42,1.35-4.85,2.68-7.29,4.01-2.44,1.34-4.87,2.66-7.33,3.98-2.38,1.29-4.77,2.57-7.17,3.85-1.95,1.05-3.91,2.09-5.87,3.12-2.14,1.13-4.26,2.25-6.41,3.36-3.33,1.75-6.69,3.49-10.05,5.21-1.68.86-3.35,1.72-5.02,2.57-2.23,1.14-4.46,2.27-6.71,3.4-1.73.87-3.46,1.74-5.19,2.6-3.49,1.75-6.99,3.48-10.5,5.19-1.81.89-3.61,1.78-5.44,2.65-1.5.74-3.01,1.47-4.52,2.19-6.4,3.09-12.83,6.14-19.29,9.13-2.13,1-4.28,2-6.43,2.98-2.82,1.3-5.63,2.59-8.46,3.87-9.34,4.23-18.71,8.38-28.13,12.42-2.76,1.2-5.52,2.38-8.28,3.55-.44.18-.87.37-1.3.55-2.75,1.17-5.51,2.32-8.27,3.47-2.46,1.02-4.92,2.04-7.38,3.05-1.23.51-2.46,1.01-3.69,1.51-10.87,4.44-21.81,8.76-32.8,12.96-1.62.63-3.27,1.25-4.9,1.87-1.42.54-2.83,1.07-4.23,1.59-1.57.6-3.13,1.18-4.69,1.76-2.46.92-4.91,1.82-7.37,2.72-3.03,1.11-6.07,2.22-9.11,3.31-5.7,2.05-11.41,4.07-17.13,6.05-2.04.71-4.08,1.42-6.12,2.11-.56.2-1.12.39-1.68.58-1.74.6-3.48,1.19-5.22,1.78-1.6.54-3.19,1.07-4.8,1.61-1.59.53-3.17,1.06-4.76,1.58-5.66,1.88-11.33,3.72-17.03,5.53-3.03.97-6.05,1.92-9.08,2.86-2.41.76-4.82,1.5-7.22,2.23-1.8.56-3.62,1.11-5.42,1.65-1.73.54-3.47,1.06-5.21,1.57-.99.31-1.98.6-2.97.89-1.58.48-3.17.95-4.75,1.4-1.81.54-3.63,1.07-5.45,1.6-8.47,2.46-16.95,4.85-25.47,7.17-1.42.38-2.84.77-4.25,1.14-1.76.49-3.54.96-5.33,1.43-1.93.52-3.88,1.03-5.84,1.54-.04.02-.09.03-.15.04-2.59.68-5.18,1.35-7.78,2.02-5.63,1.45-11.27,2.86-16.92,4.24-2.76.68-5.52,1.35-8.3,2.01-1.87.45-3.75.9-5.63,1.33-1.75.42-3.5.83-5.26,1.24-.75.18-1.5.35-2.27.52-2.04.48-4.11.95-6.17,1.41-1.42.32-2.83.64-4.26.96-4.13.93-8.28,1.84-12.44,2.73-1.88.41-3.78.81-5.66,1.21-5.11,1.08-10.22,2.14-15.34,3.16-2.01.41-4.02.82-6.03,1.21-2.25.45-4.5.89-6.75,1.32-2.7.52-5.39,1.04-8.1,1.54-1.63.31-3.25.61-4.89.91-3.34.62-6.71,1.23-10.07,1.83-5.04.9-10.08,1.77-15.15,2.62-.55.1-1.1.19-1.64.28-2.18.36-4.35.72-6.52,1.07-.78.14-1.58.26-2.37.39-2,.32-4,.64-6,.95-1.11.19-2.24.36-3.36.53-2.17.34-4.33.67-6.5,1-11.61,1.76-23.25,3.39-34.94,4.9-2.21.29-4.43.57-6.64.84-2.42.31-4.87.61-7.31.9-2.22.27-4.44.54-6.65.79-1.42.17-2.82.33-4.23.49-.92.1-1.84.21-2.75.31-2.23.25-4.46.49-6.7.73-6.07.66-12.17,1.28-18.26,1.87-1.55.15-3.1.29-4.65.44-1.58.15-3.15.29-4.74.43-1.73.16-3.46.31-5.18.46-1.79.16-3.58.31-5.37.46-.91.08-1.81.16-2.73.23-3.16.26-6.35.51-9.53.76h-.07c-2.14.17-4.28.33-6.44.48-1.31.1-2.62.19-3.95.28-3,.21-6,.41-9.01.61-2.78.18-5.56.35-8.33.51-.07,0-.15,0-.22,0-2.3.14-4.63.27-6.94.4-1.27.07-2.55.14-3.83.2-1.5.09-3.01.16-4.51.23-2.52.13-5.06.25-7.61.36-.46.03-.93.05-1.39.07-2.6.12-5.19.22-7.77.32-3.98.16-7.95.31-11.93.43-2.94.1-5.88.19-8.84.26-2.03.06-4.08.11-6.13.15-1.85.05-3.7.09-5.55.12-.75.02-1.51.04-2.26.05-2.24.04-4.48.08-6.72.11-1.97.03-3.95.05-5.92.07-2.67.03-5.34.06-8.01.07-3.26.02-6.51.03-9.77.03s-6.52,0-9.77-.03c-2.66-.01-5.33-.04-8.01-.07-1.97-.02-3.95-.04-5.92-.07-2.23-.03-4.47-.07-6.71-.11-.75-.01-1.51-.03-2.26-.05-1.86-.03-3.7-.07-5.56-.12-2.05-.04-4.09-.09-6.12-.15-2.96-.07-5.91-.16-8.85-.26-3.97-.12-7.94-.27-11.92-.43-2.59-.1-5.18-.2-7.77-.32-.46-.02-.93-.04-1.4-.07-2.54-.11-5.08-.23-7.6-.36-1.5-.07-3.01-.14-4.51-.23-1.28-.06-2.57-.13-3.84-.2-2.31-.13-4.63-.26-6.93-.4-.08,0-.15,0-.22,0-2.77-.16-5.56-.33-8.34-.51-3.01-.2-6.01-.4-9.01-.61-1.32-.09-2.63-.18-3.94-.28-2.16-.15-4.31-.31-6.44-.48h-.08c-3.19-.25-6.4-.5-9.59-.77-.79-.06-1.58-.12-2.36-.19-1.97-.16-3.93-.33-5.89-.51-1.63-.14-3.28-.28-4.92-.43-1.6-.15-3.19-.29-4.79-.44-1.55-.15-3.09-.29-4.64-.44-6.1-.59-12.19-1.21-18.26-1.87-2.24-.24-4.47-.48-6.7-.73-.92-.1-1.83-.21-2.75-.31-1.42-.16-2.82-.32-4.23-.49-2.22-.25-4.44-.52-6.66-.79-2.43-.29-4.88-.59-7.31-.9-2.22-.27-4.43-.55-6.63-.84-11.69-1.51-23.35-3.14-34.94-4.9-2.18-.33-4.35-.66-6.5-1-1.14-.17-2.25-.34-3.37-.53-2-.31-4-.63-6-.95-.79-.13-1.58-.25-2.36-.39-2.18-.35-4.35-.71-6.52-1.07-.61-.1-1.22-.2-1.81-.31-4.96-.83-9.9-1.68-14.83-2.56-3.32-.59-6.61-1.19-9.92-1.8-1.91-.35-3.81-.71-5.71-1.07-2.53-.47-5.07-.95-7.59-1.44-2.26-.43-4.5-.87-6.75-1.32-2.01-.39-4.02-.8-6.03-1.21-5.11-1.02-10.23-2.08-15.33-3.16-1.89-.4-3.78-.8-5.67-1.21-4.14-.89-8.3-1.8-12.44-2.73-1.48-.33-2.97-.67-4.45-1.01-1.86-.41-3.69-.83-5.52-1.26-.98-.21-1.95-.44-2.93-.67-1.7-.39-3.38-.78-5.06-1.19-1.89-.43-3.75-.88-5.64-1.33-2.76-.66-5.53-1.33-8.29-2.01-5.51-1.35-11.03-2.73-16.53-4.14-2.73-.7-5.46-1.41-8.19-2.12-.04-.01-.08-.02-.12-.04-2.14-.55-4.28-1.12-6.41-1.69-1.28-.33-2.56-.68-3.86-1.03-1.94-.52-3.88-1.04-5.81-1.57-.36-.1-.74-.2-1.11-.31-2.46-.67-4.92-1.35-7.37-2.03-5.46-1.52-10.9-3.07-16.34-4.65-1.47-.42-2.95-.85-4.42-1.29-2.12-.61-4.22-1.24-6.33-1.87-2.35-.7-4.72-1.41-7.07-2.13-2.18-.65-4.36-1.32-6.53-1.99-10.97-3.36-21.91-6.85-32.78-10.45-1.69-.56-3.4-1.13-5.1-1.69-1.3-.44-2.59-.87-3.87-1.31-2.18-.73-4.35-1.47-6.5-2.21-2.38-.81-4.74-1.62-7.11-2.45-5.73-1.98-11.44-4-17.12-6.05-2.9-1.04-5.79-2.08-8.67-3.14-5.34-1.96-10.7-3.95-16.02-5.97-2.1-.79-4.2-1.59-6.3-2.4-11.83-4.53-23.6-9.19-35.28-14-2.65-1.08-5.28-2.16-7.9-3.26-2.76-1.14-5.52-2.3-8.27-3.47-.44-.18-.88-.37-1.3-.55-2.76-1.17-5.52-2.35-8.28-3.55-6.84-2.93-13.64-5.91-20.41-8.95-2.4-1.06-4.8-2.14-7.19-3.23-2.65-1.2-5.31-2.41-7.96-3.63-8.97-4.11-17.89-8.31-26.76-12.59-1.71-.82-3.41-1.65-5.13-2.48-1.82-.88-3.63-1.76-5.44-2.66-2.77-1.35-5.53-2.71-8.29-4.09-2.19-1.09-4.38-2.18-6.55-3.28-1.4-.7-2.77-1.4-4.17-2.1-8.73-4.43-17.42-8.93-26.06-13.51-2.07-1.1-4.14-2.2-6.21-3.31-.56-.3-1.13-.6-1.69-.9-2.19-1.17-4.36-2.35-6.54-3.54-.77-.41-1.53-.82-2.29-1.24-2.54-1.38-5.09-2.78-7.62-4.18-2.88-1.58-5.74-3.18-8.61-4.78-3.49-1.96-6.98-3.92-10.46-5.91-1.91-1.08-3.81-2.17-5.71-3.27-2.08-1.18-4.14-2.38-6.21-3.59-1.74-1-3.48-2.01-5.2-3.03-1.69-.98-3.37-1.97-5.05-2.97-11.06-6.52-22.03-13.17-32.91-19.95-2.03-1.27-4.09-2.55-6.13-3.84-1.88-1.18-3.77-2.38-5.65-3.57l-4.15-2.64c-1.41-.9-2.81-1.8-4.21-2.7-2.33-1.49-4.64-3-6.97-4.51-4.83-3.13-9.64-6.3-14.43-9.5-1.49-.99-2.97-1.98-4.47-2.98-2.18-1.45-4.35-2.91-6.5-4.39-1.85-1.23-3.68-2.48-5.5-3.74-6.1-4.15-12.16-8.35-18.18-12.59-2.38-1.67-4.75-3.34-7.12-5.03-.58-.41-1.17-.83-1.75-1.25-1.75-1.24-3.5-2.5-5.25-3.76-10.69-7.68-21.28-15.49-31.77-23.43-1.61-1.21-3.2-2.43-4.81-3.66-1.63-1.24-3.28-2.49-4.9-3.75-1.81-1.38-3.61-2.77-5.41-4.16-1.13-.88-2.27-1.76-3.4-2.64-2.57-2-5.13-4.01-7.68-6.03-.23-.18-.46-.35-.68-.53-2.73-2.16-5.46-4.32-8.18-6.5-2.35-1.88-4.69-3.76-7.03-5.66-1.41-1.13-2.81-2.27-4.21-3.41-.96-.78-1.91-1.56-2.88-2.36-1.5-1.22-3-2.45-4.49-3.68-2.54-2.1-5.1-4.21-7.63-6.33-2.88-2.4-5.75-4.81-8.61-7.22-3.58-3.03-7.16-6.08-10.71-9.15-2.11-1.81-4.21-3.63-6.31-5.46-.13-.11-.26-.22-.39-.34-2.71-2.35-5.41-4.71-8.1-7.09-.12-.1-.24-.2-.35-.31-2.31-2.03-4.61-4.07-6.9-6.13-3.26-2.9-6.51-5.82-9.75-8.76-2.72-2.46-5.43-4.93-8.13-7.42-5.26-4.83-10.48-9.69-15.66-14.59-1.44-1.35-2.87-2.7-4.29-4.06-1.01-.95-2.03-1.91-3.03-2.89-1.4-1.32-2.8-2.66-4.18-4.01-1.41-1.33-2.81-2.68-4.2-4.05-1.08-1.03-2.17-2.09-3.25-3.15-3.62-3.51-7.22-7.05-10.78-10.61-1.57-1.54-3.13-3.09-4.69-4.65-4.61-4.61-9.19-9.24-13.74-13.91-1.62-1.65-3.22-3.3-4.81-4.96-.94-.94-1.86-1.9-2.76-2.85-1.49-1.53-2.97-3.07-4.43-4.61-.86-.88-1.71-1.77-2.54-2.67-1.76-1.83-3.5-3.66-5.22-5.5-.35-.36-.69-.72-1.02-1.08-2.08-2.2-4.15-4.42-6.21-6.63-2.17-2.32-4.32-4.65-6.48-6.99-2.12-2.31-4.26-4.64-6.36-6.97-1.66-1.81-3.3-3.62-4.93-5.44-.68-.75-1.36-1.5-2.03-2.25-1.21-1.35-2.42-2.7-3.62-4.05-1.33-1.48-2.65-2.96-3.97-4.45-1.93-2.19-3.87-4.39-5.8-6.59-1.82-2.07-3.63-4.15-5.44-6.24-1.75-2.01-3.47-4.02-5.2-6.04-1.49-1.72-2.98-3.45-4.44-5.18-.95-1.1-1.88-2.2-2.81-3.31-1.14-1.33-2.25-2.66-3.38-4-1.26-1.49-2.52-2.99-3.77-4.49-4.19-5.01-8.34-10.04-12.46-15.09-1.05-1.28-2.09-2.55-3.11-3.83-1.65-2.03-3.28-4.05-4.92-6.09-.12-.16-.26-.33-.38-.49-2.29-2.84-4.56-5.69-6.82-8.55-1.71-2.16-3.41-4.32-5.11-6.5-1.02-1.29-2.03-2.58-3.04-3.88-1.12-1.44-2.24-2.88-3.35-4.32-1.21-1.57-2.41-3.14-3.63-4.72-4.77-6.21-9.49-12.45-14.15-18.73-1.47-1.95-2.92-3.91-4.36-5.87-.79-1.07-1.59-2.15-2.37-3.23-1.42-1.93-2.84-3.87-4.25-5.81-.53-.72-1.06-1.45-1.57-2.17-1.57-2.16-3.14-4.32-4.68-6.49-.69-.95-1.38-1.91-2.05-2.86-1.26-1.75-2.5-3.5-3.74-5.26-.98-1.37-1.95-2.75-2.91-4.13-5.91-8.38-11.72-16.83-17.46-25.33-1.06-1.54-2.09-3.08-3.12-4.62-.96-1.42-1.91-2.84-2.86-4.27-1.2-1.8-2.4-3.6-3.59-5.41-.61-.92-1.22-1.84-1.82-2.77-1.11-1.69-2.22-3.38-3.32-5.07-1.19-1.81-2.37-3.62-3.52-5.44-.65-.98-1.28-1.96-1.91-2.94-1.6-2.49-3.21-4.98-4.79-7.48-.28-.44-.55-.87-.82-1.31-1.98-3.09-3.94-6.2-5.88-9.31-2.01-3.2-4-6.42-5.98-9.64-1.74-2.82-3.47-5.65-5.19-8.48-.81-1.33-1.61-2.66-2.41-4-1.08-1.78-2.16-3.56-3.22-5.35-.97-1.62-1.94-3.24-2.9-4.87-.53-.88-1.05-1.76-1.56-2.64-1.21-2.04-2.41-4.08-3.6-6.13-1.11-1.88-2.21-3.76-3.29-5.65-.51-.85-1-1.71-1.48-2.57-1.39-2.38-2.75-4.75-4.11-7.14-2.21-3.86-4.38-7.72-6.56-11.6-1.6-2.87-3.2-5.73-4.78-8.61-1.05-1.9-2.1-3.81-3.14-5.72-.75-1.36-1.49-2.72-2.23-4.09-.93-1.72-1.87-3.44-2.79-5.17-.77-1.4-1.52-2.81-2.26-4.22-.86-1.6-1.73-3.21-2.57-4.82-.84-1.56-1.66-3.12-2.48-4.69-.83-1.6-1.68-3.2-2.52-4.8-.63-1.2-1.25-2.41-1.87-3.61-1.11-2.13-2.21-4.26-3.3-6.39-3-5.85-5.97-11.72-8.89-17.62-1.47-2.95-2.94-5.9-4.38-8.85-1.04-2.11-2.08-4.23-3.09-6.35-.76-1.56-1.51-3.12-2.26-4.69-.73-1.47-1.43-2.95-2.13-4.43-.66-1.36-1.31-2.73-1.94-4.1-.98-2.02-1.92-4.05-2.87-6.08-.46-.98-.92-1.96-1.37-2.94-1.12-2.37-2.22-4.75-3.31-7.13-2.77-5.99-5.49-12.01-8.17-18.04-2.69-6.03-5.34-12.08-7.95-18.15-1.17-2.7-2.33-5.4-3.47-8.11-.26-.6-.52-1.21-.77-1.82-1.17-2.75-2.33-5.51-3.47-8.28-.03-.04-.05-.09-.07-.15-1.25-2.97-2.48-5.95-3.69-8.93-.06-.15-.12-.3-.18-.45-3.73-9.09-7.37-18.22-10.92-27.39-.74-1.91-1.48-3.82-2.2-5.73-.58-1.49-1.15-2.98-1.72-4.47-.87-2.29-1.73-4.59-2.59-6.89-.3-.78-.6-1.57-.88-2.36-.79-2.08-1.57-4.17-2.33-6.26-.53-1.42-1.05-2.85-1.57-4.28-.9-2.43-1.78-4.87-2.65-7.31-1.13-3.13-2.25-6.26-3.35-9.39-1.11-3.14-2.21-6.28-3.29-9.42-1.14-3.3-2.28-6.61-3.4-9.92-1.23-3.64-2.45-7.29-3.66-10.94-1.01-3.04-2-6.08-2.99-9.13-.69-2.14-1.38-4.28-2.06-6.42-.27-.83-.54-1.67-.8-2.51-.73-2.26-1.44-4.54-2.15-6.81-.55-1.73-1.08-3.46-1.61-5.19-.47-1.49-.93-2.97-1.38-4.46-.49-1.6-.98-3.21-1.46-4.82-.66-2.14-1.3-4.29-1.94-6.44-1.24-4.14-2.46-8.29-3.66-12.45-.78-2.69-1.55-5.39-2.32-8.09-1.05-3.72-2.1-7.44-3.12-11.17-.99-3.55-1.96-7.12-2.91-10.69-.13-.44-.25-.89-.36-1.33-.88-3.27-1.75-6.55-2.6-9.84-.08-.29-.16-.58-.23-.87-.95-3.65-1.89-7.3-2.81-10.96-.9-3.56-1.79-7.12-2.66-10.68-.13-.52-.26-1.03-.39-1.55-.84-3.46-1.68-6.92-2.5-10.39-.2-.81-.39-1.61-.57-2.42-.44-1.84-.87-3.69-1.3-5.53-1.65-7.09-3.25-14.19-4.8-21.32-.55-2.53-1.1-5.06-1.63-7.6-.22-1-.43-2-.64-3-.41-1.91-.81-3.82-1.2-5.73-.35-1.7-.7-3.4-1.05-5.1-.05-.21-.09-.42-.13-.63-.5-2.47-1-4.94-1.49-7.42-.72-3.6-1.42-7.21-2.11-10.82-.43-2.23-.85-4.46-1.27-6.69-.24-1.28-.48-2.56-.71-3.84-.15-.8-.3-1.6-.44-2.4-.31-1.66-.61-3.32-.91-4.99-.6-3.31-1.18-6.63-1.76-9.96-.33-1.93-.67-3.86-.99-5.79-.69-4.04-1.36-8.08-2.01-12.14-.29-1.76-.57-3.53-.85-5.29-.36-2.25-.71-4.5-1.06-6.76-.17-1.11-.34-2.22-.51-3.33-.42-2.76-.84-5.53-1.24-8.3-.39-2.62-.77-5.25-1.14-7.88l-.6-4.29c-.33-2.39-.66-4.78-.98-7.18-.07-.47-.13-.94-.19-1.42-.32-2.38-.64-4.77-.94-7.16-.02-.15-.04-.3-.06-.46-.17-1.31-.34-2.61-.5-3.92-.33-2.61-.66-5.22-.97-7.84-.04-.31-.08-.63-.11-.95-.34-2.74-.67-5.48-.98-8.22-.33-2.87-.66-5.74-.97-8.62-.21-1.83-.4-3.66-.6-5.49-.31-2.93-.62-5.86-.91-8.8-.26-2.46-.5-4.93-.73-7.39-.26-2.6-.51-5.21-.74-7.82-.18-1.92-.35-3.84-.52-5.76-.22-2.39-.42-4.79-.62-7.2-.11-1.28-.21-2.55-.31-3.83-.56-6.75-1.07-13.51-1.53-20.28-.18-2.53-.35-5.06-.51-7.6-.19-2.99-.38-5.99-.55-9-.12-1.99-.23-3.99-.34-5.99-.11-2-.22-4-.32-6-.06-1.2-.13-2.4-.18-3.61-.13-2.54-.25-5.09-.36-7.63-.15-3.41-.3-6.83-.42-10.25-.01-.12-.02-.25-.02-.38-.1-2.73-.2-5.46-.29-8.2-.01-.17-.01-.34-.02-.51-.04-1.21-.08-2.43-.11-3.65-.08-2.64-.16-5.27-.23-7.91,0-.21-.01-.43-.01-.64-.07-2.82-.14-5.64-.19-8.47-.07-3.28-.13-6.57-.17-9.86-.02-1.46-.04-2.92-.06-4.38,0-.28,0-.56,0-.85-.03-2.41-.05-4.83-.07-7.24v-1.39c-.02-3.19-.03-6.38-.03-9.57V16h3258.04Z"/>
  </g>
  <g>
    <g>
      <path class="cls-8" d="m1335.54,671.13v1254.21h-761.6V671.13h761.6Z"/>
      <path class="cls-8" d="m531.43,757.45c15.69,16.22,31.38,32.44,47.07,48.67,259.64-67.9,512.42-63.31,763.6,0,13.83-16.22,27.65-32.44,41.48-48.67-14.04-24.74-39.81-61.68-83.89-88.43-43.78-26.57-85.55-30.92-137.22-33.78-151.6-8.39-176.55,7.74-311.03,4.93-75.13-1.57-135.8-8.04-204.07,14.78-42.68,14.26-71.2,34.25-91.48,59.81-12.73,16.05-20.13,31.67-24.45,42.69Z"/>
      <path class="cls-8" d="m525.91,494.28l112.98-28.63v107.85l122.1-26.36v-122.83l122.1-17.97v131.95h140.47v-131.95l122.1,17.97v122.83l122.1,29.63v-118.23l113.84,37.28,2,261.63c-220.36-87.21-627.12-91.87-852.14,0l-5.53-263.16Z"/>
      <path class="cls-8" d="m582.66,1243.83c226.35-38.15,492.64-46.6,752.28,0,31.29,3.33,31.29-47.87-.67-54.52-251.85-48.73-529.92-47.2-753.61,0-39.61,7.99-39.61,55.86,1.66,54.52h.33Z"/>
      <g id="b">
        <g id="c">
          <path class="cls-2" d="m672.77,1060.02l62.58-10.45-1.33-104.52c-13.11-27.23-49.6-22.17-61.25,3.99v110.98Z"/>
          <path class="cls-2" d="m839.2,1036.71l63.24-5.26-1.33-106.52c-12.32-27.23-45.6-24.9-61.25,3.26l-.67,108.51Z"/>
        </g>
        <g id="c-2" data-name="c">
          <path class="cls-2" d="m1236.65,1060.02l-62.58-10.45,1.33-104.52c13.11-27.23,49.6-22.17,61.25,3.99v110.98Z"/>
          <path class="cls-2" d="m1070.21,1036.71l-63.24-5.26,1.33-106.52c12.32-27.23,45.6-24.9,61.25,3.26l.67,108.51Z"/>
        </g>
      </g>
      <g id="b-2" data-name="b">
        <g id="c-3" data-name="c">
          <path class="cls-2" d="m672.77,1505.52l62.58-10.45-1.33-104.52c-13.11-27.23-49.6-22.17-61.25,3.99v110.98Z"/>
          <path class="cls-2" d="m839.2,1482.22l63.24-5.26-1.33-106.52c-12.32-27.23-45.6-24.9-61.25,3.26l-.67,108.51Z"/>
        </g>
        <g id="c-4" data-name="c">
          <path class="cls-2" d="m1236.65,1505.52l-62.58-10.45,1.33-104.52c13.11-27.23,49.6-22.17,61.25,3.99v110.98Z"/>
          <path class="cls-2" d="m1070.21,1482.22l-63.24-5.26,1.33-106.52c12.32-27.23,45.6-24.9,61.25,3.26l.67,108.51Z"/>
        </g>
      </g>
    </g>
    <g>
      <path class="cls-8" d="m2693.38,671.13v1254.21h-761.6V671.13h761.6Z"/>
      <path class="cls-8" d="m1889.27,757.45c15.69,16.22,31.38,32.44,47.07,48.67,259.64-67.9,512.42-63.31,763.6,0,13.83-16.22,27.65-32.44,41.48-48.67-14.04-24.74-39.81-61.68-83.89-88.43-43.78-26.57-85.55-30.92-137.22-33.78-151.6-8.39-176.55,7.74-311.03,4.93-75.13-1.57-135.8-8.04-204.07,14.78-42.68,14.26-71.2,34.25-91.48,59.81-12.73,16.05-20.13,31.67-24.45,42.69Z"/>
      <path class="cls-8" d="m1883.75,494.28l112.98-28.63v107.85l122.1-26.36v-122.83l122.1-17.97v131.95h140.47v-131.95l122.1,17.97v122.83l122.1,29.63v-118.23l113.84,37.28,2,261.63c-220.36-87.21-627.12-91.87-852.14,0l-5.53-263.16Z"/>
      <path class="cls-8" d="m1940.5,1243.83c226.35-38.15,492.64-46.6,752.28,0,31.29,3.33,31.29-47.87-.67-54.52-251.85-48.73-529.92-47.2-753.61,0-39.61,7.99-39.61,55.86,1.66,54.52h.33Z"/>
      <g id="b-3" data-name="b">
        <g id="c-5" data-name="c">
          <path class="cls-2" d="m2030.61,1060.02l62.58-10.45-1.33-104.52c-13.11-27.23-49.6-22.17-61.25,3.99v110.98Z"/>
          <path class="cls-2" d="m2197.04,1036.71l63.24-5.26-1.33-106.52c-12.32-27.23-45.6-24.9-61.25,3.26l-.67,108.51Z"/>
        </g>
        <g id="c-6" data-name="c">
          <path class="cls-2" d="m2594.48,1060.02l-62.58-10.45,1.33-104.52c13.11-27.23,49.6-22.17,61.25,3.99v110.98Z"/>
          <path class="cls-2" d="m2428.05,1036.71l-63.24-5.26,1.33-106.52c12.32-27.23,45.6-24.9,61.25,3.26l.67,108.51Z"/>
        </g>
      </g>
      <g id="b-4" data-name="b">
        <g id="c-7" data-name="c">
          <path class="cls-2" d="m2030.61,1505.52l62.58-10.45-1.33-104.52c-13.11-27.23-49.6-22.17-61.25,3.99v110.98Z"/>
          <path class="cls-2" d="m2197.04,1482.22l63.24-5.26-1.33-106.52c-12.32-27.23-45.6-24.9-61.25,3.26l-.67,108.51Z"/>
        </g>
        <g id="c-8" data-name="c">
          <path class="cls-2" d="m2594.48,1505.52l-62.58-10.45,1.33-104.52c13.11-27.23,49.6-22.17,61.25,3.99v110.98Z"/>
          <path class="cls-2" d="m2428.05,1482.22l-63.24-5.26,1.33-106.52c12.32-27.23,45.6-24.9,61.25,3.26l.67,108.51Z"/>
        </g>
      </g>
    </g>
  </g>
  <g>
    <g class="cls-11">
      <path id="schwarz" class="cls-5" d="m1187.41,2575.2c304.53,0,609.07,0,913.6,0-.12,177.5.27,355.01-.2,532.51-1.24,15.9-3.18,31.74-5.12,47.58-14.77,88.29-54.9,172.5-116.11,238.04-50.8,55.67-115.85,97.83-186.9,122.74-33.04,10.85-67.12,19.11-101.84,22-23.52,3.59-47.45,1.62-71.16,1.94-97.77-4.94-193.64-42.8-268.41-106.08-86-71.76-144.23-176.03-159.4-287.07-2.36-13.72-2.72-27.66-4.47-41.44-.01-176.74-.01-353.49,0-530.23Z"/>
      <path id="weiss" class="cls-6" d="m1204.08,2592.11c293.47,0,586.94,0,880.42,0,.01,126.9,0,253.81,0,380.71-.2,42.68.46,85.38-.47,128.05-2.96,69.38-22.51,138-56.72,198.45-58.84,105.09-162.32,184.27-279.63,212.17-65.85,15.97-135.46,16.42-201.51,1.28-78.68-18.03-152.19-58.29-209.48-115.18-86.55-83.81-135.51-204.45-132.61-324.82,0-160.22,0-320.44,0-480.66Z"/>
    </g>
    <path id="weiss-2" data-name="weiss" class="cls-1" d="m1229.25,2614.45c277.36,0,554.72,0,832.08,0,.01,120.5,0,241,0,361.5-.19,40.53.43,81.07-.45,121.59-2.8,65.88-21.28,131.04-53.61,188.43-55.61,99.78-153.41,174.97-264.28,201.46-62.24,15.17-128.02,15.59-190.44,1.22-74.36-17.12-143.84-55.34-197.98-109.36-81.79-79.58-128.07-194.13-125.33-308.43,0-152.14,0-304.27,0-456.41Z"/>
    <g>
      <g id="pferd">
        <path id="koerper" class="cls-6" d="m1835.38,2644.47c-1.64,11.39-3.21,22.75-4.18,34.22-22.95,10.44-41.27,28.08-61.06,43.23-7.49,6.22-16.74,11.4-20.45,20.92,8.26,2.69,6.6,12.23-.35,15.16,2.17,3.02,3.85,7.94,8.48,7.32,7.75.36,8.12-11.97,16.33-10.69,4.91-.8,12.62,2.03,10.11,8.25-2.91,3.61-7.75,3.42-11.85,4.3-1.76,1.51-3.49,3-5.23,4.53,8.43,2.64,17.99,5.6,26.44,1.39,6.92-3.34,6.07-14.35,14.29-15.98,17.62-3.94,35.94,1.11,53.69-1.92,8.1-2.68,11.63-11.08,14.82-18.24,4.95.66,11.15,4.14,9.12,10.11-4.46,14.46-19.3,22.85-33.99,22.19-11.29,36.44-50.07,51.94-71.41,81.17-10.13,13-15.6,29.11-16.56,45.49-16.01,5.26-31.81,11-47.87,16.09-10.47,2.38-14.85,13.37-21.67,20.51,5.42,8.68,10.37,17.75,13.65,27.48,4.84,12.88,6.43,26.69,11.79,39.39,4.87.3,10.54.24,13.83,4.53,3.81,3.62,3.65,9.22,3.83,14.06,7.54,7.24,16.32,14.14,27.13,15.16,6-14.9,3.52-31.2-.93-46.13-5.41-.02-10.81-.03-16.21,0-.02-3.16-.05-6.32-.06-9.47-8.94-4.56-18.77-11.01-20.51-21.73-1.88-8.11,2.25-15.74,7.26-21.79,23.58.95,47.09,3.42,70.71,3.31,9.15.26,15.28-7.78,19.35-14.93,1.5.13,4.48.39,5.98.52,5.98,8.45-1.45,17.47-8.6,22.02-13.84,9.6-31.27,3.33-46.77,4.18,3.87,7.35,8.07,14.63,13.71,20.8,23.57,25.88,61.42,32.86,83.72,60.19,5.54,7.55,12.62,15.62,11.85,25.62.08,17.43,1.77,34.94,5.98,51.88,2.91,10.43,6.72,21.49,15.45,28.53,14.71,12.35,30.39,23.95,42.41,39.1,7.53,9.34,11.59,21.96,9.01,33.87-3.31,18.3-12.78,34.62-21.38,50.84,2.77,7.03-.12,16.61-8.08,18.48-13.58,1.53-19.69,16.48-22.54,28.12,15.62,6.16,32.74,4.04,48.46-.52.01-6.46-.47-12.97.17-19.41.97-4.98,5.97-6.72,9.94-8.72.8-33.19,13.75-64.41,26.67-94.47-12.42-22.58-22.45-47.4-21.03-73.67,15.45-20.28,31.1-44.57,26.96-71.29-5.98-29.65-31.47-49.15-53.69-67.11-17.37-17.46-31.45-39.07-37.13-63.27-2.85-12.45-2.33-25.35-1.51-38,10.63-4.25,21.79-6.99,33.23-7.73-7.67-6.3-13.51-14.41-18.71-22.78,17.7-4.04,35.4-8.7,51.94-16.33-14.13-8.54-23.15-22.71-30.91-36.84,17.12,5.44,35.33,4.92,52.64.7-18.01-14.12-25.38-37.28-42.7-52.12,10.57-2.29,20.99-5.46,30.74-10.23-12.58-19.63-35.18-29.91-57.23-34.74,10.82-5.19,21.37-11.55,29.22-20.8-27.97,2.74-56.04-.4-83.67-4.76,1.12,6.86,3.16,15.25-1.92,21.03-3.22,3.39-8.19,1.82-12.14,1.22,1.49-5.87,4.3-11.98,2.15-18.07-2.71-10.87-11.61-18.54-20.74-24.23Zm-23.41,60.83c5.7.21,11.11,5.17,15.57,8.42-4.87,2.5-10.05,4.24-15.34,5.58-2.88-1.71-5.74-3.4-8.6-5.11.88-2.42,1.75-4.84,2.61-7.26,1.93-1.22,3.85-1.7,5.75-1.63Z"/>
        <path id="huf_oben" data-name="huf oben" class="cls-6" d="m1696.36,2791.73c7.7.04,15.4.04,23.11,0,18.73,14.52,37.29,29.25,55.93,43.87-10.24,11.75-18.28,25.58-21.83,40.85-9.5-17.61-18.82-35.32-28.39-52.88-1.26-3.51-5.35-2.52-8.04-1.73-6.74,1.64-13.07,5.87-15.88,12.39-4.06,8.53-1.3,18.16,1.02,26.77-2.25,2.27-4.51,4.53-6.74,6.81,3.64,4.08,7.36,8.11,11.17,12.04-7.24,13.48-17.22,26.91-32.08,32.41-5.78-8.68-8.14-19.06-7.47-29.41,3.45-3.43,7.36-7.39,7.07-12.67.26-5.09-3.7-8.74-6.63-12.33,9.11-22.28,25.29-41.65,28.76-66.11Z"/>
        <path id="schweif" class="cls-6" d="m1996.48,2832.88c13.19,6.08,26.45,13.95,33.92,26.9,8.45,14.3,8.19,33.27-.59,47.36-6.64,11.93-18.47,22.42-17.72,37.17.29,15.73,12.21,27.18,19.18,40.26,5.79,10.57,6.94,24.85-.78,34.76-5.75,7.43-16.07,9.02-24.77,6.97,1.45-1.33,4.35-3.99,5.8-5.32,2.23-7.82.08-16.71-6.48-21.8-15.33-12.71-36.78-18.2-47.9-35.79-8.77-13.73-6.06-31.14,0-45.36,3.95-11.22,12.11-21.75,10.59-34.22-.88-7.8-7.36-13-13.04-17.58,13.14-6.95,31.2-2.57,38.3,10.92,5.19-14.13,6.55-29.5,3.5-44.28Z"/>
        <path id="huf_unten" data-name="huf unten" class="cls-6" d="m1821.78,3054.35c5-13.87,18.71-21.65,32.03-25.89,7.01,7.35,14.3,15.4,17.3,25.26.13,24.28,3.18,49.07,13.39,71.35-15.17,17.64-17.14,42.15-17.92,64.41-19.94-.18-39.93-.8-59.83.72-10.73.14-20.34,6.45-31.21,5.31.02,5.34.05,10.68.13,16.03-14.74,5.2-31.38,6.67-46.2.95,1.25-10.85,7.74-20.12,15.67-27.26,4.52-.28,9.76.28,13.37-3.09,4.15-3.16,4.46-8.7,5.2-13.41,26.3.18,52.6.05,78.91.07-.5-19.64-10.01-37.16-17.02-55.02-7.27-18.68-10.67-40.15-3.82-59.44Z"/>
      </g>
      <g id="pferd-2" data-name="pferd">
        <path id="koerper-2" data-name="koerper" class="cls-6" d="m1434.1,2668.7c-2.15,6.09.66,12.2,2.15,18.07-3.95.6-8.93,2.17-12.14-1.22-5.08-5.78-3.04-14.17-1.92-21.03-27.63,4.36-55.69,7.51-83.67,4.76,7.86,9.25,18.4,15.61,29.22,20.8-22.05,4.84-44.65,15.11-57.23,34.74,9.74,4.76,20.16,7.94,30.74,10.23-17.32,14.83-24.69,37.99-42.7,52.12,17.31,4.22,35.52,4.75,52.64-.7-7.76,14.12-16.78,28.3-30.91,36.84,16.54,7.62,34.24,12.28,51.94,16.33-5.2,8.37-11.04,16.48-18.71,22.78,11.45.74,22.6,3.48,33.23,7.73.82,12.65,1.34,25.55-1.51,38-5.68,24.2-19.75,45.81-37.13,63.27-22.21,17.96-47.7,37.45-53.69,67.11-4.14,26.72,11.51,51.01,26.96,71.29,1.42,26.27-8.61,51.1-21.03,73.67,12.92,30.07,25.87,61.28,26.67,94.47,3.97,2,8.96,3.73,9.94,8.72.64,6.43.16,12.94.17,19.41,15.71,4.56,32.84,6.69,48.46.52-2.85-11.64-8.96-26.59-22.54-28.12-7.96-1.87-10.85-11.44-8.08-18.48-8.6-16.22-18.07-32.54-21.38-50.84-2.59-11.91,1.48-24.53,9.01-33.87,12.02-15.15,27.7-26.75,42.41-39.1,8.74-7.03,12.54-18.09,15.45-28.53,4.21-16.94,5.91-34.46,5.98-51.88-.76-10.01,6.31-18.07,11.85-25.62,22.3-27.33,60.15-34.31,83.72-60.19,5.64-6.17,9.84-13.45,13.71-20.8-15.5-.86-32.93,5.41-46.77-4.18-7.15-4.55-14.58-13.57-8.6-22.02,1.5-.13,4.48-.39,5.98-.52,4.07,7.15,10.2,15.19,19.35,14.93,23.62.11,47.13-2.37,70.71-3.31,5.01,6.05,9.15,13.68,7.26,21.79-1.74,10.72-11.57,17.17-20.51,21.73-.01,3.15-.04,6.31-.06,9.47-5.4-.03-10.8-.02-16.21,0-4.45,14.94-6.93,31.23-.93,46.13,10.81-1.02,19.59-7.92,27.13-15.16.19-4.84.03-10.44,3.83-14.06,3.29-4.29,8.96-4.24,13.83-4.53,5.37-12.7,6.96-26.52,11.79-39.39,3.28-9.73,8.23-18.8,13.65-27.48-6.82-7.13-11.2-18.13-21.67-20.51-16.06-5.09-31.87-10.84-47.87-16.09-.96-16.38-6.42-32.5-16.56-45.49-21.34-29.22-60.11-44.72-71.41-81.17-14.69.66-29.53-7.74-33.99-22.19-2.03-5.97,4.17-9.45,9.12-10.11,3.18,7.16,6.71,15.57,14.82,18.24,17.74,3.03,36.06-2.03,53.69,1.92,8.22,1.63,7.37,12.64,14.29,15.98,8.45,4.21,18.01,1.24,26.44-1.39-1.74-1.53-3.47-3.02-5.23-4.53-4.1-.88-8.95-.69-11.85-4.3-2.51-6.22,5.2-9.05,10.11-8.25,8.21-1.28,8.57,11.06,16.33,10.69,4.64.62,6.31-4.3,8.48-7.32-6.95-2.94-8.61-12.47-.35-15.16-3.72-9.52-12.96-14.7-20.45-20.92-19.79-15.15-38.12-32.78-61.06-43.23-.97-11.47-2.54-22.83-4.18-34.22-9.13,5.69-18.03,13.36-20.74,24.23Zm49.91,38.23c.86,2.42,1.74,4.85,2.61,7.26-2.85,1.72-5.72,3.4-8.6,5.11-5.29-1.33-10.47-3.07-15.34-5.58,4.46-3.25,9.87-8.22,15.57-8.42,1.9-.07,3.82.41,5.75,1.63Z"/>
        <path id="huf_oben-2" data-name="huf oben" class="cls-6" d="m1622.62,2857.85c-2.93,3.6-6.89,7.24-6.63,12.33-.29,5.29,3.62,9.25,7.07,12.67.68,10.35-1.69,20.73-7.47,29.41-14.85-5.49-24.84-18.93-32.08-32.41,3.82-3.93,7.53-7.96,11.17-12.04-2.24-2.28-4.49-4.54-6.74-6.81,2.31-8.61,5.08-18.23,1.02-26.77-2.81-6.52-9.14-10.75-15.88-12.39-2.69-.79-6.78-1.79-8.04,1.73-9.58,17.56-18.89,35.27-28.39,52.88-3.55-15.28-11.59-29.1-21.83-40.85,18.65-14.62,37.21-29.35,55.93-43.87,7.71.03,15.41.04,23.11,0,3.47,24.46,19.65,43.84,28.76,66.11Z"/>
        <path id="schweif-2" data-name="schweif" class="cls-6" d="m1297.24,2877.16c7.11-13.49,25.17-17.87,38.3-10.92-5.68,4.58-12.17,9.78-13.04,17.58-1.52,12.47,6.64,22.99,10.59,34.22,6.07,14.22,8.77,31.63,0,45.36-11.12,17.58-32.57,23.07-47.9,35.79-6.56,5.09-8.71,13.97-6.48,21.8,1.45,1.33,4.35,3.99,5.8,5.32-8.7,2.06-19.02.46-24.77-6.97-7.72-9.91-6.58-24.2-.78-34.76,6.97-13.08,18.88-24.53,19.18-40.26.74-14.75-11.08-25.24-17.72-37.17-8.79-14.09-9.05-33.06-.59-47.36,7.47-12.95,20.73-20.82,33.92-26.9-3.05,14.78-1.7,30.15,3.5,44.28Z"/>
        <path id="huf_unten-2" data-name="huf unten" class="cls-6" d="m1464.62,3113.79c-7.01,17.86-16.51,35.37-17.02,55.02,26.3-.02,52.61.11,78.91-.07.74,4.72,1.05,10.25,5.2,13.41,3.61,3.37,8.84,2.81,13.37,3.09,7.93,7.15,14.41,16.42,15.67,27.26-14.82,5.72-31.45,4.25-46.2-.95.09-5.35.11-10.69.13-16.03-10.87,1.13-20.47-5.17-31.21-5.31-19.9-1.52-39.89-.9-59.83-.72-.78-22.25-2.75-46.77-17.92-64.41,10.21-22.28,13.26-47.07,13.39-71.35,3-9.86,10.29-17.91,17.3-25.26,13.32,4.23,27.03,12.02,32.03,25.89,6.85,19.29,3.45,40.76-3.82,59.44Z"/>
      </g>
    </g>
    <g>
      <path id="blume_nw" data-name="blume nw" class="cls-6" d="m1562.93,3261.59c-.36-10.17,1.34-20.21,4.9-29.71,10.22-.23,20.44,1.06,30.08,4.57-5.51,6.03-9.53,13.19-11.2,21.24-8.18-.74-16.19.95-23.78,3.9Z"/>
      <path id="blume_no" data-name="blume no" class="cls-6" d="m1692.61,3236.36c9.67-3.6,19.98-4.88,30.26-4.18,3.28,9.35,4.43,19.17,4.1,29.05-7.53-2.98-15.53-4.09-23.58-3.73-1.95-7.81-5.91-14.81-10.78-21.14Z"/>
      <path id="blume_mitte" data-name="blume mitte" class="cls-6" d="m1633.45,3305.31c20.88-8.16,46.62,8.64,46.11,31.38,1.8,19.52-16.56,37.64-36.03,35.82-16.49.04-31.46-13.96-32.84-30.33-2.34-15.69,7.8-31.82,22.76-36.87Z"/>
      <path id="blume_ring" data-name="blume ring" class="cls-6" d="m1641.97,3232.41c-12.71.58-25.11,5.18-34.18,14.13-7.61,7.17-6.7,18.23-3.71,27.33-2.05,1.99-4.12,4.03-6.21,5.99-7.79-5.84-17.93-10.68-27.54-5.99-23.82,11.59-33.67,42.83-25.9,67.21,3.7,11.61,15.73,17.59,27.4,16.12.87,2.88,1.8,5.76,2.78,8.63-8.52,5.06-15.95,14.34-13.56,24.83,5.13,26.36,32.97,46.5,59.58,43.59,10.96-1.05,17.48-10.64,19.98-20.48,3.06-.02,6.12,0,9.2.07,2.17,8.82,7.27,17.82,16.91,19.83,27.57,5.43,57.25-15.93,62.5-43.24,1.99-10.69-5.24-19.91-13.98-24.97.72-2.04,2.2-6.09,2.93-8.13,8.47.19,17.93-1.07,23.33-8.42,10.79-15.69,8.09-36.94.07-53.23-6.28-12.06-17.52-24.2-32.25-23.55-6.53-.11-11.2,5.1-17.12,6.85-2.16-1.48-4.25-3.03-6.28-4.64,5.45-11.1,2.53-25.02-7.92-32.04-10.25-7.04-23.32-10.49-36.03-9.92Zm2.57,51.44c25-.05,49.4,18.53,53.58,43.95,7.81,33.22-22.7,67.51-56.51,64.29-28.16-1.34-51.85-27.43-50.59-55.58.46-21.96,15.72-42.3,36.32-49.52,5.58-2.15,11.43-3.13,17.2-3.14Z"/>
      <path id="blume_sw" data-name="blume sw" class="cls-6" d="m1520.18,3378.73c2.61-9.82,7.25-18.88,13.34-26.98,4.66,6.79,10.41,12.77,17.37,17.25-3.69,7.22-4.36,15.25-4.16,23.23-9.68-2.7-18.7-7.25-26.55-13.51Z"/>
      <path id="blume_so" data-name="blume so" class="cls-6" d="m1739.17,3368.9c6.9-4.56,12.67-10.51,17.49-17.19,6.02,7.98,10.45,16.95,13.69,26.4-7.77,6.82-17.09,11.5-27.01,14.27.37-8.07-.24-16.26-4.16-23.48Z"/>
      <path id="blume_s" data-name="blume s" class="cls-6" d="m1644.93,3436.7c6.13,5.56,13.49,9.41,21.48,11.58-5.47,8.46-12.73,15.52-21.04,21.17-8.8-5.29-16.02-12.64-21.52-21.27,8-1.79,15.41-5.48,21.08-11.48Z"/>
    </g>
  </g>
  <g>
    <path class="cls-9" d="m3274.28,1696.69v508.97c0,3.19-.01,6.38-.03,9.57v1.39c-.02,2.41-.04,4.83-.07,7.24,0,.29,0,.57,0,.85l-.06,4.38c-.04,3.29-.1,6.58-.17,9.86-.05,2.83-.12,5.65-.19,8.47,0,.21-.01.43-.01.64-.07,2.64-.15,5.27-.23,7.91-.03,1.22-.07,2.44-.11,3.65-.01.17-.01.34-.02.51-.09,2.74-.19,5.47-.29,8.2,0,.13-.01.26-.02.38-.1,2.81-.22,5.61-.34,8.41-.03.61-.05,1.23-.08,1.84-.11,2.54-.23,5.09-.36,7.63-.05,1.21-.12,2.41-.18,3.61-.08,1.64-.17,3.28-.26,4.92-.02.36-.04.72-.06,1.08-.11,2-.22,4-.34,5.99-.17,3.01-.36,6.01-.55,9-.16,2.54-.33,5.07-.51,7.6-.46,6.77-.97,13.53-1.53,20.28-.1,1.28-.2,2.55-.31,3.83-.2,2.41-.4,4.81-.62,7.2-.17,1.92-.34,3.84-.52,5.76-.23,2.61-.48,5.22-.74,7.82-.13,1.36-.26,2.73-.39,4.1-.11,1.09-.22,2.19-.34,3.29-.29,2.94-.6,5.87-.91,8.8-.2,1.83-.39,3.66-.6,5.49-.02.14-.03.28-.05.42-.29,2.74-.61,5.47-.92,8.2-.31,2.74-.64,5.48-.98,8.22-.03.32-.07.64-.11.95-.31,2.62-.64,5.23-.97,7.84-.16,1.31-.33,2.61-.5,3.92-.02.16-.04.31-.06.46-.31,2.39-.62,4.78-.94,7.16-.06.48-.12.95-.19,1.42-.32,2.4-.65,4.79-.98,7.18-.2,1.43-.4,2.86-.6,4.29-.37,2.63-.75,5.26-1.14,7.88-.4,2.77-.82,5.54-1.24,8.3-.17,1.11-.34,2.22-.51,3.33-.18,1.18-.36,2.35-.55,3.52-.17,1.08-.34,2.16-.51,3.24-.28,1.76-.56,3.53-.85,5.29-.51,3.17-1.03,6.32-1.56,9.47-.15.89-.3,1.78-.45,2.67-.32,1.93-.66,3.86-.99,5.79-.58,3.33-1.16,6.65-1.76,9.96-.3,1.67-.6,3.33-.91,4.99-.14.8-.29,1.6-.44,2.4-.23,1.28-.47,2.56-.71,3.84-.42,2.23-.84,4.46-1.27,6.69-.69,3.61-1.39,7.22-2.11,10.82-.49,2.48-.99,4.95-1.49,7.42-.04.21-.08.42-.13.63-.35,1.7-.7,3.4-1.05,5.1-.39,1.91-.79,3.82-1.2,5.73-.21,1-.42,2-.64,3-.25,1.21-.51,2.42-.77,3.63-.29,1.33-.57,2.65-.86,3.97-1.02,4.69-2.06,9.36-3.13,14.03-.55,2.43-1.1,4.86-1.67,7.29-.43,1.84-.86,3.69-1.3,5.53-.18.81-.37,1.61-.57,2.42-.82,3.47-1.66,6.93-2.5,10.39-.13.52-.26,1.03-.39,1.55-.87,3.57-1.76,7.12-2.66,10.68-.92,3.66-1.86,7.31-2.81,10.96-.07.29-.15.58-.23.87-.85,3.28-1.72,6.57-2.6,9.84-.12.44-.23.89-.36,1.33-.95,3.57-1.92,7.13-2.91,10.69-.1.37-.2.74-.31,1.11-.92,3.36-1.86,6.71-2.81,10.06-.76,2.65-1.51,5.3-2.28,7.94-.24.85-.48,1.7-.73,2.55-.98,3.36-1.97,6.71-2.97,10.05-.64,2.15-1.28,4.3-1.94,6.44-.48,1.61-.97,3.21-1.46,4.82-.42,1.38-.85,2.77-1.28,4.15-.62,2.01-1.24,4.01-1.87,6.01-.59,1.89-1.18,3.78-1.79,5.67-.38,1.22-.77,2.43-1.16,3.64-.62,1.97-1.26,3.95-1.9,5.92-.99,3.05-1.98,6.09-2.99,9.13-1.21,3.65-2.43,7.29-3.66,10.93-.38,1.12-.76,2.24-1.15,3.36-.52,1.56-1.06,3.12-1.6,4.67-.21.64-.43,1.27-.65,1.9-.92,2.67-1.85,5.34-2.79,8-.2.57-.4,1.14-.6,1.7-.2.58-.41,1.15-.62,1.73-.69,1.97-1.4,3.95-2.11,5.92-.28.81-.57,1.62-.87,2.42-.68,1.9-1.37,3.8-2.06,5.7-.63,1.73-1.26,3.46-1.91,5.18-.73,2.01-1.47,4.01-2.23,6.01-.29.79-.58,1.58-.88,2.36-.84,2.27-1.7,4.54-2.56,6.8-2.48,6.54-5.01,13.05-7.58,19.55-1.21,3.08-2.44,6.16-3.68,9.23-1.11,2.78-2.24,5.56-3.38,8.33-.15.39-.31.78-.48,1.17,0,.02-.01.04-.02.06-1.19,2.91-2.39,5.82-3.6,8.72-.02.06-.04.11-.07.15-1.14,2.77-2.3,5.53-3.47,8.28-.11.26-.22.53-.33.79-.15.35-.29.69-.44,1.03-1.15,2.71-2.3,5.41-3.47,8.11-1.3,3.03-2.62,6.06-3.95,9.09-1.32,3.03-2.66,6.05-4,9.06-2.69,6.03-5.41,12.04-8.17,18.04-.99,2.16-2,4.33-3.01,6.49-.67,1.46-1.35,2.92-2.04,4.37-.63,1.35-1.26,2.69-1.9,4.03-1.1,2.35-2.21,4.69-3.34,7.03-.28.59-.56,1.18-.85,1.76-.58,1.22-1.16,2.44-1.74,3.65-.52,1.07-1.04,2.15-1.57,3.22-.77,1.59-1.54,3.18-2.32,4.77-1.51,3.09-3.04,6.17-4.57,9.25-.13.25-.25.51-.38.76-1.39,2.81-2.8,5.6-4.21,8.39-1.53,3.03-3.07,6.05-4.62,9.07-.67,1.3-1.34,2.6-2.02,3.9-1.1,2.16-2.22,4.31-3.35,6.47-.38.73-.76,1.46-1.15,2.19-1.32,2.52-2.64,5.03-3.98,7.54-.41.78-.83,1.57-1.25,2.34-1.25,2.36-2.52,4.72-3.79,7.07-.49.91-.98,1.82-1.47,2.73-1.29,2.38-2.58,4.75-3.89,7.12-2.22,4.06-4.47,8.12-6.73,12.16-.69,1.23-1.38,2.46-2.08,3.69-1.1,1.97-2.22,3.93-3.33,5.89-1.75,3.08-3.51,6.15-5.28,9.22-.41.71-.81,1.41-1.22,2.11-.15.26-.3.52-.45.78-1.16,1.99-2.32,3.98-3.48,5.97-.79,1.34-1.57,2.68-2.37,4.02-1.23,2.1-2.47,4.2-3.73,6.29-.3.52-.61,1.04-.92,1.55-1.65,2.77-3.31,5.53-4.98,8.29-.27.46-.55.91-.82,1.36-1.88,3.09-3.76,6.18-5.66,9.26-3.91,6.35-7.86,12.68-11.86,18.97-.22.35-.44.7-.66,1.04-1.86,2.92-3.73,5.84-5.61,8.75,0,.01,0,.02,0,.02-1.53,2.39-3.08,4.78-4.63,7.15-.09.14-.18.27-.27.41-1.05,1.62-2.11,3.24-3.18,4.85-.6.93-1.21,1.85-1.82,2.77-1.19,1.81-2.39,3.61-3.59,5.41-.95,1.43-1.9,2.85-2.86,4.27-.06.1-.13.19-.19.29-.95,1.41-1.9,2.83-2.85,4.24-1.94,2.87-3.89,5.73-5.84,8.58-2.08,3.04-4.17,6.06-6.27,9.08-2.05,2.96-4.11,5.9-6.19,8.84-.31.46-.63.91-.96,1.36-1.67,2.38-3.35,4.75-5.05,7.11-.59.83-1.18,1.67-1.78,2.5-1.88,2.63-3.78,5.25-5.68,7.86-2.19,3.03-4.39,6.04-6.6,9.04-.04.05-.07.09-.1.13-1.82,2.48-3.65,4.95-5.5,7.41-.6.81-1.2,1.63-1.81,2.44-1.02,1.36-2.04,2.72-3.07,4.07-1.04,1.39-2.08,2.78-3.13,4.16-2.5,3.29-5,6.58-7.53,9.85-1.03,1.33-2.06,2.66-3.09,3.99-.91,1.19-1.83,2.37-2.75,3.55-.4.52-.81,1.04-1.21,1.55-2.06,2.63-4.12,5.25-6.19,7.87-2.33,2.95-4.68,5.9-7.04,8.83-2.22,2.77-4.44,5.52-6.68,8.27-5.02,6.18-10.09,12.33-15.22,18.43-2.23,2.68-4.48,5.35-6.74,8.01-.11.14-.23.27-.34.4-2.37,2.78-4.74,5.56-7.12,8.32-1.81,2.11-3.63,4.21-5.46,6.31-.32.38-.65.75-.98,1.13-.75.87-1.51,1.73-2.26,2.59-2.04,2.33-4.09,4.66-6.15,6.99-2.25,2.54-4.51,5.08-6.78,7.61-.24.27-.48.54-.72.81-.21.24-.42.47-.63.7-4.65,5.18-9.34,10.34-14.06,15.46-2.2,2.38-4.4,4.76-6.61,7.12-1.27,1.37-2.54,2.73-3.83,4.09-1.42,1.51-2.84,3.02-4.27,4.52-.7.76-1.42,1.52-2.15,2.28-2,2.11-4.02,4.22-6.04,6.32-.4.43-.81.86-1.22,1.28-2.14,2.23-4.29,4.45-6.45,6.66-6.01,6.19-12.08,12.33-18.2,18.42-1.95,1.94-3.91,3.88-5.88,5.82-.27.27-.54.53-.81.8-2.68,2.64-5.37,5.27-8.07,7.89-2.44,2.38-4.9,4.75-7.36,7.11-.46.46-.93.9-1.4,1.34-.3.29-.6.57-.9.86-2.17,2.07-4.34,4.14-6.53,6.2-.05.07-.1.11-.15.14-2.72,2.58-5.45,5.14-8.19,7.69-2.75,2.57-5.51,5.13-8.28,7.67-2.77,2.55-5.55,5.09-8.34,7.61-2.67,2.43-5.35,4.84-8.04,7.25-.27.25-.55.5-.83.74-2.65,2.36-5.3,4.72-7.96,7.06-2.82,2.49-5.66,4.97-8.5,7.44-2.3,2.01-4.61,4.01-6.93,6-3.41,2.94-6.82,5.86-10.26,8.76-2.85,2.41-5.72,4.81-8.6,7.21-2.8,2.35-5.62,4.68-8.44,7.01-2.3,1.89-4.6,3.78-6.92,5.65-1.19.98-2.39,1.95-3.59,2.92-2.42,1.96-4.85,3.91-7.29,5.86-2.9,2.32-5.8,4.62-8.71,6.92-.05.04-.09.08-.14.11,8.5-33.46,15.33-67.57,20.41-102.24.88-5.98,1.71-11.98,2.47-18,3.08-23.97,5.31-48.21,6.67-72.67.34-5.99.62-11.99.85-18,.5-13.04.75-26.14.75-39.3,0-11.17-.18-22.29-.54-33.37-.19-6.01-.44-12.01-.74-18-1.22-24.45-3.31-48.68-6.25-72.66-.73-6.01-1.52-12.02-2.36-18-3.44-24.51-7.76-48.75-12.93-72.67-1.29-6.02-2.64-12.02-4.05-18-5.78-24.58-12.45-48.81-19.98-72.67-1.9-6.02-3.86-12.02-5.87-18-8.29-24.65-17.51-48.88-27.61-72.66-2.55-6.03-5.17-12.03-7.85-18-11.08-24.76-23.12-48.99-36.09-72.67-3.3-6.04-6.66-12.04-10.09-18-14.29-24.89-29.6-49.13-45.88-72.67-4.18-6.05-8.42-12.05-12.74-18-18.15-25.09-37.43-49.33-57.76-72.66-5.27-6.06-10.62-12.07-16.05-18-23.19-25.41-47.65-49.67-73.28-72.67-6.79-6.09-13.65-12.09-20.6-18-30.55-26-62.65-50.28-96.15-72.67-9.19-6.14-18.48-12.15-27.88-18-44.16-27.53-90.57-51.86-138.89-72.66-14.71-6.33-29.59-12.34-44.64-18-114.89-43.27-239.57-66.97-369.85-66.97s-254.96,23.7-369.85,66.97c-15.05,5.66-29.93,11.67-44.64,18-48.32,20.8-94.73,45.13-138.89,72.66-9.4,5.85-18.69,11.86-27.88,18-33.5,22.39-65.6,46.67-96.15,72.67-6.95,5.91-13.81,11.91-20.6,18-25.63,23-50.09,47.26-73.28,72.67-5.43,5.93-10.78,11.94-16.05,18-20.33,23.33-39.61,47.57-57.76,72.66-4.32,5.95-8.56,11.95-12.74,18-16.28,23.54-31.59,47.78-45.88,72.67-3.43,5.96-6.79,11.96-10.09,18-12.97,23.68-25.01,47.91-36.09,72.67-2.68,5.97-5.3,11.97-7.85,18-10.1,23.78-19.32,48.01-27.61,72.66-2.01,5.98-3.97,11.98-5.87,18-7.53,23.86-14.2,48.09-19.98,72.67-1.41,5.98-2.76,11.98-4.05,18-5.17,23.92-9.49,48.16-12.93,72.67-.84,5.98-1.63,11.99-2.36,18-2.94,23.98-5.03,48.21-6.25,72.66-.3,5.99-.55,11.99-.74,18-.36,11.08-.54,22.2-.54,33.37,0,13.16.25,26.26.75,39.3.23,6.01.51,12.01.85,18,1.36,24.46,3.6,48.7,6.68,72.67.76,6.02,1.58,12.02,2.47,18,5.07,34.68,11.9,68.78,20.4,102.25-.23-.18-.45-.35-.67-.53-2.73-2.16-5.46-4.32-8.18-6.5-2.35-1.88-4.69-3.76-7.03-5.66-1.41-1.13-2.81-2.27-4.21-3.41-.96-.78-1.92-1.56-2.88-2.36-1.5-1.22-3-2.45-4.49-3.68-2.55-2.1-5.1-4.21-7.63-6.33-2.88-2.4-5.75-4.81-8.61-7.22-3.58-3.03-7.16-6.08-10.71-9.15-2.11-1.81-4.21-3.63-6.31-5.46-.13-.11-.27-.22-.39-.34-2.71-2.35-5.41-4.71-8.1-7.09-.12-.1-.24-.2-.35-.31-2.31-2.03-4.61-4.07-6.9-6.13-3.27-2.9-6.51-5.82-9.75-8.76-2.72-2.46-5.43-4.93-8.13-7.42-5.26-4.83-10.48-9.69-15.67-14.59-1.43-1.35-2.86-2.7-4.28-4.06-1.01-.95-2.03-1.91-3.03-2.89-.13-.12-.25-.24-.38-.36-1.27-1.2-2.55-2.42-3.81-3.65-1.4-1.33-2.8-2.68-4.19-4.05-1.09-1.04-2.17-2.09-3.25-3.15-2.44-2.37-4.87-4.75-7.29-7.15-1.17-1.14-2.34-2.3-3.5-3.46-1.56-1.54-3.12-3.09-4.68-4.65-4.61-4.61-9.19-9.24-13.74-13.91-1.62-1.65-3.22-3.3-4.82-4.96-.93-.94-1.85-1.9-2.76-2.85-1.48-1.53-2.95-3.07-4.42-4.61-.86-.88-1.71-1.77-2.54-2.67-1.75-1.83-3.49-3.66-5.22-5.5-.35-.36-.69-.72-1.02-1.08-2.08-2.2-4.15-4.42-6.21-6.63-2.17-2.32-4.32-4.65-6.48-6.99-2.13-2.31-4.26-4.64-6.37-6.97-1.65-1.81-3.29-3.62-4.92-5.44-.68-.75-1.36-1.5-2.03-2.25-.21-.23-.42-.47-.63-.7-1-1.12-2-2.23-2.99-3.35-1.33-1.48-2.65-2.96-3.97-4.45-1.94-2.19-3.87-4.39-5.8-6.59-1.06-1.2-2.11-2.4-3.15-3.61-.77-.87-1.53-1.75-2.29-2.63-1.75-2.01-3.48-4.02-5.21-6.04-1.49-1.72-2.97-3.45-4.43-5.18-.95-1.1-1.88-2.2-2.82-3.31-1.13-1.33-2.25-2.66-3.37-4-1.26-1.49-2.52-2.99-3.77-4.49-4.19-5.01-8.34-10.04-12.46-15.09-1.04-1.28-2.08-2.55-3.11-3.83-1.65-2.03-3.29-4.05-4.92-6.09-.13-.16-.26-.33-.39-.49-2.28-2.84-4.55-5.69-6.81-8.55-1.71-2.16-3.42-4.32-5.11-6.5-1.02-1.29-2.03-2.58-3.04-3.88-.67-.86-1.34-1.73-2.01-2.59-.45-.58-.9-1.15-1.34-1.73-1.21-1.57-2.42-3.14-3.63-4.72-2.95-3.84-5.87-7.68-8.78-11.55-1.8-2.39-3.59-4.78-5.37-7.18-1.47-1.95-2.92-3.91-4.36-5.87-.8-1.07-1.59-2.15-2.37-3.23-1.43-1.93-2.84-3.87-4.25-5.81-.53-.72-1.06-1.45-1.57-2.17-1.57-2.16-3.14-4.32-4.68-6.49-.69-.95-1.38-1.91-2.05-2.86-1.26-1.75-2.5-3.5-3.74-5.26-.98-1.37-1.95-2.75-2.91-4.13-5.91-8.38-11.73-16.83-17.47-25.33-.98-1.44-1.95-2.89-2.92-4.33-.06-.1-.13-.19-.19-.29-.96-1.42-1.91-2.84-2.86-4.27-1.2-1.8-2.4-3.6-3.59-5.41-.61-.92-1.22-1.84-1.82-2.77-1.12-1.69-2.22-3.38-3.32-5.07-.04-.06-.08-.13-.12-.19-1.15-1.75-2.29-3.49-3.41-5.25-.64-.98-1.28-1.96-1.9-2.94-1.61-2.49-3.21-4.98-4.79-7.48-.28-.44-.56-.87-.83-1.31-1.97-3.09-3.93-6.2-5.87-9.31-2.01-3.2-4-6.42-5.98-9.64-1.74-2.82-3.47-5.65-5.19-8.48-.81-1.33-1.61-2.66-2.41-4-1.08-1.78-2.16-3.56-3.22-5.35-.97-1.62-1.94-3.24-2.9-4.87-.53-.88-1.05-1.76-1.56-2.64-1.21-2.04-2.41-4.08-3.61-6.13-1.03-1.75-2.05-3.51-3.06-5.27-.07-.13-.15-.25-.22-.38-.51-.85-1-1.71-1.49-2.57-1.38-2.38-2.75-4.75-4.1-7.14-1.51-2.63-3-5.27-4.49-7.91-.69-1.23-1.38-2.46-2.07-3.69-1.6-2.87-3.2-5.73-4.78-8.61-1.06-1.9-2.1-3.81-3.14-5.72-.75-1.36-1.49-2.72-2.23-4.09-.94-1.72-1.87-3.44-2.79-5.17-.77-1.4-1.52-2.81-2.26-4.22-.87-1.6-1.72-3.21-2.57-4.82-.84-1.56-1.66-3.12-2.48-4.69-.84-1.6-1.68-3.2-2.52-4.8-.63-1.2-1.25-2.41-1.87-3.61-1.11-2.13-2.21-4.26-3.3-6.39-2.87-5.6-5.71-11.21-8.52-16.86-.13-.25-.25-.51-.38-.76-1.47-2.95-2.93-5.9-4.37-8.85-1.04-2.12-2.07-4.23-3.09-6.35-.34-.68-.67-1.36-.99-2.04-.43-.88-.86-1.76-1.28-2.65-.71-1.47-1.42-2.95-2.12-4.43-.66-1.36-1.31-2.73-1.94-4.1-.97-2.02-1.92-4.05-2.87-6.08-.46-.98-.92-1.96-1.37-2.94-1.12-2.37-2.22-4.75-3.31-7.13-2.76-6-5.48-12.01-8.17-18.04s-5.34-12.08-7.95-18.15c-1.17-2.7-2.32-5.4-3.47-8.11-.15-.34-.29-.68-.44-1.03-.11-.26-.22-.53-.33-.79-1.17-2.75-2.33-5.51-3.47-8.28-.03-.04-.05-.09-.07-.15-1.22-2.92-2.43-5.85-3.63-8.78-.02-.05-.04-.1-.06-.15-.06-.15-.12-.3-.18-.45-3.72-9.09-7.36-18.22-10.92-27.39-.74-1.91-1.48-3.82-2.2-5.73-.58-1.49-1.15-2.98-1.72-4.47-.87-2.29-1.73-4.59-2.59-6.89-.3-.78-.6-1.57-.88-2.36-.79-2.08-1.56-4.17-2.33-6.26-.53-1.42-1.05-2.85-1.57-4.28-.89-2.43-1.78-4.87-2.65-7.31-.89-2.46-1.76-4.92-2.64-7.38-.24-.67-.47-1.34-.71-2.01-1.11-3.14-2.2-6.27-3.29-9.42-.76-2.19-1.51-4.38-2.26-6.57-.38-1.11-.76-2.23-1.14-3.35-1.23-3.64-2.45-7.29-3.66-10.94-1.01-3.04-2-6.08-2.99-9.13-.69-2.14-1.38-4.28-2.06-6.42-.27-.83-.54-1.67-.8-2.51-.73-2.26-1.44-4.54-2.15-6.81-.55-1.73-1.08-3.46-1.61-5.19-.47-1.49-.93-2.97-1.38-4.46-.49-1.6-.98-3.21-1.46-4.82-.66-2.14-1.3-4.29-1.94-6.44-1.24-4.14-2.46-8.29-3.66-12.45-.01-.05-.03-.1-.04-.15-.77-2.64-1.52-5.29-2.28-7.94-.95-3.35-1.89-6.7-2.81-10.06-.11-.37-.21-.74-.31-1.11-.99-3.55-1.96-7.12-2.91-10.69-.13-.44-.25-.89-.36-1.33-.88-3.27-1.75-6.55-2.6-9.84-.08-.29-.16-.58-.23-.87-.95-3.65-1.89-7.3-2.81-10.96-.9-3.56-1.79-7.12-2.66-10.68-.13-.52-.26-1.03-.39-1.55-.84-3.46-1.68-6.92-2.5-10.39-.2-.81-.39-1.61-.57-2.42-.44-1.84-.87-3.69-1.3-5.53-.57-2.43-1.12-4.86-1.67-7.29-1.07-4.67-2.11-9.34-3.13-14.03-.29-1.32-.57-2.64-.86-3.97-.26-1.21-.52-2.42-.77-3.63-.22-1-.43-2-.64-3-.41-1.91-.81-3.82-1.2-5.73-.35-1.7-.7-3.4-1.05-5.1-.05-.21-.09-.42-.13-.63-.5-2.47-1-4.94-1.49-7.42-.72-3.6-1.42-7.21-2.11-10.82-.43-2.23-.85-4.46-1.27-6.69-.24-1.28-.48-2.56-.71-3.84-.15-.8-.3-1.6-.44-2.4-.31-1.66-.61-3.32-.91-4.99-.6-3.31-1.18-6.63-1.76-9.96-.33-1.93-.67-3.86-.99-5.79-.15-.89-.3-1.78-.45-2.67-.53-3.15-1.05-6.3-1.56-9.47-.29-1.76-.57-3.53-.85-5.29-.17-1.08-.34-2.16-.51-3.24-.19-1.17-.37-2.34-.55-3.52-.17-1.11-.34-2.22-.51-3.33-.42-2.76-.84-5.53-1.24-8.3-.39-2.62-.77-5.25-1.14-7.88-.2-1.43-.4-2.86-.6-4.29-.33-2.39-.66-4.78-.98-7.18-.07-.47-.13-.94-.19-1.42-.32-2.38-.63-4.77-.94-7.16-.02-.15-.04-.3-.06-.46-.17-1.31-.34-2.61-.5-3.92-.33-2.61-.66-5.22-.97-7.84-.04-.31-.08-.63-.11-.95-.34-2.74-.67-5.48-.98-8.22-.31-2.73-.63-5.46-.92-8.2-.02-.14-.03-.28-.05-.42-.21-1.83-.4-3.66-.6-5.49-.31-2.93-.62-5.86-.91-8.8-.11-1.1-.22-2.19-.33-3.29-.14-1.37-.27-2.73-.4-4.1-.26-2.6-.51-5.21-.74-7.82-.18-1.92-.35-3.84-.52-5.76-.22-2.39-.42-4.79-.62-7.2-.11-1.28-.21-2.55-.31-3.83-.56-6.75-1.07-13.51-1.53-20.28-.18-2.53-.35-5.06-.51-7.6-.19-2.99-.38-5.99-.55-9-.12-1.99-.23-3.99-.34-5.99-.02-.36-.04-.72-.06-1.08-.09-1.64-.18-3.28-.26-4.92-.06-1.2-.13-2.4-.18-3.61-.13-2.54-.25-5.09-.36-7.63-.03-.61-.05-1.23-.08-1.84-.12-2.8-.24-5.6-.34-8.41-.01-.12-.02-.25-.02-.38-.1-2.73-.2-5.46-.29-8.2-.01-.17-.01-.34-.02-.51-.04-1.21-.08-2.43-.11-3.65-.08-2.64-.16-5.27-.23-7.91,0-.21-.01-.43-.01-.64-.07-2.82-.14-5.64-.19-8.47-.07-3.28-.13-6.57-.17-9.86-.02-1.46-.04-2.92-.06-4.38,0-.28-.01-.56-.01-.85-.03-2.41-.05-4.83-.07-7.24v-1.39c-.02-3.19-.03-6.38-.03-9.57v-508.97h250.6v211.18h250.54v-211.18h250.44v211.18h250.72v-211.18h250.71v211.18h250.71v-211.18h250.17v211.18h251.14v-211.18h250.28v211.18h251.15v-211.18h249.62l-.11,211.18h251.47v-211.18h250.6Z"/>
    <g>
      <g>
        <path class="cls-7" d="m741.54,2730.45c-3.43,5.96-6.79,11.96-10.09,18H109.21c-.24-.67-.47-1.34-.71-2.01-1.11-3.14-2.2-6.27-3.29-9.42-.76-2.19-1.51-4.38-2.26-6.57h638.59Z"/>
        <path class="cls-7" d="m3187.56,2730.45c-.52,1.56-1.06,3.12-1.6,4.67-.21.64-.43,1.27-.65,1.9-.92,2.67-1.85,5.34-2.79,8-.2.57-.4,1.14-.6,1.7-.2.58-.41,1.15-.62,1.73h-622.23c-3.3-6.04-6.66-12.04-10.09-18h638.58Z"/>
        <path class="cls-7" d="m695.36,2821.12c-2.68,5.97-5.3,11.97-7.85,18H144.45c-.11-.26-.22-.53-.33-.79-1.17-2.75-2.33-5.51-3.47-8.28-.03-.04-.05-.09-.07-.15-1.22-2.92-2.43-5.85-3.63-8.78h558.41Z"/>
        <path class="cls-7" d="m3153.56,2821.12s-.01.04-.02.06c-1.19,2.91-2.39,5.82-3.6,8.72-.02.06-.04.11-.07.15-1.14,2.77-2.3,5.53-3.47,8.28-.11.26-.22.53-.33.79h-543.06c-2.55-6.03-5.17-12.03-7.85-18h558.4Z"/>
        <path class="cls-7" d="m659.9,2911.78c-2.01,5.98-3.97,11.98-5.87,18H186.2c-.13-.25-.25-.51-.38-.76-1.47-2.95-2.93-5.9-4.37-8.85-1.04-2.12-2.07-4.23-3.09-6.35-.34-.68-.67-1.36-.99-2.04h482.53Z"/>
        <path class="cls-7" d="m3113.16,2911.78c-.52,1.07-1.04,2.15-1.57,3.22-.77,1.59-1.54,3.18-2.32,4.77-1.51,3.09-3.04,6.17-4.57,9.25-.13.25-.25.51-.38.76h-467.83c-1.9-6.02-3.86-12.02-5.87-18h482.54Z"/>
        <path class="cls-7" d="m634.05,3002.45c-1.41,5.98-2.76,11.98-4.05,18H235.03c-.07-.13-.15-.25-.22-.38-.51-.85-1-1.71-1.49-2.57-1.38-2.38-2.75-4.75-4.1-7.14-1.51-2.63-3-5.27-4.49-7.91h409.32Z"/>
        <path class="cls-7" d="m3065.78,3002.45c-1.1,1.97-2.22,3.93-3.33,5.89-1.75,3.08-3.51,6.15-5.28,9.22-.41.71-.81,1.41-1.22,2.11-.15.26-.3.52-.45.78h-394.98c-1.29-6.02-2.64-12.02-4.05-18h409.31Z"/>
        <path class="cls-7" d="m617.07,3093.12c-.84,5.98-1.63,11.99-2.36,18h-323.05c-.06-.1-.13-.19-.19-.29-.96-1.42-1.91-2.84-2.86-4.27-1.2-1.8-2.4-3.6-3.59-5.41-.61-.92-1.22-1.84-1.82-2.77-1.12-1.69-2.22-3.38-3.32-5.07-.04-.06-.08-.13-.12-.19h337.31Z"/>
        <path class="cls-7" d="m3010.77,3093.12c-.09.14-.18.27-.27.41-1.05,1.62-2.11,3.24-3.18,4.85-.6.93-1.21,1.85-1.82,2.77-1.19,1.81-2.39,3.61-3.59,5.41-.95,1.43-1.9,2.85-2.86,4.27-.06.1-.13.19-.19.29h-323.05c-.73-6.01-1.52-12.02-2.36-18h337.32Z"/>
        <path class="cls-7" d="m608.46,3183.78c-.3,5.99-.55,11.99-.74,18h-250.62c-.45-.58-.9-1.15-1.34-1.73-1.21-1.57-2.42-3.14-3.63-4.72-2.95-3.84-5.87-7.68-8.78-11.55h265.11Z"/>
        <path class="cls-7" d="m2947.16,3183.78c-1.04,1.39-2.08,2.78-3.13,4.16-2.5,3.29-5,6.58-7.53,9.85-1.03,1.33-2.06,2.66-3.09,3.99h-250.61c-.19-6.01-.44-12.01-.74-18h265.1Z"/>
        <path class="cls-7" d="m608.78,3292.45h-176.03c-1-1.12-2-2.23-2.99-3.35-1.33-1.48-2.65-2.96-3.97-4.45-1.94-2.19-3.87-4.39-5.8-6.59-1.06-1.2-2.11-2.4-3.15-3.61h191.09c.23,6.01.51,12.01.85,18Z"/>
        <path class="cls-7" d="m2873.68,3274.45c-.75.87-1.51,1.73-2.26,2.59-2.04,2.33-4.09,4.66-6.15,6.99-2.25,2.54-4.51,5.08-6.78,7.61-.24.27-.48.54-.72.81h-176.03c.34-5.99.62-11.99.85-18h191.09Z"/>
        <path class="cls-7" d="m617.93,3383.12h-97.3c-1.27-1.2-2.55-2.42-3.81-3.65-1.4-1.33-2.8-2.68-4.19-4.05-1.09-1.04-2.17-2.09-3.25-3.15-2.44-2.37-4.87-4.75-7.29-7.15h113.37c.76,6.02,1.58,12.02,2.47,18Z"/>
        <path class="cls-7" d="m2788.43,3365.12c-.27.27-.54.53-.81.8-2.68,2.64-5.37,5.27-8.07,7.89-2.44,2.38-4.9,4.75-7.36,7.11-.46.46-.93.9-1.4,1.34-.3.29-.6.57-.9.86h-97.29c.88-5.98,1.71-11.98,2.47-18h113.36Z"/>
        <rect class="cls-7" x="16.36" y="2005.12" width="3258.04" height="18"/>
        <rect class="cls-7" x="16.12" y="2095.78" width="3258.04" height="18"/>
        <rect class="cls-7" x="16.36" y="2186.45" width="3258.04" height="18"/>
        <path class="cls-7" d="m17.79,2277.12h1257.62c-15.05,5.66-29.93,11.67-44.64,18H18.67l-.88-18Z"/>
        <path class="cls-7" d="m3272.73,2277.12h-1257.62c15.05,5.66,29.93,11.67,44.64,18h1212.1l.88-18Z"/>
        <path class="cls-7" d="m1091.88,2367.78c-9.4,5.85-18.69,11.86-27.88,18H26.14c-.02-.14-.03-.28-.05-.42-.21-1.83-.4-3.66-.6-5.49-.31-2.93-.62-5.86-.91-8.8-.11-1.1-.22-2.19-.33-3.29h1067.63Z"/>
        <path class="cls-7" d="m3266.28,2367.78c-.11,1.09-.22,2.19-.34,3.29-.29,2.94-.6,5.87-.91,8.8-.2,1.83-.39,3.66-.6,5.49-.02.14-.03.28-.05.42h-1037.86c-9.19-6.14-18.48-12.15-27.88-18h1067.64Z"/>
        <path class="cls-7" d="m967.85,2458.45c-6.95,5.91-13.81,11.91-20.6,18H38.75c-.53-3.15-1.05-6.3-1.56-9.47-.29-1.76-.57-3.53-.85-5.29-.17-1.08-.34-2.16-.51-3.24h932.02Z"/>
        <path class="cls-7" d="m3254.69,2458.45c-.17,1.08-.34,2.16-.51,3.24-.28,1.76-.56,3.53-.85,5.29-.51,3.17-1.03,6.32-1.56,9.47h-908.5c-6.79-6.09-13.65-12.09-20.6-18h932.02Z"/>
        <path class="cls-7" d="m873.97,2549.12c-5.43,5.93-10.78,11.94-16.05,18H56.66c-1.07-4.67-2.11-9.34-3.13-14.03-.29-1.32-.57-2.64-.86-3.97h821.3Z"/>
        <path class="cls-7" d="m3237.85,2549.12c-.29,1.33-.57,2.65-.86,3.97-1.02,4.69-2.06,9.36-3.13,14.03h-801.26c-5.27-6.06-10.62-12.07-16.05-18h821.3Z"/>
        <path class="cls-7" d="m800.16,2639.78c-4.32,5.95-8.56,11.95-12.74,18H80.06c-.77-2.64-1.52-5.29-2.28-7.94-.95-3.35-1.89-6.7-2.81-10.06h725.19Z"/>
        <path class="cls-7" d="m3215.55,2639.78c-.92,3.36-1.86,6.71-2.81,10.06-.76,2.65-1.51,5.3-2.28,7.94h-707.36c-4.18-6.05-8.42-12.05-12.74-18h725.19Z"/>
      </g>
      <g>
        <rect class="cls-7" x="168.37" y="2014.12" width="18" height="90.67"/>
        <rect class="cls-7" x="321.49" y="2014.12" width="18" height="90.67"/>
        <rect class="cls-7" x="91.81" y="2104.79" width="18" height="90.67"/>
        <rect class="cls-7" x="244.93" y="2104.79" width="18" height="90.67"/>
        <rect class="cls-7" x="484.48" y="2014.12" width="18" height="90.67"/>
        <rect class="cls-7" x="637.6" y="2014.12" width="18" height="90.67"/>
        <rect class="cls-7" x="407.92" y="2104.79" width="18" height="90.67"/>
        <rect class="cls-7" x="561.04" y="2104.79" width="18" height="90.67"/>
        <rect class="cls-7" x="805.73" y="2014.12" width="18" height="90.67"/>
        <rect class="cls-7" x="958.85" y="2014.12" width="18" height="90.67"/>
        <rect class="cls-7" x="729.17" y="2104.79" width="18" height="90.67"/>
        <rect class="cls-7" x="882.29" y="2104.79" width="18" height="90.67"/>
        <rect class="cls-7" x="1120.67" y="2014.12" width="18" height="90.67"/>
        <rect class="cls-7" x="1273.79" y="2014.12" width="18" height="90.67"/>
        <rect class="cls-7" x="1044.11" y="2104.79" width="18" height="90.67"/>
        <rect class="cls-7" x="1197.23" y="2104.79" width="18" height="90.67"/>
        <rect class="cls-7" x="1436.78" y="2014.12" width="18" height="90.67"/>
        <rect class="cls-7" x="1589.9" y="2014.12" width="18" height="90.67"/>
        <rect class="cls-7" x="1360.22" y="2104.79" width="18" height="90.67"/>
        <rect class="cls-7" x="1513.34" y="2104.79" width="18" height="90.67"/>
        <rect class="cls-7" x="1758.03" y="2014.12" width="18" height="90.67"/>
        <rect class="cls-7" x="1911.15" y="2014.12" width="18" height="90.67"/>
        <rect class="cls-7" x="1681.47" y="2104.79" width="18" height="90.67"/>
        <rect class="cls-7" x="1834.59" y="2104.79" width="18" height="90.67"/>
        <rect class="cls-7" x="2064.03" y="2014.12" width="18" height="90.67"/>
        <rect class="cls-7" x="2217.15" y="2014.12" width="18" height="90.67"/>
        <rect class="cls-7" x="1987.47" y="2104.78" width="18" height="90.67"/>
        <rect class="cls-7" x="2140.59" y="2104.78" width="18" height="90.67"/>
        <rect class="cls-7" x="2380.14" y="2014.12" width="18" height="90.67"/>
        <rect class="cls-7" x="2533.26" y="2014.12" width="18" height="90.67"/>
        <rect class="cls-7" x="2303.58" y="2104.78" width="18" height="90.67"/>
        <rect class="cls-7" x="2456.7" y="2104.78" width="18" height="90.67"/>
        <rect class="cls-7" x="2701.39" y="2014.12" width="18" height="90.67"/>
        <rect class="cls-7" x="2854.51" y="2014.12" width="18" height="90.67"/>
        <rect class="cls-7" x="2624.83" y="2104.79" width="18" height="90.67"/>
        <rect class="cls-7" x="2777.95" y="2104.79" width="18" height="90.67"/>
        <rect class="cls-7" x="3019.66" y="2020.04" width="18" height="90.67"/>
        <rect class="cls-7" x="3172.78" y="2020.04" width="18" height="90.67"/>
        <rect class="cls-7" x="2943.1" y="2110.71" width="18" height="90.67"/>
        <rect class="cls-7" x="3096.22" y="2110.71" width="18" height="90.67"/>
        <rect class="cls-7" x="174.15" y="2192.49" width="18" height="90.67"/>
        <rect class="cls-7" x="327.27" y="2192.49" width="18" height="90.67"/>
        <rect class="cls-7" x="97.59" y="2283.16" width="18" height="90.67"/>
        <rect class="cls-7" x="250.71" y="2283.16" width="18" height="90.67"/>
        <rect class="cls-7" x="490.26" y="2192.49" width="18" height="90.67"/>
        <rect class="cls-7" x="643.38" y="2192.49" width="18" height="90.67"/>
        <rect class="cls-7" x="413.7" y="2283.16" width="18" height="90.67"/>
        <rect class="cls-7" x="566.82" y="2283.16" width="18" height="90.67"/>
        <rect class="cls-7" x="811.51" y="2192.49" width="18" height="90.67"/>
        <rect class="cls-7" x="964.63" y="2192.49" width="18" height="90.67"/>
        <rect class="cls-7" x="734.95" y="2283.16" width="18" height="90.67"/>
        <rect class="cls-7" x="888.07" y="2283.16" width="18" height="90.67"/>
        <rect class="cls-7" x="1126.44" y="2192.49" width="18" height="90.67"/>
        <polygon class="cls-7" points="1297.56 2270.34 1279.56 2283.16 1279.56 2192.49 1297.56 2192.49 1297.56 2270.34"/>
        <rect class="cls-7" x="1049.88" y="2283.16" width="18" height="90.67"/>
        <rect class="cls-7" x="2069.81" y="2192.49" width="18" height="90.67"/>
        <rect class="cls-7" x="2222.93" y="2192.49" width="18" height="90.67"/>
        <rect class="cls-7" x="2385.92" y="2192.49" width="18" height="90.67"/>
        <rect class="cls-7" x="2539.04" y="2192.49" width="18" height="90.67"/>
        <rect class="cls-7" x="2309.36" y="2283.16" width="18" height="90.67"/>
        <rect class="cls-7" x="2462.48" y="2283.16" width="18" height="90.67"/>
        <rect class="cls-7" x="2707.17" y="2192.49" width="18" height="90.67"/>
        <rect class="cls-7" x="2860.29" y="2192.49" width="18" height="90.67"/>
        <rect class="cls-7" x="2630.61" y="2283.16" width="18" height="90.67"/>
        <rect class="cls-7" x="2783.73" y="2283.16" width="18" height="90.67"/>
        <rect class="cls-7" x="3025.44" y="2198.42" width="18" height="90.67"/>
        <rect class="cls-7" x="3178.56" y="2198.42" width="18" height="90.67"/>
        <rect class="cls-7" x="2948.88" y="2289.08" width="18" height="90.67"/>
        <rect class="cls-7" x="3102" y="2289.08" width="18" height="90.67"/>
        <rect class="cls-7" x="168.37" y="2373.72" width="18" height="90.67"/>
        <rect class="cls-7" x="321.49" y="2373.72" width="18" height="90.67"/>
        <rect class="cls-7" x="91.81" y="2464.38" width="18" height="90.67"/>
        <rect class="cls-7" x="244.93" y="2464.38" width="18" height="90.67"/>
        <rect class="cls-7" x="484.48" y="2373.72" width="18" height="90.67"/>
        <rect class="cls-7" x="637.6" y="2373.72" width="18" height="90.67"/>
        <rect class="cls-7" x="407.92" y="2464.38" width="18" height="90.67"/>
        <rect class="cls-7" x="561.04" y="2464.38" width="18" height="90.67"/>
        <rect class="cls-7" x="805.73" y="2373.72" width="18" height="90.67"/>
        <rect class="cls-7" x="958.85" y="2373.72" width="18" height="90.67"/>
        <rect class="cls-7" x="729.17" y="2464.38" width="18" height="90.67"/>
        <rect class="cls-7" x="2380.14" y="2373.72" width="18" height="90.67"/>
        <rect class="cls-7" x="2533.26" y="2373.72" width="18" height="90.67"/>
        <rect class="cls-7" x="2456.7" y="2464.38" width="18" height="90.67"/>
        <rect class="cls-7" x="2701.39" y="2373.72" width="18" height="90.67"/>
        <rect class="cls-7" x="2854.51" y="2373.72" width="18" height="90.67"/>
        <rect class="cls-7" x="2624.83" y="2464.38" width="18" height="90.67"/>
        <rect class="cls-7" x="2777.95" y="2464.38" width="18" height="90.67"/>
        <rect class="cls-7" x="3019.66" y="2379.64" width="18" height="90.67"/>
        <rect class="cls-7" x="3172.78" y="2379.64" width="18" height="90.67"/>
        <rect class="cls-7" x="2943.1" y="2470.31" width="18" height="90.67"/>
        <rect class="cls-7" x="3096.22" y="2470.31" width="18" height="90.67"/>
        <rect class="cls-7" x="174.15" y="2552.09" width="18" height="90.67"/>
        <rect class="cls-7" x="327.27" y="2552.09" width="18" height="90.67"/>
        <rect class="cls-7" x="250.71" y="2642.76" width="18" height="90.67"/>
        <rect class="cls-7" x="490.26" y="2552.09" width="18" height="90.67"/>
        <rect class="cls-7" x="643.38" y="2552.09" width="18" height="90.67"/>
        <rect class="cls-7" x="413.7" y="2642.76" width="18" height="90.67"/>
        <rect class="cls-7" x="566.82" y="2642.76" width="18" height="90.67"/>
        <rect class="cls-7" x="2539.04" y="2552.09" width="18" height="90.67"/>
        <rect class="cls-7" x="2707.17" y="2552.09" width="18" height="90.67"/>
        <rect class="cls-7" x="2860.29" y="2552.09" width="18" height="90.67"/>
        <rect class="cls-7" x="2630.61" y="2642.76" width="18" height="90.67"/>
        <rect class="cls-7" x="2783.73" y="2642.76" width="18" height="90.67"/>
        <rect class="cls-7" x="3025.44" y="2558.01" width="18" height="90.67"/>
        <rect class="cls-7" x="3178.56" y="2558.01" width="18" height="90.67"/>
        <rect class="cls-7" x="2948.88" y="2648.68" width="18" height="90.67"/>
        <rect class="cls-7" x="3102" y="2648.68" width="18" height="90.67"/>
        <rect class="cls-7" x="168.37" y="2742.51" width="18" height="90.67"/>
        <rect class="cls-7" x="321.49" y="2742.51" width="18" height="90.67"/>
        <rect class="cls-7" x="244.93" y="2833.18" width="18" height="90.67"/>
        <rect class="cls-7" x="484.48" y="2742.51" width="18" height="90.67"/>
        <rect class="cls-7" x="637.6" y="2742.51" width="18" height="90.67"/>
        <rect class="cls-7" x="407.92" y="2833.18" width="18" height="90.67"/>
        <rect class="cls-7" x="561.04" y="2833.18" width="18" height="90.67"/>
        <rect class="cls-7" x="2701.39" y="2742.51" width="18" height="90.67"/>
        <rect class="cls-7" x="2854.51" y="2742.51" width="18" height="90.67"/>
        <rect class="cls-7" x="2777.95" y="2833.18" width="18" height="90.67"/>
        <rect class="cls-7" x="3019.66" y="2748.44" width="18" height="90.67"/>
        <rect class="cls-7" x="2943.1" y="2839.1" width="18" height="90.67"/>
        <rect class="cls-7" x="3096.22" y="2839.1" width="18" height="90.67"/>
        <rect class="cls-7" x="327.27" y="2920.88" width="18" height="90.67"/>
        <rect class="cls-7" x="490.26" y="2920.88" width="18" height="90.67"/>
        <rect class="cls-7" x="413.7" y="3011.55" width="18" height="90.67"/>
        <rect class="cls-7" x="566.82" y="3011.55" width="18" height="90.67"/>
        <rect class="cls-7" x="2707.17" y="2920.88" width="18" height="90.67"/>
        <rect class="cls-7" x="2860.29" y="2920.88" width="18" height="90.67"/>
        <rect class="cls-7" x="2783.73" y="3011.55" width="18" height="90.67"/>
        <rect class="cls-7" x="3025.44" y="2926.81" width="18" height="90.67"/>
        <rect class="cls-7" x="2948.88" y="3017.48" width="18" height="90.67"/>
        <rect class="cls-7" x="484.48" y="3102.11" width="18" height="90.67"/>
        <rect class="cls-7" x="407.92" y="3192.78" width="18" height="90.67"/>
        <rect class="cls-7" x="561.04" y="3192.78" width="18" height="90.67"/>
        <rect class="cls-7" x="2854.51" y="3102.11" width="18" height="90.67"/>
        <rect class="cls-7" x="2777.95" y="3192.78" width="18" height="90.67"/>
        <rect class="cls-7" x="490.26" y="3280.48" width="18" height="90.67"/>
      </g>
    </g>
  </g>
</svg>