<?xml version="1.0" encoding="UTF-8"?>
<svg id="Ebene_1" data-name="Ebene 1" xmlns="http://www.w3.org/2000/svg" viewBox="0 0 4739.37 1118.88">
  <defs>
    <style>
      .cls-1 {
        fill: #0470b5;
      }

      .cls-1, .cls-2, .cls-3, .cls-4 {
        stroke-width: 0px;
      }

      .cls-2 {
        fill: #249d38;
      }

      .cls-3 {
        fill: #9c4956;
      }

      .cls-4 {
        fill: #e20721;
      }
    </style>
  </defs>
  <path class="cls-4" d="m2060.1,57.05c97.61,0,177.27,34.23,239,102.63,61.72,68.43,84.44,159.11,68.18,272.01-15.32,105.28-60.53,189.25-135.65,251.91-75.14,62.69-172.03,94.02-290.67,94.02h-114.83l-50.53,284.21h-285.69L1668.16,57.05h391.93Zm24.06,360.29c4.78-26.78-.49-47.12-15.79-61-15.32-13.86-33.98-20.81-55.98-20.81h-107.66l-29.09,163.64h115.21c22,0,42.1-7.4,60.29-22.25,18.17-14.83,29.18-34.67,33.01-59.57Z"/>
  <path class="cls-2" d="m2754.21,1084.8c-109.09,0-196.9-22.25-263.4-66.75-66.52-44.5-111.74-106.44-135.65-185.89l248.33-127.75c30.61,76.57,88.99,114.83,175.12,114.83,67.94,0,105.26-17.7,111.96-53.11,1.91-11.48,0-21.53-5.74-30.14-5.74-8.61-15.79-16.26-30.15-22.97-14.35-6.68-27.77-12.42-40.19-17.22-12.45-4.78-29.92-10.52-52.39-17.22-22.5-6.68-39.97-11.95-52.39-15.79-177.99-62.19-253.13-172.25-225.36-330.14,16.26-89.94,60.29-162.2,132.06-216.75,71.77-54.54,159.33-81.82,262.68-81.82,86.13,0,159.8,20.1,221.05,60.29,61.23,40.19,107.65,98.1,139.23,173.68l-242.58,129.19c-24.9-65.06-70.34-97.61-136.37-97.61-49.77,0-78.48,17.22-86.12,51.67-3.84,21.06,4.78,38.29,25.84,51.68,21.04,13.41,64.1,31.11,129.19,53.11,41.13,13.41,75.36,27.05,102.63,40.91,27.28,13.88,55.02,33.26,83.26,58.13,28.21,24.9,47.37,56.95,57.41,96.17,10.05,39.25,10.77,85.18,2.15,137.8-17.22,97.61-62.44,171.31-135.65,221.05-73.21,49.77-168.19,74.64-284.93,74.64Z"/>
  <path class="cls-1" d="m3383.76,1061.83l-94.15-1004.79h293.05l45.71,552.63L3887.7,57.05h226.39l65.92,552.18,242.14-552.18h317.23l-460.74,1004.79h-287.1l-64.14-536.84-256.51,536.84h-287.1Z"/>
  <path class="cls-3" d="m366.78,672.35c-91.95-34.47-176.34-92.88-243.14-174.21C56.82,416.8,15.95,322.68,0,225.78,165.28,90.02,383.34,61.3,570.19,131.34c-165.28,135.77-235.83,344.11-203.41,541.02Z"/>
  <path class="cls-3" d="m733.57,1118.88c-91.95-34.47-176.32-92.86-243.12-174.18-66.8-81.32-107.72-175.45-123.67-272.34,186.86,70.04,404.91,41.32,570.19-94.44,32.44,196.88-38.13,405.2-203.41,540.97Z"/>
  <path class="cls-4" d="m570.19,131.34c-165.28,135.77-235.83,344.11-203.41,541.02-91.95-34.47-176.34-92.88-243.14-174.21C56.82,416.8,15.95,322.68,0,225.78,165.28,90.02,383.34,61.3,570.19,131.34Z"/>
  <path class="cls-4" d="m937,577.89l-.02.02c-15.95-96.89-56.82-191.02-123.64-272.36-66.8-81.32-151.19-139.74-243.14-174.21C735.48-4.43,953.53-33.15,1140.39,36.89c32.42,196.9-38.11,405.23-203.39,541Z"/>
  <path class="cls-1" d="m937,577.89l-.02.02c-15.95-96.89-56.82-191.02-123.64-272.36-66.8-81.32-151.19-139.74-243.14-174.21C735.48-4.43,953.53-33.15,1140.39,36.89c32.42,196.9-38.11,405.23-203.39,541Z"/>
  <path class="cls-2" d="m733.57,1118.88c-91.95-34.47-176.32-92.86-243.12-174.18-66.8-81.32-107.72-175.45-123.67-272.34,186.86,70.04,404.91,41.32,570.19-94.44,32.44,196.88-38.13,405.2-203.41,540.97Z"/>
</svg>