<?xml version="1.0" encoding="UTF-8"?>
<svg id="Ebene_1" data-name="Ebene 1" xmlns="http://www.w3.org/2000/svg" viewBox="0 0 2695.54 4857.85">
  <defs>
    <style>
      .cls-1 {
        stroke-width: 0px;
      }
    </style>
  </defs>
  <g id="pferd">
    <path id="koerper" class="cls-1" d="m1316.35,176.74c-15.71,44.45,4.85,88.98,15.68,131.81-28.85,4.35-65.11,15.84-88.58-8.9-37.07-42.16-22.15-103.37-13.99-153.43-201.54,31.83-406.25,54.77-610.32,34.75,57.32,67.49,134.26,113.87,213.19,151.73-160.82,35.28-325.73,110.26-417.47,253.45,71.05,34.74,147.09,57.92,224.21,74.59-126.37,108.2-180.11,277.16-311.52,380.18,126.27,30.79,259.12,34.63,383.99-5.09-56.62,103.02-122.42,206.41-225.48,268.71,120.69,55.6,249.8,89.61,378.9,119.1-37.91,61.03-80.55,120.19-136.47,166.14,83.51,5.41,164.88,25.38,242.43,56.37,5.96,92.28,9.78,186.34-11.02,277.19-41.43,176.53-144.09,334.16-270.83,461.55-162.03,131-347.99,273.21-391.62,489.52-30.21,194.89,83.93,372.12,196.66,520.04,10.35,191.62-62.84,372.73-153.43,537.42,94.27,219.32,188.73,447,194.54,689.15,28.96,14.56,65.37,27.22,72.47,63.57,4.67,46.93,1.17,94.4,1.27,141.56,114.62,33.3,239.54,48.77,353.47,3.81-20.81-84.88-65.37-193.94-164.45-205.13-58.03-13.62-79.14-83.48-58.91-134.78-62.73-118.3-131.84-237.38-155.97-370.85-18.87-86.89,10.76-178.96,65.69-247.09,87.68-110.49,202.1-195.16,309.4-285.24,63.72-51.31,91.48-132,112.74-208.1,30.71-123.57,43.08-251.35,43.65-378.48-5.57-72.99,46.05-131.84,86.46-186.91,162.7-199.38,438.78-250.31,610.74-439.09,41.13-44.99,71.81-98.09,100.02-151.73-113.1-6.25-240.24,39.48-341.18-30.52-52.12-33.21-106.32-98.98-62.73-160.63,10.97-.96,32.68-2.85,43.65-3.81,29.71,52.14,74.4,110.79,141.14,108.92,172.28.82,343.79-17.26,515.8-24.16,36.54,44.1,66.72,99.76,52.98,158.94-12.69,78.18-84.43,125.25-149.61,158.51-.09,23-.3,46-.42,69.08-39.36-.23-78.8-.12-118.25,0-32.46,108.96-50.56,227.82-6.78,336.52,78.87-7.47,142.9-57.77,197.93-110.62,1.37-35.33.19-76.17,27.97-102.57,24.01-31.29,65.37-30.91,100.87-33.06,39.14-92.65,50.76-193.44,86.04-287.36,23.92-71,60.05-137.15,99.6-200.47-49.73-52.04-81.72-132.23-158.09-149.61-117.16-37.14-232.45-79.07-349.24-117.4-7.02-119.52-46.87-237.06-120.79-331.86-155.66-213.19-438.49-326.24-520.89-592.09-107.18,4.79-215.4-56.45-247.94-161.9-14.82-43.52,30.45-68.93,66.54-73.75,23.22,52.24,48.97,113.54,108.08,133.08,129.41,22.09,263.06-14.79,391.62,13.99,59.98,11.88,53.78,92.22,104.26,116.55,61.63,30.69,131.37,9.08,192.84-10.17-12.67-11.17-25.28-22.03-38.14-33.06-29.94-6.41-65.26-5.04-86.46-31.36-18.29-45.41,37.92-66.05,73.75-60.18,59.89-9.32,62.53,80.64,119.1,77.98,33.83,4.49,46.07-31.38,61.88-53.4-50.7-21.43-62.8-90.97-2.54-110.62-27.1-69.42-94.55-107.23-149.19-152.58-144.39-110.52-278.07-239.15-445.45-315.33-7.06-83.7-18.56-166.53-30.52-249.64-66.62,41.49-131.51,97.45-151.31,176.74Zm364.07,278.88c6.29,17.68,12.67,35.35,19.07,52.98-20.83,12.52-41.75,24.8-62.73,37.3-38.61-9.72-76.36-22.42-111.89-40.69,32.54-23.73,72.03-59.93,113.59-61.46,13.85-.51,27.85,2.97,41.96,11.87Z"/>
    <path id="huf_oben" data-name="huf oben" class="cls-1" d="m2691.54,1556.54c-21.4,26.24-50.27,52.83-48.39,89.97-2.09,38.58,26.41,67.45,51.58,92.46,4.94,75.5-12.33,151.23-54.46,214.55-108.36-40.08-181.17-138.07-233.99-236.39,27.84-28.68,54.92-58.06,81.5-87.82-16.33-16.6-32.78-33.12-49.2-49.67,16.88-62.78,37.06-133.01,7.43-195.25-20.53-47.55-66.7-78.44-115.86-90.39-19.59-5.76-49.44-13.02-58.65,12.61-69.87,128.09-137.8,257.31-207.13,385.73-25.89-111.46-84.55-212.28-159.24-298.03,136.04-106.64,271.42-214.1,408.03-319.99,56.22.25,112.42.26,168.59-.06,25.34,178.43,143.33,319.78,209.8,482.27Z"/>
    <path id="schweif" class="cls-1" d="m317.97,1697.46c51.83-98.41,183.6-130.38,279.41-79.67-41.46,33.42-88.77,71.34-95.16,128.27-11.07,90.98,48.44,167.73,77.23,249.6,44.28,103.7,64,230.71.05,330.89-81.14,128.27-237.59,168.32-349.41,261.05-47.84,37.11-63.51,101.93-47.24,159,10.58,9.69,31.74,29.08,42.31,38.78-63.47,15.01-138.75,3.36-180.7-50.82-56.3-72.29-47.97-176.52-5.71-253.6,50.81-95.4,137.75-178.95,139.89-293.67,5.42-107.6-80.83-184.1-129.29-271.14-64.09-102.81-66-241.18-4.34-345.48,54.47-94.47,151.23-151.89,247.44-196.23-22.27,107.82-12.37,219.9,25.51,323.01Z"/>
    <path id="huf_unten" data-name="huf unten" class="cls-1" d="m1538.94,3423.57c-51.11,130.26-120.47,258.04-124.13,401.32,191.88-.15,383.75.82,575.6-.53,5.41,34.42,7.64,74.81,37.91,97.85,26.35,24.55,64.52,20.46,97.51,22.52,57.85,52.12,105.14,119.76,114.28,198.88-108.07,41.74-229.45,30.98-336.99-6.93.62-39.02.83-78,.98-116.94-79.32,8.28-149.36-37.7-227.66-38.75-145.17-11.06-290.97-6.55-436.43-5.23-5.69-162.34-20.07-341.18-130.75-469.83,74.46-162.55,96.75-343.35,97.69-520.5,21.9-71.93,75.09-130.63,126.21-184.27,97.18,30.88,197.17,87.65,233.66,188.83,49.95,140.71,25.17,297.3-27.89,433.57Z"/>
  </g>
</svg>