<?xml version="1.0" encoding="UTF-8"?>
<svg xmlns="http://www.w3.org/2000/svg" viewBox="0 0 4200.36 1097.16">
  <defs>
    <style>
      .cls-1, .cls-2, .cls-3 {
        stroke-width: 0px;
      }

      .cls-1, .cls-3 {
        fill: #32bacf;
      }

      .cls-4 {
        isolation: isolate;
      }

      .cls-2 {
        fill: #27326e;
      }

      .cls-3 {
        mix-blend-mode: multiply;
      }
    </style>
  </defs>
  <g class="cls-4">
    <g id="Ebene_1" data-name="Ebene 1">
      <g>
        <path class="cls-2" d="m516.69,463.82c66.47-38.63,134.41-67.35,200.28-86.23V8.49h-345.26v371.7H0v345.26h237.31c57.97-95.31,154.89-189.3,279.37-261.63Z"/>
        <path class="cls-3" d="m801.64,380.19c-29.12,13.04-58.25,27.89-87.1,44.66-262.52,152.55-402.6,401.4-312.86,555.82,43,74,131,112.84,239.85,116.49h34.39c1.5-.05,3-.07,4.5-.13-.13.05-.26.09-.4.13h36.94v-371.7h371.7v-345.26h-287.03Z"/>
        <g>
          <path class="cls-2" d="m1642.66,461.68h-90.36l-182.03-219.91v219.91h-75.85V0h75.85v207.26L1545.71,0h90.36l-186.65,224.93,193.25,236.76Z"/>
          <path class="cls-2" d="m1767.97,389.13h187.97v72.55h-263.82V0h75.85v389.13Z"/>
          <path class="cls-2" d="m2012,0h75.85v461.68h-75.85V0Z"/>
          <path class="cls-2" d="m2457.18,0h75.85v461.68h-59.36l-217.65-313.26v313.26h-75.85V0h57.87l219.14,315.42V0Z"/>
          <path class="cls-2" d="m2625.36,0h75.85v461.68h-75.85V0Z"/>
          <path class="cls-2" d="m3141.78,461.68h-90.36l-182.04-219.91v219.91h-75.85V0h75.85v207.26L3044.82,0h90.36l-186.65,224.93,193.25,236.76Z"/>
          <path class="cls-2" d="m3467.59,426.4c-32.54,29.25-74.53,43.86-125.97,43.86s-93.44-14.61-125.97-43.86c-32.54-29.24-48.81-68.48-48.81-117.73V0h75.85v304.05c0,28.14,8.24,50.57,24.73,67.27,16.49,16.72,41.22,25.06,74.2,25.06s57.71-8.35,74.2-25.06c16.49-16.71,24.73-39.13,24.73-67.27V0h75.85v308.67c0,49.25-16.27,88.49-48.81,117.73Z"/>
          <path class="cls-2" d="m4045.35,0v461.68h-75.85V132.57l-140.48,232.16-9.2-.02-140.51-232.84v329.81h-75.85V0h81.78l139.27,230.79L3964.15,0h81.2Z"/>
          <path class="cls-1" d="m1464.59,626.91c43.53,0,79.91,14.51,109.15,43.53,29.24,29.02,43.86,65.08,43.86,108.17s-14.62,78.6-43.86,107.84c-29.25,29.25-65.62,43.86-109.15,43.86h-94.31v158.29h-75.85v-461.68h170.16Zm0,232.16c22.42,0,40.89-7.58,55.4-22.75,14.51-15.17,21.77-34.4,21.77-57.71s-7.26-42.54-21.77-57.71c-14.51-15.17-32.98-22.75-55.4-22.75h-94.31v160.93h94.31Z"/>
          <path class="cls-1" d="m1946.71,1088.59l-97.54-168.18h-89.77v168.18h-75.85v-461.68h184.67c41.32,0,76.39,14.41,105.2,43.2,28.79,28.8,43.2,63.87,43.2,105.2,0,29.46-8.47,56.39-25.39,80.79-16.93,24.4-39.03,42.11-66.28,53.09l104.87,179.4h-83.1Zm-187.31-390.45v154.33h108.82c20.22,0,37.37-7.47,51.44-22.42,14.07-14.94,21.1-33.19,21.1-54.74s-7.04-39.79-21.1-54.74c-14.08-14.94-31.23-22.42-51.44-22.42h-108.82Z"/>
          <path class="cls-1" d="m2388.6,1088.59l-32.57-93h-196.33l-32.29,93h-82.44l167.52-461.68h91.01l166.88,461.68h-81.78Zm-203.8-164.23h146.29l-72.96-208.42-73.32,208.42Z"/>
          <path class="cls-1" d="m2791.58,849.17c20.22,10.55,36.05,25.06,47.49,43.53,11.43,18.47,17.15,39.8,17.15,63.98,0,37.82-13.42,69.25-40.23,94.32-26.82,25.06-59.58,37.59-98.27,37.59h-197.86v-461.68h183.35c37.81,0,69.8,12.2,95.96,36.6,26.16,24.4,39.24,54.86,39.24,91.35,0,40.02-15.61,71.46-46.83,94.31Zm-88.38-151.04h-107.51v121.36h107.51c16.71,0,30.77-5.82,42.21-17.48,11.43-11.65,17.15-26.05,17.15-43.2s-5.72-31.54-17.15-43.2c-11.44-11.65-25.51-17.48-42.21-17.48Zm14.51,319.22c17.58,0,32.42-6.27,44.52-18.8,12.09-12.53,18.14-27.8,18.14-45.84s-6.05-33.31-18.14-45.84c-12.1-12.53-26.94-18.8-44.52-18.8h-122.02v129.27h122.02Z"/>
          <path class="cls-1" d="m3214.34,1053.3c-32.54,29.25-74.53,43.86-125.97,43.86s-93.44-14.61-125.97-43.86c-32.54-29.24-48.81-68.48-48.81-117.73v-308.67h75.85v304.05c0,28.14,8.24,50.57,24.73,67.27,16.49,16.71,41.22,25.06,74.2,25.06s57.71-8.35,74.2-25.06c16.49-16.71,24.73-39.13,24.73-67.27v-304.05h75.85v308.67c0,49.25-16.27,88.49-48.81,117.73Z"/>
          <path class="cls-1" d="m3613.37,1088.59l-97.54-168.18h-89.77v168.18h-75.85v-461.68h184.67c41.33,0,76.39,14.41,105.2,43.2,28.79,28.8,43.2,63.87,43.2,105.2,0,29.46-8.47,56.39-25.39,80.79-16.93,24.4-39.03,42.11-66.29,53.09l104.87,179.4h-83.1Zm-187.31-390.45v154.33h108.83c20.22,0,37.37-7.47,51.44-22.42,14.07-14.94,21.11-33.19,21.11-54.74s-7.04-39.79-21.11-54.74c-14.08-14.94-31.22-22.42-51.44-22.42h-108.83Z"/>
          <path class="cls-1" d="m4200.36,849.83v31.66c0,63.32-20.89,115.09-62.66,155.32-41.78,40.23-96.29,60.35-163.57,60.35-71.23,0-130.04-23.08-176.43-69.25-46.39-46.17-69.58-102.89-69.58-170.16s23.19-123.44,69.58-169.83,103.88-69.58,172.47-69.58c43.09,0,82.44,9.89,118.06,29.68,35.62,19.79,63.32,46.39,83.1,79.8l-65.29,37.59c-12.32-21.98-30.57-39.68-54.74-53.09-24.19-13.41-51.23-20.12-81.12-20.12-48.37,0-88.16,15.83-119.38,47.49-31.23,31.66-46.83,71.23-46.83,118.72s15.72,86.84,47.16,118.06c31.43,31.22,72.65,46.83,123.66,46.83,40.89,0,74.2-9.56,99.92-28.69,25.72-19.13,42.1-44.74,49.14-76.84h-154.33v-67.93h230.84Z"/>
        </g>
      </g>
    </g>
  </g>
</svg>