<?xml version="1.0" encoding="UTF-8"?>
<svg id="Ebene_3" data-name="Ebene 3" xmlns="http://www.w3.org/2000/svg" xmlns:xlink="http://www.w3.org/1999/xlink" viewBox="0 0 3380.16 4332.67">
  <defs>
    <style>
      .cls-1 {
        stroke: #010202;
        stroke-linejoin: round;
      }

      .cls-1, .cls-2, .cls-3 {
        fill: #e52629;
      }

      .cls-1, .cls-4, .cls-3 {
        stroke-width: 10.57px;
      }

      .cls-2, .cls-5, .cls-6, .cls-7, .cls-8, .cls-9, .cls-10, .cls-11, .cls-12 {
        stroke-width: 0px;
      }

      .cls-4 {
        fill: #0fa34d;
      }

      .cls-4, .cls-3 {
        stroke: #1e1e1c;
      }

      .cls-5 {
        fill: #010101;
      }

      .cls-7 {
        fill: #e52421;
      }

      .cls-8 {
        fill: none;
      }

      .cls-9 {
        fill: #010202;
      }

      .cls-10, .cls-13 {
        fill: #fff;
      }

      .cls-13 {
        font-family: Bahnschrift-SemiBold, Bahnschrift;
        font-size: 450.31px;
        font-variation-settings: 'wght' 600, 'wdth' 100;
        font-weight: 600;
      }

      .cls-14 {
        clip-path: url(#clippath);
      }

      .cls-11 {
        fill: #1e1e1c;
      }

      .cls-12 {
        fill: #231e20;
      }
    </style>
    <clipPath id="clippath">
      <rect class="cls-8" x="1413.15" y="2737.27" width="554.15" height="581.45"/>
    </clipPath>
  </defs>
  <path class="cls-7" d="m0,0v2642.59c0,228.14,44.7,449.48,132.84,657.87,42.36,100.16,94.8,196.75,155.83,287.11,60.46,89.49,129.88,173.62,206.34,250.09,76.47,76.47,160.62,145.88,250.09,206.34,90.36,61.05,186.95,113.47,287.11,155.83,208.4,88.14,429.74,132.84,657.87,132.84s449.48-44.7,657.89-132.84c100.16-42.36,196.75-94.78,287.09-155.83,89.49-60.46,173.62-129.87,250.09-206.34,76.47-76.47,145.89-160.6,206.34-250.09,61.05-90.36,113.47-186.95,155.83-287.11,88.16-208.4,132.84-429.74,132.84-657.87V0H0Zm3258.81,2642.59c0,648.75-395.84,1206.78-958.7,1445.24-148.77,63.03-309.2,103.75-477.08,117.87-2.71.23-5.42.46-8.11.67-5.4.43-10.82.84-16.24,1.21-3.27.23-6.53.43-9.82.65-3.73.23-7.46.45-11.19.67-12.34.68-24.71,1.22-37.1,1.61-16.78.54-33.61.81-50.49.81s-33.71-.26-50.49-.81c-12.39-.39-24.76-.93-37.1-1.61-3.73-.22-7.46-.43-11.19-.67-3.28-.22-6.55-.42-9.82-.65-2.71-.19-5.42-.39-8.13-.59-2.71-.19-5.42-.4-8.11-.62-2.71-.2-5.42-.43-8.11-.67-2.71-.22-5.4-.45-8.1-.71-2.71-.22-5.4-.48-8.1-.74-795.31-75.34-1419.57-746.96-1419.57-1561.65V121.37h3137.44v2521.22Z"/>
  <path class="cls-6" d="m3133.72,235.92v2379.99c0,612.4-367.42,1139.16-889.85,1364.28-174.15,75.03-365.51,116.55-566.23,116.55-802.88,0-1456.06-664.3-1456.06-1480.83V235.92h2912.14Z"/>
  <g>
    <path class="cls-10" d="m895.35,679.83v-319.7h52.33v319.7h-52.33Zm26.39,0v-49.69h94.33c18.76,0,32.5-3.96,41.23-11.87,8.72-7.92,13.08-18.54,13.08-31.88v-.66c0-14.07-4-25.14-11.98-33.2-7.99-8.06-20.27-12.09-36.83-12.09h-99.82v-49.25h99.82c14.51,0,25.58-3.52,33.2-10.55,7.62-7.04,11.43-17.22,11.43-30.56s-4.03-23.2-12.09-30.01c-8.06-6.82-19.94-10.22-35.62-10.22h-96.75v-49.69h101.8c31.37,0,55.15,7.7,71.35,23.09,16.2,15.39,24.3,36.58,24.3,63.54,0,17.3-5.06,32.29-15.17,44.96-10.11,12.68-25.21,20.78-45.29,24.3,20.52,2.93,36.42,11.36,47.71,25.29,11.29,13.93,16.93,30.86,16.93,50.79v.66c0,26.82-8.5,48.04-25.51,63.65-17.01,15.61-40.53,23.42-70.58,23.42h-105.54Z"/>
    <path class="cls-10" d="m1186.02,679.83v-319.7h52.55v319.7h-52.55Zm21.77-269.35v-50.35h187.99v50.35h-187.99Zm0,135.66v-50.13h163.81v50.13h-163.81Zm0,133.68v-50.35h187.99v50.35h-187.99Z"/>
    <path class="cls-10" d="m1455.15,679.83v-319.92h52.55v319.92h-52.55Zm21.77-131.93v-50.35h110.16c11.29,0,20.3-3.99,27.04-11.98,6.74-7.99,10.19-18.58,10.33-31.77,0-13.04-3.41-23.56-10.22-31.55-6.82-7.99-15.87-11.98-27.15-11.98h-110.16v-50.35h111.7c18.17,0,34.04,3.89,47.6,11.65,13.56,7.77,24.11,18.69,31.66,32.76,7.55,14.07,11.32,30.56,11.32,49.47s-3.81,35.4-11.43,49.47c-7.62,14.07-18.18,25.03-31.66,32.87-13.49,7.84-29.32,11.76-47.49,11.76h-111.7Zm152.59,131.93l-75.42-141.82,54.53-10.11,83.99,151.93h-63.1Z"/>
    <path class="cls-10" d="m1849.83,683.13c-36.36,0-64.5-10.37-84.43-31.11-19.94-20.74-29.9-50.02-29.9-87.84v-204.04h52.55v205.58c0,20.82,5.39,36.94,16.16,48.37,10.77,11.43,25.98,17.15,45.62,17.15s35.1-5.72,45.95-17.15c10.85-11.43,16.27-27.56,16.27-48.37v-205.58h52.55v204.04c0,37.82-10,67.1-30.01,87.84-20.01,20.74-48.26,31.11-84.76,31.11Z"/>
    <path class="cls-10" d="m2030.57,679.83v-319.7h52.55v319.7h-52.55Zm21.99-269.35v-50.35h183.6v50.35h-183.6Zm0,138.52v-50.13h159.41v50.13h-159.41Z"/>
    <path class="cls-10" d="m2380.61,683.13c-15.39,0-30.16-1.5-44.3-4.51-14.15-3-27.37-7.44-39.69-13.3-12.31-5.86-23.67-13.12-34.08-21.77l27.92-42c12.31,10.41,26.13,18.29,41.45,23.64,15.32,5.35,31.55,8.03,48.7,8.03,21.4,0,38-3.81,49.8-11.43,11.8-7.62,17.7-18.39,17.7-32.32v-.22c0-10.7-2.97-18.91-8.9-24.63s-13.74-9.93-23.42-12.64c-9.67-2.71-20.23-5.02-31.66-6.93-12.17-1.9-24.52-4.29-37.05-7.15-12.53-2.86-24.04-7.33-34.52-13.41-10.48-6.08-18.91-14.8-25.29-26.17-6.38-11.36-9.56-26.5-9.56-45.4v-.22c0-30.49,10.08-54.09,30.23-70.8,20.15-16.71,48.63-25.07,85.42-25.07,17.15,0,34.3,2.82,51.45,8.47,17.15,5.64,33.49,13.96,49.03,24.96l-25.5,43.32c-12.31-8.94-24.85-15.65-37.6-20.12-12.75-4.47-25.21-6.71-37.38-6.71-20.23,0-35.88,3.7-46.94,11.1-11.07,7.4-16.6,17.85-16.6,31.33v.22c0,11.14,3.26,19.61,9.78,25.4,6.52,5.79,15.02,10.08,25.51,12.86,10.48,2.79,21.8,5.42,33.97,7.92,12.02,2.35,24,5.21,35.95,8.58,11.95,3.37,22.83,8.21,32.65,14.51,9.82,6.3,17.7,14.99,23.64,26.06,5.94,11.07,8.91,25.47,8.91,43.21v.44c0,30.2-10.44,53.54-31.33,70.03-20.89,16.49-50.32,24.74-88.28,24.74Z"/>
    <path class="cls-10" d="m413.38,1117.56v-319.7h52.55v319.7h-52.55Zm21.99-269.35v-50.35h183.6v50.35h-183.6Zm0,138.52v-50.13h159.41v50.13h-159.41Z"/>
    <path class="cls-10" d="m669.53,1117.56v-319.7h52.55v319.7h-52.55Zm21.77-269.35v-50.35h187.99v50.35h-187.99Zm0,135.66v-50.13h163.81v50.13h-163.81Zm0,133.68v-50.35h187.99v50.35h-187.99Z"/>
    <path class="cls-10" d="m1048.6,1120.86c-36.35,0-64.5-10.37-84.43-31.11-19.94-20.74-29.9-50.02-29.9-87.84v-204.04h52.55v205.58c0,20.82,5.39,36.94,16.16,48.37,10.77,11.43,25.98,17.15,45.62,17.15s35.1-5.72,45.95-17.15c10.85-11.43,16.27-27.56,16.27-48.37v-205.58h52.55v204.04c0,37.82-10,67.1-30.01,87.84-20.01,20.74-48.26,31.11-84.76,31.11Z"/>
    <path class="cls-10" d="m1229.34,1117.56v-319.7h52.55v319.7h-52.55Zm21.77-269.35v-50.35h187.99v50.35h-187.99Zm0,135.66v-50.13h163.81v50.13h-163.81Zm0,133.68v-50.35h187.99v50.35h-187.99Z"/>
    <path class="cls-10" d="m1498.47,1117.56v-319.92h52.55v319.92h-52.55Zm21.77-131.93v-50.35h110.16c11.29,0,20.3-3.99,27.04-11.98,6.74-7.99,10.19-18.58,10.33-31.77,0-13.04-3.41-23.56-10.22-31.55-6.82-7.99-15.87-11.98-27.15-11.98h-110.16v-50.35h111.7c18.17,0,34.04,3.89,47.6,11.65,13.56,7.77,24.11,18.69,31.66,32.76,7.55,14.07,11.32,30.56,11.32,49.47s-3.81,35.4-11.43,49.47c-7.62,14.07-18.18,25.03-31.66,32.87-13.49,7.84-29.32,11.76-47.49,11.76h-111.7Zm152.59,131.93l-75.42-141.82,54.53-10.11,83.99,151.93h-63.1Z"/>
    <path class="cls-10" d="m1859.94,1029.83l63.32-231.97h39.58l63.32,231.97,48.81-231.97h54.31l-75.86,319.7h-51.23l-57.83-223.39-60.47,223.39h-51.23l-75.86-319.7h54.31l48.81,231.97Z"/>
    <path class="cls-10" d="m2173.27,1117.56v-319.7h52.55v319.7h-52.55Zm21.77-269.35v-50.35h187.99v50.35h-187.99Zm0,135.66v-50.13h163.81v50.13h-163.81Zm0,133.68v-50.35h187.99v50.35h-187.99Z"/>
    <path class="cls-10" d="m2442.39,1117.56v-319.7h52.55v319.7h-52.55Zm27.92-132.81v-50.35h181.84v50.35h-181.84Zm150.4,132.81v-319.7h52.55v319.7h-52.55Z"/>
    <path class="cls-10" d="m2748.02,1117.56v-319.92h52.55v319.92h-52.55Zm21.77-131.93v-50.35h110.16c11.29,0,20.3-3.99,27.04-11.98,6.74-7.99,10.19-18.58,10.33-31.77,0-13.04-3.41-23.56-10.22-31.55-6.82-7.99-15.87-11.98-27.15-11.98h-110.16v-50.35h111.7c18.17,0,34.04,3.89,47.6,11.65,13.56,7.77,24.11,18.69,31.66,32.76,7.55,14.07,11.32,30.56,11.32,49.47s-3.81,35.4-11.43,49.47c-7.62,14.07-18.18,25.03-31.66,32.87-13.49,7.84-29.32,11.76-47.49,11.76h-111.7Zm152.59,131.93l-75.42-141.82,54.53-10.11,83.99,151.93h-63.1Z"/>
  </g>
  <g>
    <g>
      <path class="cls-5" d="m2393.56,3177.4c2.77-3.01,5.52-6.04,8.25-9.08-2.74,3.04-5.49,6.07-8.25,9.08Z"/>
      <path class="cls-5" d="m723.97,1234.27v1295.38c0,65.54,6.61,131.05,19.63,194.7,12.7,62.02,31.64,123.04,56.3,181.35,24.21,57.25,54.18,112.46,89.08,164.11,34.56,51.15,74.25,99.26,117.97,142.98,30.07,30.06,62.22,58.23,96.01,84.14,15.33,11.75,31.01,23.03,46.97,33.82,51.66,34.9,106.87,64.87,164.12,89.09,58.3,24.65,119.32,43.6,181.35,56.29,63.65,13.03,129.16,19.63,194.7,19.63s131.06-6.61,194.7-19.63c62.04-12.69,123.06-31.63,181.37-56.29,57.24-24.21,112.46-54.19,164.1-89.09,15.97-10.79,31.64-22.07,46.97-33.82,33.79-25.91,65.94-54.07,96.01-84.14,43.72-43.72,83.41-91.83,117.98-142.98,34.88-51.65,64.85-106.86,89.06-164.11,24.66-58.31,43.61-119.33,56.3-181.35,13.03-63.65,19.62-129.16,19.62-194.7v-1295.38H723.97Zm1922.83,1295.38c0,1.87,0,3.75-.01,5.62v.82c-.02,1.42-.02,2.84-.05,4.25v.5l-.04,2.57c-.02,1.93-.06,3.86-.1,5.79-.04,1.66-.07,3.32-.11,4.97,0,.12-.01.25-.01.38-.04,1.55-.08,3.1-.14,4.65-.02.72-.04,1.43-.06,2.14-.01.1-.01.2-.01.3-.05,1.61-.11,3.21-.17,4.82,0,.08-.01.15-.01.22-.08,2.01-.16,4.02-.25,6.02-.06,1.49-.14,2.99-.21,4.48-.04.71-.07,1.42-.11,2.12-.06,1.17-.12,2.35-.19,3.52-.07,1.17-.13,2.35-.21,3.52-.1,1.77-.21,3.53-.32,5.29-.1,1.49-.19,2.98-.31,4.46-.27,3.98-.56,7.95-.89,11.91-.06.75-.12,1.5-.19,2.25-.12,1.42-.23,2.82-.36,4.23-.1,1.13-.19,2.26-.31,3.38-.14,1.53-.28,3.07-.43,4.59-.14,1.44-.28,2.9-.43,4.34-.17,1.73-.35,3.45-.54,5.17-.12,1.07-.23,2.15-.35,3.22-.18,1.69-.37,3.38-.56,5.06-.18,1.61-.38,3.22-.58,4.83-.02.19-.04.38-.06.56-.18,1.54-.38,3.07-.56,4.6-.1.77-.19,1.53-.29,2.3-.01.09-.02.18-.04.27-.18,1.4-.37,2.81-.55,4.2-.04.28-.08.56-.11.83-.19,1.41-.39,2.81-.58,4.22-.12.84-.23,1.68-.35,2.52-.22,1.54-.44,3.09-.68,4.63-.23,1.63-.48,3.25-.72,4.87-.11.65-.21,1.3-.31,1.96-.21,1.33-.41,2.65-.62,3.97-.16,1.03-.33,2.07-.5,3.11-.38,2.38-.78,4.76-1.17,7.13-.19,1.13-.39,2.27-.59,3.4-.33,1.96-.68,3.91-1.03,5.85-.18.98-.36,1.96-.54,2.93-.08.47-.17.94-.26,1.41-.14.75-.27,1.5-.42,2.26-.24,1.31-.49,2.62-.75,3.93-.41,2.12-.82,4.24-1.23,6.35-.29,1.46-.59,2.91-.88,4.36-.02.12-.05.25-.08.37-.21,1-.41,2-.62,3-.22,1.12-.46,2.24-.7,3.37-.12.59-.24,1.17-.38,1.76-.31,1.49-.63,2.98-.96,4.46-.91,4.19-1.84,8.36-2.82,12.52-.25,1.08-.5,2.17-.76,3.25-.11.48-.22.95-.33,1.42-.49,2.04-.98,4.07-1.47,6.1-.08.31-.16.6-.23.91-.51,2.1-1.03,4.18-1.56,6.27-.53,2.15-1.09,4.29-1.65,6.44-.04.17-.09.34-.14.51-.49,1.93-1.01,3.86-1.52,5.78-.08.26-.14.52-.22.78-.55,2.1-1.12,4.19-1.7,6.28-.6,2.19-1.22,4.38-1.84,6.56-.59,2.06-1.17,4.11-1.77,6.16-.58,1.97-1.16,3.94-1.74,5.9-.38,1.26-.75,2.53-1.13,3.78-.28.95-.57,1.89-.86,2.83-.25.81-.51,1.63-.75,2.44-.37,1.18-.73,2.36-1.1,3.53-.35,1.11-.69,2.22-1.05,3.33-.22.72-.45,1.43-.68,2.14-.36,1.16-.74,2.32-1.11,3.48-.59,1.79-1.16,3.58-1.76,5.36-.71,2.14-1.43,4.28-2.15,6.42-.53,1.57-1.07,3.15-1.62,4.72-.12.38-.25.75-.38,1.12-.54,1.57-1.09,3.14-1.64,4.7-.11.33-.23.67-.35,1-.53,1.5-1.06,3-1.6,4.49-.16.48-.33.95-.51,1.42-.41,1.12-.81,2.23-1.22,3.35-.36,1.02-.74,2.03-1.12,3.04-.43,1.18-.86,2.36-1.32,3.53-.16.46-.34.93-.52,1.39-.49,1.33-1,2.67-1.5,3.99-1.46,3.84-2.94,7.66-4.45,11.48-.72,1.81-1.44,3.62-2.17,5.42-.65,1.63-1.32,3.27-1.98,4.89-.09.24-.19.48-.29.72-.69,1.71-1.4,3.42-2.11,5.12-.01.04-.02.06-.04.09-.67,1.63-1.34,3.25-2.03,4.86-.15.36-.31.72-.45,1.07-.68,1.59-1.35,3.18-2.04,4.76-.76,1.78-1.54,3.56-2.32,5.34-.78,1.78-1.56,3.55-2.35,5.32-1.57,3.55-3.18,7.08-4.8,10.59-.58,1.27-1.17,2.54-1.77,3.81-.39.86-.79,1.71-1.2,2.57-.36.79-.74,1.58-1.11,2.37-.65,1.38-1.3,2.75-1.97,4.13-.16.35-.33.69-.49,1.03-.65,1.35-1.29,2.69-1.94,4.03-.45.93-.91,1.87-1.37,2.8-.89,1.81-1.79,3.62-2.68,5.43-.89,1.8-1.79,3.59-2.69,5.37-.9,1.78-1.81,3.55-2.72,5.33-.39.76-.78,1.53-1.19,2.29-.65,1.27-1.3,2.53-1.97,3.8-.22.43-.44.86-.68,1.29-.77,1.48-1.54,2.95-2.34,4.43-.23.46-.49.92-.73,1.37-.73,1.39-1.48,2.77-2.23,4.15-.29.53-.58,1.07-.86,1.6-.76,1.4-1.51,2.79-2.28,4.18-1.31,2.38-2.63,4.77-3.95,7.14-1.05,1.88-2.12,3.75-3.18,5.63-1.03,1.81-2.06,3.61-3.1,5.41-.24.42-.47.83-.72,1.24-.76,1.32-1.53,2.64-2.31,3.96-.46.79-.92,1.57-1.39,2.36-.73,1.23-1.46,2.47-2.2,3.69-.18.31-.36.61-.54.91-.96,1.63-1.94,3.25-2.92,4.87-.16.27-.32.53-.48.8-1.1,1.81-2.21,3.63-3.32,5.44-2.29,3.73-4.62,7.45-6.97,11.14-.13.21-.26.41-.39.61-1.09,1.71-2.19,3.43-3.29,5.14h0c-.96,1.5-1.92,2.98-2.88,4.45-.62.95-1.24,1.9-1.86,2.85-.36.55-.71,1.09-1.07,1.63-.7,1.06-1.4,2.12-2.11,3.18-.56.84-1.12,1.67-1.68,2.51-.59.89-1.19,1.77-1.79,2.66-1.13,1.69-2.28,3.37-3.43,5.04-1.22,1.79-2.45,3.56-3.68,5.33-1.2,1.74-2.42,3.46-3.64,5.19-.18.27-.36.53-.56.8-.97,1.4-1.96,2.79-2.97,4.18-.34.49-.69.98-1.05,1.47-1.1,1.54-2.22,3.08-3.34,4.62-1.29,1.78-2.57,3.55-3.88,5.31-.02.03-.04.05-.06.08-1.07,1.46-2.14,2.91-3.23,4.35-.35.48-.7.96-1.06,1.43-1.21,1.62-2.42,3.22-3.64,4.83-1.47,1.93-2.94,3.86-4.42,5.78-1.14,1.48-2.28,2.95-3.43,4.43-.23.31-.47.61-.71.91-1.21,1.54-2.41,3.08-3.64,4.62-1.37,1.73-2.74,3.46-4.13,5.19-1.3,1.63-2.61,3.24-3.92,4.86-2.95,3.63-5.93,7.24-8.93,10.82-1.31,1.57-2.63,3.14-3.96,4.7-.07.08-.14.16-.21.23-1.39,1.63-2.78,3.27-4.18,4.89-1.06,1.24-2.13,2.47-3.21,3.71-.62.73-1.27,1.46-1.9,2.18-1.19,1.37-2.4,2.74-3.61,4.11-1.32,1.49-2.65,2.98-3.98,4.47-.26.3-.52.59-.79.89-2.73,3.04-5.49,6.07-8.25,9.08-1.29,1.4-2.59,2.8-3.89,4.18-.75.8-1.49,1.6-2.25,2.4-.83.89-1.67,1.77-2.51,2.65-.41.45-.83.89-1.26,1.34-1.17,1.24-2.36,2.48-3.55,3.71-.23.25-.48.51-.72.75-1.25,1.31-2.52,2.61-3.79,3.91-3.53,3.64-7.09,7.24-10.69,10.82-1.3,1.3-2.61,2.6-3.93,3.89-1.57,1.55-3.15,3.1-4.74,4.63-1.43,1.4-2.87,2.79-4.32,4.18-.27.27-.55.53-.82.79-1.44,1.39-2.9,2.77-4.36,4.15-.04.04-.06.06-.09.08-1.6,1.52-3.2,3.02-4.81,4.52-1.62,1.51-3.24,3.01-4.86,4.5-1.63,1.5-3.26,2.99-4.89,4.47-1.57,1.43-3.15,2.84-4.72,4.26-.16.15-.33.29-.49.43-1.55,1.39-3.11,2.77-4.67,4.15-1.66,1.46-3.33,2.92-4.99,4.37-1.36,1.18-2.71,2.36-4.08,3.52-2,1.73-4,3.44-6.02,5.14-1.68,1.42-3.37,2.82-5.06,4.23-1.64,1.38-3.3,2.75-4.95,4.12-1.36,1.11-2.71,2.22-4.07,3.32-.7.58-1.4,1.15-2.1,1.71-1.43,1.15-2.85,2.3-4.29,3.44-1.7,1.36-3.41,2.71-5.11,4.06-.04.02-.06.05-.09.06-.02.02-.04.04-.05.05-.97.76-1.94,1.53-2.91,2.28-.44.35-.87.69-1.31,1.02-.89.69-1.79,1.39-2.67,2.08-.51.39-1.01.79-1.53,1.17-1.02.78-2.03,1.56-3.04,2.34-1.29.99-2.58,1.97-3.88,2.94-2.58,1.96-5.18,3.9-7.79,5.83-1.17.86-2.33,1.72-3.5,2.58-.23.18-.47.35-.71.52-1.21.89-2.43,1.77-3.64,2.65-1.27.92-2.54,1.83-3.8,2.74-.17.12-.35.25-.52.36-1.2.86-2.4,1.71-3.59,2.57-1.32.94-2.65,1.87-3.98,2.81-2.65,1.87-5.33,3.72-8,5.56-1.21.83-2.42,1.66-3.64,2.49-.21.15-.42.29-.64.43-.96.66-1.93,1.31-2.9,1.96-.66.45-1.32.89-1.97,1.33-.88.58-1.75,1.17-2.63,1.75-.39.26-.78.53-1.18.78-1.06.72-2.14,1.42-3.22,2.13-2.7,1.79-5.43,3.56-8.17,5.32-1.37.88-2.73,1.76-4.11,2.63-1.37.87-2.74,1.74-4.12,2.61-1.37.86-2.75,1.73-4.13,2.58-1.36.85-2.74,1.7-4.12,2.55-.05.04-.11.07-.16.1-1.34.82-2.68,1.64-4.02,2.46-1.4.85-2.78,1.69-4.19,2.53-.97.59-1.94,1.17-2.92,1.74-1.12.68-2.25,1.34-3.38,2.01-1.03.62-2.07,1.22-3.1,1.83-.72.42-1.44.85-2.17,1.26-2.26,1.32-4.52,2.63-6.8,3.92-.9.52-1.81,1.03-2.72,1.55-2.84,1.61-5.68,3.2-8.53,4.77-1.42.79-2.85,1.57-4.28,2.36-1.43.79-2.86,1.56-4.3,2.34-1.4.76-2.8,1.51-4.21,2.26-1.15.62-2.3,1.23-3.45,1.83-1.26.66-2.5,1.32-3.76,1.97-1.96,1.03-3.93,2.05-5.9,3.06-.99.51-1.97,1.01-2.95,1.51-1.31.67-2.62,1.33-3.94,2-1.02.51-2.03,1.02-3.05,1.53-2.05,1.03-4.11,2.04-6.17,3.05-1.06.52-2.12,1.05-3.19,1.56-.88.43-1.77.86-2.65,1.29-3.76,1.81-7.54,3.61-11.33,5.36-1.25.59-2.51,1.17-3.78,1.75-1.66.76-3.31,1.52-4.97,2.27-5.49,2.48-10.99,4.92-16.52,7.29-1.62.7-3.24,1.4-4.86,2.08-.26.11-.51.22-.76.32-1.62.69-3.24,1.36-4.86,2.04-1.44.6-2.89,1.2-4.33,1.79-.72.3-1.44.59-2.17.89-6.38,2.61-12.81,5.14-19.26,7.61-.95.37-1.92.73-2.88,1.1-.83.32-1.66.63-2.48.93-.92.35-1.84.69-2.75,1.03-1.44.54-2.88,1.07-4.33,1.6-1.78.65-3.56,1.3-5.35,1.94-3.35,1.2-6.7,2.39-10.06,3.55-1.2.42-2.4.83-3.59,1.24-.33.12-.66.23-.99.34-1.02.35-2.04.7-3.07,1.05-.94.32-1.87.63-2.82.95-.93.31-1.86.62-2.8.93-3.32,1.1-6.65,2.18-10,3.25-1.78.57-3.55,1.13-5.33,1.68-1.42.45-2.83.88-4.24,1.31-1.06.33-2.13.65-3.18.97-1.02.32-2.04.62-3.06.92-.58.18-1.16.35-1.74.52-.93.28-1.86.56-2.79.82-1.06.32-2.13.63-3.2.94-4.97,1.44-9.95,2.85-14.96,4.21-.83.22-1.67.45-2.5.67-1.03.29-2.08.56-3.13.84-1.13.31-2.28.6-3.43.9-.02.01-.05.02-.09.02-1.52.4-3.04.79-4.57,1.19-3.31.85-6.62,1.68-9.94,2.49-1.62.4-3.24.79-4.87,1.18-1.1.26-2.2.53-3.31.78-1.03.25-2.06.49-3.09.73-.44.11-.88.21-1.33.31-1.2.28-2.41.56-3.62.83-.83.19-1.66.38-2.5.56-2.43.55-4.86,1.08-7.31,1.6-1.1.24-2.22.48-3.32.71-3,.63-6,1.26-9.01,1.86-1.18.24-2.36.48-3.54.71-1.32.26-2.64.52-3.96.78-1.59.31-3.17.61-4.76.9-.96.18-1.91.36-2.87.53-1.96.36-3.94.72-5.91,1.07-2.96.53-5.92,1.04-8.9,1.54-.32.06-.65.11-.96.16-1.28.21-2.55.42-3.83.63-.46.08-.93.15-1.39.23-1.17.19-2.35.38-3.52.56-.65.11-1.32.21-1.97.31-1.27.2-2.54.39-3.82.59-6.82,1.03-13.65,1.99-20.52,2.88-1.3.17-2.6.33-3.9.49-1.42.18-2.86.36-4.29.53-1.3.16-2.61.32-3.91.46-.83.1-1.66.19-2.48.29-.54.06-1.08.12-1.62.18-1.31.15-2.62.29-3.93.43-3.56.39-7.15.75-10.72,1.1-.91.09-1.82.17-2.73.26-.93.09-1.85.17-2.78.25-1.02.09-2.03.18-3.04.27-1.05.09-2.1.18-3.15.27-.53.05-1.06.09-1.6.14-1.86.15-3.73.3-5.6.45h-.04c-1.26.1-2.51.19-3.78.28-.77.06-1.54.11-2.32.16-1.76.12-3.52.24-5.29.36-1.63.11-3.27.21-4.89.3h-.13c-1.35.08-2.72.16-4.08.23-.75.04-1.5.08-2.25.12-.88.05-1.77.09-2.65.14-1.48.08-2.97.15-4.47.21-.27.02-.55.03-.82.04-1.53.07-3.05.13-4.56.19-2.34.09-4.67.18-7.01.25-1.73.06-3.45.11-5.19.15-1.19.04-2.4.06-3.6.09-1.09.03-2.17.05-3.26.07-.44.01-.89.02-1.33.03-1.32.02-2.63.05-3.95.06-1.16.02-2.32.03-3.48.04-1.57.02-3.14.04-4.7.04-1.91.01-3.82.02-5.74.02s-3.83,0-5.74-.02c-1.56,0-3.13-.02-4.7-.04-1.16-.01-2.32-.02-3.48-.04-1.31-.02-2.63-.04-3.94-.06-.44,0-.89-.02-1.33-.03-1.09-.02-2.17-.04-3.27-.07-1.2-.02-2.4-.05-3.59-.09-1.74-.04-3.47-.09-5.2-.15-2.33-.07-4.66-.16-7-.25-1.52-.06-3.04-.12-4.56-.19-.27-.01-.55-.02-.82-.04-1.49-.06-2.98-.14-4.46-.21-.88-.04-1.77-.08-2.65-.14-.75-.04-1.51-.08-2.26-.12-1.36-.08-2.72-.15-4.07-.23h-.13c-1.63-.09-3.27-.19-4.9-.3-1.77-.12-3.53-.23-5.29-.36-.78-.05-1.54-.11-2.31-.16-1.27-.09-2.53-.18-3.78-.28h-.05c-1.87-.15-3.76-.29-5.63-.45-.46-.04-.93-.07-1.39-.11-1.16-.09-2.31-.19-3.46-.3-.96-.08-1.93-.16-2.89-.25-.94-.09-1.87-.17-2.81-.26-.91-.09-1.81-.17-2.73-.26-3.58-.35-7.16-.71-10.72-1.1-1.32-.14-2.63-.28-3.93-.43-.54-.06-1.07-.12-1.62-.18-.83-.09-1.66-.19-2.48-.29-1.3-.15-2.61-.31-3.91-.46-1.43-.17-2.87-.35-4.29-.53-1.3-.16-2.6-.32-3.89-.49-6.87-.89-13.71-1.84-20.52-2.88-1.28-.19-2.55-.39-3.82-.59-.67-.1-1.32-.2-1.98-.31-1.17-.18-2.35-.37-3.52-.56-.46-.08-.93-.15-1.39-.23-1.28-.21-2.55-.42-3.83-.63-.36-.06-.72-.12-1.06-.18-2.91-.49-5.81-.99-8.71-1.5-1.95-.35-3.88-.7-5.83-1.06-1.12-.21-2.24-.42-3.35-.63-1.49-.28-2.98-.56-4.46-.85-1.33-.25-2.64-.51-3.96-.78-1.18-.23-2.36-.47-3.54-.71-3-.6-6.01-1.22-9-1.86-1.11-.23-2.22-.47-3.33-.71-2.43-.52-4.87-1.06-7.31-1.6-.87-.19-1.74-.39-2.61-.59-1.09-.24-2.17-.49-3.24-.74-.58-.12-1.15-.26-1.72-.39-1-.23-1.99-.46-2.97-.7-1.11-.25-2.2-.52-3.31-.78-1.62-.39-3.25-.78-4.87-1.18-3.24-.79-6.48-1.6-9.71-2.43-1.6-.41-3.21-.83-4.81-1.25-.02,0-.05-.01-.07-.02-1.26-.32-2.51-.66-3.76-.99-.75-.19-1.5-.4-2.27-.6-1.14-.31-2.28-.61-3.41-.92-.21-.06-.43-.12-.65-.18-1.44-.39-2.89-.79-4.33-1.19-3.21-.89-6.4-1.8-9.6-2.73-.86-.25-1.73-.5-2.6-.76-1.25-.36-2.48-.73-3.72-1.1-1.38-.41-2.77-.83-4.15-1.25-1.28-.38-2.56-.78-3.84-1.17-6.44-1.97-12.87-4.02-19.25-6.14-.99-.33-2-.66-3-.99-.76-.26-1.52-.51-2.27-.77-1.28-.43-2.55-.86-3.82-1.3-1.4-.48-2.78-.95-4.18-1.44-3.37-1.16-6.72-2.35-10.05-3.55-1.7-.61-3.4-1.22-5.09-1.84-3.14-1.15-6.28-2.32-9.41-3.51-1.23-.46-2.47-.93-3.7-1.41-6.95-2.66-13.86-5.4-20.72-8.22-1.56-.63-3.1-1.27-4.64-1.91-1.62-.67-3.24-1.35-4.86-2.04-.26-.11-.52-.22-.76-.32-1.62-.69-3.24-1.38-4.86-2.08-4.02-1.72-8.01-3.47-11.99-5.26-1.41-.62-2.82-1.26-4.22-1.9-1.56-.7-3.12-1.42-4.67-2.13-5.27-2.41-10.51-4.88-15.72-7.39-1-.48-2-.97-3.01-1.46-1.07-.52-2.13-1.03-3.19-1.56-1.63-.79-3.25-1.59-4.87-2.4-1.29-.64-2.57-1.28-3.85-1.93-.82-.41-1.63-.82-2.45-1.23-5.13-2.6-10.23-5.24-15.3-7.93-1.22-.65-2.43-1.29-3.65-1.94-.33-.18-.66-.35-.99-.53-1.29-.69-2.56-1.38-3.84-2.08-.45-.24-.9-.48-1.34-.73-1.49-.81-2.99-1.63-4.48-2.45-1.69-.93-3.37-1.87-5.06-2.81-2.05-1.15-4.1-2.3-6.14-3.47-1.12-.63-2.24-1.27-3.35-1.92-1.22-.69-2.43-1.4-3.65-2.11-1.02-.59-2.04-1.18-3.05-1.78-.99-.58-1.98-1.16-2.97-1.74-6.5-3.83-12.94-7.73-19.33-11.72-1.19-.75-2.4-1.5-3.6-2.26-1.1-.69-2.21-1.4-3.32-2.1l-2.44-1.55c-.83-.53-1.65-1.06-2.47-1.59-1.37-.88-2.73-1.76-4.09-2.65-2.84-1.84-5.66-3.7-8.47-5.58-.88-.58-1.74-1.16-2.63-1.75-1.28-.85-2.55-1.71-3.82-2.58-1.09-.72-2.16-1.46-3.23-2.2-3.58-2.44-7.14-4.9-10.68-7.39-1.4-.98-2.79-1.96-4.18-2.95-.34-.24-.69-.49-1.03-.73-1.03-.73-2.06-1.47-3.08-2.21-6.28-4.51-12.5-9.1-18.66-13.76-.95-.71-1.88-1.43-2.82-2.15-.96-.73-1.93-1.46-2.88-2.2-1.06-.81-2.12-1.63-3.18-2.44-.66-.52-1.33-1.03-2-1.55-1.51-1.17-3.01-2.36-4.51-3.54-.14-.11-.27-.21-.4-.31-1.6-1.27-3.21-2.54-4.8-3.82-1.38-1.1-2.75-2.21-4.13-3.32-.83-.66-1.65-1.33-2.47-2-.56-.46-1.12-.92-1.69-1.39-.88-.72-1.76-1.44-2.64-2.16-1.49-1.23-3-2.47-4.48-3.72-1.69-1.41-3.38-2.82-5.06-4.24-2.1-1.78-4.21-3.57-6.29-5.37-1.24-1.06-2.47-2.13-3.71-3.21-.08-.06-.15-.13-.23-.2-1.59-1.38-3.18-2.77-4.76-4.16-.07-.06-.14-.12-.21-.18-1.36-1.19-2.71-2.39-4.05-3.6-1.91-1.7-3.82-3.42-5.73-5.14-1.6-1.44-3.19-2.9-4.77-4.36-3.09-2.84-6.15-5.69-9.2-8.57-.85-.79-1.69-1.59-2.52-2.38-.59-.56-1.19-1.12-1.78-1.7-.82-.78-1.64-1.56-2.45-2.36-.83-.78-1.65-1.57-2.47-2.38-.63-.6-1.27-1.23-1.91-1.85-2.13-2.06-4.24-4.14-6.33-6.23-.92-.9-1.84-1.81-2.75-2.73-2.71-2.71-5.4-5.43-8.07-8.17-.95-.97-1.89-1.94-2.82-2.91-.55-.55-1.09-1.12-1.62-1.67-.88-.9-1.74-1.8-2.6-2.71-.51-.52-1-1.04-1.49-1.57-1.03-1.07-2.06-2.15-3.07-3.23-.21-.21-.41-.42-.6-.63-1.22-1.29-2.44-2.6-3.65-3.89-1.27-1.36-2.54-2.73-3.81-4.11-1.25-1.36-2.5-2.72-3.74-4.09-.97-1.06-1.94-2.13-2.9-3.19-.4-.44-.8-.88-1.19-1.32-.71-.79-1.42-1.59-2.13-2.38-.78-.87-1.56-1.74-2.33-2.61-1.13-1.29-2.27-2.58-3.41-3.87-1.07-1.22-2.13-2.44-3.19-3.66-1.03-1.18-2.04-2.36-3.05-3.55-.88-1.01-1.75-2.03-2.61-3.04-.56-.65-1.1-1.29-1.65-1.94-.67-.78-1.32-1.56-1.99-2.35-.74-.88-1.48-1.76-2.21-2.64-2.46-2.94-4.9-5.9-7.32-8.86-.62-.75-1.23-1.5-1.83-2.25-.97-1.19-1.93-2.38-2.89-3.58-.07-.09-.15-.19-.22-.29-1.34-1.67-2.68-3.34-4.01-5.02-1-1.27-2-2.54-3-3.82-.6-.76-1.19-1.52-1.79-2.28-.66-.85-1.32-1.69-1.97-2.54-.71-.92-1.42-1.84-2.13-2.77-2.8-3.65-5.57-7.31-8.31-11-.86-1.15-1.71-2.3-2.56-3.45-.46-.63-.93-1.26-1.39-1.9-.83-1.13-1.67-2.27-2.5-3.41-.31-.42-.62-.85-.92-1.27-.92-1.27-1.84-2.54-2.75-3.81-.41-.56-.81-1.12-1.2-1.68-.74-1.03-1.47-2.06-2.2-3.09-.58-.8-1.15-1.62-1.71-2.43-3.47-4.92-6.88-9.88-10.25-14.88-.62-.9-1.23-1.81-1.83-2.71-.56-.83-1.12-1.67-1.68-2.51-.7-1.06-1.41-2.11-2.11-3.18-.36-.54-.72-1.08-1.07-1.63-.65-.99-1.3-1.98-1.95-2.98-.7-1.06-1.39-2.13-2.07-3.19-.38-.58-.75-1.15-1.12-1.73-.94-1.46-1.89-2.92-2.81-4.39-.16-.26-.32-.51-.48-.77-1.16-1.81-2.31-3.64-3.45-5.47-1.18-1.88-2.35-3.77-3.51-5.66-1.02-1.66-2.04-3.32-3.05-4.98-.48-.78-.95-1.56-1.42-2.35-.63-1.05-1.27-2.09-1.89-3.14-.57-.95-1.14-1.9-1.7-2.86-.31-.52-.62-1.03-.92-1.55-.71-1.2-1.42-2.4-2.11-3.6-.65-1.1-1.3-2.21-1.93-3.32-.3-.5-.59-1-.87-1.51-.82-1.4-1.62-2.79-2.41-4.19-1.3-2.27-2.57-4.53-3.85-6.81-.94-1.69-1.88-3.37-2.81-5.06-.62-1.12-1.23-2.24-1.84-3.36-.44-.8-.88-1.6-1.31-2.4-.55-1.01-1.1-2.02-1.64-3.04-.45-.82-.89-1.65-1.33-2.48-.51-.94-1.02-1.89-1.51-2.83-.49-.92-.97-1.83-1.46-2.75-.49-.94-.99-1.88-1.48-2.82-.37-.7-.73-1.42-1.1-2.12-.65-1.25-1.3-2.5-1.94-3.75-1.76-3.44-3.51-6.88-5.22-10.35-.86-1.73-1.73-3.46-2.57-5.2-.61-1.24-1.22-2.48-1.81-3.73-.45-.92-.89-1.83-1.33-2.75-.43-.86-.84-1.73-1.25-2.6-.39-.8-.77-1.6-1.14-2.41-.58-1.19-1.13-2.38-1.69-3.57-.27-.58-.54-1.15-.8-1.73-.66-1.39-1.3-2.79-1.94-4.19-1.63-3.52-3.22-7.05-4.8-10.59-1.58-3.54-3.14-7.09-4.67-10.66-.69-1.59-1.37-3.17-2.04-4.76-.15-.35-.31-.71-.45-1.07-.69-1.62-1.37-3.24-2.04-4.86-.02-.02-.03-.05-.04-.09-.73-1.74-1.46-3.49-2.17-5.24-.04-.09-.07-.18-.11-.26-2.19-5.34-4.33-10.7-6.41-16.09-.43-1.12-.87-2.24-1.29-3.37-.34-.88-.68-1.75-1.01-2.63-.51-1.34-1.02-2.7-1.52-4.05-.18-.46-.35-.92-.52-1.39-.46-1.22-.92-2.45-1.37-3.68-.31-.83-.62-1.67-.92-2.51-.53-1.43-1.05-2.86-1.56-4.29-.66-1.84-1.32-3.68-1.97-5.51-.65-1.84-1.3-3.69-1.93-5.53-.67-1.94-1.34-3.88-2-5.83-.72-2.14-1.44-4.28-2.15-6.42-.59-1.79-1.17-3.57-1.76-5.36-.41-1.26-.81-2.51-1.21-3.77-.16-.49-.32-.98-.47-1.47-.43-1.33-.85-2.67-1.26-4-.32-1.02-.63-2.03-.95-3.05-.28-.88-.55-1.74-.81-2.62-.29-.94-.58-1.89-.86-2.83-.39-1.26-.76-2.52-1.14-3.78-.73-2.43-1.44-4.87-2.15-7.31-.46-1.58-.91-3.17-1.36-4.75-.62-2.18-1.23-4.37-1.83-6.56-.58-2.08-1.15-4.18-1.71-6.28-.08-.26-.15-.52-.21-.78-.52-1.92-1.03-3.85-1.53-5.78-.05-.17-.09-.34-.14-.51-.56-2.14-1.11-4.29-1.65-6.44-.53-2.09-1.05-4.18-1.56-6.27-.08-.31-.15-.6-.23-.91-.49-2.03-.99-4.06-1.47-6.1-.12-.48-.23-.95-.33-1.42-.26-1.08-.51-2.17-.76-3.25-.97-4.16-1.91-8.33-2.82-12.52-.32-1.49-.65-2.97-.96-4.46-.13-.59-.25-1.17-.38-1.76-.24-1.12-.48-2.24-.7-3.37-.21-1-.41-2-.62-3-.03-.12-.05-.25-.08-.37-.29-1.45-.59-2.9-.88-4.36-.42-2.11-.83-4.23-1.24-6.35-.25-1.31-.5-2.62-.75-3.93-.14-.75-.28-1.5-.42-2.26-.09-.47-.18-.94-.26-1.41-.18-.97-.36-1.95-.53-2.93-.35-1.94-.69-3.89-1.03-5.85-.19-1.13-.39-2.27-.58-3.4-.41-2.37-.8-4.75-1.18-7.13-.17-1.03-.33-2.07-.5-3.11-.21-1.32-.42-2.64-.62-3.97-.1-.65-.2-1.3-.3-1.96-.25-1.62-.49-3.25-.73-4.87-.23-1.54-.45-3.08-.67-4.63l-.35-2.52c-.19-1.4-.39-2.81-.58-4.22-.04-.28-.08-.55-.11-.83-.19-1.4-.38-2.8-.55-4.2-.01-.09-.02-.18-.04-.27-.1-.77-.2-1.53-.29-2.3-.19-1.53-.39-3.07-.57-4.6-.02-.18-.05-.37-.06-.56-.2-1.61-.39-3.22-.58-4.83-.19-1.69-.39-3.37-.57-5.06-.12-1.07-.23-2.15-.35-3.22-.18-1.72-.36-3.44-.53-5.17-.15-1.44-.29-2.9-.43-4.34-.15-1.53-.3-3.06-.43-4.59-.11-1.13-.21-2.26-.31-3.38-.13-1.4-.25-2.81-.36-4.23-.06-.75-.12-1.5-.18-2.25-.33-3.96-.63-7.93-.9-11.91-.11-1.49-.21-2.97-.3-4.46-.11-1.76-.22-3.52-.32-5.29-.07-1.17-.14-2.34-.2-3.52s-.13-2.35-.19-3.52c-.04-.7-.08-1.41-.11-2.12-.08-1.49-.15-2.99-.21-4.48-.09-2-.18-4.01-.25-6.02,0-.07-.01-.15-.01-.22-.06-1.6-.12-3.21-.17-4.82,0-.1,0-.2-.01-.3-.02-.71-.05-1.43-.06-2.14-.05-1.55-.09-3.1-.14-4.65,0-.12,0-.25,0-.38-.04-1.66-.08-3.31-.11-4.97-.04-1.93-.08-3.86-.1-5.79-.01-.86-.02-1.71-.04-2.57v-.5c-.02-1.42-.03-2.84-.04-4.25v-.82c-.01-1.87-.02-3.75-.02-5.62v-1285.98h1913.44v1285.98h0Z"/>
      <path class="cls-4" d="m2646.8,1243.66v1285.98c0,1.87,0,3.75-.01,5.62v.82c-.02,1.42-.02,2.84-.05,4.25v.5l-.04,2.57c-.02,1.93-.06,3.86-.1,5.79-.04,1.66-.07,3.32-.11,4.97,0,.12-.01.25-.01.38-.04,1.55-.08,3.1-.14,4.65-.02.72-.04,1.43-.06,2.14-.01.1-.01.2-.01.3-.05,1.61-.11,3.21-.17,4.82,0,.08-.01.15-.01.22-.08,2.01-.16,4.02-.25,6.02-.06,1.49-.14,2.99-.21,4.48-.04.71-.07,1.42-.11,2.12-.06,1.17-.12,2.35-.19,3.52-.07,1.17-.13,2.35-.21,3.52-.1,1.77-.21,3.53-.32,5.29-.1,1.49-.19,2.98-.31,4.46-.27,3.98-.56,7.95-.89,11.91-.06.75-.12,1.5-.19,2.25-.12,1.42-.23,2.82-.36,4.23-.1,1.13-.19,2.26-.31,3.38-.14,1.53-.28,3.07-.43,4.59-.14,1.44-.28,2.9-.43,4.34-.17,1.73-.35,3.45-.54,5.17-.12,1.07-.23,2.15-.35,3.22-.18,1.69-.37,3.38-.56,5.06-.18,1.61-.38,3.22-.58,4.83-.02.19-.04.38-.06.56-.18,1.54-.38,3.07-.56,4.6-.1.77-.19,1.53-.29,2.3-.01.09-.02.18-.04.27-.18,1.4-.37,2.81-.55,4.2-.04.28-.08.56-.11.83-.19,1.41-.39,2.81-.58,4.22-.12.84-.23,1.68-.35,2.52-.22,1.54-.44,3.09-.68,4.63-.23,1.63-.48,3.25-.72,4.87-.11.65-.21,1.3-.31,1.96-.21,1.33-.41,2.65-.62,3.97-.16,1.03-.33,2.07-.5,3.11-.38,2.38-.78,4.76-1.17,7.13-.19,1.13-.39,2.27-.59,3.4-.33,1.96-.68,3.91-1.03,5.85-.18.98-.36,1.96-.54,2.93-.08.47-.17.94-.26,1.41-.14.75-.27,1.5-.42,2.26-.24,1.31-.49,2.62-.75,3.93-.41,2.12-.82,4.24-1.23,6.35-.29,1.46-.59,2.91-.88,4.36-.02.12-.05.25-.08.37-.21,1-.41,2-.62,3-.22,1.12-.46,2.24-.7,3.37-.12.59-.24,1.17-.38,1.76-.31,1.49-.63,2.98-.96,4.46-.91,4.19-1.84,8.36-2.82,12.52-.25,1.08-.5,2.17-.76,3.25-.11.48-.22.95-.33,1.42-.49,2.04-.98,4.07-1.47,6.1-.08.31-.16.6-.23.91-.51,2.1-1.03,4.18-1.56,6.27-.53,2.15-1.09,4.29-1.65,6.44-.04.17-.09.34-.14.51-.49,1.93-1.01,3.86-1.52,5.78-.08.26-.14.52-.22.78-.55,2.1-1.12,4.19-1.7,6.28-.6,2.19-1.22,4.38-1.84,6.56-.59,2.06-1.17,4.11-1.77,6.16-.58,1.97-1.16,3.94-1.74,5.9-.38,1.26-.75,2.53-1.13,3.78-.28.95-.57,1.89-.86,2.83-.25.81-.51,1.63-.75,2.44-.37,1.18-.73,2.36-1.1,3.53-.35,1.11-.69,2.22-1.05,3.33-.22.72-.45,1.43-.68,2.14-.36,1.16-.74,2.32-1.11,3.48-.59,1.79-1.16,3.58-1.76,5.36-.71,2.14-1.43,4.28-2.15,6.42-.53,1.57-1.07,3.15-1.62,4.72-.12.38-.25.75-.38,1.12-.54,1.57-1.09,3.14-1.64,4.7-.11.33-.23.67-.35,1-.53,1.5-1.06,3-1.6,4.49-.16.48-.33.95-.51,1.42-.41,1.12-.81,2.23-1.22,3.35-.36,1.02-.74,2.03-1.12,3.04-.43,1.18-.86,2.36-1.32,3.53-.16.46-.34.93-.52,1.39-.49,1.33-1,2.67-1.5,3.99-1.46,3.84-2.94,7.66-4.45,11.48-.72,1.81-1.44,3.62-2.17,5.42-.65,1.63-1.32,3.27-1.98,4.89-.09.24-.19.48-.29.72-.69,1.71-1.4,3.42-2.11,5.12-.01.04-.02.06-.04.09-.67,1.63-1.34,3.25-2.03,4.86-.15.36-.31.72-.45,1.07-.68,1.59-1.35,3.18-2.04,4.76-.76,1.78-1.54,3.56-2.32,5.34-.78,1.78-1.56,3.55-2.35,5.32-1.57,3.55-3.18,7.08-4.8,10.59-.58,1.27-1.17,2.54-1.77,3.81-.39.86-.79,1.71-1.2,2.57-.36.79-.74,1.58-1.11,2.37-.65,1.38-1.3,2.75-1.97,4.13-.16.35-.33.69-.49,1.03-.65,1.35-1.29,2.69-1.94,4.03-.45.93-.91,1.87-1.37,2.8-.89,1.81-1.79,3.62-2.68,5.43-.89,1.8-1.79,3.59-2.69,5.37-.9,1.78-1.81,3.55-2.72,5.33-.39.76-.78,1.53-1.19,2.29-.65,1.27-1.3,2.53-1.97,3.8-.22.43-.44.86-.68,1.29-.77,1.48-1.54,2.95-2.34,4.43-.23.46-.49.92-.73,1.37-.73,1.39-1.48,2.77-2.23,4.15-.29.53-.58,1.07-.86,1.6-.76,1.4-1.51,2.79-2.28,4.18-1.31,2.38-2.63,4.77-3.95,7.14-1.05,1.88-2.12,3.75-3.18,5.63-1.03,1.81-2.06,3.61-3.1,5.41-.24.42-.47.83-.72,1.24-.76,1.32-1.53,2.64-2.31,3.96-.46.79-.92,1.57-1.39,2.36-.73,1.23-1.46,2.47-2.2,3.69-.18.31-.36.61-.54.91-.96,1.63-1.94,3.25-2.92,4.87-.16.27-.32.53-.48.8-1.1,1.81-2.21,3.63-3.32,5.44-2.29,3.73-4.62,7.45-6.97,11.14-.13.21-.26.41-.39.61-1.09,1.71-2.19,3.43-3.29,5.14h0c-.96,1.5-1.92,2.98-2.88,4.45-.62.95-1.24,1.9-1.86,2.85-.36.55-.71,1.09-1.07,1.63-.7,1.06-1.4,2.12-2.11,3.18-.56.84-1.12,1.67-1.68,2.51-.59.89-1.19,1.77-1.79,2.66-1.13,1.69-2.28,3.37-3.43,5.04-1.22,1.79-2.45,3.56-3.68,5.33-1.2,1.74-2.42,3.46-3.64,5.19-.18.27-.36.53-.56.8-.97,1.4-1.96,2.79-2.97,4.18-.34.49-.69.98-1.05,1.47-1.1,1.54-2.22,3.08-3.34,4.62-1.29,1.78-2.57,3.55-3.88,5.31-.02.03-.04.05-.06.08-1.07,1.46-2.14,2.91-3.23,4.35-.35.48-.7.96-1.06,1.43-1.21,1.62-2.42,3.22-3.64,4.83-1.47,1.93-2.94,3.86-4.42,5.78-1.14,1.48-2.28,2.95-3.43,4.43-.23.31-.47.61-.71.91-1.21,1.54-2.41,3.08-3.64,4.62-1.37,1.73-2.74,3.46-4.13,5.19-1.3,1.63-2.61,3.24-3.92,4.86-2.95,3.63-5.93,7.24-8.93,10.82-1.31,1.57-2.63,3.14-3.96,4.7-.07.08-.14.16-.21.23-1.39,1.63-2.78,3.27-4.18,4.89-1.06,1.24-2.13,2.47-3.21,3.71-.62.73-1.27,1.46-1.9,2.18-1.19,1.37-2.4,2.74-3.61,4.11-1.32,1.49-2.65,2.98-3.98,4.47-.26.3-.52.59-.79.89-2.74,3.04-5.49,6.07-8.25,9.08-1.29,1.4-2.59,2.8-3.89,4.18-.75.8-1.49,1.6-2.25,2.4-.83.89-1.67,1.77-2.51,2.65-.41.45-.83.89-1.26,1.34-1.17,1.24-2.36,2.48-3.55,3.71-.23.25-.48.51-.72.75-1.25,1.31-2.52,2.61-3.79,3.91-3.53,3.64-7.09,7.24-10.69,10.82-1.3,1.3-2.61,2.6-3.93,3.89-1.57,1.55-3.15,3.1-4.74,4.63-1.43,1.4-2.87,2.79-4.32,4.18-.27.27-.55.53-.82.79-1.44,1.39-2.9,2.77-4.36,4.15-.04.04-.06.06-.09.08-1.6,1.52-3.2,3.02-4.81,4.52-1.62,1.51-3.24,3.01-4.86,4.5-1.63,1.5-3.26,2.99-4.89,4.47-1.57,1.43-3.15,2.84-4.72,4.26-.16.15-.33.29-.49.43-1.55,1.39-3.11,2.77-4.67,4.15-1.66,1.46-3.33,2.92-4.99,4.37-1.36,1.18-2.71,2.36-4.08,3.52-2,1.73-4,3.44-6.02,5.14-1.68,1.42-3.37,2.82-5.06,4.23-1.64,1.38-3.3,2.75-4.95,4.12-1.36,1.11-2.71,2.22-4.07,3.32-.7.58-1.4,1.15-2.1,1.71-1.43,1.15-2.85,2.3-4.29,3.44-1.7,1.36-3.41,2.71-5.11,4.06-.04.02-.06.05-.09.06-.02.02-.04.04-.05.05-.97.76-1.94,1.53-2.91,2.28-.44.35-.87.69-1.31,1.02-.89.69-1.79,1.39-2.67,2.08-.51.39-1.01.79-1.53,1.17-1.02.78-2.03,1.56-3.04,2.34-1.29.99-2.58,1.97-3.88,2.94-2.58,1.96-5.18,3.9-7.79,5.83-1.17.86-2.33,1.72-3.5,2.58-.23.18-.47.35-.71.52-1.21.89-2.43,1.77-3.64,2.65-1.27.92-2.54,1.83-3.8,2.74-.17.12-.35.25-.52.36-1.2.86-2.4,1.71-3.59,2.57-1.32.94-2.65,1.87-3.98,2.81-2.65,1.87-5.33,3.72-8,5.56-1.21.83-2.42,1.66-3.64,2.49-.21.15-.42.29-.64.43-.96.66-1.93,1.31-2.9,1.96-.66.45-1.32.89-1.97,1.33-.88.58-1.75,1.17-2.63,1.75-.39.26-.78.53-1.18.78-1.06.72-2.14,1.42-3.22,2.13-2.7,1.79-5.43,3.56-8.17,5.32-1.37.88-2.73,1.76-4.11,2.63-1.37.87-2.74,1.74-4.12,2.61-1.37.86-2.75,1.73-4.13,2.58-1.36.85-2.74,1.7-4.12,2.55-.05.04-.11.07-.16.1-1.34.82-2.68,1.64-4.02,2.46-1.4.85-2.78,1.69-4.19,2.53-.97.59-1.94,1.17-2.92,1.74-1.12.68-2.25,1.34-3.38,2.01-1.03.62-2.07,1.22-3.1,1.83-.72.42-1.44.85-2.17,1.26-2.26,1.32-4.52,2.63-6.8,3.92-.9.52-1.81,1.03-2.72,1.55-2.84,1.61-5.68,3.2-8.53,4.77-1.42.79-2.85,1.57-4.28,2.36-1.43.79-2.86,1.56-4.3,2.34-1.4.76-2.8,1.51-4.21,2.26-1.15.62-2.3,1.23-3.45,1.83-1.26.66-2.5,1.32-3.76,1.97-1.96,1.03-3.93,2.05-5.9,3.06-.99.51-1.97,1.01-2.95,1.51-1.31.67-2.62,1.33-3.94,2-1.02.51-2.03,1.02-3.05,1.53-2.05,1.03-4.11,2.04-6.17,3.05-1.06.52-2.12,1.05-3.19,1.56-.88.43-1.77.86-2.65,1.29-3.76,1.81-7.54,3.61-11.33,5.36-1.25.59-2.51,1.17-3.78,1.75-1.66.76-3.31,1.52-4.97,2.27-5.49,2.48-10.99,4.92-16.52,7.29-1.62.7-3.24,1.4-4.86,2.08-.26.11-.51.22-.76.32-1.62.69-3.24,1.36-4.86,2.04-1.44.6-2.89,1.2-4.33,1.79-.72.3-1.44.59-2.17.89-6.38,2.61-12.81,5.14-19.26,7.61-.95.37-1.92.73-2.88,1.1-.83.32-1.66.63-2.48.93-.92.35-1.84.69-2.75,1.03-1.44.54-2.88,1.07-4.33,1.6-1.78.65-3.56,1.3-5.35,1.94-3.35,1.2-6.7,2.39-10.06,3.55-1.2.42-2.4.83-3.59,1.24-.33.12-.66.23-.99.34-1.02.35-2.04.7-3.07,1.05-.94.32-1.87.63-2.82.95-.93.31-1.86.62-2.8.93-3.32,1.1-6.65,2.18-10,3.25-1.78.57-3.55,1.13-5.33,1.68-1.42.45-2.83.88-4.24,1.31-1.06.33-2.13.65-3.18.97-1.02.32-2.04.62-3.06.92-.58.18-1.16.35-1.74.52-.93.28-1.86.56-2.79.82-1.06.32-2.13.63-3.2.94-4.97,1.44-9.95,2.85-14.96,4.21-.83.22-1.67.45-2.5.67-1.03.29-2.08.56-3.13.84-1.13.31-2.28.6-3.43.9-.02.01-.05.02-.09.02-1.52.4-3.04.79-4.57,1.19-3.31.85-6.62,1.68-9.94,2.49-1.62.4-3.24.79-4.87,1.18-1.1.26-2.2.53-3.31.78-1.03.25-2.06.49-3.09.73-.44.11-.88.21-1.33.31-1.2.28-2.41.56-3.62.83-.83.19-1.66.38-2.5.56-2.43.55-4.86,1.08-7.31,1.6-1.1.24-2.22.48-3.32.71-3,.63-6,1.26-9.01,1.86-1.18.24-2.36.48-3.54.71-1.32.26-2.64.52-3.96.78-1.59.31-3.17.61-4.76.9-.96.18-1.91.36-2.87.53-1.96.36-3.94.72-5.91,1.07-2.96.53-5.92,1.04-8.9,1.54-.32.06-.65.11-.96.16-1.28.21-2.55.42-3.83.63-.46.08-.93.15-1.39.23-1.17.19-2.35.38-3.52.56-.65.11-1.32.21-1.97.31-1.27.2-2.54.39-3.82.59-6.82,1.03-13.65,1.99-20.52,2.88-1.3.17-2.6.33-3.9.49-1.42.18-2.86.36-4.29.53-1.3.16-2.61.32-3.91.46-.83.1-1.66.19-2.48.29-.54.06-1.08.12-1.62.18-1.31.15-2.62.29-3.93.43-3.56.39-7.15.75-10.72,1.1-.91.09-1.82.17-2.73.26-.93.09-1.85.17-2.78.25-1.02.09-2.03.18-3.04.27-1.05.09-2.1.18-3.15.27-.53.05-1.06.09-1.6.14-1.86.15-3.73.3-5.6.45h-.04c-1.26.1-2.51.19-3.78.28-.77.06-1.54.11-2.32.16-1.76.12-3.52.24-5.29.36-1.63.11-3.27.21-4.89.3h-.13c-1.35.08-2.72.16-4.08.23-.75.04-1.5.08-2.25.12-.88.05-1.77.09-2.65.14-1.48.08-2.97.15-4.47.21-.27.02-.55.03-.82.04-1.53.07-3.05.13-4.56.19-2.34.09-4.67.18-7.01.25-1.73.06-3.45.11-5.19.15-1.19.04-2.4.06-3.6.09-1.09.03-2.17.05-3.26.07-.44.01-.89.02-1.33.03-1.32.02-2.63.05-3.95.06-1.16.02-2.32.03-3.48.04-1.57.02-3.14.04-4.7.04-1.91.01-3.82.02-5.74.02s-3.83,0-5.74-.02c-1.56,0-3.13-.02-4.7-.04-1.16-.01-2.32-.02-3.48-.04-1.31-.02-2.63-.04-3.94-.06-.44,0-.89-.02-1.33-.03-1.09-.02-2.17-.04-3.27-.07-1.2-.02-2.4-.05-3.59-.09-1.74-.04-3.47-.09-5.2-.15-2.33-.07-4.66-.16-7-.25-1.52-.06-3.04-.12-4.56-.19-.27-.01-.55-.02-.82-.04-1.49-.06-2.98-.14-4.46-.21-.88-.04-1.77-.08-2.65-.14-.75-.04-1.51-.08-2.26-.12-1.36-.08-2.72-.15-4.07-.23h-.13c-1.63-.09-3.27-.19-4.9-.3-1.77-.12-3.53-.23-5.29-.36-.78-.05-1.54-.11-2.31-.16-1.27-.09-2.53-.18-3.78-.28h-.05c-1.87-.15-3.76-.29-5.63-.45-.46-.04-.93-.07-1.39-.11-1.16-.09-2.31-.19-3.46-.3-.96-.08-1.93-.16-2.89-.25-.94-.09-1.87-.17-2.81-.26-.91-.09-1.81-.17-2.73-.26-3.58-.35-7.16-.71-10.72-1.1-1.32-.14-2.63-.28-3.93-.43-.54-.06-1.07-.12-1.62-.18-.83-.09-1.66-.19-2.48-.29-1.3-.15-2.61-.31-3.91-.46-1.43-.17-2.87-.35-4.29-.53-1.3-.16-2.6-.32-3.89-.49-6.87-.89-13.71-1.84-20.52-2.88-1.28-.19-2.55-.39-3.82-.59-.67-.1-1.32-.2-1.98-.31-1.17-.18-2.35-.37-3.52-.56-.46-.08-.93-.15-1.39-.23-1.28-.21-2.55-.42-3.83-.63-.36-.06-.72-.12-1.06-.18-2.91-.49-5.81-.99-8.71-1.5-1.95-.35-3.88-.7-5.83-1.06-1.12-.21-2.24-.42-3.35-.63-1.49-.28-2.98-.56-4.46-.85-1.33-.25-2.64-.51-3.96-.78-1.18-.23-2.36-.47-3.54-.71-3-.6-6.01-1.22-9-1.86-1.11-.23-2.22-.47-3.33-.71-2.43-.52-4.87-1.06-7.31-1.6-.87-.19-1.74-.39-2.61-.59-1.09-.24-2.17-.49-3.24-.74-.58-.12-1.15-.26-1.72-.39-1-.23-1.99-.46-2.97-.7-1.11-.25-2.2-.52-3.31-.78-1.62-.39-3.25-.78-4.87-1.18-3.24-.79-6.48-1.6-9.71-2.43-1.6-.41-3.21-.83-4.81-1.25-.02,0-.05-.01-.07-.02-1.26-.32-2.51-.66-3.76-.99-.75-.19-1.5-.4-2.27-.6-1.14-.31-2.28-.61-3.41-.92-.21-.06-.43-.12-.65-.18-1.44-.39-2.89-.79-4.33-1.19-3.21-.89-6.4-1.8-9.6-2.73-.86-.25-1.73-.5-2.6-.76-1.25-.36-2.48-.73-3.72-1.1-1.38-.41-2.77-.83-4.15-1.25-1.28-.38-2.56-.78-3.84-1.17-6.44-1.97-12.87-4.02-19.25-6.14-.99-.33-2-.66-3-.99-.76-.26-1.52-.51-2.27-.77-1.28-.43-2.55-.86-3.82-1.3-1.4-.48-2.78-.95-4.18-1.44-3.37-1.16-6.72-2.35-10.05-3.55-1.7-.61-3.4-1.22-5.09-1.84-3.14-1.15-6.28-2.32-9.41-3.51-1.23-.46-2.47-.93-3.7-1.41-6.95-2.66-13.86-5.4-20.72-8.22-1.56-.63-3.1-1.27-4.64-1.91-1.62-.67-3.24-1.35-4.86-2.04-.26-.11-.52-.22-.76-.32-1.62-.69-3.24-1.38-4.86-2.08-4.02-1.72-8.01-3.47-11.99-5.26-1.41-.62-2.82-1.26-4.22-1.9-1.56-.7-3.12-1.42-4.67-2.13-5.27-2.41-10.51-4.88-15.72-7.39-1-.48-2-.97-3.01-1.46-1.07-.52-2.13-1.03-3.19-1.56-1.63-.79-3.25-1.59-4.87-2.4-1.29-.64-2.57-1.28-3.85-1.93-.82-.41-1.63-.82-2.45-1.23-5.13-2.6-10.23-5.24-15.3-7.93-1.22-.65-2.43-1.29-3.65-1.94-.33-.18-.66-.35-.99-.53-1.29-.69-2.56-1.38-3.84-2.08-.45-.24-.9-.48-1.34-.73-1.49-.81-2.99-1.63-4.48-2.45-1.69-.93-3.37-1.87-5.06-2.81-2.05-1.15-4.1-2.3-6.14-3.47-1.12-.63-2.24-1.27-3.35-1.92-1.22-.69-2.43-1.4-3.65-2.11-1.02-.59-2.04-1.18-3.05-1.78-.99-.58-1.98-1.16-2.97-1.74-6.5-3.83-12.94-7.73-19.33-11.72-1.19-.75-2.4-1.5-3.6-2.26-1.1-.69-2.21-1.4-3.32-2.1l-2.44-1.55c-.83-.53-1.65-1.06-2.47-1.59-1.37-.88-2.73-1.76-4.09-2.65-2.84-1.84-5.66-3.7-8.47-5.58-.88-.58-1.74-1.16-2.63-1.75-1.28-.85-2.55-1.71-3.82-2.58-1.09-.72-2.16-1.46-3.23-2.2-3.58-2.44-7.14-4.9-10.68-7.39-1.4-.98-2.79-1.96-4.18-2.95-.34-.24-.69-.49-1.03-.73-1.03-.73-2.06-1.47-3.08-2.21-6.28-4.51-12.5-9.1-18.66-13.76-.95-.71-1.88-1.43-2.82-2.15-.96-.73-1.93-1.46-2.88-2.2-1.06-.81-2.12-1.63-3.18-2.44-.66-.52-1.33-1.03-2-1.55-1.51-1.17-3.01-2.36-4.51-3.54-.14-.11-.27-.21-.4-.31-1.6-1.27-3.21-2.54-4.8-3.82-1.38-1.1-2.75-2.21-4.13-3.32-.83-.66-1.65-1.33-2.47-2-.56-.46-1.12-.92-1.69-1.39-.88-.72-1.76-1.44-2.64-2.16-1.49-1.23-3-2.47-4.48-3.72-1.69-1.41-3.38-2.82-5.06-4.24-2.1-1.78-4.21-3.57-6.29-5.37-1.24-1.06-2.47-2.13-3.71-3.21-.08-.06-.15-.13-.23-.2-1.59-1.38-3.18-2.77-4.76-4.16-.07-.06-.14-.12-.21-.18-1.36-1.19-2.71-2.39-4.05-3.6-1.91-1.7-3.82-3.42-5.73-5.14-1.6-1.44-3.19-2.9-4.77-4.36-3.09-2.84-6.15-5.69-9.2-8.57-.85-.79-1.69-1.59-2.52-2.38-.59-.56-1.19-1.12-1.78-1.7-.82-.78-1.64-1.56-2.45-2.36-.83-.78-1.65-1.57-2.47-2.38-.63-.6-1.27-1.23-1.91-1.85-2.13-2.06-4.24-4.14-6.33-6.23-.92-.9-1.84-1.81-2.75-2.73-2.71-2.71-5.4-5.43-8.07-8.17-.95-.97-1.89-1.94-2.82-2.91-.55-.55-1.09-1.12-1.62-1.67-.88-.9-1.74-1.8-2.6-2.71-.51-.52-1-1.04-1.49-1.57-1.03-1.07-2.06-2.15-3.07-3.23-.21-.21-.41-.42-.6-.63-1.22-1.29-2.44-2.6-3.65-3.89-1.27-1.36-2.54-2.73-3.81-4.11-1.25-1.36-2.5-2.72-3.74-4.09-.97-1.06-1.94-2.13-2.9-3.19-.4-.44-.8-.88-1.19-1.32-.71-.79-1.42-1.59-2.13-2.38-.78-.87-1.56-1.74-2.33-2.61-1.13-1.29-2.27-2.58-3.41-3.87-1.07-1.22-2.13-2.44-3.19-3.66-1.03-1.18-2.04-2.36-3.05-3.55-.88-1.01-1.75-2.03-2.61-3.04-.56-.65-1.1-1.29-1.65-1.94-.67-.78-1.32-1.56-1.99-2.35-.74-.88-1.48-1.76-2.21-2.64-2.46-2.94-4.9-5.9-7.32-8.86-.62-.75-1.23-1.5-1.83-2.25-.97-1.19-1.93-2.38-2.89-3.58-.07-.09-.15-.19-.22-.29-1.34-1.67-2.68-3.34-4.01-5.02-1-1.27-2-2.54-3-3.82-.6-.76-1.19-1.52-1.79-2.28-.66-.85-1.32-1.69-1.97-2.54-.71-.92-1.42-1.84-2.13-2.77-2.8-3.65-5.57-7.31-8.31-11-.86-1.15-1.71-2.3-2.56-3.45-.46-.63-.93-1.26-1.39-1.9-.83-1.13-1.67-2.27-2.5-3.41-.31-.42-.62-.85-.92-1.27-.92-1.27-1.84-2.54-2.75-3.81-.41-.56-.81-1.12-1.2-1.68-.74-1.03-1.47-2.06-2.2-3.09-.58-.8-1.15-1.62-1.71-2.43-3.47-4.92-6.88-9.88-10.25-14.88-.62-.9-1.23-1.81-1.83-2.71-.56-.83-1.12-1.67-1.68-2.51-.7-1.06-1.41-2.11-2.11-3.18-.36-.54-.72-1.08-1.07-1.63-.65-.99-1.3-1.98-1.95-2.98-.7-1.06-1.39-2.13-2.07-3.19-.38-.58-.75-1.15-1.12-1.73-.94-1.46-1.89-2.92-2.81-4.39-.16-.26-.32-.51-.48-.77-1.16-1.81-2.31-3.64-3.45-5.47-1.18-1.88-2.35-3.77-3.51-5.66-1.02-1.66-2.04-3.32-3.05-4.98-.48-.78-.95-1.56-1.42-2.35-.63-1.05-1.27-2.09-1.89-3.14-.57-.95-1.14-1.9-1.7-2.86-.31-.52-.62-1.03-.92-1.55-.71-1.2-1.42-2.4-2.11-3.6-.65-1.1-1.3-2.21-1.93-3.32-.3-.5-.59-1-.87-1.51-.82-1.4-1.62-2.79-2.41-4.19-1.3-2.27-2.57-4.53-3.85-6.81-.94-1.69-1.88-3.37-2.81-5.06-.62-1.12-1.23-2.24-1.84-3.36-.44-.8-.88-1.6-1.31-2.4-.55-1.01-1.1-2.02-1.64-3.04-.45-.82-.89-1.65-1.33-2.48-.51-.94-1.02-1.89-1.51-2.83-.49-.92-.97-1.83-1.46-2.75-.49-.94-.99-1.88-1.48-2.82-.37-.7-.73-1.42-1.1-2.12-.65-1.25-1.3-2.5-1.94-3.75-1.76-3.44-3.51-6.88-5.22-10.35-.86-1.73-1.73-3.46-2.57-5.2-.61-1.24-1.22-2.48-1.81-3.73-.45-.92-.89-1.83-1.33-2.75-.43-.86-.84-1.73-1.25-2.6-.39-.8-.77-1.6-1.14-2.41-.58-1.19-1.13-2.38-1.69-3.57-.27-.58-.54-1.15-.8-1.73-.66-1.39-1.3-2.79-1.94-4.19-1.63-3.52-3.22-7.05-4.8-10.59-1.58-3.54-3.14-7.09-4.67-10.66-.69-1.59-1.37-3.17-2.04-4.76-.15-.35-.31-.71-.45-1.07-.69-1.62-1.37-3.24-2.04-4.86-.02-.02-.03-.05-.04-.09-.73-1.74-1.46-3.49-2.17-5.24-.04-.09-.07-.18-.11-.26-2.19-5.34-4.33-10.7-6.41-16.09-.43-1.12-.87-2.24-1.29-3.37-.34-.88-.68-1.75-1.01-2.63-.51-1.34-1.02-2.7-1.52-4.05-.18-.46-.35-.92-.52-1.39-.46-1.22-.92-2.45-1.37-3.68-.31-.83-.62-1.67-.92-2.51-.53-1.43-1.05-2.86-1.56-4.29-.66-1.84-1.32-3.68-1.97-5.51-.65-1.84-1.3-3.69-1.93-5.53-.67-1.94-1.34-3.88-2-5.83-.72-2.14-1.44-4.28-2.15-6.42-.59-1.79-1.17-3.57-1.76-5.36-.41-1.26-.81-2.51-1.21-3.77-.16-.49-.32-.98-.47-1.47-.43-1.33-.85-2.67-1.26-4-.32-1.02-.63-2.03-.95-3.05-.28-.88-.55-1.74-.81-2.62-.29-.94-.58-1.89-.86-2.83-.39-1.26-.76-2.52-1.14-3.78-.73-2.43-1.44-4.87-2.15-7.31-.46-1.58-.91-3.17-1.36-4.75-.62-2.18-1.23-4.37-1.83-6.56-.58-2.08-1.15-4.18-1.71-6.28-.08-.26-.15-.52-.21-.78-.52-1.92-1.03-3.85-1.53-5.78-.05-.17-.09-.34-.14-.51-.56-2.14-1.11-4.29-1.65-6.44-.53-2.09-1.05-4.18-1.56-6.27-.08-.31-.15-.6-.23-.91-.49-2.03-.99-4.06-1.47-6.1-.12-.48-.23-.95-.33-1.42-.26-1.08-.51-2.17-.76-3.25-.97-4.16-1.91-8.33-2.82-12.52-.32-1.49-.65-2.97-.96-4.46-.13-.59-.25-1.17-.38-1.76-.24-1.12-.48-2.24-.7-3.37-.21-1-.41-2-.62-3-.03-.12-.05-.25-.08-.37-.29-1.45-.59-2.9-.88-4.36-.42-2.11-.83-4.23-1.24-6.35-.25-1.31-.5-2.62-.75-3.93-.14-.75-.28-1.5-.42-2.26-.09-.47-.18-.94-.26-1.41-.18-.97-.36-1.95-.53-2.93-.35-1.94-.69-3.89-1.03-5.85-.19-1.13-.39-2.27-.58-3.4-.41-2.37-.8-4.75-1.18-7.13-.17-1.03-.33-2.07-.5-3.11-.21-1.32-.42-2.64-.62-3.97-.1-.65-.2-1.3-.3-1.96-.25-1.62-.49-3.25-.73-4.87-.23-1.54-.45-3.08-.67-4.63l-.35-2.52c-.19-1.4-.39-2.81-.58-4.22-.04-.28-.08-.55-.11-.83-.19-1.4-.38-2.8-.55-4.2-.01-.09-.02-.18-.04-.27-.1-.77-.2-1.53-.29-2.3-.19-1.53-.39-3.07-.57-4.6-.02-.18-.05-.37-.06-.56-.2-1.61-.39-3.22-.58-4.83-.19-1.69-.39-3.37-.57-5.06-.12-1.07-.23-2.15-.35-3.22-.18-1.72-.36-3.44-.53-5.17-.15-1.44-.29-2.9-.43-4.34-.15-1.53-.3-3.06-.43-4.59-.11-1.13-.21-2.26-.31-3.38-.13-1.4-.25-2.81-.36-4.23-.06-.75-.12-1.5-.18-2.25-.33-3.96-.63-7.93-.9-11.91-.11-1.49-.21-2.97-.3-4.46-.11-1.76-.22-3.52-.32-5.29-.07-1.17-.14-2.34-.2-3.52s-.13-2.35-.19-3.52c-.04-.7-.08-1.41-.11-2.12-.08-1.49-.15-2.99-.21-4.48-.09-2-.18-4.01-.25-6.02,0-.07-.01-.15-.01-.22-.06-1.6-.12-3.21-.17-4.82,0-.1,0-.2-.01-.3-.02-.71-.05-1.43-.06-2.14-.05-1.55-.09-3.1-.14-4.65,0-.12,0-.25,0-.38-.04-1.66-.08-3.31-.11-4.97-.04-1.93-.08-3.86-.1-5.79-.01-.86-.02-1.71-.04-2.57v-.5c-.02-1.42-.03-2.84-.04-4.25v-.82c-.01-1.87-.02-3.75-.02-5.62v-1285.98h1913.44,0Z"/>
    </g>
    <g>
      <g>
        <path class="cls-1" d="m1508.32,1628.42v736.59h-447.29v-736.59h447.29Z"/>
        <path class="cls-1" d="m1036.07,1679.12c9.21,9.53,18.43,19.05,27.64,28.58,152.49-39.88,300.94-37.18,448.46,0,8.12-9.53,16.24-19.05,24.36-28.58-8.25-14.53-23.38-36.22-49.27-51.93-25.71-15.6-50.24-18.16-80.59-19.84-89.03-4.93-103.69,4.55-182.67,2.9-44.12-.92-79.75-4.72-119.85,8.68-25.07,8.37-41.82,20.11-53.73,35.13-7.48,9.43-11.82,18.6-14.36,25.07h0Z"/>
        <path class="cls-1" d="m1032.83,1524.56l66.35-16.81v63.34l71.71-15.48v-72.14l71.71-10.55v77.49h82.5v-77.49l71.71,10.55v72.14l71.71,17.4v-69.44l66.86,21.89,1.17,153.65c-129.42-51.22-368.31-53.95-500.46,0l-3.25-154.55h-.01Z"/>
        <path class="cls-1" d="m1066.16,1964.77c132.93-22.41,289.33-27.37,441.81,0,18.38,1.96,18.38-28.11-.39-32.02-147.91-28.62-311.22-27.72-442.59,0-23.26,4.69-23.26,32.81.97,32.02h.2Z"/>
        <g id="b">
          <g id="c">
            <path class="cls-9" d="m1119.08,1856.81l36.75-6.14-.78-61.38c-7.7-15.99-29.13-13.02-35.97,2.34v65.18Z"/>
            <path class="cls-9" d="m1216.83,1843.12l37.14-3.09-.78-62.56c-7.24-15.99-26.78-14.62-35.97,1.91l-.39,63.73h0Z"/>
          </g>
          <g id="c-2">
            <path class="cls-9" d="m1450.25,1856.81l-36.75-6.14.78-61.38c7.7-15.99,29.13-13.02,35.97,2.34v65.18Z"/>
            <path class="cls-9" d="m1352.5,1843.12l-37.14-3.09.78-62.56c7.24-15.99,26.78-14.62,35.97,1.91l.39,63.73h0Z"/>
          </g>
        </g>
        <g id="b-2">
          <g id="c-3">
            <path class="cls-9" d="m1119.08,2118.45l36.75-6.14-.78-61.38c-7.7-15.99-29.13-13.02-35.97,2.34v65.18Z"/>
            <path class="cls-9" d="m1216.83,2104.77l37.14-3.09-.78-62.56c-7.24-15.99-26.78-14.62-35.97,1.91l-.39,63.73h0Z"/>
          </g>
          <g id="c-4">
            <path class="cls-9" d="m1450.25,2118.45l-36.75-6.14.78-61.38c7.7-15.99,29.13-13.02,35.97,2.34v65.18Z"/>
            <path class="cls-9" d="m1352.5,2104.77l-37.14-3.09.78-62.56c7.24-15.99,26.78-14.62,35.97,1.91l.39,63.73h0Z"/>
          </g>
        </g>
      </g>
      <g>
        <path class="cls-1" d="m2305.78,1628.42v736.59h-447.29v-736.59h447.29Z"/>
        <path class="cls-1" d="m1833.53,1679.12c9.21,9.53,18.43,19.05,27.64,28.58,152.49-39.88,300.94-37.18,448.46,0,8.12-9.53,16.24-19.05,24.36-28.58-8.25-14.53-23.38-36.22-49.27-51.93-25.71-15.6-50.24-18.16-80.59-19.84-89.03-4.93-103.69,4.55-182.67,2.9-44.12-.92-79.75-4.72-119.85,8.68-25.07,8.37-41.82,20.11-53.73,35.13-7.48,9.43-11.82,18.6-14.36,25.07h0Z"/>
        <path class="cls-1" d="m1830.29,1524.56l66.35-16.81v63.34l71.71-15.48v-72.14l71.71-10.55v77.49h82.5v-77.49l71.71,10.55v72.14l71.71,17.4v-69.44l66.86,21.89,1.17,153.65c-129.42-51.22-368.31-53.95-500.46,0l-3.25-154.55h-.01Z"/>
        <path class="cls-1" d="m1863.62,1964.77c132.93-22.41,289.33-27.37,441.81,0,18.38,1.96,18.38-28.11-.39-32.02-147.91-28.62-311.22-27.72-442.59,0-23.26,4.69-23.26,32.81.97,32.02h.2Z"/>
        <g id="b-3">
          <g id="c-5">
            <path class="cls-9" d="m1916.54,1856.81l36.75-6.14-.78-61.38c-7.7-15.99-29.13-13.02-35.97,2.34v65.18h0Z"/>
            <path class="cls-9" d="m2014.28,1843.12l37.14-3.09-.78-62.56c-7.24-15.99-26.78-14.62-35.97,1.91l-.39,63.73h0Z"/>
          </g>
          <g id="c-6">
            <path class="cls-9" d="m2247.7,1856.81l-36.75-6.14.78-61.38c7.7-15.99,29.13-13.02,35.97,2.34v65.18Z"/>
            <path class="cls-9" d="m2149.95,1843.12l-37.14-3.09.78-62.56c7.24-15.99,26.78-14.62,35.97,1.91l.39,63.73h0Z"/>
          </g>
        </g>
        <g id="b-4">
          <g id="c-7">
            <path class="cls-9" d="m1916.54,2118.45l36.75-6.14-.78-61.38c-7.7-15.99-29.13-13.02-35.97,2.34v65.18h0Z"/>
            <path class="cls-9" d="m2014.28,2104.77l37.14-3.09-.78-62.56c-7.24-15.99-26.78-14.62-35.97,1.91l-.39,63.73h0Z"/>
          </g>
          <g id="c-8">
            <path class="cls-9" d="m2247.7,2118.45l-36.75-6.14.78-61.38c7.7-15.99,29.13-13.02,35.97,2.34v65.18Z"/>
            <path class="cls-9" d="m2149.95,2104.77l-37.14-3.09.78-62.56c7.24-15.99,26.78-14.62,35.97,1.91l.39,63.73h0Z"/>
          </g>
        </g>
      </g>
    </g>
    <g>
      <g class="cls-14">
        <g>
          <path id="schwarz" class="cls-12" d="m1421.33,2746.67h536.55c-.07,104.25.16,208.5-.12,312.74-.73,9.34-1.87,18.64-3.01,27.94-8.67,51.85-32.24,101.31-68.19,139.8-29.83,32.69-68.04,57.46-109.77,72.08-19.4,6.37-39.42,11.22-59.81,12.92-13.81,2.11-27.87.95-41.79,1.14-57.42-2.9-113.72-25.14-157.64-62.3-50.51-42.14-84.71-103.38-93.62-168.6-1.39-8.06-1.6-16.24-2.63-24.34,0-103.8,0-207.6,0-311.4h0Z"/>
          <path id="weiss" class="cls-10" d="m1431.12,2756.61h517.07c0,74.53,0,149.06,0,223.59-.12,25.07.27,50.14-.28,75.2-1.74,40.75-13.22,81.05-33.31,116.55-34.56,61.72-95.33,108.22-164.23,124.61-38.67,9.38-79.56,9.64-118.35.75-46.21-10.59-89.38-34.23-123.03-67.64-50.83-49.22-79.58-120.07-77.88-190.77v-282.29h0Z"/>
        </g>
      </g>
      <path id="weiss-2" class="cls-2" d="m1445.9,2769.73h488.68c0,70.77,0,141.54,0,212.31-.11,23.8.25,47.61-.26,71.41-1.64,38.69-12.5,76.96-31.48,110.66-32.66,58.6-90.1,102.76-155.21,118.32-36.55,8.91-75.19,9.16-111.84.72-43.67-10.05-84.48-32.5-116.27-64.23-48.04-46.74-75.22-114.01-73.61-181.14v-268.05h0Z"/>
      <g>
        <g id="pferd">
          <path id="koerper" class="cls-10" d="m1801.88,2787.36c-.96,6.69-1.89,13.36-2.45,20.1-13.48,6.13-24.24,16.49-35.86,25.39-4.4,3.65-9.83,6.7-12.01,12.29,4.85,1.58,3.88,7.18-.21,8.9,1.27,1.77,2.26,4.66,4.98,4.3,4.55.21,4.77-7.03,9.59-6.28,2.88-.47,7.41,1.19,5.94,4.85-1.71,2.12-4.55,2.01-6.96,2.53-1.03.89-2.05,1.76-3.07,2.66,4.95,1.55,10.57,3.29,15.53.82,4.06-1.96,3.56-8.43,8.39-9.38,10.35-2.31,21.11.65,31.53-1.13,4.76-1.57,6.83-6.51,8.7-10.71,2.91.39,6.55,2.43,5.36,5.94-2.62,8.49-11.33,13.42-19.96,13.03-6.63,21.4-29.41,30.5-41.94,47.67-5.95,7.63-9.16,17.1-9.73,26.72-9.4,3.09-18.68,6.46-28.11,9.45-6.15,1.4-8.72,7.85-12.73,12.05,3.18,5.1,6.09,10.42,8.02,16.14,2.84,7.56,3.78,15.67,6.92,23.13,2.86.18,6.19.14,8.12,2.66,2.24,2.13,2.14,5.41,2.25,8.26,4.43,4.25,9.58,8.3,15.93,8.9,3.52-8.75,2.07-18.32-.55-27.09-3.18-.01-6.35-.02-9.52,0-.01-1.86-.03-3.71-.04-5.56-5.25-2.68-11.02-6.47-12.05-12.76-1.1-4.76,1.32-9.24,4.26-12.8,13.85.56,27.66,2.01,41.53,1.94,5.37.15,8.97-4.57,11.36-8.77.88.08,2.63.23,3.51.31,3.51,4.96-.85,10.26-5.05,12.93-8.13,5.64-18.36,1.96-27.47,2.45,2.27,4.32,4.74,8.59,8.05,12.22,13.84,15.2,36.07,19.3,49.17,35.35,3.25,4.43,7.41,9.17,6.96,15.05.05,10.24,1.04,20.52,3.51,30.47,1.71,6.13,3.95,12.62,9.07,16.76,8.64,7.25,17.85,14.07,24.91,22.96,4.42,5.49,6.81,12.9,5.29,19.89-1.94,10.75-7.51,20.33-12.56,29.86,1.63,4.13-.07,9.76-4.75,10.85-7.98.9-11.56,9.68-13.24,16.51,9.17,3.62,19.23,2.37,28.46-.31,0-3.79-.28-7.62.1-11.4.57-2.92,3.51-3.95,5.84-5.12.47-19.49,8.08-37.83,15.66-55.48-7.29-13.26-13.18-27.84-12.35-43.27,9.07-11.91,18.26-26.18,15.83-41.87-3.51-17.41-18.48-28.87-31.53-39.41-10.2-10.25-18.47-22.95-21.81-37.16-1.67-7.31-1.37-14.89-.89-22.32,6.24-2.5,12.8-4.11,19.52-4.54-4.5-3.7-7.93-8.46-10.99-13.38,10.4-2.37,20.79-5.11,30.5-9.59-8.3-5.02-13.6-13.34-18.15-21.64,10.05,3.19,20.75,2.89,30.92.41-10.58-8.29-14.91-21.89-25.08-30.61,6.21-1.34,12.33-3.21,18.05-6.01-7.39-11.53-20.66-17.57-33.61-20.4,6.35-3.05,12.55-6.78,17.16-12.22-16.43,1.61-32.91-.23-49.14-2.8.66,4.03,1.86,8.96-1.13,12.35-1.89,1.99-4.81,1.07-7.13.72.88-3.45,2.53-7.04,1.26-10.61-1.59-6.38-6.82-10.89-12.18-14.23v.04Zm-13.75,35.73c3.35.12,6.52,3.04,9.14,4.94-2.86,1.47-5.9,2.49-9.01,3.28-1.69-1-3.37-2-5.05-3,.52-1.42,1.03-2.84,1.53-4.26,1.13-.72,2.26-1,3.38-.96h0Z"/>
          <path id="huf_oben" data-name="huf oben" class="cls-10" d="m1720.23,2873.84c4.52.02,9.04.02,13.57,0,11,8.53,21.9,17.18,32.85,25.76-6.01,6.9-10.74,15.02-12.82,23.99-5.58-10.34-11.05-20.74-16.67-31.06-.74-2.06-3.14-1.48-4.72-1.02-3.96.96-7.68,3.45-9.33,7.28-2.38,5.01-.76,10.67.6,15.72-1.32,1.33-2.65,2.66-3.96,4,2.14,2.4,4.32,4.76,6.56,7.07-4.25,7.92-10.11,15.8-18.84,19.03-3.39-5.1-4.78-11.19-4.39-17.27,2.03-2.01,4.32-4.34,4.15-7.44.15-2.99-2.17-5.13-3.89-7.24,5.35-13.08,14.85-24.46,16.89-38.83h0Z"/>
          <path id="schweif" class="cls-10" d="m1896.49,2898.01c7.75,3.57,15.53,8.19,19.92,15.8,4.96,8.4,4.81,19.54-.35,27.81-3.9,7.01-10.85,13.17-10.41,21.83.17,9.24,7.17,15.96,11.26,23.64,3.4,6.21,4.08,14.59-.46,20.41-3.38,4.36-9.44,5.3-14.55,4.09.85-.78,2.55-2.34,3.41-3.12,1.31-4.59.05-9.81-3.81-12.8-9-7.46-21.6-10.69-28.13-21.02-5.15-8.06-3.56-18.29,0-26.64,2.32-6.59,7.11-12.77,6.22-20.1-.52-4.58-4.32-7.63-7.66-10.32,7.72-4.08,18.32-1.51,22.49,6.41,3.05-8.3,3.85-17.33,2.06-26.01h0Z"/>
          <path id="huf_unten" data-name="huf unten" class="cls-10" d="m1793.89,3028.08c2.94-8.15,10.99-12.71,18.81-15.21,4.12,4.32,8.4,9.04,10.16,14.84.08,14.26,1.87,28.82,7.86,41.9-8.91,10.36-10.07,24.75-10.52,37.83-11.71-.11-23.45-.47-35.14.42-6.3.08-11.95,3.79-18.33,3.12.01,3.14.03,6.27.08,9.41-8.66,3.05-18.43,3.92-27.13.56.73-6.37,4.55-11.82,9.2-16.01,2.65-.16,5.73.16,7.85-1.81,2.44-1.86,2.62-5.11,3.05-7.88,15.45.11,30.89.03,46.34.04-.29-11.53-5.88-21.82-10-32.31-4.27-10.97-6.27-23.58-2.24-34.91h0Z"/>
        </g>
        <g id="pferd-2">
          <path id="koerper-2" class="cls-10" d="m1566.21,2801.59c-1.26,3.58.39,7.16,1.26,10.61-2.32.35-5.24,1.27-7.13-.72-2.98-3.39-1.79-8.32-1.13-12.35-16.23,2.56-32.71,4.41-49.14,2.8,4.62,5.43,10.81,9.17,17.16,12.22-12.95,2.84-26.22,8.87-33.61,20.4,5.72,2.8,11.84,4.66,18.05,6.01-10.17,8.71-14.5,22.31-25.08,30.61,10.17,2.48,20.86,2.79,30.92-.41-4.56,8.29-9.85,16.62-18.15,21.64,9.71,4.48,20.11,7.21,30.5,9.59-3.05,4.92-6.48,9.68-10.99,13.38,6.72.43,13.27,2.04,19.52,4.54.48,7.43.79,15.01-.89,22.32-3.34,14.21-11.6,26.9-21.81,37.16-13.04,10.55-28.01,21.99-31.53,39.41-2.43,15.69,6.76,29.96,15.83,41.87.83,15.43-5.06,30.01-12.35,43.27,7.59,17.66,15.19,35.99,15.66,55.48,2.33,1.17,5.26,2.19,5.84,5.12.38,3.78.09,7.6.1,11.4,9.23,2.68,19.29,3.93,28.46.31-1.67-6.84-5.26-15.62-13.24-16.51-4.67-1.1-6.37-6.72-4.75-10.85-5.05-9.53-10.61-19.11-12.56-29.86-1.52-6.99.87-14.41,5.29-19.89,7.06-8.9,16.27-15.71,24.91-22.96,5.13-4.13,7.36-10.62,9.07-16.76,2.47-9.95,3.47-20.24,3.51-30.47-.45-5.88,3.71-10.61,6.96-15.05,13.1-16.05,35.33-20.15,49.17-35.35,3.31-3.62,5.78-7.9,8.05-12.22-9.1-.51-19.34,3.18-27.47-2.45-4.2-2.67-8.56-7.97-5.05-12.93.88-.08,2.63-.23,3.51-.31,2.39,4.2,5.99,8.92,11.36,8.77,13.87.06,27.68-1.39,41.53-1.94,2.94,3.55,5.37,8.03,4.26,12.8-1.02,6.3-6.79,10.08-12.05,12.76,0,1.85-.02,3.71-.04,5.56-3.17-.02-6.34-.01-9.52,0-2.61,8.77-4.07,18.34-.55,27.09,6.35-.6,11.51-4.65,15.93-8.9.11-2.84.02-6.13,2.25-8.26,1.93-2.52,5.26-2.49,8.12-2.66,3.15-7.46,4.09-15.58,6.92-23.13,1.93-5.71,4.83-11.04,8.02-16.14-4.01-4.19-6.58-10.65-12.73-12.05-9.43-2.99-18.72-6.37-28.11-9.45-.56-9.62-3.77-19.09-9.73-26.72-12.53-17.16-35.3-26.26-41.94-47.67-8.63.39-17.34-4.55-19.96-13.03-1.19-3.51,2.45-5.55,5.36-5.94,1.87,4.2,3.94,9.14,8.7,10.71,10.42,1.78,21.18-1.19,31.53,1.13,4.83.96,4.33,7.42,8.39,9.38,4.96,2.47,10.58.73,15.53-.82-1.02-.9-2.04-1.77-3.07-2.66-2.41-.52-5.26-.41-6.96-2.53-1.47-3.65,3.05-5.32,5.94-4.85,4.82-.75,5.03,6.5,9.59,6.28,2.73.36,3.71-2.53,4.98-4.3-4.08-1.73-5.06-7.32-.21-8.9-2.18-5.59-7.61-8.63-12.01-12.29-11.62-8.9-22.39-19.25-35.86-25.39-.57-6.74-1.49-13.41-2.45-20.1-5.36,3.34-10.59,7.85-12.18,14.23v-.04Zm29.31,22.45c.51,1.42,1.02,2.85,1.53,4.26-1.67,1.01-3.36,2-5.05,3-3.11-.78-6.15-1.8-9.01-3.28,2.62-1.91,5.8-4.83,9.14-4.94,1.12-.04,2.24.24,3.38.96h0Z"/>
          <path id="huf_oben-2" data-name="huf oben-2" class="cls-10" d="m1676.93,2912.67c-1.72,2.11-4.05,4.25-3.89,7.24-.17,3.11,2.13,5.43,4.15,7.44.4,6.08-.99,12.17-4.39,17.27-8.72-3.22-14.59-11.12-18.84-19.03,2.24-2.31,4.42-4.67,6.56-7.07-1.32-1.34-2.64-2.67-3.96-4,1.36-5.06,2.98-10.71.6-15.72-1.65-3.83-5.37-6.31-9.33-7.28-1.58-.46-3.98-1.05-4.72,1.02-5.63,10.31-11.09,20.71-16.67,31.06-2.08-8.97-6.81-17.09-12.82-23.99,10.95-8.59,21.85-17.24,32.85-25.76,4.53.02,9.05.02,13.57,0,2.04,14.37,11.54,25.75,16.89,38.83h0Z"/>
          <path id="schweif-2" class="cls-10" d="m1485.83,2924.01c4.18-7.92,14.78-10.5,22.49-6.41-3.34,2.69-7.15,5.74-7.66,10.32-.89,7.32,3.9,13.5,6.22,20.1,3.56,8.35,5.15,18.58,0,26.64-6.53,10.32-19.13,13.55-28.13,21.02-3.85,2.99-5.12,8.2-3.81,12.8.85.78,2.55,2.34,3.41,3.12-5.11,1.21-11.17.27-14.55-4.09-4.53-5.82-3.86-14.21-.46-20.41,4.09-7.68,11.09-14.41,11.26-23.64.43-8.66-6.51-14.82-10.41-21.83-5.16-8.28-5.32-19.42-.35-27.81,4.39-7.61,12.17-12.23,19.92-15.8-1.79,8.68-1,17.71,2.06,26.01h0Z"/>
          <path id="huf_unten-2" data-name="huf unten-2" class="cls-10" d="m1584.13,3062.99c-4.12,10.49-9.7,20.77-10,32.31,15.45-.01,30.9.06,46.34-.04.43,2.77.62,6.02,3.05,7.88,2.12,1.98,5.19,1.65,7.85,1.81,4.66,4.2,8.46,9.64,9.2,16.01-8.7,3.36-18.47,2.5-27.13-.56.05-3.14.06-6.28.08-9.41-6.38.66-12.02-3.04-18.33-3.12-11.69-.89-23.43-.53-35.14-.42-.46-13.07-1.62-27.47-10.52-37.83,6-13.08,7.79-27.64,7.86-41.9,1.76-5.79,6.04-10.52,10.16-14.84,7.82,2.48,15.87,7.06,18.81,15.21,4.02,11.33,2.03,23.94-2.24,34.91h0Z"/>
        </g>
      </g>
      <g>
        <path id="blume_nw" data-name="blume nw" class="cls-10" d="m1641.87,3149.79c-.21-5.97.79-11.87,2.88-17.45,6-.14,12,.62,17.67,2.68-3.24,3.54-5.6,7.75-6.58,12.47-4.8-.43-9.51.56-13.97,2.29Z"/>
        <path id="blume_no" data-name="blume no" class="cls-10" d="m1718.03,3134.97c5.68-2.11,11.73-2.87,17.77-2.45,1.93,5.49,2.6,11.26,2.41,17.06-4.42-1.75-9.12-2.4-13.85-2.19-1.15-4.59-3.47-8.7-6.33-12.42h0Z"/>
        <path id="blume_mitte" data-name="blume mitte" class="cls-10" d="m1683.29,3175.47c12.26-4.79,27.38,5.07,27.08,18.43,1.06,11.46-9.73,22.11-21.16,21.04-9.68.02-18.48-8.2-19.29-17.81-1.37-9.21,4.58-18.69,13.37-21.65h0Z"/>
        <path id="blume_ring" data-name="blume ring" class="cls-10" d="m1688.29,3132.65c-7.46.34-14.75,3.04-20.07,8.3-4.47,4.21-3.93,10.71-2.18,16.05-1.2,1.17-2.42,2.37-3.65,3.52-4.58-3.43-10.53-6.27-16.17-3.52-13.99,6.81-19.77,25.15-15.21,39.47,2.17,6.82,9.24,10.33,16.09,9.47.51,1.69,1.06,3.38,1.63,5.07-5,2.97-9.37,8.42-7.96,14.58,3.01,15.48,19.36,27.31,34.99,25.6,6.44-.62,10.27-6.25,11.73-12.03,1.8-.01,3.59,0,5.4.04,1.27,5.18,4.27,10.47,9.93,11.65,16.19,3.19,33.62-9.36,36.71-25.39,1.17-6.28-3.08-11.69-8.21-14.66.42-1.2,1.29-3.58,1.72-4.77,4.97.11,10.53-.63,13.7-4.94,6.34-9.21,4.75-21.69.04-31.26-3.69-7.08-10.29-14.21-18.94-13.83-3.84-.06-6.58,3-10.05,4.02-1.27-.87-2.5-1.78-3.69-2.72,3.2-6.52,1.49-14.69-4.65-18.82-6.02-4.13-13.7-6.16-21.16-5.83v.02Zm1.51,30.21c14.68-.03,29.01,10.88,31.47,25.81,4.59,19.51-13.33,39.65-33.19,37.76-16.54-.79-30.45-16.11-29.71-32.64.27-12.9,9.23-24.84,21.33-29.08,3.28-1.26,6.71-1.84,10.1-1.84h0Z"/>
        <path id="blume_sw" data-name="blume sw" class="cls-10" d="m1616.76,3218.59c1.53-5.77,4.26-11.09,7.83-15.85,2.74,3.99,6.11,7.5,10.2,10.13-2.17,4.24-2.56,8.96-2.44,13.64-5.69-1.59-10.98-4.26-15.59-7.93h0Z"/>
        <path id="blume_so" data-name="blume so" class="cls-10" d="m1745.37,3212.81c4.05-2.68,7.44-6.17,10.27-10.1,3.54,4.69,6.14,9.95,8.04,15.5-4.56,4.01-10.04,6.75-15.86,8.38.22-4.74-.14-9.55-2.44-13.79h0Z"/>
        <path id="blume_s" data-name="blume s" class="cls-10" d="m1690.03,3252.63c3.6,3.27,7.92,5.53,12.62,6.8-3.21,4.97-7.48,9.11-12.36,12.43-5.17-3.11-9.41-7.42-12.64-12.49,4.7-1.05,9.05-3.22,12.38-6.74h0Z"/>
      </g>
    </g>
    <g>
      <path class="cls-3" d="m2646.94,2230.73v298.92c0,1.87,0,3.75-.02,5.62v.82c-.01,1.42-.02,2.84-.04,4.25v.5l-.04,2.57c-.02,1.93-.06,3.86-.1,5.79-.03,1.66-.07,3.32-.11,4.97,0,.12,0,.25,0,.38-.04,1.55-.09,3.1-.14,4.65-.02.72-.04,1.43-.06,2.14,0,.1,0,.2-.01.3-.05,1.61-.11,3.21-.17,4.82,0,.08,0,.15-.01.22-.06,1.65-.13,3.29-.2,4.94-.02.36-.03.72-.05,1.08-.06,1.49-.14,2.99-.21,4.48-.03.71-.07,1.42-.11,2.12-.05.96-.1,1.93-.15,2.89-.01.21-.02.42-.04.63-.06,1.17-.13,2.35-.2,3.52-.1,1.77-.21,3.53-.32,5.29-.09,1.49-.19,2.98-.3,4.46-.27,3.98-.57,7.95-.9,11.91-.06.75-.12,1.5-.18,2.25-.12,1.42-.23,2.82-.36,4.23-.1,1.13-.2,2.26-.31,3.38-.14,1.53-.28,3.07-.43,4.59-.08.8-.15,1.6-.23,2.41-.06.64-.13,1.29-.2,1.93-.17,1.73-.35,3.45-.53,5.17-.12,1.07-.23,2.15-.35,3.22-.01.08-.02.16-.03.25-.17,1.61-.36,3.21-.54,4.82-.18,1.61-.38,3.22-.58,4.83-.02.19-.04.38-.06.56-.18,1.54-.38,3.07-.57,4.6-.09.77-.19,1.53-.29,2.3-.01.09-.02.18-.04.27-.18,1.4-.36,2.81-.55,4.2-.04.28-.07.56-.11.83-.19,1.41-.38,2.81-.58,4.22-.12.84-.23,1.68-.35,2.52-.22,1.54-.44,3.09-.67,4.63-.23,1.63-.48,3.25-.73,4.87-.1.65-.2,1.3-.3,1.96-.11.69-.21,1.38-.32,2.07-.1.63-.2,1.27-.3,1.9-.16,1.03-.33,2.07-.5,3.11-.3,1.86-.6,3.71-.92,5.56-.09.52-.18,1.05-.26,1.57-.19,1.13-.39,2.27-.58,3.4-.34,1.96-.68,3.91-1.03,5.85-.18.98-.35,1.96-.53,2.93-.08.47-.17.94-.26,1.41-.14.75-.28,1.5-.42,2.26-.25,1.31-.49,2.62-.75,3.93-.41,2.12-.82,4.24-1.24,6.35-.29,1.46-.58,2.91-.88,4.36-.02.12-.05.25-.08.37-.21,1-.41,2-.62,3-.23,1.12-.46,2.24-.7,3.37-.12.59-.25,1.17-.38,1.76-.15.71-.3,1.42-.45,2.13-.17.78-.33,1.56-.51,2.33-.6,2.75-1.21,5.5-1.84,8.24-.32,1.43-.65,2.85-.98,4.28-.25,1.08-.51,2.17-.76,3.25-.11.48-.22.95-.33,1.42-.48,2.04-.97,4.07-1.47,6.1-.08.31-.15.6-.23.91-.51,2.1-1.03,4.18-1.56,6.27-.54,2.15-1.09,4.29-1.65,6.44-.04.17-.09.34-.14.51-.5,1.93-1.01,3.86-1.53,5.78-.07.26-.14.52-.21.78-.56,2.1-1.13,4.19-1.71,6.28-.06.22-.12.43-.18.65-.54,1.97-1.09,3.94-1.65,5.91-.45,1.56-.89,3.11-1.34,4.66-.14.5-.28,1-.43,1.5-.58,1.97-1.16,3.94-1.74,5.9-.38,1.26-.75,2.53-1.14,3.78-.28.95-.57,1.89-.86,2.83-.25.81-.5,1.63-.75,2.44-.36,1.18-.73,2.36-1.1,3.53-.35,1.11-.69,2.22-1.05,3.33-.22.72-.45,1.43-.68,2.14-.36,1.16-.74,2.32-1.12,3.48-.58,1.79-1.16,3.58-1.76,5.36-.71,2.14-1.43,4.28-2.15,6.42-.22.66-.45,1.32-.68,1.97-.31.92-.62,1.83-.94,2.74-.12.38-.25.75-.38,1.12-.54,1.57-1.09,3.14-1.64,4.7-.12.33-.23.67-.35,1-.12.34-.24.68-.36,1.02-.41,1.16-.82,2.32-1.24,3.48-.16.48-.33.95-.51,1.42-.4,1.12-.8,2.23-1.21,3.35-.37,1.02-.74,2.03-1.12,3.04-.43,1.18-.86,2.36-1.31,3.53-.17.46-.34.93-.52,1.39-.49,1.33-1,2.67-1.5,3.99-1.46,3.84-2.94,7.66-4.45,11.48-.71,1.81-1.43,3.62-2.16,5.42-.65,1.63-1.32,3.27-1.98,4.89-.09.23-.18.46-.28.69,0,.01,0,.02-.01.04-.7,1.71-1.4,3.42-2.11,5.12-.01.04-.02.06-.04.09-.67,1.63-1.35,3.25-2.04,4.86-.06.15-.13.31-.19.46-.09.21-.17.41-.26.6-.68,1.59-1.35,3.18-2.04,4.76-.76,1.78-1.54,3.56-2.32,5.34-.78,1.78-1.56,3.55-2.35,5.32-1.58,3.54-3.18,7.07-4.8,10.59-.58,1.27-1.17,2.54-1.77,3.81-.39.86-.79,1.71-1.2,2.57-.37.79-.74,1.58-1.12,2.37-.65,1.38-1.3,2.75-1.96,4.13-.16.35-.33.69-.5,1.03-.34.72-.68,1.43-1.02,2.14-.31.63-.61,1.26-.92,1.89-.45.93-.9,1.87-1.36,2.8-.89,1.81-1.79,3.62-2.68,5.43-.08.15-.15.3-.22.45-.82,1.65-1.64,3.29-2.47,4.93-.9,1.78-1.8,3.55-2.71,5.33-.39.76-.79,1.53-1.19,2.29-.65,1.27-1.3,2.53-1.97,3.8-.22.43-.45.86-.68,1.29-.78,1.48-1.55,2.95-2.34,4.43-.24.46-.49.92-.73,1.37-.73,1.39-1.48,2.77-2.23,4.15-.29.53-.58,1.07-.86,1.6-.76,1.4-1.52,2.79-2.28,4.18-1.3,2.38-2.63,4.77-3.95,7.14-.41.72-.81,1.44-1.22,2.17-.65,1.16-1.3,2.31-1.96,3.46-1.03,1.81-2.06,3.61-3.1,5.41-.24.42-.48.83-.72,1.24-.09.15-.18.31-.26.46-.68,1.17-1.36,2.34-2.04,3.51-.46.79-.92,1.57-1.39,2.36-.72,1.23-1.45,2.47-2.19,3.69-.18.31-.36.61-.54.91-.97,1.63-1.94,3.25-2.92,4.87-.16.27-.32.53-.48.8-1.1,1.81-2.21,3.63-3.32,5.44-2.3,3.73-4.62,7.45-6.97,11.14-.13.21-.26.41-.39.61-1.09,1.71-2.19,3.43-3.29,5.14h0c-.9,1.42-1.81,2.82-2.72,4.21-.05.08-.11.16-.16.24-.62.95-1.24,1.9-1.87,2.85-.35.55-.71,1.09-1.07,1.63-.7,1.06-1.4,2.12-2.11,3.18-.56.84-1.12,1.67-1.68,2.51-.04.06-.08.11-.11.17-.56.83-1.12,1.66-1.67,2.49-1.14,1.69-2.28,3.37-3.43,5.04-1.22,1.79-2.45,3.56-3.68,5.33-1.2,1.74-2.41,3.46-3.64,5.19-.18.27-.37.53-.56.8-.98,1.4-1.97,2.79-2.97,4.18-.35.49-.69.98-1.05,1.47-1.1,1.54-2.22,3.08-3.34,4.62-1.29,1.78-2.58,3.55-3.88,5.31-.02.03-.04.05-.06.08-1.07,1.46-2.14,2.91-3.23,4.35-.35.48-.7.96-1.06,1.43-.6.8-1.2,1.6-1.8,2.39-.61.82-1.22,1.63-1.84,2.44-1.47,1.93-2.94,3.86-4.42,5.78-.6.78-1.21,1.56-1.81,2.34-.53.7-1.07,1.39-1.62,2.08-.23.31-.48.61-.71.91-1.21,1.54-2.42,3.08-3.64,4.62-1.37,1.73-2.75,3.46-4.13,5.19-1.3,1.63-2.61,3.24-3.92,4.86-2.95,3.63-5.93,7.24-8.94,10.82-1.31,1.57-2.63,3.14-3.96,4.7-.06.08-.14.16-.2.23-1.39,1.63-2.78,3.27-4.18,4.89-1.06,1.24-2.13,2.47-3.21,3.71-.19.22-.38.44-.58.66-.44.51-.89,1.02-1.33,1.52-1.2,1.37-2.4,2.74-3.61,4.11-1.32,1.49-2.65,2.98-3.98,4.47l-.42.48c-.12.14-.25.28-.37.41-2.73,3.04-5.49,6.07-8.26,9.08-1.29,1.4-2.58,2.8-3.88,4.18-.75.8-1.49,1.6-2.25,2.4-.83.89-1.67,1.77-2.51,2.65-.41.45-.83.89-1.26,1.34-1.17,1.24-2.36,2.48-3.55,3.71-.23.25-.48.51-.72.75-1.26,1.31-2.52,2.61-3.79,3.91-3.53,3.64-7.09,7.24-10.69,10.82-1.15,1.14-2.3,2.28-3.45,3.42-.16.16-.32.31-.48.47-1.57,1.55-3.15,3.1-4.74,4.63-1.43,1.4-2.88,2.79-4.32,4.18-.27.27-.55.53-.82.79-.18.17-.35.33-.53.51-1.27,1.22-2.55,2.43-3.84,3.64-.03.04-.06.06-.09.08-1.6,1.52-3.2,3.02-4.81,4.52-1.62,1.51-3.24,3.01-4.86,4.5-1.63,1.5-3.26,2.99-4.9,4.47-1.57,1.43-3.14,2.84-4.72,4.26-.16.15-.32.29-.49.43-1.56,1.39-3.11,2.77-4.67,4.15-1.66,1.46-3.32,2.92-4.99,4.37-1.35,1.18-2.71,2.36-4.07,3.52-2,1.73-4.01,3.44-6.03,5.14-1.67,1.42-3.36,2.82-5.05,4.23-1.64,1.38-3.3,2.75-4.96,4.12-1.35,1.11-2.7,2.22-4.06,3.32-.7.58-1.4,1.15-2.11,1.71-1.42,1.15-2.85,2.3-4.28,3.44-1.7,1.36-3.41,2.71-5.12,4.06-.03.02-.05.05-.08.06,4.99-19.65,9-39.68,11.99-60.05.52-3.51,1-7.04,1.45-10.57,1.81-14.08,3.12-28.31,3.92-42.68.2-3.52.36-7.04.5-10.57.29-7.66.44-15.35.44-23.08,0-6.56-.11-13.09-.32-19.6-.11-3.53-.26-7.05-.43-10.57-.72-14.36-1.94-28.59-3.67-42.67-.43-3.53-.89-7.06-1.39-10.57-2.02-14.39-4.56-28.63-7.59-42.68-.76-3.54-1.55-7.06-2.38-10.57-3.39-14.44-7.31-28.67-11.73-42.68-1.12-3.54-2.27-7.06-3.45-10.57-4.87-14.48-10.28-28.71-16.22-42.67-1.5-3.54-3.04-7.07-4.61-10.57-6.51-14.54-13.58-28.77-21.2-42.68-1.94-3.55-3.91-7.07-5.93-10.57-8.39-14.62-17.38-28.85-26.95-42.68-2.45-3.55-4.94-7.08-7.48-10.57-10.66-14.74-21.98-28.97-33.92-42.67-3.1-3.56-6.24-7.09-9.43-10.57-13.62-14.92-27.98-29.17-43.04-42.68-3.99-3.58-8.02-7.1-12.1-10.57-17.94-15.27-36.79-29.53-56.47-42.68-5.4-3.61-10.85-7.14-16.37-10.57-25.93-16.17-53.19-30.46-81.57-42.67-8.64-3.72-17.38-7.25-26.22-10.57-67.47-25.41-140.7-39.33-217.21-39.33s-149.74,13.92-217.21,39.33c-8.84,3.32-17.58,6.85-26.22,10.57-28.38,12.22-55.63,26.5-81.57,42.67-5.52,3.44-10.98,6.97-16.37,10.57-19.67,13.15-38.53,27.41-56.47,42.68-4.08,3.47-8.11,6.99-12.1,10.57-15.05,13.51-29.42,27.76-43.04,42.68-3.19,3.48-6.33,7.01-9.43,10.57-11.94,13.7-23.26,27.94-33.92,42.67-2.54,3.49-5.03,7.02-7.48,10.57-9.56,13.82-18.55,28.06-26.95,42.68-2.01,3.5-3.99,7.02-5.93,10.57-7.62,13.91-14.69,28.14-21.2,42.68-1.57,3.51-3.11,7.03-4.61,10.57-5.93,13.97-11.35,28.2-16.22,42.67-1.18,3.51-2.33,7.04-3.45,10.57-4.42,14.01-8.34,28.24-11.73,42.68-.83,3.51-1.62,7.04-2.38,10.57-3.04,14.05-5.57,28.28-7.59,42.68-.49,3.51-.96,7.04-1.39,10.57-1.73,14.08-2.95,28.31-3.67,42.67-.18,3.52-.32,7.04-.43,10.57-.21,6.51-.32,13.04-.32,19.6,0,7.73.15,15.42.44,23.08.14,3.53.3,7.05.5,10.57.8,14.37,2.11,28.6,3.92,42.68.45,3.54.93,7.06,1.45,10.57,2.98,20.37,6.99,40.39,11.98,60.05-.14-.11-.26-.21-.39-.31-1.6-1.27-3.21-2.54-4.8-3.82-1.38-1.1-2.75-2.21-4.13-3.32-.83-.66-1.65-1.33-2.47-2-.56-.46-1.13-.92-1.69-1.39-.88-.72-1.76-1.44-2.64-2.16-1.5-1.23-3-2.47-4.48-3.72-1.69-1.41-3.38-2.82-5.06-4.24-2.1-1.78-4.21-3.57-6.29-5.37-1.24-1.06-2.47-2.13-3.71-3.21-.08-.06-.16-.13-.23-.2-1.59-1.38-3.18-2.77-4.76-4.16-.07-.06-.14-.12-.21-.18-1.36-1.19-2.71-2.39-4.05-3.6-1.92-1.7-3.82-3.42-5.73-5.14-1.6-1.44-3.19-2.9-4.77-4.36-3.09-2.84-6.15-5.69-9.2-8.57-.84-.79-1.68-1.59-2.51-2.38-.59-.56-1.19-1.12-1.78-1.7-.08-.07-.15-.14-.22-.21-.75-.7-1.5-1.42-2.24-2.14-.82-.78-1.64-1.57-2.46-2.38-.64-.61-1.27-1.23-1.91-1.85-1.43-1.39-2.86-2.79-4.28-4.2-.69-.67-1.37-1.35-2.06-2.03-.92-.9-1.83-1.81-2.75-2.73-2.71-2.71-5.4-5.43-8.07-8.17-.95-.97-1.89-1.94-2.83-2.91-.55-.55-1.09-1.12-1.62-1.67-.87-.9-1.73-1.8-2.6-2.71-.51-.52-1-1.04-1.49-1.57-1.03-1.07-2.05-2.15-3.07-3.23-.21-.21-.41-.42-.6-.63-1.22-1.29-2.44-2.6-3.65-3.89-1.27-1.36-2.54-2.73-3.81-4.11-1.25-1.36-2.5-2.72-3.74-4.09-.97-1.06-1.93-2.13-2.89-3.19-.4-.44-.8-.88-1.19-1.32-.12-.14-.25-.28-.37-.41-.59-.66-1.17-1.31-1.76-1.97-.78-.87-1.56-1.74-2.33-2.61-1.14-1.29-2.27-2.58-3.41-3.87-.62-.7-1.24-1.41-1.85-2.12-.45-.51-.9-1.03-1.34-1.54-1.03-1.18-2.04-2.36-3.06-3.55-.88-1.01-1.74-2.03-2.6-3.04-.56-.65-1.1-1.29-1.66-1.94-.66-.78-1.32-1.56-1.98-2.35-.74-.88-1.48-1.76-2.21-2.64-2.46-2.94-4.9-5.9-7.32-8.86-.61-.75-1.22-1.5-1.83-2.25-.97-1.19-1.93-2.38-2.89-3.58-.08-.09-.15-.19-.23-.29-1.34-1.67-2.67-3.34-4-5.02-1-1.27-2.01-2.54-3-3.82-.6-.76-1.19-1.52-1.79-2.28-.39-.51-.79-1.02-1.18-1.52-.26-.34-.53-.68-.79-1.02-.71-.92-1.42-1.84-2.13-2.77-1.73-2.26-3.45-4.51-5.16-6.78-1.06-1.4-2.11-2.81-3.15-4.22-.86-1.15-1.71-2.3-2.56-3.45-.47-.63-.93-1.26-1.39-1.9-.84-1.13-1.67-2.27-2.5-3.41-.31-.42-.62-.85-.92-1.27-.92-1.27-1.84-2.54-2.75-3.81-.41-.56-.81-1.12-1.2-1.68-.74-1.03-1.47-2.06-2.2-3.09-.58-.8-1.15-1.62-1.71-2.43-3.47-4.92-6.89-9.88-10.26-14.88-.58-.85-1.15-1.7-1.71-2.54-.04-.06-.08-.11-.11-.17-.56-.83-1.12-1.67-1.68-2.51-.7-1.06-1.41-2.11-2.11-3.18-.36-.54-.72-1.08-1.07-1.63-.66-.99-1.3-1.98-1.95-2.98-.02-.04-.05-.08-.07-.11-.68-1.03-1.34-2.05-2-3.08-.38-.58-.75-1.15-1.12-1.73-.95-1.46-1.89-2.92-2.81-4.39-.16-.26-.33-.51-.49-.77-1.16-1.81-2.31-3.64-3.45-5.47-1.18-1.88-2.35-3.77-3.51-5.66-1.02-1.66-2.04-3.32-3.05-4.98-.48-.78-.95-1.56-1.42-2.35-.63-1.05-1.27-2.09-1.89-3.14-.57-.95-1.14-1.9-1.7-2.86-.31-.52-.62-1.03-.92-1.55-.71-1.2-1.42-2.4-2.12-3.6-.6-1.03-1.2-2.06-1.8-3.1-.04-.08-.09-.15-.13-.22-.3-.5-.59-1-.88-1.51-.81-1.4-1.62-2.79-2.41-4.19-.89-1.54-1.76-3.1-2.64-4.65l-1.22-2.17c-.94-1.69-1.88-3.37-2.81-5.06-.62-1.12-1.23-2.24-1.84-3.36-.44-.8-.88-1.6-1.31-2.4-.55-1.01-1.1-2.02-1.64-3.04-.45-.82-.89-1.65-1.33-2.48-.51-.94-1.01-1.89-1.51-2.83-.49-.92-.97-1.83-1.46-2.75-.49-.94-.99-1.88-1.48-2.82-.37-.7-.73-1.42-1.1-2.12-.65-1.25-1.3-2.5-1.94-3.75-1.69-3.29-3.35-6.58-5-9.9-.08-.15-.15-.3-.22-.45-.86-1.73-1.72-3.46-2.57-5.2-.61-1.25-1.22-2.48-1.81-3.73-.2-.4-.39-.8-.58-1.2-.25-.52-.51-1.03-.75-1.56-.42-.86-.83-1.73-1.25-2.6-.39-.8-.77-1.6-1.14-2.41-.57-1.19-1.13-2.38-1.69-3.57-.27-.58-.54-1.15-.8-1.73-.66-1.39-1.3-2.79-1.94-4.19-1.62-3.52-3.22-7.05-4.8-10.59-1.58-3.54-3.14-7.09-4.67-10.66-.69-1.59-1.36-3.17-2.04-4.76-.09-.2-.17-.4-.26-.6-.06-.15-.13-.31-.19-.46-.69-1.62-1.37-3.24-2.04-4.86-.02-.02-.03-.05-.04-.09-.72-1.71-1.43-3.44-2.13-5.16-.01-.03-.02-.06-.04-.09-.04-.09-.07-.18-.11-.26-2.18-5.34-4.32-10.7-6.41-16.09-.43-1.12-.87-2.24-1.29-3.37-.34-.88-.68-1.75-1.01-2.63-.51-1.34-1.02-2.7-1.52-4.05-.18-.46-.35-.92-.52-1.39-.46-1.22-.92-2.45-1.37-3.68-.31-.83-.62-1.67-.92-2.51-.52-1.43-1.05-2.86-1.56-4.29-.52-1.44-1.03-2.89-1.55-4.33-.14-.39-.28-.79-.42-1.18-.65-1.84-1.29-3.68-1.93-5.53-.45-1.29-.89-2.57-1.33-3.86-.22-.65-.45-1.31-.67-1.97-.72-2.14-1.44-4.28-2.15-6.42-.59-1.79-1.17-3.57-1.76-5.36-.41-1.26-.81-2.51-1.21-3.77-.16-.49-.32-.98-.47-1.47-.43-1.33-.85-2.67-1.26-4-.32-1.02-.63-2.03-.95-3.05-.28-.88-.55-1.74-.81-2.62-.29-.94-.58-1.89-.86-2.83-.39-1.26-.76-2.52-1.14-3.78-.73-2.43-1.44-4.87-2.15-7.31,0-.03-.02-.06-.02-.09-.45-1.55-.89-3.11-1.34-4.66-.56-1.97-1.11-3.93-1.65-5.91-.06-.22-.12-.43-.18-.65-.58-2.08-1.15-4.18-1.71-6.28-.08-.26-.15-.52-.21-.78-.52-1.92-1.03-3.85-1.53-5.78-.05-.17-.09-.34-.14-.51-.56-2.14-1.11-4.29-1.65-6.44-.53-2.09-1.05-4.18-1.56-6.27-.08-.31-.15-.6-.23-.91-.49-2.03-.99-4.06-1.47-6.1-.12-.48-.23-.95-.33-1.42-.26-1.08-.51-2.17-.76-3.25-.33-1.43-.66-2.85-.98-4.28-.63-2.74-1.24-5.49-1.84-8.24-.17-.78-.33-1.55-.51-2.33-.15-.71-.31-1.42-.45-2.13-.13-.59-.25-1.17-.38-1.76-.24-1.12-.48-2.24-.7-3.37-.21-1-.41-2-.62-3-.03-.12-.05-.25-.08-.37-.29-1.45-.59-2.9-.88-4.36-.42-2.11-.83-4.23-1.24-6.35-.25-1.31-.5-2.62-.75-3.93-.14-.75-.28-1.5-.42-2.26-.09-.47-.18-.94-.26-1.41-.18-.97-.36-1.95-.53-2.93-.35-1.94-.69-3.89-1.03-5.85-.19-1.13-.39-2.27-.58-3.4-.09-.52-.18-1.05-.26-1.57-.31-1.85-.62-3.7-.92-5.56-.17-1.03-.33-2.07-.5-3.11-.1-.63-.2-1.27-.3-1.9-.11-.69-.22-1.37-.32-2.07-.1-.65-.2-1.3-.3-1.96-.25-1.62-.49-3.25-.73-4.87-.23-1.54-.45-3.08-.67-4.63-.12-.84-.23-1.68-.35-2.52-.19-1.4-.39-2.81-.58-4.22-.04-.28-.08-.55-.11-.83-.19-1.4-.37-2.8-.55-4.2-.01-.09-.02-.18-.04-.27-.1-.77-.2-1.53-.29-2.3-.19-1.53-.39-3.07-.57-4.6-.02-.18-.05-.37-.06-.56-.2-1.61-.39-3.22-.58-4.83-.18-1.6-.37-3.21-.54-4.82-.01-.08-.02-.16-.03-.25-.12-1.07-.23-2.15-.35-3.22-.18-1.72-.36-3.44-.53-5.17-.06-.65-.13-1.29-.19-1.93-.08-.8-.16-1.6-.23-2.41-.15-1.53-.3-3.06-.43-4.59-.11-1.13-.21-2.26-.31-3.38-.13-1.4-.25-2.81-.36-4.23-.06-.75-.12-1.5-.18-2.25-.33-3.96-.63-7.93-.9-11.91-.11-1.49-.21-2.97-.3-4.46-.11-1.76-.22-3.52-.32-5.29-.07-1.17-.14-2.34-.2-3.52-.01-.21-.02-.42-.04-.63-.05-.96-.11-1.93-.15-2.89-.04-.7-.08-1.41-.11-2.12-.08-1.49-.15-2.99-.21-4.48-.02-.36-.03-.72-.05-1.08-.07-1.64-.14-3.29-.2-4.94,0-.07-.01-.15-.01-.22-.06-1.6-.12-3.21-.17-4.82,0-.1,0-.2-.01-.3-.02-.71-.05-1.43-.06-2.14-.05-1.55-.09-3.1-.14-4.65,0-.12,0-.25,0-.38-.04-1.66-.08-3.31-.11-4.97-.04-1.93-.08-3.86-.1-5.79-.01-.86-.02-1.71-.04-2.57,0-.16,0-.33,0-.5-.02-1.42-.03-2.84-.04-4.25v-.82c-.01-1.87-.02-3.75-.02-5.62v-298.92h147.18v124.03h147.14v-124.03h147.08v124.03h147.25v-124.03h147.24v124.03h147.24v-124.03h146.92v124.03h147.49v-124.03h146.99v124.03h147.5v-124.03h146.6l-.06,124.03h147.69v-124.03h147.18-.01Z"/>
      <g>
        <g>
          <path class="cls-11" d="m1159.47,2837.85c-2.01,3.5-3.99,7.02-5.93,10.57h-365.44c-.14-.39-.28-.79-.42-1.18-.65-1.84-1.29-3.68-1.93-5.53-.45-1.29-.89-2.57-1.33-3.86h375.04,0Z"/>
          <path class="cls-11" d="m2596.01,2837.85c-.31.92-.62,1.83-.94,2.74-.12.38-.25.75-.38,1.12-.54,1.57-1.09,3.14-1.64,4.7-.12.33-.23.67-.35,1-.12.34-.24.68-.36,1.02h-365.43c-1.94-3.55-3.91-7.07-5.93-10.57h375.04Z"/>
          <path class="cls-11" d="m1132.35,2891.1c-1.57,3.51-3.11,7.03-4.61,10.57h-318.94c-.06-.15-.13-.31-.19-.46-.69-1.62-1.37-3.24-2.04-4.86-.02-.02-.03-.05-.04-.09-.72-1.71-1.43-3.44-2.13-5.16h327.95Z"/>
          <path class="cls-11" d="m2576.04,2891.1s0,.02-.01.04c-.7,1.71-1.4,3.42-2.11,5.12-.01.04-.02.06-.04.09-.67,1.63-1.35,3.25-2.04,4.86-.06.15-.13.31-.19.46h-318.94c-1.5-3.54-3.04-7.07-4.61-10.57h327.95Z"/>
          <path class="cls-11" d="m1111.52,2944.35c-1.18,3.51-2.33,7.04-3.45,10.57h-274.76c-.08-.15-.15-.3-.22-.45-.86-1.73-1.72-3.46-2.57-5.2-.61-1.25-1.22-2.48-1.81-3.73-.2-.4-.39-.8-.58-1.2h283.39Z"/>
          <path class="cls-11" d="m2552.31,2944.35c-.31.63-.61,1.26-.92,1.89-.45.93-.9,1.87-1.36,2.8-.89,1.81-1.79,3.62-2.68,5.43-.08.15-.15.3-.22.45h-274.76c-1.12-3.54-2.27-7.06-3.45-10.57h283.39Z"/>
          <path class="cls-11" d="m1096.34,2997.6c-.83,3.51-1.62,7.04-2.38,10.57h-231.96c-.04-.08-.09-.15-.13-.22-.3-.5-.59-1-.88-1.51-.81-1.4-1.62-2.79-2.41-4.19-.89-1.54-1.76-3.1-2.64-4.65h240.39Z"/>
          <path class="cls-11" d="m2524.49,2997.6c-.65,1.16-1.3,2.31-1.96,3.46-1.03,1.81-2.06,3.61-3.1,5.41-.24.42-.48.83-.72,1.24-.09.15-.18.31-.26.46h-231.97c-.76-3.54-1.55-7.06-2.38-10.57h240.39Z"/>
          <path class="cls-11" d="m1086.37,3050.85c-.49,3.51-.96,7.04-1.39,10.57h-189.73c-.04-.06-.08-.11-.11-.17-.56-.83-1.12-1.67-1.68-2.51-.7-1.06-1.41-2.11-2.11-3.18-.36-.54-.72-1.08-1.07-1.63-.66-.99-1.3-1.98-1.95-2.98-.02-.04-.05-.08-.07-.11h198.1,0Z"/>
          <path class="cls-11" d="m2492.18,3050.85c-.05.08-.11.16-.16.24-.62.95-1.24,1.9-1.87,2.85-.35.55-.71,1.09-1.07,1.63-.7,1.06-1.4,2.12-2.11,3.18-.56.84-1.12,1.67-1.68,2.51-.04.06-.08.11-.11.17h-189.73c-.43-3.53-.89-7.06-1.39-10.57h198.11Z"/>
          <path class="cls-11" d="m1081.31,3104.09c-.18,3.52-.32,7.04-.43,10.57h-147.19c-.26-.34-.53-.68-.79-1.02-.71-.92-1.42-1.84-2.13-2.77-1.73-2.26-3.45-4.51-5.16-6.78h155.7Z"/>
          <path class="cls-11" d="m2454.82,3104.09c-.61.82-1.22,1.63-1.84,2.44-1.47,1.93-2.94,3.86-4.42,5.78-.6.78-1.21,1.56-1.81,2.34h-147.18c-.11-3.53-.26-7.05-.43-10.57h155.69Z"/>
          <path class="cls-11" d="m1081.5,3167.91h-103.38c-.59-.66-1.17-1.31-1.76-1.97-.78-.87-1.56-1.74-2.33-2.61-1.14-1.29-2.27-2.58-3.41-3.87-.62-.7-1.24-1.41-1.85-2.12h112.23c.14,3.53.3,7.05.5,10.57h0Z"/>
          <path class="cls-11" d="m2411.67,3157.34c-.44.51-.89,1.02-1.33,1.52-1.2,1.37-2.4,2.74-3.61,4.11-1.32,1.49-2.65,2.98-3.98,4.47l-.42.48h-103.38c.2-3.52.36-7.04.5-10.57h112.23,0Z"/>
          <path class="cls-11" d="m1086.87,3221.16h-57.14c-.75-.7-1.5-1.42-2.24-2.14-.82-.78-1.64-1.57-2.46-2.38-.64-.61-1.27-1.23-1.91-1.85-1.43-1.39-2.86-2.79-4.28-4.2h66.58c.45,3.54.93,7.06,1.45,10.57h0Z"/>
          <path class="cls-11" d="m2361.6,3210.59c-.16.16-.32.31-.48.47-1.57,1.55-3.15,3.1-4.74,4.63-1.43,1.4-2.88,2.79-4.32,4.18-.27.27-.55.53-.82.79-.18.17-.35.33-.53.51h-57.14c.52-3.51,1-7.04,1.45-10.57h66.58Z"/>
          <rect class="cls-11" x="733.57" y="2411.87" width="1913.44" height="10.57"/>
          <rect class="cls-11" x="733.43" y="2465.11" width="1913.44" height="10.57"/>
          <rect class="cls-11" x="733.57" y="2518.36" width="1913.44" height="10.57"/>
          <path class="cls-11" d="m734.41,2571.61h738.6c-8.84,3.32-17.58,6.85-26.22,10.57h-711.86l-.52-10.57Z"/>
          <path class="cls-11" d="m2646.03,2571.61h-738.6c8.84,3.32,17.58,6.85,26.22,10.57h711.86l.52-10.57Z"/>
          <path class="cls-11" d="m1365.22,2624.86c-5.52,3.44-10.98,6.97-16.37,10.57h-609.53c-.01-.08-.02-.16-.03-.25-.12-1.07-.23-2.15-.35-3.22-.18-1.72-.36-3.44-.53-5.17-.06-.65-.13-1.29-.19-1.93h627.02Z"/>
          <path class="cls-11" d="m2642.24,2624.86c-.06.64-.13,1.29-.2,1.93-.17,1.73-.35,3.45-.53,5.17-.12,1.07-.23,2.15-.35,3.22-.01.08-.02.16-.03.25h-609.53c-5.4-3.61-10.85-7.14-16.37-10.57h627.02,0Z"/>
          <path class="cls-11" d="m1292.38,2678.11c-4.08,3.47-8.11,6.99-12.1,10.57h-533.56c-.31-1.85-.62-3.7-.92-5.56-.17-1.03-.33-2.07-.5-3.11-.1-.63-.2-1.27-.3-1.9h547.37,0Z"/>
          <path class="cls-11" d="m2635.43,2678.11c-.1.63-.2,1.27-.3,1.9-.16,1.03-.33,2.07-.5,3.11-.3,1.86-.6,3.71-.92,5.56h-533.56c-3.99-3.58-8.02-7.1-12.1-10.57h547.37Z"/>
          <path class="cls-11" d="m1237.25,2731.36c-3.19,3.48-6.33,7.01-9.43,10.57h-470.58c-.63-2.74-1.24-5.49-1.84-8.24-.17-.78-.33-1.55-.51-2.33h482.35Z"/>
          <path class="cls-11" d="m2625.54,2731.36c-.17.78-.33,1.56-.51,2.33-.6,2.75-1.21,5.5-1.84,8.24h-470.58c-3.1-3.56-6.24-7.09-9.43-10.57h482.35Z"/>
          <path class="cls-11" d="m1193.9,2784.6c-2.54,3.49-5.03,7.02-7.48,10.57h-415.43c-.45-1.55-.89-3.11-1.34-4.66-.56-1.97-1.11-3.93-1.65-5.91h425.9,0Z"/>
          <path class="cls-11" d="m2612.45,2784.6c-.54,1.97-1.09,3.94-1.65,5.91-.45,1.56-.89,3.11-1.34,4.66h-415.43c-2.45-3.55-4.94-7.08-7.48-10.57h425.9Z"/>
        </g>
        <g>
          <rect class="cls-11" x="822.85" y="2417.15" width="10.57" height="53.25"/>
          <rect class="cls-11" x="912.78" y="2417.15" width="10.57" height="53.25"/>
          <rect class="cls-11" x="777.89" y="2470.4" width="10.57" height="53.25"/>
          <rect class="cls-11" x="867.81" y="2470.4" width="10.57" height="53.25"/>
          <rect class="cls-11" x="1008.5" y="2417.15" width="10.57" height="53.25"/>
          <rect class="cls-11" x="1098.43" y="2417.15" width="10.57" height="53.25"/>
          <rect class="cls-11" x="963.54" y="2470.4" width="10.57" height="53.25"/>
          <rect class="cls-11" x="1053.46" y="2470.4" width="10.57" height="53.25"/>
          <rect class="cls-11" x="1197.17" y="2417.15" width="10.57" height="53.25"/>
          <rect class="cls-11" x="1287.1" y="2417.15" width="10.57" height="53.25"/>
          <rect class="cls-11" x="1152.21" y="2470.4" width="10.57" height="53.25"/>
          <rect class="cls-11" x="1242.13" y="2470.4" width="10.57" height="53.25"/>
          <rect class="cls-11" x="1382.13" y="2417.15" width="10.57" height="53.25"/>
          <rect class="cls-11" x="1472.06" y="2417.15" width="10.57" height="53.25"/>
          <rect class="cls-11" x="1337.17" y="2470.4" width="10.57" height="53.25"/>
          <rect class="cls-11" x="1427.1" y="2470.4" width="10.57" height="53.25"/>
          <rect class="cls-11" x="1567.78" y="2417.15" width="10.57" height="53.25"/>
          <rect class="cls-11" x="1657.71" y="2417.15" width="10.57" height="53.25"/>
          <rect class="cls-11" x="1522.82" y="2470.4" width="10.57" height="53.25"/>
          <rect class="cls-11" x="1612.75" y="2470.4" width="10.57" height="53.25"/>
          <rect class="cls-11" x="1756.45" y="2417.15" width="10.57" height="53.25"/>
          <rect class="cls-11" x="1846.38" y="2417.15" width="10.57" height="53.25"/>
          <rect class="cls-11" x="1711.49" y="2470.4" width="10.57" height="53.25"/>
          <rect class="cls-11" x="1801.41" y="2470.4" width="10.57" height="53.25"/>
          <rect class="cls-11" x="1936.16" y="2417.15" width="10.57" height="53.25"/>
          <rect class="cls-11" x="2026.09" y="2417.15" width="10.57" height="53.25"/>
          <rect class="cls-11" x="1891.2" y="2470.4" width="10.57" height="53.25"/>
          <rect class="cls-11" x="1981.13" y="2470.4" width="10.57" height="53.25"/>
          <rect class="cls-11" x="2121.81" y="2417.15" width="10.57" height="53.25"/>
          <rect class="cls-11" x="2211.74" y="2417.15" width="10.57" height="53.25"/>
          <rect class="cls-11" x="2076.85" y="2470.4" width="10.57" height="53.25"/>
          <rect class="cls-11" x="2166.78" y="2470.4" width="10.57" height="53.25"/>
          <rect class="cls-11" x="2310.48" y="2417.15" width="10.57" height="53.25"/>
          <rect class="cls-11" x="2400.41" y="2417.15" width="10.57" height="53.25"/>
          <rect class="cls-11" x="2265.52" y="2470.4" width="10.57" height="53.25"/>
          <rect class="cls-11" x="2355.45" y="2470.4" width="10.57" height="53.25"/>
          <rect class="cls-11" x="2497.4" y="2420.63" width="10.57" height="53.25"/>
          <rect class="cls-11" x="2587.33" y="2420.63" width="10.57" height="53.25"/>
          <rect class="cls-11" x="2452.44" y="2473.88" width="10.57" height="53.25"/>
          <rect class="cls-11" x="2542.37" y="2473.88" width="10.57" height="53.25"/>
          <rect class="cls-11" x="826.24" y="2521.91" width="10.57" height="53.25"/>
          <rect class="cls-11" x="916.17" y="2521.91" width="10.57" height="53.25"/>
          <rect class="cls-11" x="781.28" y="2575.16" width="10.57" height="53.25"/>
          <rect class="cls-11" x="871.21" y="2575.16" width="10.57" height="53.25"/>
          <rect class="cls-11" x="1011.89" y="2521.91" width="10.57" height="53.25"/>
          <rect class="cls-11" x="1101.82" y="2521.91" width="10.57" height="53.25"/>
          <rect class="cls-11" x="966.93" y="2575.16" width="10.57" height="53.25"/>
          <rect class="cls-11" x="1056.86" y="2575.16" width="10.57" height="53.25"/>
          <rect class="cls-11" x="1200.56" y="2521.91" width="10.57" height="53.25"/>
          <rect class="cls-11" x="1290.49" y="2521.91" width="10.57" height="53.25"/>
          <rect class="cls-11" x="1155.6" y="2575.16" width="10.57" height="53.25"/>
          <rect class="cls-11" x="1245.53" y="2575.16" width="10.57" height="53.25"/>
          <rect class="cls-11" x="1385.52" y="2521.91" width="10.57" height="53.25"/>
          <polygon class="cls-11" points="1486.02 2567.63 1475.45 2575.16 1475.45 2521.91 1486.02 2521.91 1486.02 2567.63"/>
          <rect class="cls-11" x="1340.56" y="2575.16" width="10.57" height="53.25"/>
          <rect class="cls-11" x="1939.56" y="2521.91" width="10.57" height="53.25"/>
          <rect class="cls-11" x="2029.49" y="2521.91" width="10.57" height="53.25"/>
          <rect class="cls-11" x="2125.21" y="2521.91" width="10.57" height="53.25"/>
          <rect class="cls-11" x="2215.14" y="2521.91" width="10.57" height="53.25"/>
          <rect class="cls-11" x="2080.25" y="2575.16" width="10.57" height="53.25"/>
          <rect class="cls-11" x="2170.17" y="2575.16" width="10.57" height="53.25"/>
          <rect class="cls-11" x="2313.88" y="2521.91" width="10.57" height="53.25"/>
          <rect class="cls-11" x="2403.81" y="2521.91" width="10.57" height="53.25"/>
          <rect class="cls-11" x="2268.91" y="2575.16" width="10.57" height="53.25"/>
          <rect class="cls-11" x="2358.84" y="2575.16" width="10.57" height="53.25"/>
          <rect class="cls-11" x="2500.8" y="2525.39" width="10.57" height="53.25"/>
          <rect class="cls-11" x="2590.72" y="2525.39" width="10.57" height="53.25"/>
          <rect class="cls-11" x="2455.83" y="2578.64" width="10.57" height="53.25"/>
          <rect class="cls-11" x="2545.76" y="2578.64" width="10.57" height="53.25"/>
          <rect class="cls-11" x="822.85" y="2628.35" width="10.57" height="53.25"/>
          <rect class="cls-11" x="912.78" y="2628.35" width="10.57" height="53.25"/>
          <rect class="cls-11" x="777.89" y="2681.59" width="10.57" height="53.25"/>
          <rect class="cls-11" x="867.81" y="2681.59" width="10.57" height="53.25"/>
          <rect class="cls-11" x="1008.5" y="2628.35" width="10.57" height="53.25"/>
          <rect class="cls-11" x="1098.43" y="2628.35" width="10.57" height="53.25"/>
          <rect class="cls-11" x="963.54" y="2681.59" width="10.57" height="53.25"/>
          <rect class="cls-11" x="1053.46" y="2681.59" width="10.57" height="53.25"/>
          <rect class="cls-11" x="1197.17" y="2628.35" width="10.57" height="53.25"/>
          <rect class="cls-11" x="1287.1" y="2628.35" width="10.57" height="53.25"/>
          <rect class="cls-11" x="1152.21" y="2681.59" width="10.57" height="53.25"/>
          <rect class="cls-11" x="2121.81" y="2628.35" width="10.57" height="53.25"/>
          <rect class="cls-11" x="2211.74" y="2628.35" width="10.57" height="53.25"/>
          <rect class="cls-11" x="2166.78" y="2681.59" width="10.57" height="53.25"/>
          <rect class="cls-11" x="2310.48" y="2628.35" width="10.57" height="53.25"/>
          <rect class="cls-11" x="2400.41" y="2628.35" width="10.57" height="53.25"/>
          <rect class="cls-11" x="2265.52" y="2681.59" width="10.57" height="53.25"/>
          <rect class="cls-11" x="2355.45" y="2681.59" width="10.57" height="53.25"/>
          <rect class="cls-11" x="2497.4" y="2631.82" width="10.57" height="53.25"/>
          <rect class="cls-11" x="2587.33" y="2631.82" width="10.57" height="53.25"/>
          <rect class="cls-11" x="2452.44" y="2685.07" width="10.57" height="53.25"/>
          <rect class="cls-11" x="2542.37" y="2685.07" width="10.57" height="53.25"/>
          <rect class="cls-11" x="826.24" y="2733.1" width="10.57" height="53.25"/>
          <rect class="cls-11" x="916.17" y="2733.1" width="10.57" height="53.25"/>
          <rect class="cls-11" x="871.21" y="2786.35" width="10.57" height="53.25"/>
          <rect class="cls-11" x="1011.89" y="2733.1" width="10.57" height="53.25"/>
          <rect class="cls-11" x="1101.82" y="2733.1" width="10.57" height="53.25"/>
          <rect class="cls-11" x="966.93" y="2786.35" width="10.57" height="53.25"/>
          <rect class="cls-11" x="1056.86" y="2786.35" width="10.57" height="53.25"/>
          <rect class="cls-11" x="2215.14" y="2733.1" width="10.57" height="53.25"/>
          <rect class="cls-11" x="2313.88" y="2733.1" width="10.57" height="53.25"/>
          <rect class="cls-11" x="2403.81" y="2733.1" width="10.57" height="53.25"/>
          <rect class="cls-11" x="2268.91" y="2786.35" width="10.57" height="53.25"/>
          <rect class="cls-11" x="2358.84" y="2786.35" width="10.57" height="53.25"/>
          <rect class="cls-11" x="2500.8" y="2736.58" width="10.57" height="53.25"/>
          <rect class="cls-11" x="2590.72" y="2736.58" width="10.57" height="53.25"/>
          <rect class="cls-11" x="2455.83" y="2789.83" width="10.57" height="53.25"/>
          <rect class="cls-11" x="2545.76" y="2789.83" width="10.57" height="53.25"/>
          <rect class="cls-11" x="822.85" y="2844.94" width="10.57" height="53.25"/>
          <rect class="cls-11" x="912.78" y="2844.94" width="10.57" height="53.25"/>
          <rect class="cls-11" x="867.81" y="2898.19" width="10.57" height="53.25"/>
          <rect class="cls-11" x="1008.5" y="2844.94" width="10.57" height="53.25"/>
          <rect class="cls-11" x="1098.43" y="2844.94" width="10.57" height="53.25"/>
          <rect class="cls-11" x="963.54" y="2898.19" width="10.57" height="53.25"/>
          <rect class="cls-11" x="1053.46" y="2898.19" width="10.57" height="53.25"/>
          <rect class="cls-11" x="2310.48" y="2844.94" width="10.57" height="53.25"/>
          <rect class="cls-11" x="2400.41" y="2844.94" width="10.57" height="53.25"/>
          <rect class="cls-11" x="2355.45" y="2898.19" width="10.57" height="53.25"/>
          <rect class="cls-11" x="2497.4" y="2848.42" width="10.57" height="53.25"/>
          <rect class="cls-11" x="2452.44" y="2901.66" width="10.57" height="53.25"/>
          <rect class="cls-11" x="2542.37" y="2901.66" width="10.57" height="53.25"/>
          <rect class="cls-11" x="916.17" y="2949.69" width="10.57" height="53.25"/>
          <rect class="cls-11" x="1011.89" y="2949.69" width="10.57" height="53.25"/>
          <rect class="cls-11" x="966.93" y="3002.94" width="10.57" height="53.25"/>
          <rect class="cls-11" x="1056.86" y="3002.94" width="10.57" height="53.25"/>
          <rect class="cls-11" x="2313.88" y="2949.69" width="10.57" height="53.25"/>
          <rect class="cls-11" x="2403.81" y="2949.69" width="10.57" height="53.25"/>
          <rect class="cls-11" x="2358.84" y="3002.94" width="10.57" height="53.25"/>
          <rect class="cls-11" x="2500.8" y="2953.17" width="10.57" height="53.25"/>
          <rect class="cls-11" x="2455.83" y="3006.42" width="10.57" height="53.25"/>
          <rect class="cls-11" x="1008.5" y="3056.13" width="10.57" height="53.25"/>
          <rect class="cls-11" x="963.54" y="3109.38" width="10.57" height="53.25"/>
          <rect class="cls-11" x="1053.46" y="3109.38" width="10.57" height="53.25"/>
          <rect class="cls-11" x="2400.41" y="3056.13" width="10.57" height="53.25"/>
          <rect class="cls-11" x="2355.45" y="3109.38" width="10.57" height="53.25"/>
          <rect class="cls-11" x="1011.89" y="3160.88" width="10.57" height="53.25"/>
        </g>
      </g>
    </g>
  </g>
  <text class="cls-13" transform="translate(683.15 3524.28) rotate(38.6)"><tspan x="0" y="0">P</tspan></text>
  <text class="cls-13" transform="translate(936.46 3721.69) rotate(25.73)"><tspan x="0" y="0">R</tspan></text>
  <text class="cls-13" transform="translate(1234.2 3860.66) rotate(12.63)"><tspan x="0" y="0">A</tspan></text>
  <text class="cls-13" transform="translate(1565.4 3928.65) rotate(-.66)"><tspan x="0" y="0">B</tspan></text>
  <text class="cls-13" transform="translate(1896.68 3919.97) rotate(-14.12)"><tspan x="0" y="0">U</tspan></text>
  <text class="cls-13" transform="translate(2223.09 3832.43) rotate(-27.58)"><tspan x="0" y="0">R</tspan></text>
  <text class="cls-13" transform="translate(2513.42 3675.84) rotate(-40.45)"><tspan x="0" y="0">G</tspan></text>
</svg>