<?xml version="1.0" encoding="UTF-8"?>
<svg id="Ebene_1" data-name="Ebene 1" xmlns="http://www.w3.org/2000/svg" viewBox="0 0 3683.87 3590.18">
  <defs>
    <style>
      .cls-1 {
        fill: #0470b5;
      }

      .cls-1, .cls-2, .cls-3, .cls-4 {
        stroke-width: 0px;
      }

      .cls-2 {
        fill: #249d38;
      }

      .cls-3 {
        fill: #9c4956;
      }

      .cls-4 {
        fill: #e20721;
      }
    </style>
  </defs>
  <path class="cls-3" d="m1176.91,2157.4c-295.05-110.59-565.83-298.04-780.17-558.98C182.33,1337.4,51.18,1035.38,0,724.48,530.34,288.84,1230.02,196.68,1829.6,421.43c-530.34,435.64-756.71,1104.16-652.69,1735.97Z"/>
  <path class="cls-3" d="m2353.83,3590.18c-295.04-110.59-565.76-297.96-780.1-558.9-214.34-260.94-345.64-562.97-396.82-873.88,599.57,224.75,1299.26,132.59,1829.6-303.05,104.11,631.74-122.33,1300.19-652.67,1735.82Z"/>
  <path class="cls-4" d="m1829.6,421.43c-530.34,435.64-756.71,1104.16-652.69,1735.97-295.05-110.59-565.83-298.04-780.17-558.98C182.33,1337.4,51.18,1035.38,0,724.48,530.34,288.84,1230.02,196.68,1829.6,421.43Z"/>
  <path class="cls-4" d="m3006.58,1854.29l-.08.07c-51.18-310.9-182.33-612.92-396.74-873.94-214.34-260.94-485.12-448.39-780.17-558.98C2359.94-14.21,3059.62-106.37,3659.19,118.38c104.03,631.81-122.27,1300.27-652.61,1735.9Z"/>
  <path class="cls-1" d="m3006.58,1854.29l-.08.07c-51.18-310.9-182.33-612.92-396.74-873.94-214.34-260.94-485.12-448.39-780.17-558.98C2359.94-14.21,3059.62-106.37,3659.19,118.38c104.03,631.81-122.27,1300.27-652.61,1735.9Z"/>
  <path class="cls-2" d="m2353.83,3590.18c-295.04-110.59-565.76-297.96-780.1-558.9-214.34-260.94-345.64-562.97-396.82-873.88,599.57,224.75,1299.26,132.59,1829.6-303.05,104.11,631.74-122.33,1300.19-652.67,1735.82Z"/>
</svg>