<?xml version="1.0" encoding="UTF-8"?>
<svg id="Ebene_1" data-name="Ebene 1" xmlns="http://www.w3.org/2000/svg" viewBox="0 0 4604.61 670.52">
  <defs>
    <style>
      .cls-1 {
        font-family: JaneAusten, JaneAusten;
        font-size: 141.92px;
      }

      .cls-1, .cls-2 {
        fill: #fff;
      }

      .cls-2 {
        stroke-width: 0px;
      }
    </style>
  </defs>
  <g>
    <path class="cls-2" d="m474.21,136.64c-1.35,7.28-5.12,15.44-11.31,24.46-6.2,9.03-12.13,15.83-17.79,20.42-5.66,4.57-11.45,8.15-17.38,10.71-5.94,2.57-4.85,7.68,3.23,15.36,8.08,7.68,13.26,17.32,15.56,28.91,2.29,11.59.95,23.98-4.04,37.19-4.99,13.21-13.88,26.81-26.69,40.83-12.79,14.01-26,25.94-39.61,35.78-13.62,9.84-28.98,19-46.1,27.48-17.1,8.49-30.25,13.15-39.41,13.95-12.13-2.43-20-13-23.65-31.73-3.63-18.73-3.77-32.55-.4-41.44,3.37-8.9,9.3-14.41,17.79-16.58,8.48-2.14,15.49-.67,21.01,4.45,5.53,5.12,5.66,11.19.41,18.19-5.26,7.02-6.81,13.68-4.65,20.02,2.16,6.33,7.75,8.29,16.78,5.86,9.02-2.42,19.6-7.47,31.73-15.16,12.13-7.68,22.56-15.29,31.33-22.85,8.76-7.54,16.3-15.56,22.63-24.05,6.34-8.48,9.9-18.66,10.72-30.52.81-11.87-1.55-22.31-7.07-31.33-5.53-9.03-11.92-13.95-19.2-14.75-7.28-.81-13.21-2.43-17.79-4.86-4.59-2.42-4.31-6.19.81-11.32,5.11-5.12,11.31-8.15,18.59-9.09,7.28-.95,15.09-5.19,23.44-12.74,8.36-7.54,12.4-15.17,12.13-22.85-.28-7.68-4.92-10.71-13.94-9.09-9.03,1.62-21.43,6.26-37.2,13.94-15.76,7.69-31.06,15.37-45.88,23.05-14.82,7.68-27.36,14.28-37.6,19.8-10.24,5.54-23.44,14.23-39.62,26.08-16.16,11.87-34.83,27.35-55.99,46.49-21.15,19.14-35.37,32.34-42.65,39.62-7.28,7.28-15.76,13.88-25.47,19.81-9.7,5.94-18.59,12.94-26.68,21.03s-14.7,11.85-19.81,11.31c-5.12-.53-10.04-2.02-14.75-4.45-4.72-2.42-7.28-6.4-7.68-11.92-.41-5.53,4.71-13.81,15.36-24.87,10.64-11.04,23.78-22.77,39.41-35.17,15.63-12.39,34.09-25.6,55.38-39.61,21.29-14.02,39.83-26.34,55.59-36.99s27.28-18.33,34.56-23.04c7.28-4.72,16.84-14.49,28.71-29.31,11.85-14.82,24.12-28.64,36.79-41.43,12.67-12.81,24.32-24.93,34.97-36.39,10.65-11.45,17.45-21.23,20.42-29.31,2.96-8.08,3.16-13.4.61-15.97-2.57-2.56-10.58.68-24.05,9.71-13.48,9.02-32.55,22.43-57.21,40.22-24.66,17.79-44.87,32.62-60.64,44.47-15.76,11.87-32.13,25.27-49.11,40.23-16.98,14.96-34.23,30.32-51.75,46.09-17.52,15.77-30.93,29.71-40.23,41.84-9.3,12.13-17.31,21.63-24.05,28.5-6.74,6.88-14.63,13.55-23.65,20.02-9.03,6.47-17.25,11.52-24.66,15.16-7.42,3.65-15.57,2.63-24.46-3.03l2.43-16.58c12.67-7.82,24.33-14.62,34.97-20.42,10.65-5.79,21.76-15.76,33.36-29.91,11.58-14.16,27.96-31.21,49.11-51.14,21.15-19.95,40.49-37.33,58.02-52.15,17.51-14.82,34.97-28.64,52.34-41.44,17.39-12.81,34.16-25.34,50.34-37.6,16.16-12.25,32.13-23.91,47.9-34.97,15.77-11.05,28.5-19.34,38.21-24.87,9.7-5.51,16.98-8.41,21.83-8.69,10.51,1.08,17.65,4.38,21.43,9.91,3.77,5.53,6.74,10.84,8.9,15.97s1.95,10.84-.61,17.18c-2.56,6.33-7.89,14.42-15.97,24.26-8.08,9.84-17.86,19.81-29.31,29.91-11.45,10.11-21.62,19.2-30.52,27.3-8.9,8.08-14.63,14.08-17.18,17.99-2.56,3.91-6.26,9.9-11.11,17.99,17.78-9.16,32.81-16.51,45.07-22.03,12.27-5.53,23.65-10.17,34.16-13.94,10.51-3.77,22.24-6.88,35.17-9.31,12.94-2.42,23.04-2.14,30.32.81,7.28,2.97,12.39,9.84,15.36,20.61Z"/>
    <path class="cls-2" d="m703.52,113.8l-2.83,6.88c-6.47,4.04-13.61,6.87-21.43,8.48l-7.27-2.02c-7.28-8.36-12.81-14.42-16.58-18.19,3.5-7.54,10.24-14.28,20.21-20.21l7.68-.41c6.47,2.97,9.84,6.88,10.11,11.73.26,4.85,3.63,9.43,10.1,13.75Z"/>
    <path class="cls-2" d="m2961.67,298.35c-12.67,9.97-27.16,19.13-43.46,27.49-16.3,8.36-29.18,13.21-38.61,14.56-9.43,1.34-12.93-.41-10.51-5.26,2.43-4.85,6.41-10.64,11.93-17.38,5.53-6.74,7.88-13.55,7.07-20.42-.81-6.88-4.99-12.39-12.53-16.58-7.55-4.17-17.79-4.57-30.72-1.21-12.94,3.37-25.27,7.75-36.99,13.14-11.73,5.4-21.7,9.97-29.92,13.75-8.22,3.78-17.52,7.96-27.89,12.54-10.37,4.57-19.48,7.75-27.28,9.49-7.82,1.75-8.96-2.02-3.44-11.32,5.53-9.3,6.94-18.66,4.24-28.1-2.69-9.44-8.29-15.09-16.77-16.98-8.49-1.89-19.6-.61-33.35,3.84-13.75,4.45-25.68,8.83-35.78,13.14-10.11,4.31-19.61,9.23-28.5,14.75-8.9,5.53-18.87,10.65-29.92,15.36-11.05,4.72-19.27,7.35-24.66,7.89s-4.65-2.22,2.22-8.29c6.87-6.06,15.57-13.34,26.07-21.83,10.51-8.5,18.87-17.12,25.07-25.87,6.19-8.76,9.56-15.5,10.1-20.21.54-4.72-1.15-9.1-5.04-13.15-3.92-4.04-11.26-6.87-22.03-8.48h-5.66c-13.21,2.97-26.55,7.75-40.02,14.35-13.48,6.6-26.95,14.89-40.43,24.87-13.47,9.97-24.71,20.93-36.3,30.77-.48.41-.97.84-1.48,1.28-.01,0-.02.02-.05.03-.23.21-.47.41-.71.63-.08.06-.15.13-.23.21-.79.76-1.87,1.74-3.18,2.9-.05.03-.09.08-.14.13-11.05,9.72-37.92,31.18-45.75,33.27-8.83,2.36-16.27,2.74-22.33,1.11-6.06-1.62-9.77-4.17-11.12-7.68-1.34-3.5-.4-6.66,2.83-9.49,3.23-2.83,7.61-7.82,13.14-14.96,5.53-7.14,8.15-14.01,7.89-20.61-.28-6.6-3.18-9.24-8.69-7.89-5.54,1.34-8.09-.94-7.68-6.88.4-5.93-.28-11.25-2.03-15.97-1.75-4.71-5.39-8.88-10.91-12.53-5.53-3.63-16.23-5.72-32.13-6.26-12.13,1.34-21.63,3.5-28.51,6.47-6.87,2.97-16.37,7.75-28.5,14.35-12.13,6.6-25.27,16.74-39.41,30.41-14.15,13.69-21.36,24.1-21.63,31.24,0,.37,0,.72.01,1.08-6.53,3.11-14.82,6.86-24.87,11.25-10.79,4.72-21.3,7.96-31.54,9.7-10.24,1.75-16.04,1.49-17.38-.8-1.35-2.29-.68-5.18,2.02-8.69,2.69-3.51,6.47-9.1,11.33-16.78,4.85-7.68,6.87-15.09,6.06-22.23-.81-7.14-4.18-11.87-10.11-14.16-5.94-2.28-13.14-2.49-21.63-.6-8.48,1.88-17.45,5.04-26.88,9.49-9.43,4.45-27.22,13.81-53.37,28.1,4.59-8.22,10.93-15.4,19.01-21.53,8.08-6.12,23.11-18.63,45.08-37.49,21.96-18.87,44-37.93,66.09-57.21,22.1-19.27,36.93-33.22,44.47-41.84,7.55-8.62,11.12-16.3,10.72-23.04-.4-6.74-7.75-12.27-22.03-16.58-6.2,1.62-11.45,5.25-15.76,10.91-4.32,5.66-10.65,12.67-19.01,21.02s-20.82,20.82-37.4,37.4c-16.57,16.58-35.24,33.82-55.99,51.75-20.75,17.92-38.13,31.09-52.15,39.52-9.46,5.69-18.59,10.72-27.39,15.09-.15.07-.31.15-.47.23-14.18,6.6-76.51,22.62-88.77,25.82-12.4,3.23-19.95,3.3-22.64.2-2.69-3.1-2.36-7.81,1.01-14.15,3.37-6.33,5.25-13.14,5.66-20.42.4-7.27-1.49-14.95-5.66-23.04-4.18-8.08-11.66-14.69-22.44-19.81h-8.9c-18.59,9.43-33.75,17.12-45.48,23.04-11.73,5.94-23.25,13.81-34.56,23.65-11.33,9.85-17.18,19.01-17.59,27.49-.14,2.76.05,5.45.53,8.05-8.69,2.92-18.71,5.97-30.05,9.14-24.12,6.74-37.05,7.28-38.81,1.62-1.75-5.66-.07-14.28,5.06-25.87,5.11-11.59,5.11-20.42,0-26.48-5.12-6.06-11.26-8.29-18.4-6.66-7.14,1.62-16.57,5.86-28.29,12.73-11.73,6.88-32.95,19.34-63.67,37.4,19.41-20.21,30.65-34.56,33.75-43.05,3.11-8.49,3.77-16.44,2.03-23.86-1.75-7.41-7.07-12.74-15.97-15.97-9.97.54-19.2,2.76-27.7,6.67-8.48,3.91-20.21,9.7-35.17,17.38-14.96,7.68-24.89,18.97-35.94,28.55-9.96,8.62-20.76,20.54-26.75,24.6-.01,0-.02.01-.03.01-.64.45-1.23.78-1.75,1.02-.69.41-1.4.83-2.11,1.23-.01,0-.02.01-.03.02-7.33,4.13-15.71,7.42-25.15,9.87-10.37,2.69-22.44,4.1-36.18,4.24-13.75.14-23.85-.81-30.32-2.83-6.47-2.02-10.84-6.4-13.14-13.14s-2.22-13.47.21-20.21c2.43-6.74,5.59-12.87,9.5-18.4,3.9-5.53,9.84-10.71,17.78-15.57,7.96-4.85,11.99-10.78,12.13-17.78.14-7-3.37-11.52-10.51-13.54-7.14-2.03-14.62.13-22.44,6.47-7.82,6.33-18.16,12.36-31.02,18.09-12.87,5.73-24.29,15.09-34.27,28.1-4.48,5.85-10.17,11.65-17.06,17.18,0,0-.01.02-.02.02-8.41,6.78-18.62,13.14-30.62,18.7-1.13.6-2.28,1.19-3.44,1.79-16.3,8.36-29.18,13.21-38.61,14.56-9.43,1.34-12.93-.41-10.51-5.26,2.43-4.85,6.41-10.64,11.93-17.38,5.53-6.74,7.88-13.55,7.07-20.42-.81-6.88-4.99-12.39-12.53-16.58-7.55-4.17-17.79-4.57-30.72-1.21-12.94,3.37-25.27,7.75-36.99,13.14-11.73,5.4-21.7,9.97-29.92,13.75-8.22,3.78-17.52,7.96-27.89,12.54-10.37,4.57-19.48,7.75-27.28,9.49-7.82,1.75-8.96-2.02-3.44-11.32,5.53-9.3,6.94-18.66,4.24-28.1-2.69-9.44-8.29-15.09-16.77-16.98-8.49-1.89-19.6-.61-33.35,3.84-13.75,4.45-25.68,8.83-35.78,13.14-10.11,4.31-19.6,9.23-28.5,14.75-8.9,5.53-18.87,10.65-29.92,15.36-11.05,4.72-19.27,7.35-24.66,7.89s-4.64-2.22,2.22-8.29,15.57-13.34,26.08-21.83c10.5-8.5,18.86-17.12,25.06-25.87,6.19-8.76,9.56-15.5,10.11-20.21.53-4.72-1.15-9.1-5.06-13.15-3.91-4.04-11.26-6.87-22.03-8.48h-5.66c-13.21,2.97-26.55,7.75-40.02,14.35-13.48,6.6-26.95,14.89-40.42,24.87-13.48,9.97-26.01,19.88-37.6,29.7-3.43,2.91-9.06,6.17-15.34,9.39-.3.16-.6.31-.91.47-.57.3-1.31.68-2.2,1.1-.34.16-.69.33-1.03.5-11.33,5.38-40.65,17.86-54.98,20.82-16.31,3.37-25.67,2.97-28.1-1.22-2.43-4.17-2.22-8.41.61-12.74,2.83-4.31,7.94-9.09,15.36-14.34,7.41-5.26,13.81-11.73,19.2-19.41,5.39-7.68,8.62-14.22,9.7-19.6,1.08-5.39,1.22-10.32.41-14.77-.81-4.45-2.97-7.61-6.48-9.49-3.5-1.89-7.68-2.97-12.53-3.23-12.67,0-24.26,1.95-34.76,5.86-10.51,3.91-25.27,16.04-44.27,36.39-2.96,3.16-5.9,6.21-8.84,9.14t-.02.02c-1.51,6.33-6.24,6.65-13.02,12.22-.02.02-.05.03-.06.05-.47.41-.93.81-1.39,1.2-.22.21-.45.39-.67.58-.49.42-.99.85-1.48,1.26-7.62,6.35-21.8,16.15-30.22,21-9.93,5.73-15.91,9.93-32.47,13.61-13.42,2.98-23.86-.81-30.32-2.83-6.47-2.02-10.84-6.4-13.14-13.14s-2.22-13.47.21-20.21c2.42-6.74,5.58-12.87,9.49-18.4,3.91-5.53,9.84-10.71,17.79-15.57,7.94-4.85,11.99-10.78,12.13-17.78.13-7-3.37-11.52-10.51-13.54-7.14-2.03-14.63.13-22.44,6.47-7.82,6.33-18.16,12.36-31.03,18.09-12.86,5.73-24.29,15.09-34.25,28.1-9.97,13-25.87,24.56-47.7,34.67,2.42,13.61,6.94,18.77,13.54,15.45,6.6-3.29,14.69-7.7,24.26-13.23,9.56-5.53,17.08-11.53,22.54-18,5.46-6.47,7.3-6.64,5.56-.5-1.75,6.13-2.5,12.3-2.22,18.5.26,6.19,2.35,12.39,6.26,18.59,3.91,6.19,8.96,11.11,15.17,14.75,6.19,3.63,16.16,6.26,29.91,7.88l16.98-.8c10.94-1.34,19.68-3.65,27.88-6.66.05-.01.09-.03.14-.05,8.15-3.47,19.61-9.94,31.56-17.71,16.85-11.81,37.14-27.56,44.19-34.32l1.1-1.1c18.85-18.77,39.52-37.48,44.54-38.66,5.12-1.22,9.02-.34,11.73,2.63,2.69,2.96,1.41,7.28-3.84,12.93-5.26,5.66-11.52,10.04-18.8,13.14-7.28,3.11-14.15,7.21-20.62,12.34-6.47,5.12-11.32,10.51-14.55,16.16-3.23,5.66-4.24,11.46-3.04,17.39,1.22,5.93,4.31,10.91,9.3,14.96,4.99,4.04,10.44,6.53,16.38,7.47,5.93.94,14.55,1.41,25.87,1.41,16.98-2.16,33.1-6.59,48.5-12.93,14.09-5.79,38.48-18.18,57.76-27.8.01-.01.03-.01.05-.02,2.26-1.12,4.43-2.21,6.51-3.24.02,0,.05-.01.07-.03,4.09-2.26,7.99-4.88,11.64-7.84l6.73-5.47c19.95-15.09,35.17-25.86,45.68-32.34,10.51-6.47,20.28-11.18,29.31-14.15,9.02-2.96,14.55-2.56,16.58,1.22,2.02,3.77-1.56,9.5-10.72,17.18s-18.66,15.02-28.5,22.02c-9.84,7.02-21.43,14.77-34.77,23.25-13.34,8.49-21.83,15.24-25.46,20.21-3.65,4.99-4.45,9.24-2.43,12.74,2.02,3.51,4.85,5.39,8.5,5.66,3.63.28,8.28.4,13.94.4,7.28,0,14.69-.94,22.24-2.83,9.42-2.16,21.95-6.33,37.59-12.53,15.64-6.19,31.33-12.79,47.11-19.81,15.76-7,28.36-12.26,37.8-15.76,9.42-3.51,19.13-5.59,29.11-6.27,9.96-.67,13.33,2.22,10.1,8.69-3.23,6.48-8.83,12.54-16.77,18.19-7.96,5.66-12.47,13.21-13.55,22.64.28,5.39,4.86,8.08,13.76,8.08h1.62c9.96-.53,22.97-3.23,39.01-8.08,16.03-4.85,32.4-9.77,49.11-14.75,16.7-4.99,30.18-9.84,40.42-14.56,10.25-4.71,21.23-9.02,32.96-12.93,11.72-3.91,15.69-2.22,11.92,5.06-3.77,7.28-8.36,13.07-13.75,17.38-5.39,4.31-6.53,9.97-3.44,16.98,3.1,7.02,14.62,10.91,34.56,11.73,25.34-3.23,39.44-6.06,58.31-17.53.46-.28.91-.55,1.36-.84.03-.02.08-.05.11-.07,10.54-5.78,30.76-17.43,38.66-21.99,9.57-5.53,17.08-11.53,22.54-18,5.46-6.47,7.3-6.64,5.56-.5-1.75,6.13-2.5,12.3-2.22,18.5.26,6.19,2.35,12.39,6.26,18.59,3.91,6.19,8.96,11.11,15.17,14.75,6.19,3.63,16.16,6.26,29.91,7.88l16.99-.8c15.36-1.89,29.03-4.17,41.03-6.88,11.99-2.69,21.22-5.39,27.69-8.08,6.48-2.69,14.66-6.97,21.27-10.88,5.53-2.96,21.66-20.52,38.77-32.37,17.12-11.85,30.59-19.06,40.42-21.63,9.84-2.56,13.95-.33,12.34,6.67-1.62,7-6,13.88-13.14,20.62-7.14,6.73-14.56,13.21-22.24,19.4-7.68,6.2-11.25,12.94-10.71,20.21.54,7.28,3.16,12.34,7.89,15.17,4.71,2.83,11.25,4.24,19.6,4.24,6.19-2.69,15.5-7.41,27.89-14.15,12.39-6.74,26.88-16.04,43.46-27.89,16.58-11.87,23.65-13.75,21.22-5.66-2.42,8.08-2.02,15.69,1.22,22.84,3.23,7.15,10.91,12.4,23.04,15.77,12.13,3.36,30.53,1.08,55.19-6.88,17.28-5.56,29.66-10.27,37.14-14.12,5.32,5.3,12.75,8.12,22.29,8.47,10.91.4,24.85.87,41.83,1.41-17.78,6.47-34.43,13.88-49.93,22.23-15.5,8.36-33.96,18.54-55.38,30.53-21.43,11.99-40.75,23.98-58.01,35.97-17.25,12-33.69,23.98-49.32,35.99-15.64,11.99-38.14,34.16-67.52,66.5-13.47,18.86-21.83,36.39-25.06,52.55,1.62,13.75,5.19,24.59,10.72,32.55,5.53,7.94,16.23,14.22,32.13,18.8h8.9c8.36-1.08,17.18-3.71,26.48-7.89,9.3-4.17,22.1-13.75,38.4-28.71,16.3-14.95,29.91-28.97,40.82-42.04,10.93-13.07,24.8-29.92,41.65-50.53,16.84-20.62,33.89-42.78,51.14-66.5,17.24-23.72,32.95-42.31,47.09-55.8,14.15-13.47,26.07-23.17,35.78-29.11,9.7-5.93,22.5-11.85,38.4-17.78,1.93-.71,3.82-1.41,5.67-2.11.06-.02.11-.03.17-.06.14-.05.3-.1.5-.18.13-.05.25-.09.4-.15.14-.05.3-.1.46-.16,10.43-3.43,64.84-16.39,95.27-30.9-8.9,11.05-16.7,19.48-23.44,25.27-6.74,5.79-9,11.49-6.78,17.08,2.22,5.59,6.71,8.39,13.45,8.39,8.48-.41,16.77-2.36,24.87-5.87,8.08-3.5,17.04-7.75,26.88-12.74,9.82-4.98,18.39-9.3,25.67-12.93,7.28-3.63,15.83-7.89,25.67-12.74,9.84-4.85,18.32-9.09,25.47-12.74,7.14-3.63,10.71-4.1,10.71-1.41s-4.45,7.89-13.33,15.57c-8.9,7.68-12.68,15.29-11.33,22.84,1.34,7.54,5.56,12.53,12.63,14.96,7.07,2.42,14.05,3.63,20.92,3.63,4.71,0,11.83-.73,21.32-2.22,9.5-1.48,18.77-3.7,27.8-6.67,6.31-2.06,16.51-6.43,30.63-13.1,1.82,5.38,4.45,9.55,7.86,12.5,7.35,6.34,14.46,9.5,21.33,9.5,9.96,0,19.06-1.22,27.28-3.63,8.22-2.43,16.7-6.06,25.47-10.91,8.76-4.86,18.66-8.76,29.7-11.73,4.32,7.82,10.93,14.15,19.82,19,8.08,4.59,19.67,6.88,34.76,6.88,1.35,0,5.26-.14,11.73-.4,6.47-.28,15.34-2.74,25.48-7.11,10.43-4.48,16.9-9.21,22.62-14.26,1.49-1.32,3.3-2.82,5.23-4.47l.68-.57,26.67-22.54c2.81-2.36,5.3-5.06,7.93-7.61,16.77-16.29,27.36-25.16,37.12-31.17,10.51-6.47,20.28-11.18,29.31-14.15,9.02-2.96,14.55-2.56,16.58,1.22,2.02,3.77-1.56,9.5-10.72,17.18-9.17,7.68-18.66,15.02-28.5,22.02-9.84,7.02-21.43,14.77-34.77,23.25-13.34,8.49-21.83,15.24-25.46,20.21-3.65,4.99-4.45,9.24-2.43,12.74,2.02,3.51,4.85,5.39,8.49,5.66,3.63.28,8.28.4,13.94.4,7.28,0,14.69-.94,22.24-2.83,9.42-2.16,21.95-6.33,37.59-12.53,15.64-6.19,31.33-12.79,47.09-19.81,15.77-7,28.37-12.26,37.81-15.76,9.42-3.51,19.13-5.59,29.11-6.27,9.96-.67,13.33,2.22,10.1,8.69-3.23,6.48-8.83,12.54-16.77,18.19-7.96,5.66-12.47,13.21-13.55,22.64.28,5.39,4.86,8.08,13.75,8.08h1.62c9.97-.53,22.97-3.23,39.01-8.08s32.41-9.77,49.12-14.75c16.7-4.99,30.18-9.84,40.42-14.56,10.25-4.71,21.23-9.02,32.95-12.93,11.73-3.91,15.71-2.22,11.93,5.06-3.78,7.28-8.36,13.07-13.75,17.38-5.4,4.31-6.55,9.97-3.44,16.98,3.1,7.02,14.62,10.91,34.56,11.73,25.34-3.23,47.44-10.58,66.3-22.03,18.87-11.45,30.46-20.68,34.77-27.7,2.16-3.5,3.23-6.59,3.23-9.3,0-2.96-1.22-5.65-3.63-8.08Zm-1210.78,167.17c-20.75,27.08-38.54,49.86-53.36,68.31-14.82,18.47-30.05,34.98-45.68,49.52-15.63,14.56-27.69,24.46-36.18,29.71-8.48,5.26-16.98,8.69-25.47,10.31-8.48,1.62-13.47-1.81-14.95-10.31-1.48-8.48.47-18.06,5.86-28.71,5.39-10.64,12.94-21.62,22.64-32.95,9.7-11.32,24.05-26.68,43.05-46.09,19.01-19.4,38-35.97,57.01-49.72,19-13.75,37.8-26.22,56.39-37.4,18.59-11.19,36.25-21.63,52.96-31.33-20.76,25.34-41.51,51.54-62.26,78.63Zm119.87-149.18c-5.8,7.42-13.75,12.27-23.86,14.56-10.1,2.29-18.33,1.08-24.66-3.65-6.34-4.71-7.14-11.11-2.43-19.2,4.72-8.08,10.86-15.22,18.4-21.43,7.54-6.19,15.57-10.64,24.05-13.33,8.49-2.69,13.47,1.95,14.96,13.94,1.48,12-.68,21.7-6.47,29.11Zm492.2-29.51c-1.35,4.99-6.06,10.37-14.16,16.18-8.08,5.79-17.17,11.31-27.28,16.57-10.1,5.26-19.88,9.38-29.3,12.34-9.43,2.97-16.31,2.69-20.62-.81-4.31-3.5-5.12-8.55-2.43-15.16,2.69-6.6,9.03-14.08,19.01-22.43,9.97-8.36,19.88-15.09,29.71-20.21,9.84-5.12,19-8.09,27.49-8.9,8.48-.81,13.87,1.48,16.16,6.87,2.29,5.4,2.76,10.58,1.42,15.57Z"/>
    <path class="cls-2" d="m1551.18,113.8l-2.83,6.88c-6.48,4.04-13.62,6.87-21.43,8.48l-7.28-2.02c-7.28-8.36-12.81-14.42-16.58-18.19,3.51-7.54,10.24-14.28,20.21-20.21l7.68-.41c6.48,2.97,9.84,6.88,10.11,11.73.26,4.85,3.63,9.43,10.11,13.75Z"/>
    <path class="cls-2" d="m4599.35,222.45c-2.82-2.35-7.27-3.6-13.33-3.74-5.12,1.21-8.77,4.41-10.91,9.61-2.17,5.18-5.4,10.31-9.71,15.36-4.31,5.04-10.78,10.17-19.4,15.36-8.63,5.18-17.93,9.94-27.9,14.25-9.97,4.31-18.66,8.38-26.07,12.22-7.42,3.84-15.24,7.85-23.44,12.04-8.23,4.17-18,7.34-29.31,9.49-2.69-17.65-6.74-26.75-12.13-27.28-5.39-.54-9.84,0-13.34,1.62-3.5,1.62-6,4.72-7.47,9.3-1.48,4.59-2.36,11.19-2.63,19.81.28,3.9.87,7.81,1.8,11.72-7.58,2.33-17.82,4.81-30.71,7.49-16.3,3.37-25.67,2.97-28.1-1.22-2.42-4.17-2.22-8.41.61-12.74,2.83-4.31,7.96-9.09,15.36-14.34,7.42-5.26,13.81-11.73,19.2-19.41,5.39-7.68,8.62-14.22,9.71-19.6,1.08-5.39,1.22-10.32.4-14.77-.81-4.44-2.97-7.61-6.47-9.49-3.51-1.89-7.68-2.97-12.53-3.23-12.68,0-24.26,1.95-34.77,5.86-10.51,3.91-25.27,16.04-44.27,36.39-13.33,14.28-26.38,26.01-39.12,35.18-7.21,2.46-16.76-1.89-26.37-7.9-10.79-6.74-14.63-14.28-11.52-22.64,3.09-8.35,3.3-17.38.61-27.08-2.71-9.71-10.11-15.77-22.24-18.19-11.59.26-19.88,1.62-24.87,4.04-4.99,2.43-7.94,6.88-8.88,13.34-.95,6.47,1.41,11.8,7.07,15.97,5.65,4.17,8.48,10.04,8.48,17.59s-3.63,13.81-10.91,18.8c-7.28,4.99-14.75,9.16-22.43,12.53-7.68,3.37-14.35,6.94-20.02,10.71-5.65,3.78-11.66,5.54-17.99,5.26-6.34-.28-11.66-3.65-15.97-10.11-4.31-6.47-1.95-13.14,7.07-20,9.03-6.88,17.45-11.19,25.27-12.94,7.82-1.74,13.95-3.16,18.4-4.24,4.45-1.08,7.81-3.23,10.1-6.47,2.29-3.23,2.83-7.49,1.62-12.74-1.2-5.26-3.77-9.7-7.68-13.34-3.91-3.63-10.5-4.04-19.81-1.21-9.3,2.83-18.46,7.28-27.49,13.34-9.02,6.06-18.46,13.61-28.29,22.64-9.84,9.03-15.43,17.31-16.77,24.87,0,.15,0,.3.01.45-6.57,3.78-14.83,8.92-19.82,12.08-8.09,5.12-21.7,10.98-40.83,17.59-19.13,6.6-32.08,9.3-38.81,8.08-6.74-1.21-11.33-4.57-13.75-10.1-2.43-5.53-2.03-11.87,1.2-19.01,3.24-7.14,8.56-14.82,15.97-23.04,7.42-8.22,15.9-18.06,25.47-29.51,9.57-11.45,17.85-20.75,24.87-27.89,7-7.14,12.86-12.74,17.59-16.78,4.71-4.05,9.16-7.07,13.33-9.09,4.18-2.03,9.5-3.44,15.97-4.25,6.48-.8,14.69-1.55,24.66-2.22,9.97-.66,26.81-1.95,50.53-3.84,23.72-1.88,46.57-3.97,68.53-6.26,21.96-2.29,45.13-4.45,69.53-6.47,24.4-2.03,48.45-3.16,72.17-3.44,23.72-.28,46.02-.75,66.9-1.42,20.89-.67,38.67-1.2,53.36-1.62,14.69-.4,27.28-.26,37.8.41,10.51.68,20.35,1.62,29.51,2.82,9.17,1.21,19.27.08,30.32-3.43-10.78-9.43-25.27-15.03-43.46-16.78-18.19-1.74-41.77-2.96-70.74-3.63-28.97-.68-56.87-.75-83.69-.21-26.81.54-54.17,1.75-82.06,3.65-27.9,1.88-55.59,4.1-83.08,6.66-27.49,2.57-54.37,5.33-80.65,8.29-26.28,2.97-46.02,5.26-59.22,6.88,10.24-11.05,19.33-20.55,27.28-28.5,7.94-7.96,16.23-16.24,24.87-24.87,8.62-8.62,20.28-19.47,34.96-32.55,14.69-13.07,19.48-22.97,14.35-29.71-8.63.28-18.8,4.38-30.53,12.34-11.72,7.96-24.12,17.86-37.19,29.71-13.07,11.85-25.34,22.91-36.79,33.14-11.45,10.25-26.21,23.86-44.26,40.83-10.25,1.89-20.08,3.44-29.52,4.65-9.42,1.2-15.76,3.03-19,5.46-3.23,2.42-4.45,6.2-3.63,11.31.8,5.12,3.3,7.61,7.47,7.49,4.17-.14,12.46-1.02,24.87-2.64-8.09,12.13-20.62,25.87-37.6,41.24-16.98,15.36-27.82,27.09-32.55,35.17-2.83,4.85-5.3,9.56-7.39,14.12-9.79,1.65-29.27.92-39.09-5.23-10.78-6.74-14.62-14.28-11.52-22.64,3.1-8.35,3.3-17.38.61-27.08-2.69-9.71-10.11-15.77-22.23-18.19-11.6.26-19.88,1.62-24.87,4.04-4.99,2.43-7.96,6.88-8.9,13.34-.94,6.47,1.41,11.8,7.07,15.97,5.66,4.17,8.49,10.04,8.49,17.59s-3.65,13.81-10.92,18.8c-7.27,4.99-14.75,9.16-22.44,12.53s-14.35,6.94-20,10.71c-5.66,3.78-11.66,5.54-18,5.26-6.33-.28-11.65-3.65-15.96-10.11-4.32-6.47-1.96-13.14,7.07-20,9.02-6.88,17.45-11.19,25.27-12.94,7.81-1.74,13.94-3.16,18.39-4.24,4.45-1.08,7.82-3.23,10.11-6.47,2.29-3.23,2.83-7.49,1.62-12.74-1.22-5.26-3.77-9.7-7.68-13.34-3.91-3.63-10.51-4.04-19.81-1.21-9.3,2.83-18.47,7.28-27.49,13.34-9.03,6.06-18.47,13.61-28.3,22.64-7.36,6.76-12.35,13.1-14.95,19.03-8.54,4.07-20.19,9.23-25.68,11.29-7.54,2.83-16.3,5.39-26.28,7.68s-20.61,3.91-31.94,4.85c-11.31.94-15.97-3.04-13.94-11.92,2.02-8.9,4.31-16.31,6.87-22.24s8.56-16.16,17.99-30.72c9.43-14.56,20.15-29.78,32.15-45.68,11.99-15.9,23.58-29.44,34.77-40.63s22.3-21.02,33.35-29.51c11.05-8.49,21.56-15.57,31.54-21.23,9.96-5.65,19.67-11.04,29.11-16.16v-7.68c-.81-8.62-4.25-13.14-10.32-13.54-6.06-.41-13.07,1.34-21.01,5.25-7.96,3.91-16.04,8.29-24.26,13.14-8.22,4.85-18.4,11.73-30.53,20.62-12.13,8.88-26.95,20.41-44.47,34.56-17.52,14.15-31.87,25.87-43.05,35.17-11.19,9.3-24.46,19.53-39.83,30.72-15.36,11.18-33.09,24.25-53.16,39.21-20.08,14.96-26.41,16.04-19,3.23,7.41-12.79,14.41-24.79,21.01-35.97,6.6-11.19,13.14-22.57,19.62-34.16,6.47-11.59,13.94-24.66,22.43-39.22,8.48-14.55,18.72-29.3,30.72-44.26,11.99-14.96,23.78-29.78,35.37-44.47,11.59-14.69,20.35-25.27,26.29-31.73,5.93-6.47,8.76-12.4,8.48-17.79s-2.16-10.24-5.66-14.55c-3.5-4.31-9.02-8.36-16.57-12.13l-9.71,8.9c-17.78,17.52-35.64,33.35-53.56,47.5-17.93,14.15-40.36,32.41-67.32,54.78-26.95,22.38-51.82,45.75-74.58,70.15-22.78,24.38-47.03,46.82-72.76,67.31-25.75,20.49-50.27,36.25-73.58,47.3-23.32,11.05-42.99,18.8-59.03,23.25-16.04,4.45-27.82,5.93-35.38,4.45-7.54-1.49-12.06-5.8-13.54-12.94-1.49-7.14,1.22-14.96,8.08-23.44,6.88-8.49,10.31-15.1,10.31-19.81s-2.35-7.28-7.07-7.68c-4.71-.4-10.98,1.21-18.79,4.85-7.82,3.63-14.7,9.23-20.62,16.78-5.93,7.54-10.1,18.86-12.53,33.96.54,11.85,3.23,21.56,8.08,29.11,4.85,7.54,14.28,14.01,28.3,19.4l16.16.41c18.87-5.93,38.07-12.74,57.61-20.42,19.55-7.68,41.84-18.4,66.92-32.15,25.06-13.75,51.67-33.28,79.84-58.62,28.17-25.34,50.4-46.36,66.71-63.06,16.3-16.71,35.3-35.31,57-55.8,21.7-20.47,35.57-32.67,41.64-36.58,6.06-3.91,7-2.09,2.83,5.46-4.17,7.54-8.83,15.03-13.94,22.44-5.12,7.42-12.61,18.66-22.45,33.76-9.84,15.09-19.74,29.71-29.71,43.86-9.97,14.15-19.6,29.38-28.9,45.68-9.3,16.3-18.26,29.11-26.88,38.4-8.62,9.3-15.29,17.38-20.02,24.26-4.71,6.87-6.87,14.01-6.47,21.43.4,7.41,3.23,13,8.5,16.77,5.25,3.77,12.6,3.71,22.03-.19,9.42-3.91,21.43-12.06,35.97-24.46,14.56-12.39,29.31-23.31,44.27-32.74,14.95-9.43,27.96-18.19,39.01-26.29,11.04-8.08,23.04-16.44,35.97-25.06,12.93-8.62,11.92-4.99-3.03,10.91-14.96,15.9-26.96,28.98-35.99,39.22-9.03,10.24-16.11,22.23-21.22,35.97-5.12,13.75-6.01,23.04-2.64,27.9,3.37,4.85,9.78,8.36,19.21,10.5,23.44-1.34,41.9-3.16,55.38-5.46,13.47-2.28,27.15-5.51,41.03-9.7,12.24-3.68,32.12-11.14,43.12-14.89,1.1,2.75,2.43,5.42,3.98,8.02,5.39,9.02,14.56,15.69,27.49,20,14.02,0,26.48-2.02,37.4-6.06,10.91-4.04,22.03-9.5,33.35-16.37,11.33-6.87,19.81-12.46,25.47-16.77,5.66-4.32,15.09-2.9,28.3,4.24,13.19,7.14,37.26,8.05,46.69,6.7.28-.03.55-.08.81-.11-.01.17-.01.33-.01.49-.28.54-.4.94-.4,1.22,0,4.31,1.08,9.16,3.23,14.55,1.88,5.94,5.72,10.72,11.52,14.35,5.79,3.63,13.81,6,24.05,7.07,3.77.28,7.68.4,11.73.4,6.47,0,13.34-.54,20.61-1.62,11.33-1.62,21.5-4.17,30.53-7.68,9.02-3.5,17.05-7.27,24.05-11.32,5.7-3.29,19.03-12.44,28.58-19.79,1.26,3.69,2.92,7.26,4.98,10.7,5.39,9.02,14.55,15.69,27.49,20,14.01,0,26.48-2.02,37.4-6.06,10.91-4.04,22.03-9.5,33.35-16.37,11.32-6.87,19.81-12.46,25.47-16.77,5.65-4.32,15.09-2.9,28.29,4.24,13.21,7.14,24.52,10.04,33.96,8.69,7.96-1.13,20.11-11.98,25.58-16.32,0,0,.01,0,.01-.01.96-.76,1.72-1.32,2.2-1.58.36-.25.71-.52,1.07-.78,8.64-6.39,17.29-13.91,25.93-22.54,19.12-19.13,31.25-29.31,36.38-30.52,5.12-1.22,9.03-.34,11.73,2.63,2.69,2.96,1.41,7.28-3.84,12.93-5.25,5.66-11.52,10.04-18.8,13.14-7.28,3.11-14.15,7.21-20.61,12.34-6.47,5.12-11.33,10.51-14.56,16.16-3.23,5.66-4.24,11.46-3.03,17.39,1.22,5.93,4.31,10.91,9.3,14.96,4.98,4.04,10.44,6.53,16.37,7.47,5.93.94,14.55,1.41,25.87,1.41,16.98-2.14,33.15-6.47,48.52-12.93,7.54-3.18,15.6-6.68,24.19-10.5.54,1.08,1.1,2.14,1.68,3.22,6.19,11.33,12.12,18.12,17.78,20.42s13.47,3.57,23.44,3.84c14.96-.94,26.01-3.27,33.15-6.97,7.14-3.7,12.46-8.49,15.97-14.35s6.9-12.39,10.2-19.6c3.3-7.21,8.7-14.66,16.18-22.34,7.47-7.68,14.96-13.81,22.43-18.39,7.49-4.59,14.28-8.46,20.42-11.62s11.92-7.28,17.38-12.34c5.46-5.06,9-9.4,10.62-13.03,1.62-3.63,2.56-7.35,2.83-11.12-.68-8.62-2.43-14.11-5.26-16.47Zm-98.64,89.75c-6.6,8.15-13.1,14.28-19.5,18.39-6.41,4.12-13.45,6.78-21.13,7.99-7.68,1.22-12.93-2.09-15.76-9.9,9.3-2.97,18.49-6.34,27.58-10.11,9.1-3.77,21.6-11.45,37.5-23.04.81,2.97-2.09,8.53-8.69,16.68Z"/>
  </g>
  <text class="cls-1" transform="translate(1890.86 573.5)"><tspan x="0" y="0">Since. 1920</tspan></text>
</svg>